<svg width="80" height="80" viewBox="0 0 80 80" fill="none" xmlns="http://www.w3.org/2000/svg">
<rect width="80" height="80" rx="5" fill="#F3287A"/>
<path d="M32 45C38.675 45 52 48.325 52 55V60H12V55C12 48.325 25.325 45 32 45ZM54.5 35V27.5H59.5V35H67V40H59.5V47.5H54.5V40H47V35M32 40C29.3478 40 26.8043 38.9464 24.9289 37.0711C23.0536 35.1957 22 32.6522 22 30C22 27.3478 23.0536 24.8043 24.9289 22.9289C26.8043 21.0536 29.3478 20 32 20C34.6522 20 37.1957 21.0536 39.0711 22.9289C40.9464 24.8043 42 27.3478 42 30C42 32.6522 40.9464 35.1957 39.0711 37.0711C37.1957 38.9464 34.6522 40 32 40Z" fill="white"/>
</svg>
