<svg width="15" height="12" viewBox="0 0 15 12" fill="none" xmlns="http://www.w3.org/2000/svg">
<path d="M0 6.24121C0 3.47979 2.23858 1.24121 5 1.24121H10C12.7614 1.24121 15 3.47979 15 6.24121V6.99983C15 9.76125 12.7614 11.9998 10 11.9998H5C2.23858 11.9998 0 9.76126 0 6.99983V6.24121Z" fill="white"/>
<rect x="3.64868" width="7.2973" height="2.48276" rx="1.24138" fill="white"/>
<path d="M9.32432 6.41405C9.32432 7.67097 8.41679 8.68991 7.29729 8.68991C6.17779 8.68991 5.27026 7.67097 5.27026 6.41405C5.27026 5.15712 6.17779 4.13818 7.29729 4.13818C8.41679 4.13818 9.32432 5.15712 9.32432 6.41405Z" fill="#2C6BDB"/>
</svg>
