<svg width="80" height="80" viewBox="0 0 80 80" fill="none" xmlns="http://www.w3.org/2000/svg">
<rect width="80" height="80" rx="5" fill="#2C6BDB"/>
<mask id="path-2-inside-1_397_2354" fill="white">
<path d="M32 36C31.7348 36 31.4804 36.1054 31.2929 36.2929C31.1054 36.4804 31 36.7348 31 37C31 37.2652 31.1054 37.5196 31.2929 37.7071C31.4804 37.8946 31.7348 38 32 38H39C39.2652 38 39.5196 37.8946 39.7071 37.7071C39.8946 37.5196 40 37.2652 40 37C40 36.7348 39.8946 36.4804 39.7071 36.2929C39.5196 36.1054 39.2652 36 39 36H32ZM31 32C31 31.7348 31.1054 31.4804 31.2929 31.2929C31.4804 31.1054 31.7348 31 32 31H47.5C47.7652 31 48.0196 31.1054 48.2071 31.2929C48.3946 31.4804 48.5 31.7348 48.5 32C48.5 32.2652 48.3946 32.5196 48.2071 32.7071C48.0196 32.8946 47.7652 33 47.5 33H32C31.7348 33 31.4804 32.8946 31.2929 32.7071C31.1054 32.5196 31 32.2652 31 32Z"/>
</mask>
<path d="M32 36C31.7348 36 31.4804 36.1054 31.2929 36.2929C31.1054 36.4804 31 36.7348 31 37C31 37.2652 31.1054 37.5196 31.2929 37.7071C31.4804 37.8946 31.7348 38 32 38H39C39.2652 38 39.5196 37.8946 39.7071 37.7071C39.8946 37.5196 40 37.2652 40 37C40 36.7348 39.8946 36.4804 39.7071 36.2929C39.5196 36.1054 39.2652 36 39 36H32ZM31 32C31 31.7348 31.1054 31.4804 31.2929 31.2929C31.4804 31.1054 31.7348 31 32 31H47.5C47.7652 31 48.0196 31.1054 48.2071 31.2929C48.3946 31.4804 48.5 31.7348 48.5 32C48.5 32.2652 48.3946 32.5196 48.2071 32.7071C48.0196 32.8946 47.7652 33 47.5 33H32C31.7348 33 31.4804 32.8946 31.2929 32.7071C31.1054 32.5196 31 32.2652 31 32Z" fill="white"/>
<path d="M32 32C30.6739 32 29.4022 32.5268 28.4645 33.4645L34.1213 39.1213C33.5587 39.6839 32.7956 40 32 40V32ZM28.4645 33.4645C27.5268 34.4021 27 35.6739 27 37H35C35 37.7956 34.6839 38.5587 34.1213 39.1213L28.4645 33.4645ZM27 37C27 38.3261 27.5268 39.5979 28.4645 40.5355L34.1213 34.8787C34.6839 35.4413 35 36.2044 35 37H27ZM28.4645 40.5355C29.4022 41.4732 30.6739 42 32 42V34C32.7956 34 33.5587 34.3161 34.1213 34.8787L28.4645 40.5355ZM32 42H39V34H32V42ZM39 42C40.3261 42 41.5978 41.4732 42.5355 40.5355L36.8787 34.8787C37.4413 34.3161 38.2044 34 39 34V42ZM42.5355 40.5355C43.4732 39.5978 44 38.3261 44 37H36C36 36.2044 36.3161 35.4413 36.8787 34.8787L42.5355 40.5355ZM44 37C44 35.6739 43.4732 34.4022 42.5355 33.4645L36.8787 39.1213C36.3161 38.5587 36 37.7956 36 37H44ZM42.5355 33.4645C41.5978 32.5268 40.3261 32 39 32V40C38.2044 40 37.4413 39.6839 36.8787 39.1213L42.5355 33.4645ZM39 32H32V40H39V32ZM35 32C35 32.7957 34.6839 33.5587 34.1213 34.1213L28.4645 28.4645C27.5268 29.4021 27 30.6739 27 32H35ZM34.1213 34.1213C33.5587 34.6839 32.7957 35 32 35V27C30.6739 27 29.4021 27.5268 28.4645 28.4645L34.1213 34.1213ZM32 35H47.5V27H32V35ZM47.5 35C46.7044 35 45.9413 34.6839 45.3787 34.1213L51.0355 28.4645C50.0979 27.5268 48.8261 27 47.5 27V35ZM45.3787 34.1213C44.8161 33.5587 44.5 32.7956 44.5 32H52.5C52.5 30.6739 51.9732 29.4022 51.0355 28.4645L45.3787 34.1213ZM44.5 32C44.5 31.2044 44.8161 30.4413 45.3787 29.8787L51.0355 35.5355C51.9732 34.5978 52.5 33.3261 52.5 32H44.5ZM45.3787 29.8787C45.9413 29.3161 46.7044 29 47.5 29V37C48.8261 37 50.0978 36.4732 51.0355 35.5355L45.3787 29.8787ZM47.5 29H32V37H47.5V29ZM32 29C32.7956 29 33.5587 29.3161 34.1213 29.8787L28.4645 35.5355C29.4022 36.4732 30.6739 37 32 37V29ZM34.1213 29.8787C34.6839 30.4413 35 31.2044 35 32H27C27 33.3261 27.5268 34.5979 28.4645 35.5355L34.1213 29.8787Z" fill="white" mask="url(#path-2-inside-1_397_2354)"/>
<mask id="path-4-inside-2_397_2354" fill="white">
<path fill-rule="evenodd" clip-rule="evenodd" d="M31 44C31 43.7348 31.1054 43.4804 31.2929 43.2929C31.4804 43.1054 31.7348 43 32 43H36C36.2652 43 36.5196 43.1054 36.7071 43.2929C36.8946 43.4804 37 43.7348 37 44V48C37 48.2652 36.8946 48.5196 36.7071 48.7071C36.5196 48.8946 36.2652 49 36 49H32C31.7348 49 31.4804 48.8946 31.2929 48.7071C31.1054 48.5196 31 48.2652 31 48V44ZM33 47V45H35V47H33ZM44 47C44.7956 47 45.5587 46.6839 46.1213 46.1213C46.6839 45.5587 47 44.7956 47 44C47 43.2044 46.6839 42.4413 46.1213 41.8787C45.5587 41.3161 44.7956 41 44 41C43.2044 41 42.4413 41.3161 41.8787 41.8787C41.3161 42.4413 41 43.2044 41 44C41 44.7956 41.3161 45.5587 41.8787 46.1213C42.4413 46.6839 43.2044 47 44 47ZM44 45C44.1349 45.0062 44.2697 44.9849 44.3963 44.9376C44.5228 44.8902 44.6384 44.8177 44.7361 44.7245C44.8338 44.6312 44.9116 44.5191 44.9648 44.395C45.0181 44.2708 45.0456 44.1371 45.0457 44.002C45.0458 43.867 45.0186 43.7332 44.9656 43.609C44.9127 43.4847 44.8351 43.3725 44.7375 43.279C44.64 43.1855 44.5245 43.1128 44.3981 43.0652C44.2717 43.0176 44.137 42.9961 44.002 43.002C43.7448 43.0133 43.5018 43.1233 43.3237 43.3092C43.1455 43.4951 43.046 43.7426 43.0457 44C43.0454 44.2575 43.1445 44.5052 43.3223 44.6914C43.5 44.8777 43.7428 44.9882 44 45ZM38 51.182C38 49.066 41.997 48 44 48C46.003 48 50 49.066 50 51.182V55H38V51.182ZM40.055 51.222C40.0359 51.2402 40.0175 51.2592 40 51.279V53H48V51.28C47.9825 51.2595 47.9642 51.2399 47.945 51.221C47.781 51.061 47.465 50.849 46.969 50.638C45.969 50.213 44.735 50 44 50C43.265 50 42.031 50.213 41.031 50.638C40.535 50.848 40.219 51.062 40.055 51.222Z"/>
</mask>
<path fill-rule="evenodd" clip-rule="evenodd" d="M31 44C31 43.7348 31.1054 43.4804 31.2929 43.2929C31.4804 43.1054 31.7348 43 32 43H36C36.2652 43 36.5196 43.1054 36.7071 43.2929C36.8946 43.4804 37 43.7348 37 44V48C37 48.2652 36.8946 48.5196 36.7071 48.7071C36.5196 48.8946 36.2652 49 36 49H32C31.7348 49 31.4804 48.8946 31.2929 48.7071C31.1054 48.5196 31 48.2652 31 48V44ZM33 47V45H35V47H33ZM44 47C44.7956 47 45.5587 46.6839 46.1213 46.1213C46.6839 45.5587 47 44.7956 47 44C47 43.2044 46.6839 42.4413 46.1213 41.8787C45.5587 41.3161 44.7956 41 44 41C43.2044 41 42.4413 41.3161 41.8787 41.8787C41.3161 42.4413 41 43.2044 41 44C41 44.7956 41.3161 45.5587 41.8787 46.1213C42.4413 46.6839 43.2044 47 44 47ZM44 45C44.1349 45.0062 44.2697 44.9849 44.3963 44.9376C44.5228 44.8902 44.6384 44.8177 44.7361 44.7245C44.8338 44.6312 44.9116 44.5191 44.9648 44.395C45.0181 44.2708 45.0456 44.1371 45.0457 44.002C45.0458 43.867 45.0186 43.7332 44.9656 43.609C44.9127 43.4847 44.8351 43.3725 44.7375 43.279C44.64 43.1855 44.5245 43.1128 44.3981 43.0652C44.2717 43.0176 44.137 42.9961 44.002 43.002C43.7448 43.0133 43.5018 43.1233 43.3237 43.3092C43.1455 43.4951 43.046 43.7426 43.0457 44C43.0454 44.2575 43.1445 44.5052 43.3223 44.6914C43.5 44.8777 43.7428 44.9882 44 45ZM38 51.182C38 49.066 41.997 48 44 48C46.003 48 50 49.066 50 51.182V55H38V51.182ZM40.055 51.222C40.0359 51.2402 40.0175 51.2592 40 51.279V53H48V51.28C47.9825 51.2595 47.9642 51.2399 47.945 51.221C47.781 51.061 47.465 50.849 46.969 50.638C45.969 50.213 44.735 50 44 50C43.265 50 42.031 50.213 41.031 50.638C40.535 50.848 40.219 51.062 40.055 51.222Z" fill="white"/>
<path d="M33 47H30V50H33V47ZM33 45V42H30V45H33ZM35 45H38V42H35V45ZM35 47V50H38V47H35ZM44 47L44 50L44 47ZM41 44L38 44L41 44ZM44 45L44.1371 42.0031L44 45ZM44.002 43.002L44.1331 45.9991L44.002 43.002ZM50 55V58H53V55H50ZM38 55H35V58H38V55ZM40.055 51.222L42.1229 53.3954L42.1365 53.3825L42.15 53.3693L40.055 51.222ZM40 51.279L37.7541 49.29L37 50.1416V51.279H40ZM40 53H37V56H40V53ZM48 53V56H51V53H48ZM48 51.28H51V50.1733L50.2813 49.3318L48 51.28ZM47.945 51.221L50.0483 49.0818L50.04 49.0737L47.945 51.221ZM46.969 50.638L48.1434 47.8774L48.1424 47.877L46.969 50.638ZM41.031 50.638L42.2006 53.4006L42.2044 53.399L41.031 50.638ZM34 44C34 44.5304 33.7893 45.0391 33.4142 45.4142L29.1716 41.1716C28.4214 41.9217 28 42.9391 28 44H34ZM33.4142 45.4142C33.0391 45.7893 32.5304 46 32 46V40C30.9391 40 29.9217 40.4214 29.1716 41.1716L33.4142 45.4142ZM32 46H36V40H32V46ZM36 46C35.4696 46 34.9609 45.7893 34.5858 45.4142L38.8284 41.1716C38.0783 40.4214 37.0609 40 36 40V46ZM34.5858 45.4142C34.2107 45.0391 34 44.5304 34 44H40C40 42.9391 39.5786 41.9217 38.8284 41.1716L34.5858 45.4142ZM34 44V48H40V44H34ZM34 48C34 47.4696 34.2107 46.9609 34.5858 46.5858L38.8284 50.8284C39.5786 50.0783 40 49.0609 40 48H34ZM34.5858 46.5858C34.9609 46.2107 35.4696 46 36 46V52C37.0609 52 38.0783 51.5786 38.8284 50.8284L34.5858 46.5858ZM36 46H32V52H36V46ZM32 46C32.5304 46 33.0391 46.2107 33.4142 46.5858L29.1716 50.8284C29.9217 51.5786 30.9391 52 32 52V46ZM33.4142 46.5858C33.7893 46.9609 34 47.4696 34 48H28C28 49.0609 28.4214 50.0783 29.1716 50.8284L33.4142 46.5858ZM34 48V44H28V48H34ZM36 47V45H30V47H36ZM33 48H35V42H33V48ZM32 45V47H38V45H32ZM35 44H33V50H35V44ZM44 50C45.5913 50 47.1174 49.3679 48.2426 48.2426L44 44L44 44L44 50ZM48.2426 48.2426C49.3679 47.1174 50 45.5913 50 44H44L44 44L48.2426 48.2426ZM50 44C50 42.4087 49.3679 40.8826 48.2426 39.7574L44 44L44 44H50ZM48.2426 39.7574C47.1174 38.6321 45.5913 38 44 38V44L44 44L48.2426 39.7574ZM44 38C42.4087 38 40.8826 38.6321 39.7574 39.7574L44 44L44 44V38ZM39.7574 39.7574C38.6321 40.8826 38 42.4087 38 44L44 44L44 44L39.7574 39.7574ZM38 44C38 45.5913 38.6321 47.1174 39.7574 48.2426L44 44L44 44L38 44ZM39.7574 48.2426C40.8826 49.3679 42.4087 50 44 50L44 44L44 44L39.7574 48.2426ZM43.8629 47.9969C44.4027 48.0216 44.9419 47.9366 45.4479 47.7472L43.3446 42.128C43.5976 42.0332 43.8672 41.9908 44.1371 42.0031L43.8629 47.9969ZM45.4479 47.7472C45.954 47.5578 46.4164 47.2678 46.8073 46.8948L42.6649 42.5542C42.8603 42.3677 43.0916 42.2227 43.3446 42.128L45.4479 47.7472ZM46.8073 46.8948C47.1982 46.5217 47.5095 46.0733 47.7223 45.5767L42.2074 43.2132C42.3138 42.9649 42.4695 42.7407 42.6649 42.5542L46.8073 46.8948ZM47.7223 45.5767C47.9351 45.08 48.0452 44.5454 48.0457 44.005L42.0457 43.999C42.046 43.7289 42.101 43.4616 42.2074 43.2132L47.7223 45.5767ZM48.0457 44.005C48.0462 43.4647 47.9373 42.9299 47.7254 42.4328L42.2058 44.7852C42.0999 44.5366 42.0454 44.2692 42.0457 43.999L48.0457 44.005ZM47.7254 42.4328C47.5136 41.9357 47.2032 41.4867 46.8131 41.1129L42.662 45.4451C42.4669 45.2582 42.3117 45.0337 42.2058 44.7852L47.7254 42.4328ZM46.8131 41.1129C46.4229 40.739 45.9611 40.4481 45.4554 40.2577L43.3408 45.8727C43.088 45.7775 42.8571 45.6321 42.662 45.4451L46.8131 41.1129ZM45.4554 40.2577C44.9497 40.0673 44.4107 39.9813 43.8709 40.0049L44.1331 45.9991C43.8632 46.0109 43.5937 45.9679 43.3408 45.8727L45.4554 40.2577ZM43.8709 40.0049C42.842 40.0499 41.8701 40.49 41.1575 41.2337L45.4898 45.3847C45.1335 45.7566 44.6475 45.9766 44.1331 45.9991L43.8709 40.0049ZM41.1575 41.2337C40.445 41.9773 40.0467 42.9671 40.0457 43.997L46.0457 44.003C46.0452 44.518 45.8461 45.0129 45.4898 45.3847L41.1575 41.2337ZM40.0457 43.997C40.0447 45.0269 40.4409 46.0176 41.152 46.7626L45.4926 42.6202C45.8481 42.9928 46.0462 43.4881 46.0457 44.003L40.0457 43.997ZM41.152 46.7626C41.863 47.5077 42.8341 47.9498 43.8629 47.9969L44.1371 42.0031C44.6515 42.0267 45.137 42.2477 45.4926 42.6202L41.152 46.7626ZM41 51.182C41 51.6884 40.7379 51.9521 40.7545 51.9358C40.797 51.8943 40.9909 51.7418 41.4221 51.5586C42.297 51.1868 43.3976 51 44 51V45C42.5994 45 40.7 45.3462 39.0756 46.0364C38.2572 46.3842 37.3267 46.895 36.5571 47.6484C35.7617 48.4272 35 49.6176 35 51.182H41ZM44 51C44.6024 51 45.703 51.1868 46.5779 51.5586C47.0091 51.7418 47.203 51.8943 47.2455 51.9358C47.2621 51.9521 47 51.6884 47 51.182H53C53 49.6176 52.2383 48.4272 51.4429 47.6484C50.6733 46.895 49.7428 46.3842 48.9244 46.0364C47.3 45.3462 45.4006 45 44 45V51ZM47 51.182V55H53V51.182H47ZM50 52H38V58H50V52ZM41 55V51.182H35V55H41ZM37.9871 49.0486C37.9061 49.1257 37.8283 49.2062 37.7541 49.29L42.2459 53.268C42.2067 53.3122 42.1656 53.3548 42.1229 53.3954L37.9871 49.0486ZM37 51.279V53H43V51.279H37ZM40 56H48V50H40V56ZM51 53V51.28H45V53H51ZM50.2813 49.3318C50.2072 49.245 50.1295 49.1617 50.0483 49.0818L45.8417 53.3602C45.7989 53.3181 45.7578 53.2741 45.7187 53.2282L50.2813 49.3318ZM50.04 49.0737C49.5149 48.5614 48.8338 48.1711 48.1434 47.8774L45.7946 53.3986C45.858 53.4255 45.9072 53.449 45.9435 53.4675C45.98 53.4861 46.0013 53.4987 46.0093 53.5037C46.0178 53.5089 46.0083 53.5036 45.9844 53.4855C45.9721 53.4763 45.9546 53.4625 45.9327 53.4439C45.911 53.4255 45.8829 53.4004 45.85 53.3683L50.04 49.0737ZM48.1424 47.877C46.767 47.2924 45.1335 47 44 47V53C44.1186 53 44.4057 53.0222 44.7898 53.1C45.1645 53.1758 45.5217 53.2826 45.7956 53.399L48.1424 47.877ZM44 47C42.8665 47 41.233 47.2924 39.8576 47.877L42.2044 53.399C42.4783 53.2826 42.8355 53.1758 43.2102 53.1C43.5943 53.0222 43.8814 53 44 53V47ZM39.8614 47.8754C39.1579 48.1732 38.4803 48.567 37.96 49.0747L42.15 53.3693C42.1182 53.4003 42.091 53.4246 42.07 53.4425C42.0489 53.4605 42.0319 53.4739 42.02 53.483C41.9966 53.5006 41.9872 53.506 41.995 53.5011C42.0023 53.4966 42.0226 53.4846 42.0575 53.4667C42.0922 53.449 42.1396 53.4265 42.2006 53.4006L39.8614 47.8754Z" fill="white" mask="url(#path-4-inside-2_397_2354)"/>
<mask id="path-6-inside-3_397_2354" fill="white">
<path fill-rule="evenodd" clip-rule="evenodd" d="M33 23C33 22.2044 33.3161 21.4413 33.8787 20.8787C34.4413 20.3161 35.2044 20 36 20H44C44.7956 20 45.5587 20.3161 46.1213 20.8787C46.6839 21.4413 47 22.2044 47 23H51C51.7956 23 52.5587 23.3161 53.1213 23.8787C53.6839 24.4413 54 25.2044 54 26V57C54 57.7956 53.6839 58.5587 53.1213 59.1213C52.5587 59.6839 51.7956 60 51 60H29C28.2044 60 27.4413 59.6839 26.8787 59.1213C26.3161 58.5587 26 57.7956 26 57V26C26 25.2044 26.3161 24.4413 26.8787 23.8787C27.4413 23.3161 28.2044 23 29 23H33ZM44 28C44.7956 28 45.5587 27.6839 46.1213 27.1213C46.6839 26.5587 47 25.7956 47 25H51C51.2652 25 51.5196 25.1054 51.7071 25.2929C51.8946 25.4804 52 25.7348 52 26V57C52 57.2652 51.8946 57.5196 51.7071 57.7071C51.5196 57.8946 51.2652 58 51 58H29C28.7348 58 28.4804 57.8946 28.2929 57.7071C28.1054 57.5196 28 57.2652 28 57V26C28 25.7348 28.1054 25.4804 28.2929 25.2929C28.4804 25.1054 28.7348 25 29 25H33C33 25.7956 33.3161 26.5587 33.8787 27.1213C34.4413 27.6839 35.2044 28 36 28H44ZM36 22C35.7348 22 35.4804 22.1054 35.2929 22.2929C35.1054 22.4804 35 22.7348 35 23V25C35 25.2652 35.1054 25.5196 35.2929 25.7071C35.4804 25.8946 35.7348 26 36 26H44C44.2652 26 44.5196 25.8946 44.7071 25.7071C44.8946 25.5196 45 25.2652 45 25V23C45 22.7348 44.8946 22.4804 44.7071 22.2929C44.5196 22.1054 44.2652 22 44 22H36Z"/>
</mask>
<path fill-rule="evenodd" clip-rule="evenodd" d="M33 23C33 22.2044 33.3161 21.4413 33.8787 20.8787C34.4413 20.3161 35.2044 20 36 20H44C44.7956 20 45.5587 20.3161 46.1213 20.8787C46.6839 21.4413 47 22.2044 47 23H51C51.7956 23 52.5587 23.3161 53.1213 23.8787C53.6839 24.4413 54 25.2044 54 26V57C54 57.7956 53.6839 58.5587 53.1213 59.1213C52.5587 59.6839 51.7956 60 51 60H29C28.2044 60 27.4413 59.6839 26.8787 59.1213C26.3161 58.5587 26 57.7956 26 57V26C26 25.2044 26.3161 24.4413 26.8787 23.8787C27.4413 23.3161 28.2044 23 29 23H33ZM44 28C44.7956 28 45.5587 27.6839 46.1213 27.1213C46.6839 26.5587 47 25.7956 47 25H51C51.2652 25 51.5196 25.1054 51.7071 25.2929C51.8946 25.4804 52 25.7348 52 26V57C52 57.2652 51.8946 57.5196 51.7071 57.7071C51.5196 57.8946 51.2652 58 51 58H29C28.7348 58 28.4804 57.8946 28.2929 57.7071C28.1054 57.5196 28 57.2652 28 57V26C28 25.7348 28.1054 25.4804 28.2929 25.2929C28.4804 25.1054 28.7348 25 29 25H33C33 25.7956 33.3161 26.5587 33.8787 27.1213C34.4413 27.6839 35.2044 28 36 28H44ZM36 22C35.7348 22 35.4804 22.1054 35.2929 22.2929C35.1054 22.4804 35 22.7348 35 23V25C35 25.2652 35.1054 25.5196 35.2929 25.7071C35.4804 25.8946 35.7348 26 36 26H44C44.2652 26 44.5196 25.8946 44.7071 25.7071C44.8946 25.5196 45 25.2652 45 25V23C45 22.7348 44.8946 22.4804 44.7071 22.2929C44.5196 22.1054 44.2652 22 44 22H36Z" fill="white"/>
<path d="M33 23V26H36V23H33ZM47 23H44V26H47V23ZM29 23L29 20L29 23ZM47 25V22H44V25H47ZM33 25L36 25L36 22H33V25ZM36 23L36 23L31.7574 18.7574C30.6321 19.8826 30 21.4087 30 23H36ZM36 23L36 23V17C34.4087 17 32.8826 17.6321 31.7574 18.7574L36 23ZM36 23H44V17H36V23ZM44 23L44 23L48.2426 18.7574C47.1174 17.6321 45.5913 17 44 17V23ZM44 23L44 23H50C50 21.4087 49.3679 19.8826 48.2426 18.7574L44 23ZM47 26H51V20H47V26ZM51 26L51 26L55.2426 21.7574C54.1174 20.6321 52.5913 20 51 20V26ZM51 26L51 26H57C57 24.4087 56.3679 22.8826 55.2426 21.7574L51 26ZM51 26V57H57V26H51ZM51 57L51 57L55.2426 61.2426C56.3679 60.1174 57 58.5913 57 57H51ZM51 57L51 57V63C52.5913 63 54.1174 62.3679 55.2426 61.2426L51 57ZM51 57H29V63H51V57ZM29 57L29 57L24.7574 61.2426C25.8826 62.3679 27.4087 63 29 63V57ZM29 57L29 57H23C23 58.5913 23.6321 60.1174 24.7574 61.2426L29 57ZM29 57V26H23V57H29ZM29 26L29 26L24.7574 21.7574C23.6321 22.8826 23 24.4087 23 26H29ZM29 26L29 26L29 20C27.4087 20 25.8826 20.6321 24.7574 21.7574L29 26ZM29 26H33V20H29V26ZM44 31C45.5913 31 47.1174 30.3679 48.2426 29.2426L44 25L44 25V31ZM48.2426 29.2426C49.3679 28.1174 50 26.5913 50 25H44L44 25L48.2426 29.2426ZM47 28H51V22H47V28ZM51 28C50.4696 28 49.9609 27.7893 49.5858 27.4142L53.8284 23.1716C53.0783 22.4214 52.0609 22 51 22V28ZM49.5858 27.4142C49.2107 27.0391 49 26.5304 49 26H55C55 24.9391 54.5786 23.9217 53.8284 23.1716L49.5858 27.4142ZM49 26V57H55V26H49ZM49 57C49 56.4696 49.2107 55.9609 49.5858 55.5858L53.8284 59.8284C54.5786 59.0783 55 58.0609 55 57H49ZM49.5858 55.5858C49.9609 55.2107 50.4696 55 51 55V61C52.0609 61 53.0783 60.5786 53.8284 59.8284L49.5858 55.5858ZM51 55H29V61H51V55ZM29 55C29.5304 55 30.0391 55.2107 30.4142 55.5858L26.1716 59.8284C26.9217 60.5786 27.9391 61 29 61V55ZM30.4142 55.5858C30.7893 55.9609 31 56.4696 31 57H25C25 58.0609 25.4214 59.0783 26.1716 59.8284L30.4142 55.5858ZM31 57V26H25V57H31ZM31 26C31 26.5304 30.7893 27.0391 30.4142 27.4142L26.1716 23.1716C25.4214 23.9217 25 24.9391 25 26H31ZM30.4142 27.4142C30.0391 27.7893 29.5304 28 29 28V22C27.9391 22 26.9217 22.4214 26.1716 23.1716L30.4142 27.4142ZM29 28H33V22H29V28ZM30 25C30 26.5913 30.6321 28.1174 31.7574 29.2426L36 25L36 25L30 25ZM31.7574 29.2426C32.8826 30.3679 34.4087 31 36 31V25L36 25L31.7574 29.2426ZM36 31H44V25H36V31ZM36 19C34.9391 19 33.9217 19.4214 33.1716 20.1716L37.4142 24.4142C37.0391 24.7893 36.5304 25 36 25V19ZM33.1716 20.1716C32.4214 20.9217 32 21.9391 32 23H38C38 23.5304 37.7893 24.0391 37.4142 24.4142L33.1716 20.1716ZM32 23V25H38V23H32ZM32 25C32 26.0609 32.4214 27.0783 33.1716 27.8284L37.4142 23.5858C37.7893 23.9609 38 24.4696 38 25H32ZM33.1716 27.8284C33.9217 28.5786 34.9391 29 36 29V23C36.5304 23 37.0391 23.2107 37.4142 23.5858L33.1716 27.8284ZM36 29H44V23H36V29ZM44 29C45.0609 29 46.0783 28.5786 46.8284 27.8284L42.5858 23.5858C42.9609 23.2107 43.4696 23 44 23V29ZM46.8284 27.8284C47.5786 27.0783 48 26.0609 48 25H42C42 24.4696 42.2107 23.9609 42.5858 23.5858L46.8284 27.8284ZM48 25V23H42V25H48ZM48 23C48 21.9391 47.5786 20.9217 46.8284 20.1716L42.5858 24.4142C42.2107 24.0391 42 23.5304 42 23H48ZM46.8284 20.1716C46.0783 19.4214 45.0609 19 44 19V25C43.4696 25 42.9609 24.7893 42.5858 24.4142L46.8284 20.1716ZM44 19H36V25H44V19Z" fill="white" mask="url(#path-6-inside-3_397_2354)"/>
</svg>
