<svg width="122" height="114" viewBox="0 0 122 114" fill="none" xmlns="http://www.w3.org/2000/svg">
<rect width="122" height="114" fill="url(#paint0_linear_603_2338)"/>
<path d="M77.2873 52.4907C78.9373 52.0338 80.6711 53.0025 80.8677 54.7032C81.2821 58.2876 80.7208 61.9383 79.2148 65.2595C77.2796 69.5274 73.9071 72.9802 69.686 75.0154C65.4648 77.0506 60.6631 77.5389 56.1186 76.3952C51.5742 75.2514 47.5757 72.5482 44.8209 68.7573C42.066 64.9665 40.7298 60.3286 41.0454 55.6531C41.361 50.9776 43.3084 46.5613 46.5476 43.175C49.7869 39.7888 54.1125 37.6474 58.7694 37.1248C62.3933 36.7181 66.0389 37.3117 69.3201 38.8127C70.877 39.525 71.2629 41.4732 70.3188 42.9014V42.9014C69.3748 44.3297 67.4565 44.6839 65.8538 44.0817C63.8288 43.321 61.6392 43.0416 59.4609 43.2861C56.2476 43.6467 53.263 45.1242 51.0279 47.4608C48.7928 49.7973 47.4491 52.8445 47.2313 56.0706C47.0136 59.2967 47.9356 62.4969 49.8364 65.1126C51.7372 67.7283 54.4962 69.5935 57.6319 70.3827C60.7675 71.1718 64.0807 70.8349 66.9933 69.4306C69.9059 68.0263 72.2329 65.6439 73.5682 62.6991C74.4735 60.7027 74.884 58.5338 74.7858 56.373C74.708 54.6626 75.6373 52.9475 77.2873 52.4907V52.4907Z" fill="white"/>
<path d="M85.4558 31.5442C87.0179 29.9821 87.0294 27.4316 85.3192 26.0332C80.6346 22.203 75.1274 19.474 69.2049 18.0735C61.9808 16.3653 54.4238 16.701 47.3797 19.0431C40.3355 21.3852 34.0821 25.6413 29.3191 31.3352C24.5561 37.0291 21.4716 43.936 20.4106 51.2831C19.3497 58.6302 20.3542 66.1276 23.3117 72.9364C26.2692 79.7451 31.0631 85.5965 37.1569 89.8358C43.2506 94.0751 50.4039 96.535 57.8161 96.9403C63.8929 97.2726 69.9472 96.2132 75.524 93.8647C77.56 93.0073 78.2705 90.5578 77.2142 88.6176C76.1578 86.6774 73.7349 85.9868 71.6781 86.793C67.4238 88.4606 62.8464 89.2034 58.2529 88.9523C52.3231 88.628 46.6005 86.6601 41.7255 83.2687C36.8505 79.8772 33.0154 75.1961 30.6494 69.7491C28.2833 64.3021 27.4797 58.3042 28.3285 52.4265C29.1773 46.5488 31.6449 41.0232 35.4553 36.4682C39.2656 31.9131 44.2684 28.5082 49.9037 26.6345C55.5391 24.7608 61.5846 24.4922 67.3639 25.8588C71.8408 26.9175 76.021 28.925 79.6297 31.728C81.3744 33.0831 83.8937 33.1062 85.4558 31.5442Z" fill="#498BCF"/>
<path d="M82.2822 86.2832C83.5161 87.9809 85.9067 88.3698 87.4797 86.9805C93.9792 81.2402 98.4652 73.515 100.202 64.9493C101.939 56.3836 100.817 47.5212 97.0666 39.7025C96.159 37.8102 93.8058 37.2371 92.0081 38.3201V38.3201C90.2104 39.403 89.6537 41.7314 90.5189 43.6434C93.3112 49.8142 94.1124 56.7386 92.7537 63.4389C91.3951 70.1393 87.9598 76.2047 82.9843 80.8003C81.4427 82.2243 81.0484 84.5855 82.2822 86.2832V86.2832Z" fill="white"/>
<rect x="67.9463" y="72.6434" width="6.41446" height="30.535" rx="3.20723" transform="rotate(-45 67.9463 72.6434)" fill="white"/>
<path d="M56 52.5L64.7328 59.0496C65.4753 59.6064 66.5033 59.5793 67.2154 58.9841L99.5 32" stroke="white" stroke-width="7" stroke-linecap="round"/>
<defs>
<linearGradient id="paint0_linear_603_2338" x1="-5" y1="-4.5542e-06" x2="133.5" y2="118" gradientUnits="userSpaceOnUse">
<stop stop-color="#27C8C0" stop-opacity="0"/>
<stop stop-color="#0948C0"/>
<stop offset="0.197879" stop-color="#126CC0" stop-opacity="0.72"/>
<stop offset="0.65566" stop-color="#1EA3C0" stop-opacity="0.59"/>
</linearGradient>
</defs>
</svg>
