<svg width="80" height="80" viewBox="0 0 80 80" fill="none" xmlns="http://www.w3.org/2000/svg">
<rect width="80" height="80" rx="5" fill="#FEC200"/>
<path d="M39.1765 52.9412H22.7059C21.4578 52.9412 20.2608 52.4454 19.3783 51.5629C18.4958 50.6803 18 49.4834 18 48.2353V24.7059C18 23.4578 18.4958 22.2608 19.3783 21.3783C20.2608 20.4958 21.4578 20 22.7059 20H55.6471C56.8951 20 58.0921 20.4958 58.9746 21.3783C59.8571 22.2608 60.3529 23.4578 60.3529 24.7059V35.2941M55.6471 50.5882V50.6118M60.6376 55.5788C61.6251 54.5917 62.2976 53.334 62.5701 51.9646C62.8426 50.5953 62.703 49.1759 62.1688 47.8859C61.6346 46.596 60.7298 45.4934 59.569 44.7177C58.4081 43.942 57.0433 43.5279 55.6471 43.5279C54.2509 43.5279 52.886 43.942 51.7252 44.7177C50.5643 45.4934 49.6596 46.596 49.1254 47.8859C48.5912 49.1759 48.4515 50.5953 48.724 51.9646C48.9966 53.334 49.6691 54.5917 50.6565 55.5788C51.64 56.5647 53.3035 58.0376 55.6471 60C58.12 57.9059 59.7859 56.4329 60.6376 55.5788Z" stroke="white" stroke-width="3" stroke-linecap="round" stroke-linejoin="round"/>
<path d="M18 24.7058L39.1765 38.8235L60.3529 24.7058" stroke="white" stroke-width="3" stroke-linecap="round" stroke-linejoin="round"/>
</svg>
