<svg width="550" height="500" viewBox="0 0 550 500" fill="none" xmlns="http://www.w3.org/2000/svg">
<path d="M80.5042 457.941C187.837 514.02 361.882 514.02 469.215 457.941C576.547 401.862 576.56 310.946 469.215 254.867C361.869 198.788 187.837 198.788 80.5042 254.867C-26.8284 310.946 -26.8411 401.862 80.5042 457.941Z" fill="#55C2F8" fill-opacity="0.34"/>
<path d="M358.742 443.758C391.11 443.758 417.349 431.253 417.349 415.827C417.349 400.401 391.11 387.896 358.742 387.896C326.375 387.896 300.136 400.401 300.136 415.827C300.136 431.253 326.375 443.758 358.742 443.758Z" fill="#66BCE8" fill-opacity="0.42"/>
<path d="M462.565 380.058C487.537 380.058 507.781 370.41 507.781 358.51C507.781 346.609 487.537 336.961 462.565 336.961C437.593 336.961 417.35 346.609 417.35 358.51C417.35 370.41 437.593 380.058 462.565 380.058Z" fill="#66BCE8" fill-opacity="0.42"/>
<path d="M140.298 352.472C137.745 338.992 128.4 319.78 117.001 309.069C106.035 298.78 89.7591 295.193 83.2742 299.942C76.7893 304.691 81.0402 314.954 93.627 327.464C107.835 341.57 135.115 380.709 140.298 402.883V352.472Z" fill="#437BFA"/>
<g opacity="0.2">
<path d="M140.298 352.472C137.745 338.992 128.4 319.78 117.001 309.069C106.035 298.78 89.7591 295.193 83.2742 299.942C76.7893 304.691 81.0402 314.954 93.627 327.464C107.835 341.57 135.115 380.709 140.298 402.883V352.472Z" fill="black"/>
</g>
<path d="M140.298 384.909C140.138 384.906 139.985 384.845 139.867 384.737C139.749 384.629 139.675 384.481 139.66 384.322C136.443 350.365 112.699 312.196 89.8742 304.243C89.7148 304.186 89.5843 304.068 89.5104 303.915C89.4365 303.763 89.4251 303.587 89.4784 303.426C89.5363 303.267 89.654 303.137 89.8066 303.063C89.9592 302.989 90.1345 302.977 90.2954 303.031C113.963 311.264 137.643 349.204 140.962 384.207C140.976 384.375 140.924 384.543 140.817 384.674C140.71 384.805 140.556 384.89 140.387 384.909H140.298Z" fill="white"/>
<path d="M140.298 419.184C140.298 419.184 135.882 422.708 121.15 421.329C106.419 419.95 98.8232 409.419 98.8232 404.9C98.8232 400.381 112.367 399.602 115.304 388.394C112.317 391.595 108.344 393.703 104.019 394.381C96.3595 395.823 90.2065 393.373 88.4576 379.42C92.2327 379.972 96.0839 379.653 99.7168 378.488C105.78 376.535 107.223 373.203 105.64 372.488C104.057 371.773 95.6063 372.488 90.1937 370.433C84.7812 368.378 88.9172 340.191 92.466 338.187C96.0148 336.183 112.801 340.906 116.069 343.434C118.98 345.68 123.065 349.574 121.176 357.808C123.414 355.716 125.158 353.152 126.282 350.302C127.865 346.472 129.014 347.366 131.388 348.834C132.814 349.637 134.051 350.737 135.018 352.058C135.984 353.378 136.658 354.891 136.992 356.493C137.567 360.067 136.635 372.399 131.605 376.407C131.605 376.407 136.43 377.02 140.375 368.875C140.375 368.875 148.034 371.965 149.77 376.969C151.507 381.973 153.396 406.47 140.298 419.184Z" fill="#437BFA"/>
<path d="M141.6 421.967C141.444 421.966 141.294 421.908 141.176 421.805C141.059 421.702 140.983 421.56 140.962 421.406C137.592 393.819 116.618 357.578 96.0526 343.97C95.9104 343.875 95.8117 343.728 95.7781 343.56C95.7446 343.392 95.7791 343.218 95.8738 343.076C95.9686 342.934 96.1161 342.835 96.2836 342.802C96.4512 342.768 96.6252 342.803 96.7674 342.898C117.588 356.748 138.894 393.36 142.225 421.252C142.247 421.42 142.202 421.589 142.099 421.723C141.996 421.857 141.844 421.945 141.677 421.967H141.6Z" fill="white"/>
<path d="M142.888 425.823C142.126 425.295 141.499 424.597 141.055 423.783C140.612 422.97 140.365 422.064 140.335 421.138V116.156C140.387 115.197 140.665 114.263 141.147 113.431C141.628 112.599 142.299 111.893 143.105 111.369L334.588 0.794338C335.388 0.292331 336.31 0.0179977 337.255 0.000855704C338.199 -0.0162863 339.131 0.224408 339.948 0.697047C340.766 1.16969 341.44 1.85638 341.897 2.68327C342.354 3.51015 342.576 4.44592 342.541 5.38993L148.25 425.721C147.427 426.158 146.513 426.395 145.581 426.413C144.649 426.431 143.727 426.229 142.888 425.823Z" fill="#E0E0E0"/>
<path d="M145.481 121.952L223.261 71.0558L218.078 68.0559L143.068 111.369C142.262 111.893 141.591 112.599 141.109 113.431C140.628 114.263 140.35 115.197 140.298 116.156V118.952L145.481 121.952Z" fill="#37474F"/>
<path opacity="0.2" d="M145.481 121.952L223.261 71.0558L218.078 68.0559L143.068 111.369C142.262 111.893 141.591 112.599 141.109 113.431C140.628 114.263 140.35 115.197 140.298 116.156V118.952L145.481 121.952Z" fill="#37474F"/>
<path d="M171.458 130.926L141.101 113.463C140.607 114.286 140.33 115.222 140.297 116.182V421.112C140.264 422.055 140.489 422.989 140.946 423.814C141.404 424.639 142.078 425.324 142.895 425.795C143.713 426.266 144.643 426.506 145.587 426.488C146.53 426.47 147.451 426.196 148.25 425.695L171.458 412.355V130.926Z" fill="#263238"/>
<path opacity="0.4" d="M171.458 130.926L141.101 113.463C140.607 114.286 140.33 115.222 140.297 116.182V421.112C140.264 422.055 140.489 422.989 140.946 423.814C141.404 424.639 142.078 425.324 142.895 425.795C143.713 426.266 144.643 426.506 145.587 426.488C146.53 426.47 147.451 426.196 148.25 425.695L171.458 412.355V130.926Z" fill="#263238"/>
<path d="M148.251 425.72L339.734 315.145C340.54 314.622 341.211 313.916 341.692 313.084C342.174 312.252 342.452 311.318 342.504 310.358V5.38979C342.504 3.62815 341.227 2.91328 339.734 3.7941L148.251 114.369C147.444 114.893 146.773 115.599 146.292 116.431C145.811 117.263 145.533 118.196 145.48 119.156V424.125C145.48 425.886 146.719 426.601 148.251 425.72Z" fill="#455A64"/>
<path opacity="0.1" d="M148.251 425.72L339.734 315.145C340.54 314.622 341.211 313.916 341.692 313.084C342.174 312.252 342.452 311.318 342.504 310.358V5.38979C342.504 3.62815 341.227 2.91328 339.734 3.7941L148.251 114.369C147.444 114.893 146.773 115.599 146.292 116.431C145.811 117.263 145.533 118.196 145.48 119.156V424.125C145.48 425.886 146.719 426.601 148.251 425.72Z" fill="#455A64"/>
<path d="M161.387 189.597L207.343 163.044C210.394 161.283 212.87 162.534 212.87 165.84C212.734 167.696 212.162 169.494 211.202 171.089C210.242 172.683 208.92 174.029 207.343 175.018L161.387 201.571C158.323 203.332 155.859 202.081 155.859 198.775C155.993 196.918 156.563 195.118 157.524 193.524C158.484 191.929 159.808 190.583 161.387 189.597Z" fill="#437BFA"/>
<path d="M161.387 208.438L191.807 190.873C194.858 189.111 197.335 190.362 197.335 193.669C197.198 195.525 196.627 197.323 195.666 198.918C194.706 200.512 193.384 201.858 191.807 202.847L161.387 220.412C158.323 222.174 155.859 220.923 155.859 217.617C155.993 215.76 156.563 213.96 157.524 212.365C158.484 210.77 159.808 209.425 161.387 208.438Z" fill="#437BFA"/>
<path d="M158.068 240.684L164.017 237.25C165.293 236.548 166.225 237.123 166.225 238.527V245.395C166.184 246.162 165.962 246.908 165.578 247.573C165.195 248.239 164.66 248.804 164.017 249.224L158.068 252.607C156.791 253.322 155.859 252.748 155.859 251.331V244.463C155.91 243.705 156.135 242.969 156.518 242.313C156.902 241.658 157.432 241.1 158.068 240.684Z" fill="#437BFA"/>
<path opacity="0.2" d="M158.068 240.684L164.017 237.25C165.293 236.548 166.225 237.123 166.225 238.527V245.395C166.184 246.162 165.962 246.908 165.578 247.573C165.195 248.239 164.66 248.804 164.017 249.224L158.068 252.607C156.791 253.322 155.859 252.748 155.859 251.331V244.463C155.91 243.705 156.135 242.969 156.518 242.313C156.902 241.658 157.432 241.1 158.068 240.684Z" fill="black"/>
<path d="M158.068 264.645L164.017 261.211C165.293 260.496 166.225 261.071 166.225 262.488V269.356C166.181 270.122 165.958 270.867 165.574 271.532C165.191 272.197 164.657 272.763 164.017 273.185L158.068 276.619C156.791 277.321 155.859 276.747 155.859 275.343V268.475C155.899 267.707 156.119 266.96 156.503 266.294C156.887 265.629 157.423 265.064 158.068 264.645Z" fill="#437BFA"/>
<g opacity="0.2">
<path d="M158.067 264.645L164.016 261.211C165.292 260.496 166.224 261.071 166.224 262.488V269.356C166.18 270.122 165.957 270.867 165.573 271.532C165.19 272.197 164.657 272.763 164.016 273.185L158.067 276.619C156.79 277.321 155.858 276.747 155.858 275.343V268.475C155.898 267.707 156.118 266.96 156.502 266.294C156.886 265.629 157.422 265.064 158.067 264.645Z" fill="black"/>
</g>
<path d="M174.176 258.339L210.124 237.569C211.656 236.689 212.894 237.314 212.894 238.974C212.825 239.901 212.538 240.8 212.057 241.596C211.575 242.392 210.913 243.064 210.124 243.556L174.176 264.326C172.645 265.207 171.406 264.581 171.406 262.922C171.476 261.994 171.763 261.096 172.244 260.299C172.725 259.503 173.387 258.832 174.176 258.339Z" fill="#437BFA"/>
<path opacity="0.2" d="M174.176 258.339L210.124 237.569C211.656 236.689 212.894 237.314 212.894 238.974C212.825 239.901 212.538 240.8 212.057 241.596C211.575 242.392 210.913 243.064 210.124 243.556L174.176 264.326C172.645 265.207 171.406 264.581 171.406 262.922C171.476 261.994 171.763 261.096 172.244 260.299C172.725 259.503 173.387 258.832 174.176 258.339Z" fill="black"/>
<path d="M158.068 288.593L164.017 285.159C165.293 284.444 166.225 285.019 166.225 286.436V293.304C166.182 294.07 165.959 294.816 165.576 295.481C165.192 296.146 164.658 296.712 164.017 297.133L158.068 300.567C156.791 301.269 155.859 300.695 155.859 299.291V292.423C155.899 291.655 156.119 290.908 156.503 290.242C156.887 289.577 157.423 289.012 158.068 288.593Z" fill="#E0E0E0"/>
<path d="M174.176 282.287L210.124 261.543C211.656 260.662 212.894 261.288 212.894 262.947C212.827 263.876 212.541 264.775 212.059 265.571C211.578 266.368 210.915 267.039 210.124 267.53L174.176 288.3C172.645 289.18 171.406 288.555 171.406 286.895C171.472 285.963 171.757 285.06 172.238 284.259C172.72 283.458 173.384 282.782 174.176 282.287Z" fill="#F0F0F0"/>
<path d="M158.068 312.605L164.017 309.171C165.293 308.456 166.225 309.031 166.225 310.448V317.316C166.182 318.082 165.959 318.828 165.576 319.493C165.192 320.158 164.658 320.724 164.017 321.145L158.068 324.579C156.791 325.281 155.859 324.707 155.859 323.303V316.435C155.899 315.667 156.119 314.92 156.503 314.255C156.887 313.589 157.423 313.024 158.068 312.605Z" fill="#E0E0E0"/>
<path d="M174.176 306.299L210.124 285.542C211.656 284.649 212.894 285.287 212.894 286.934C212.827 287.864 212.541 288.765 212.059 289.563C211.578 290.362 210.915 291.035 210.124 291.529L174.176 312.286C172.645 313.167 171.406 312.541 171.406 310.882C171.476 309.954 171.763 309.056 172.244 308.259C172.725 307.463 173.387 306.792 174.176 306.299Z" fill="#F0F0F0"/>
<path d="M158.068 336.553L164.017 333.119C165.293 332.404 166.225 332.979 166.225 334.396V341.264C166.182 342.03 165.959 342.776 165.576 343.441C165.192 344.106 164.658 344.672 164.017 345.093L158.068 348.527C156.791 349.229 155.859 348.655 155.859 347.251V340.383C155.899 339.615 156.119 338.868 156.503 338.203C156.887 337.537 157.423 336.972 158.068 336.553Z" fill="#E0E0E0"/>
<path d="M174.176 330.247L210.124 309.49C211.656 308.597 212.894 309.235 212.894 310.882C212.827 311.812 212.541 312.713 212.059 313.511C211.578 314.31 210.915 314.983 210.124 315.477L174.176 336.234C172.645 337.115 171.406 336.489 171.406 334.83C171.476 333.902 171.763 333.004 172.244 332.207C172.725 331.411 173.387 330.74 174.176 330.247Z" fill="#F0F0F0"/>
<path d="M158.617 360.118L184.148 345.349C185.68 344.468 186.918 345.093 186.918 346.753C186.849 347.681 186.562 348.579 186.08 349.375C185.599 350.171 184.937 350.843 184.148 351.336L158.617 366.105C157.098 366.986 155.859 366.361 155.859 364.714C155.926 363.785 156.211 362.886 156.69 362.087C157.169 361.289 157.829 360.615 158.617 360.118Z" fill="#437BFA"/>
<path d="M158.617 372.093L210.126 342.362C211.658 341.481 212.896 342.106 212.896 343.753C212.828 344.683 212.542 345.584 212.061 346.383C211.58 347.181 210.916 347.855 210.126 348.349L158.617 378.08C157.098 378.961 155.859 378.335 155.859 376.688C155.926 375.76 156.211 374.86 156.69 374.062C157.169 373.263 157.829 372.589 158.617 372.093Z" fill="#437BFA"/>
<path opacity="0.8" d="M158.617 372.093L210.126 342.362C211.658 341.481 212.896 342.106 212.896 343.753C212.828 344.683 212.542 345.584 212.061 346.383C211.58 347.181 210.916 347.855 210.126 348.349L158.617 378.08C157.098 378.961 155.859 378.335 155.859 376.688C155.926 375.76 156.211 374.86 156.69 374.062C157.169 373.263 157.829 372.589 158.617 372.093Z" fill="white"/>
<path d="M158.617 372.093L194.577 351.336C196.096 350.455 197.335 351.08 197.335 352.74C197.266 353.666 196.98 354.564 196.501 355.36C196.022 356.155 195.363 356.828 194.577 357.323L158.617 378.08C157.098 378.96 155.859 378.335 155.859 376.688C155.926 375.76 156.211 374.86 156.69 374.061C157.169 373.263 157.829 372.589 158.617 372.093Z" fill="#437BFA"/>
<path d="M158.617 384.092L184.148 369.322C185.68 368.442 186.918 369.067 186.918 370.727C186.849 371.654 186.562 372.553 186.08 373.349C185.599 374.145 184.937 374.817 184.148 375.309L158.617 390.079C157.098 390.96 155.859 390.334 155.859 388.688C155.926 387.759 156.211 386.859 156.69 386.061C157.169 385.263 157.829 384.588 158.617 384.092Z" fill="#437BFA"/>
<path d="M174.176 234.378L210.124 213.621C211.656 212.74 212.894 213.366 212.894 215.025C212.825 215.953 212.538 216.851 212.057 217.648C211.575 218.444 210.913 219.116 210.124 219.608L174.176 240.365C172.645 241.246 171.406 240.62 171.406 238.974C171.474 238.044 171.76 237.143 172.241 236.344C172.722 235.545 173.386 234.872 174.176 234.378Z" fill="#437BFA"/>
<path opacity="0.2" d="M174.176 234.378L210.124 213.621C211.656 212.74 212.894 213.366 212.894 215.025C212.825 215.953 212.538 216.851 212.057 217.648C211.575 218.444 210.913 219.116 210.124 219.608L174.176 240.365C172.645 241.246 171.406 240.62 171.406 238.974C171.474 238.044 171.76 237.143 172.241 236.344C172.722 235.545 173.386 234.872 174.176 234.378Z" fill="black"/>
<path d="M158.617 384.092L184.148 369.322C185.68 368.442 186.918 369.067 186.918 370.727C186.849 371.654 186.562 372.553 186.08 373.349C185.599 374.145 184.937 374.817 184.148 375.309L158.617 390.079C157.098 390.96 155.859 390.334 155.859 388.688C155.926 387.759 156.211 386.859 156.69 386.061C157.169 385.263 157.829 384.588 158.617 384.092Z" fill="#437BFA"/>
<path d="M158.617 396.028L210.126 366.297C211.658 365.416 212.896 366.042 212.896 367.688C212.828 368.618 212.542 369.519 212.061 370.318C211.58 371.116 210.916 371.79 210.126 372.284L158.617 401.964C157.098 402.857 155.859 402.219 155.859 400.572C155.934 399.653 156.222 398.763 156.701 397.974C157.18 397.185 157.836 396.519 158.617 396.028Z" fill="#437BFA"/>
<path opacity="0.8" d="M158.617 396.028L210.126 366.297C211.658 365.416 212.896 366.042 212.896 367.688C212.828 368.618 212.542 369.519 212.061 370.318C211.58 371.116 210.916 371.79 210.126 372.284L158.617 401.964C157.098 402.857 155.859 402.219 155.859 400.572C155.934 399.653 156.222 398.763 156.701 397.974C157.18 397.185 157.836 396.519 158.617 396.028Z" fill="white"/>
<path d="M158.617 396.028L204.943 369.22C206.475 368.339 207.713 368.965 207.713 370.624C207.644 371.552 207.357 372.451 206.875 373.247C206.394 374.043 205.732 374.715 204.943 375.207L158.617 402.015C157.098 402.909 155.859 402.27 155.859 400.623C155.926 399.695 156.211 398.795 156.69 397.997C157.169 397.198 157.829 396.524 158.617 396.028Z" fill="#437BFA"/>
<path d="M339.759 3.79411L223.261 71.0557V382.407L339.759 315.158C340.565 314.635 341.236 313.928 341.718 313.096C342.199 312.265 342.477 311.331 342.529 310.371V5.3898C342.516 3.67922 341.24 2.91329 339.759 3.79411Z" fill="#EBEBEB"/>
<path opacity="0.6" d="M339.759 3.79411L223.261 71.0557V382.407L339.759 315.158C340.565 314.635 341.236 313.928 341.718 313.096C342.199 312.265 342.477 311.331 342.529 310.371V5.3898C342.516 3.67922 341.24 2.91329 339.759 3.79411Z" fill="#FAFAFA"/>
<path d="M223.26 83.0299V106.978L212.895 118.952H223.26V142.9L332.15 80.03V20.1597L223.26 83.0299Z" fill="#437BFA"/>
<g opacity="0.6">
<path d="M237.506 83.8596L281.624 58.3285C283.756 57.052 285.454 58.0987 285.454 60.5625C285.383 61.9011 285 63.2047 284.335 64.3685C283.67 65.5324 282.742 66.5242 281.624 67.2644L237.506 92.7316C235.362 94.0082 233.677 92.9614 233.677 90.4977C233.754 89.1694 234.14 87.8774 234.805 86.7249C235.47 85.5724 236.395 84.5912 237.506 83.8596Z" fill="white"/>
</g>
<path d="M235.017 103.251L320.406 53.9501C321.172 53.5161 321.785 53.8224 321.785 54.6522C321.752 55.1166 321.61 55.5667 321.37 55.9659C321.13 56.3652 320.8 56.7023 320.406 56.95L235.017 106.187C234.251 106.621 233.639 106.314 233.639 105.485C233.681 105.031 233.828 104.594 234.067 104.206C234.306 103.819 234.631 103.492 235.017 103.251Z" fill="#437BFA"/>
<path d="M235.017 103.251L320.406 53.9501C321.172 53.5161 321.785 53.8224 321.785 54.6522C321.752 55.1166 321.61 55.5667 321.37 55.9659C321.13 56.3652 320.8 56.7023 320.406 56.95L235.017 106.187C234.251 106.621 233.639 106.314 233.639 105.485C233.681 105.031 233.828 104.594 234.067 104.206C234.306 103.819 234.631 103.492 235.017 103.251Z" fill="#437BFA"/>
<path opacity="0.6" d="M235.017 103.251L320.406 53.9501C321.172 53.5161 321.785 53.8224 321.785 54.6522C321.752 55.1166 321.61 55.5667 321.37 55.9659C321.13 56.3652 320.8 56.7023 320.406 56.95L235.017 106.187C234.251 106.621 233.639 106.314 233.639 105.485C233.681 105.031 233.828 104.594 234.067 104.206C234.306 103.819 234.631 103.492 235.017 103.251Z" fill="white"/>
<path d="M235.017 112.186L320.406 62.8859C321.172 62.4391 321.785 62.7583 321.785 63.588C321.752 64.0507 321.61 64.499 321.37 64.8962C321.13 65.2934 320.8 65.6282 320.406 65.8731L235.017 115.174C234.251 115.62 233.639 115.301 233.639 114.471C233.672 114.009 233.814 113.56 234.053 113.163C234.293 112.766 234.623 112.431 235.017 112.186Z" fill="#437BFA"/>
<path opacity="0.6" d="M235.017 112.186L320.406 62.8859C321.172 62.4391 321.785 62.7583 321.785 63.588C321.752 64.0507 321.61 64.499 321.37 64.8962C321.13 65.2934 320.8 65.6282 320.406 65.8731L235.017 115.174C234.251 115.62 233.639 115.301 233.639 114.471C233.672 114.009 233.814 113.56 234.053 113.163C234.293 112.766 234.623 112.431 235.017 112.186Z" fill="white"/>
<path opacity="0.6" d="M235.017 121.122L320.406 71.8219C321.172 71.3879 321.785 71.6943 321.785 72.524C321.752 72.9884 321.61 73.4385 321.37 73.8378C321.13 74.237 320.8 74.5741 320.406 74.8218L235.017 124.122C234.251 124.556 233.639 124.25 233.639 123.42C233.672 122.956 233.814 122.506 234.053 122.106C234.293 121.707 234.623 121.37 235.017 121.122Z" fill="white"/>
<path d="M238.235 146.27L244.222 142.824C245.498 142.109 246.43 142.683 246.43 144.1V150.968C246.388 151.735 246.166 152.481 245.782 153.146C245.398 153.811 244.864 154.377 244.222 154.798L238.273 158.232C236.996 158.934 236.064 158.359 236.064 156.955V150.1C236.1 149.336 236.314 148.591 236.691 147.926C237.069 147.26 237.597 146.693 238.235 146.27Z" fill="#437BFA"/>
<path opacity="0.2" d="M238.235 146.27L244.222 142.824C245.498 142.109 246.43 142.683 246.43 144.1V150.968C246.388 151.735 246.166 152.481 245.782 153.146C245.398 153.811 244.864 154.377 244.222 154.798L238.273 158.232C236.996 158.934 236.064 158.359 236.064 156.955V150.1C236.1 149.336 236.314 148.591 236.691 147.926C237.069 147.26 237.597 146.693 238.235 146.27Z" fill="white"/>
<path d="M254.343 139.964L290.291 119.195C291.823 118.314 293.061 118.939 293.061 120.599C292.992 121.527 292.705 122.425 292.224 123.221C291.742 124.017 291.08 124.689 290.291 125.182L254.343 145.951C252.811 146.832 251.573 146.207 251.573 144.547C251.643 143.619 251.93 142.721 252.411 141.925C252.892 141.128 253.554 140.457 254.343 139.964Z" fill="#437BFA"/>
<path opacity="0.8" d="M254.343 139.964L290.291 119.195C291.823 118.314 293.061 118.939 293.061 120.599C292.992 121.527 292.705 122.425 292.224 123.221C291.742 124.017 291.08 124.689 290.291 125.182L254.343 145.951C252.811 146.832 251.573 146.207 251.573 144.547C251.643 143.619 251.93 142.721 252.411 141.925C252.892 141.128 253.554 140.457 254.343 139.964Z" fill="white"/>
<path d="M237.405 167.716L328.04 115.378C328.806 114.931 329.419 115.25 329.419 116.067C329.387 116.532 329.245 116.982 329.006 117.382C328.766 117.781 328.435 118.118 328.04 118.365L237.405 170.704C236.639 171.15 236.026 170.831 236.026 170.001C236.059 169.539 236.201 169.09 236.441 168.693C236.681 168.296 237.011 167.961 237.405 167.716Z" fill="#437BFA"/>
<path d="M237.405 176.691L328.04 124.352C328.806 123.918 329.419 124.224 329.419 125.054C329.386 125.518 329.244 125.969 329.004 126.368C328.765 126.767 328.435 127.104 328.04 127.352L237.405 179.691C236.639 180.125 236.026 179.818 236.026 178.988C236.059 178.524 236.201 178.074 236.441 177.675C236.68 177.275 237.011 176.938 237.405 176.691Z" fill="#437BFA"/>
<path d="M237.405 185.678L328.04 133.339C328.806 132.892 329.419 133.211 329.419 134.028C329.387 134.493 329.245 134.943 329.006 135.343C328.766 135.742 328.435 136.079 328.04 136.326L237.405 188.665C236.639 189.112 236.026 188.792 236.026 187.975C236.058 187.511 236.2 187.06 236.44 186.661C236.679 186.261 237.01 185.925 237.405 185.678Z" fill="#437BFA"/>
<path d="M237.405 194.677L328.04 142.339C328.806 141.905 329.419 142.211 329.419 143.041C329.386 143.505 329.244 143.955 329.004 144.355C328.765 144.754 328.435 145.091 328.04 145.339L237.405 197.677C236.639 198.111 236.026 197.805 236.026 196.975C236.059 196.511 236.201 196.061 236.441 195.661C236.68 195.262 237.011 194.925 237.405 194.677Z" fill="#437BFA"/>
<path d="M237.405 167.716L328.04 115.378C328.806 114.931 329.419 115.25 329.419 116.067C329.387 116.532 329.245 116.982 329.006 117.382C328.766 117.781 328.435 118.118 328.04 118.365L237.405 170.704C236.639 171.15 236.026 170.831 236.026 170.001C236.059 169.539 236.201 169.09 236.441 168.693C236.681 168.296 237.011 167.961 237.405 167.716Z" fill="#E0E0E0"/>
<path d="M237.405 176.691L328.04 124.352C328.806 123.918 329.419 124.224 329.419 125.054C329.386 125.518 329.244 125.969 329.004 126.368C328.765 126.767 328.435 127.104 328.04 127.352L237.405 179.691C236.639 180.125 236.026 179.818 236.026 178.988C236.059 178.524 236.201 178.074 236.441 177.675C236.68 177.275 237.011 176.938 237.405 176.691Z" fill="#E0E0E0"/>
<path d="M237.405 185.678L328.04 133.339C328.806 132.892 329.419 133.211 329.419 134.028C329.387 134.493 329.245 134.943 329.006 135.343C328.766 135.742 328.435 136.079 328.04 136.326L237.405 188.665C236.639 189.112 236.026 188.792 236.026 187.975C236.058 187.511 236.2 187.06 236.44 186.661C236.679 186.261 237.01 185.925 237.405 185.678Z" fill="#E0E0E0"/>
<path d="M237.405 194.677L328.04 142.339C328.806 141.905 329.419 142.211 329.419 143.041C329.386 143.505 329.244 143.955 329.004 144.355C328.765 144.754 328.435 145.091 328.04 145.339L237.405 197.677C236.639 198.111 236.026 197.805 236.026 196.975C236.059 196.511 236.201 196.061 236.441 195.661C236.68 195.262 237.011 194.925 237.405 194.677Z" fill="#E0E0E0"/>
<path opacity="0.8" d="M237.405 167.716L328.04 115.378C328.806 114.931 329.419 115.25 329.419 116.067C329.387 116.532 329.245 116.982 329.006 117.382C328.766 117.781 328.435 118.118 328.04 118.365L237.405 170.704C236.639 171.15 236.026 170.831 236.026 170.001C236.059 169.539 236.201 169.09 236.441 168.693C236.681 168.296 237.011 167.961 237.405 167.716Z" fill="#E0E0E0"/>
<path opacity="0.8" d="M237.405 176.691L328.04 124.352C328.806 123.918 329.419 124.224 329.419 125.054C329.386 125.518 329.244 125.969 329.004 126.368C328.765 126.767 328.435 127.104 328.04 127.352L237.405 179.691C236.639 180.125 236.026 179.818 236.026 178.988C236.059 178.524 236.201 178.074 236.441 177.675C236.68 177.275 237.011 176.938 237.405 176.691Z" fill="#E0E0E0"/>
<path opacity="0.8" d="M237.405 185.678L328.04 133.339C328.806 132.892 329.419 133.211 329.419 134.028C329.387 134.493 329.245 134.943 329.006 135.343C328.766 135.742 328.435 136.079 328.04 136.326L237.405 188.665C236.639 189.112 236.026 188.792 236.026 187.975C236.058 187.511 236.2 187.06 236.44 186.661C236.679 186.261 237.01 185.925 237.405 185.678Z" fill="#E0E0E0"/>
<path opacity="0.8" d="M237.405 194.677L328.04 142.339C328.806 141.905 329.419 142.211 329.419 143.041C329.386 143.505 329.244 143.955 329.004 144.355C328.765 144.754 328.435 145.091 328.04 145.339L237.405 197.677C236.639 198.111 236.026 197.805 236.026 196.975C236.059 196.511 236.201 196.061 236.441 195.661C236.68 195.262 237.011 194.925 237.405 194.677Z" fill="#E0E0E0"/>
<path d="M237.405 232.82L328.04 180.482C328.806 180.035 329.419 180.354 329.419 181.171C329.387 181.636 329.245 182.086 329.006 182.486C328.766 182.885 328.435 183.222 328.04 183.469L237.405 235.808C236.639 236.254 236.026 235.935 236.026 235.105C236.059 234.643 236.201 234.194 236.441 233.797C236.681 233.4 237.011 233.065 237.405 232.82Z" fill="#E0E0E0"/>
<path d="M237.405 241.795L328.04 189.456C328.806 189.022 329.419 189.329 329.419 190.158C329.386 190.623 329.244 191.073 329.004 191.472C328.765 191.871 328.435 192.208 328.04 192.456L237.405 244.795C236.639 245.229 236.026 244.922 236.026 244.093C236.059 243.628 236.201 243.178 236.441 242.779C236.68 242.38 237.011 242.043 237.405 241.795Z" fill="#E0E0E0"/>
<path d="M237.405 250.782L328.04 198.443C328.806 197.996 329.419 198.315 329.419 199.132C329.387 199.597 329.245 200.047 329.006 200.447C328.766 200.846 328.435 201.183 328.04 201.43L237.405 253.769C236.639 254.216 236.026 253.896 236.026 253.079C236.058 252.615 236.2 252.164 236.44 251.765C236.679 251.365 237.01 251.029 237.405 250.782Z" fill="#E0E0E0"/>
<path d="M237.405 259.781L328.04 207.443C328.806 207.009 329.419 207.315 329.419 208.145C329.386 208.609 329.244 209.059 329.004 209.459C328.765 209.858 328.435 210.195 328.04 210.443L237.405 262.781C236.639 263.215 236.026 262.909 236.026 262.079C236.059 261.615 236.201 261.165 236.441 260.765C236.68 260.366 237.011 260.029 237.405 259.781Z" fill="#E0E0E0"/>
<path opacity="0.8" d="M237.405 232.82L328.04 180.482C328.806 180.035 329.419 180.354 329.419 181.171C329.387 181.636 329.245 182.086 329.006 182.486C328.766 182.885 328.435 183.222 328.04 183.469L237.405 235.808C236.639 236.254 236.026 235.935 236.026 235.105C236.059 234.643 236.201 234.194 236.441 233.797C236.681 233.4 237.011 233.065 237.405 232.82Z" fill="#E0E0E0"/>
<path opacity="0.8" d="M237.405 241.795L328.04 189.456C328.806 189.022 329.419 189.329 329.419 190.158C329.386 190.623 329.244 191.073 329.004 191.472C328.765 191.871 328.435 192.208 328.04 192.456L237.405 244.795C236.639 245.229 236.026 244.922 236.026 244.093C236.059 243.628 236.201 243.178 236.441 242.779C236.68 242.38 237.011 242.043 237.405 241.795Z" fill="#E0E0E0"/>
<path opacity="0.8" d="M237.405 250.782L328.04 198.443C328.806 197.996 329.419 198.315 329.419 199.132C329.387 199.597 329.245 200.047 329.006 200.447C328.766 200.846 328.435 201.183 328.04 201.43L237.405 253.769C236.639 254.216 236.026 253.896 236.026 253.079C236.058 252.615 236.2 252.164 236.44 251.765C236.679 251.365 237.01 251.029 237.405 250.782Z" fill="#E0E0E0"/>
<path opacity="0.8" d="M237.405 259.781L328.04 207.443C328.806 207.009 329.419 207.315 329.419 208.145C329.386 208.609 329.244 209.059 329.004 209.459C328.765 209.858 328.435 210.195 328.04 210.443L237.405 262.781C236.639 263.215 236.026 262.909 236.026 262.079C236.059 261.615 236.201 261.165 236.441 260.765C236.68 260.366 237.011 260.029 237.405 259.781Z" fill="#E0E0E0"/>
<path d="M237.405 299.202L328.04 246.863C328.806 246.416 329.419 246.735 329.419 247.552C329.387 248.017 329.245 248.467 329.006 248.867C328.766 249.266 328.435 249.603 328.04 249.85L237.405 302.189C236.639 302.635 236.026 302.316 236.026 301.487C236.059 301.024 236.201 300.576 236.441 300.178C236.681 299.781 237.011 299.446 237.405 299.202Z" fill="#E0E0E0"/>
<path d="M237.405 308.175L328.04 255.837C328.806 255.403 329.419 255.709 329.419 256.539C329.386 257.003 329.244 257.453 329.004 257.853C328.765 258.252 328.435 258.589 328.04 258.837L237.405 311.175C236.639 311.609 236.026 311.303 236.026 310.473C236.059 310.009 236.201 309.559 236.441 309.16C236.68 308.76 237.011 308.423 237.405 308.175Z" fill="#E0E0E0"/>
<path d="M237.405 317.163L328.04 264.824C328.806 264.377 329.419 264.696 329.419 265.513C329.387 265.978 329.245 266.429 329.006 266.828C328.766 267.227 328.435 267.564 328.04 267.811L237.405 320.15C236.639 320.597 236.026 320.277 236.026 319.46C236.058 318.996 236.2 318.545 236.44 318.146C236.679 317.747 237.01 317.41 237.405 317.163Z" fill="#E0E0E0"/>
<path d="M237.405 326.162L328.04 273.824C328.806 273.39 329.419 273.696 329.419 274.526C329.386 274.99 329.244 275.44 329.004 275.839C328.765 276.239 328.435 276.576 328.04 276.824L237.405 329.162C236.639 329.596 236.026 329.29 236.026 328.46C236.059 327.996 236.201 327.546 236.441 327.146C236.68 326.747 237.011 326.41 237.405 326.162Z" fill="#E0E0E0"/>
<path opacity="0.8" d="M237.405 299.202L328.04 246.863C328.806 246.416 329.419 246.735 329.419 247.552C329.387 248.017 329.245 248.467 329.006 248.867C328.766 249.266 328.435 249.603 328.04 249.85L237.405 302.189C236.639 302.635 236.026 302.316 236.026 301.487C236.059 301.024 236.201 300.576 236.441 300.178C236.681 299.781 237.011 299.446 237.405 299.202Z" fill="#E0E0E0"/>
<path opacity="0.8" d="M237.405 308.175L328.04 255.837C328.806 255.403 329.419 255.709 329.419 256.539C329.386 257.003 329.244 257.453 329.004 257.853C328.765 258.252 328.435 258.589 328.04 258.837L237.405 311.175C236.639 311.609 236.026 311.303 236.026 310.473C236.059 310.009 236.201 309.559 236.441 309.16C236.68 308.76 237.011 308.423 237.405 308.175Z" fill="#E0E0E0"/>
<path opacity="0.8" d="M237.405 317.163L328.04 264.824C328.806 264.377 329.419 264.696 329.419 265.513C329.387 265.978 329.245 266.429 329.006 266.828C328.766 267.227 328.435 267.564 328.04 267.811L237.405 320.15C236.639 320.597 236.026 320.277 236.026 319.46C236.058 318.996 236.2 318.545 236.44 318.146C236.679 317.747 237.01 317.41 237.405 317.163Z" fill="#E0E0E0"/>
<path opacity="0.8" d="M237.405 326.162L328.04 273.824C328.806 273.39 329.419 273.696 329.419 274.526C329.386 274.99 329.244 275.44 329.004 275.839C328.765 276.239 328.435 276.576 328.04 276.824L237.405 329.162C236.639 329.596 236.026 329.29 236.026 328.46C236.059 327.996 236.201 327.546 236.441 327.146C236.68 326.747 237.011 326.41 237.405 326.162Z" fill="#E0E0E0"/>
<path d="M238.235 212.128L244.222 208.694C245.498 207.992 246.43 208.566 246.43 209.97V216.864C246.391 217.631 246.17 218.378 245.786 219.044C245.402 219.71 244.866 220.275 244.222 220.694L238.273 224.127C236.996 224.83 236.064 224.268 236.064 222.851V215.983C236.097 215.215 236.31 214.465 236.687 213.795C237.064 213.125 237.595 212.554 238.235 212.128Z" fill="#437BFA"/>
<path opacity="0.2" d="M238.235 212.128L244.222 208.694C245.498 207.992 246.43 208.566 246.43 209.97V216.864C246.391 217.631 246.17 218.378 245.786 219.044C245.402 219.71 244.866 220.275 244.222 220.694L238.273 224.127C236.996 224.83 236.064 224.268 236.064 222.851V215.983C236.097 215.215 236.31 214.465 236.687 213.795C237.064 213.125 237.595 212.554 238.235 212.128Z" fill="white"/>
<path d="M254.343 205.821L290.291 185.065C291.823 184.184 293.061 184.809 293.061 186.456C292.994 187.386 292.708 188.287 292.226 189.086C291.745 189.884 291.082 190.558 290.291 191.052L254.343 211.757C252.811 212.638 251.573 212.013 251.573 210.366C251.648 209.445 251.938 208.554 252.419 207.765C252.9 206.976 253.559 206.31 254.343 205.821Z" fill="#437BFA"/>
<path opacity="0.8" d="M254.343 205.821L290.291 185.065C291.823 184.184 293.061 184.809 293.061 186.456C292.994 187.386 292.708 188.287 292.226 189.086C291.745 189.884 291.082 190.558 290.291 191.052L254.343 211.757C252.811 212.638 251.573 212.013 251.573 210.366C251.648 209.445 251.938 208.554 252.419 207.765C252.9 206.976 253.559 206.31 254.343 205.821Z" fill="white"/>
<path d="M238.235 277.998L244.222 274.564C245.498 273.849 246.43 274.423 246.43 275.84V282.708C246.39 283.475 246.169 284.222 245.785 284.888C245.401 285.553 244.865 286.119 244.222 286.538L238.273 289.972C236.996 290.674 236.064 290.1 236.064 288.695V281.827C236.1 281.063 236.314 280.318 236.691 279.653C237.069 278.988 237.597 278.421 238.235 277.998Z" fill="#437BFA"/>
<path opacity="0.2" d="M238.235 277.998L244.222 274.564C245.498 273.849 246.43 274.423 246.43 275.84V282.708C246.39 283.475 246.169 284.222 245.785 284.888C245.401 285.553 244.865 286.119 244.222 286.538L238.273 289.972C236.996 290.674 236.064 290.1 236.064 288.695V281.827C236.1 281.063 236.314 280.318 236.691 279.653C237.069 278.988 237.597 278.421 238.235 277.998Z" fill="white"/>
<path d="M254.343 271.755L290.291 250.986C291.823 250.105 293.061 250.731 293.061 252.39C292.993 253.32 292.706 254.22 292.225 255.019C291.744 255.817 291.081 256.491 290.291 256.986L254.343 277.742C252.811 278.623 251.573 277.998 251.573 276.338C251.643 275.41 251.93 274.512 252.411 273.716C252.892 272.92 253.554 272.248 254.343 271.755Z" fill="#437BFA"/>
<path opacity="0.8" d="M254.343 271.755L290.291 250.986C291.823 250.105 293.061 250.731 293.061 252.39C292.993 253.32 292.706 254.22 292.225 255.019C291.744 255.817 291.081 256.491 290.291 256.986L254.343 277.742C252.811 278.623 251.573 277.998 251.573 276.338C251.643 275.41 251.93 274.512 252.411 273.716C252.892 272.92 253.554 272.248 254.343 271.755Z" fill="white"/>
<path d="M246.699 335.979L252.647 332.545C253.924 331.843 254.869 332.417 254.869 333.822V340.689C254.827 341.458 254.604 342.205 254.218 342.871C253.832 343.536 253.294 344.101 252.647 344.519L246.699 347.953C245.486 348.668 244.49 348.093 244.49 346.676V339.809C244.535 339.042 244.757 338.297 245.141 337.632C245.524 336.967 246.058 336.401 246.699 335.979Z" fill="#437BFA"/>
<path d="M237.405 359.314L261.953 345.145C262.719 344.711 263.332 345.017 263.332 345.847C263.299 346.311 263.157 346.761 262.917 347.161C262.678 347.56 262.347 347.897 261.953 348.145L237.405 362.314C236.639 362.748 236.026 362.442 236.026 361.612C236.059 361.148 236.201 360.698 236.441 360.298C236.68 359.899 237.011 359.562 237.405 359.314Z" fill="#E0E0E0"/>
<path d="M279.722 316.907L285.671 313.473C286.884 312.771 287.879 313.346 287.879 314.75V321.618C287.838 322.385 287.616 323.131 287.233 323.797C286.849 324.462 286.314 325.028 285.671 325.448L279.722 328.881C278.446 329.584 277.501 329.022 277.501 327.605V320.737C277.544 319.969 277.767 319.222 278.153 318.556C278.539 317.891 279.077 317.326 279.722 316.907Z" fill="#437BFA"/>
<path d="M270.417 340.243L294.965 326.073C295.731 325.626 296.344 325.945 296.344 326.775C296.311 327.238 296.168 327.686 295.929 328.083C295.689 328.48 295.359 328.815 294.965 329.06L270.417 343.243C269.651 343.689 269.038 343.37 269.038 342.553C269.068 342.086 269.209 341.633 269.449 341.232C269.688 340.83 270.02 340.491 270.417 340.243Z" fill="#E0E0E0"/>
<path d="M312.734 297.835L318.683 294.402C319.895 293.687 320.891 294.261 320.891 295.678V302.546C320.848 303.312 320.625 304.058 320.242 304.723C319.858 305.388 319.324 305.954 318.683 306.376L312.734 309.81C311.457 310.512 310.525 309.937 310.525 308.533V301.665C310.565 300.898 310.785 300.151 311.169 299.485C311.553 298.819 312.089 298.254 312.734 297.835Z" fill="#437BFA"/>
<path opacity="0.2" d="M246.699 335.979L252.647 332.545C253.924 331.843 254.869 332.417 254.869 333.822V340.689C254.827 341.458 254.604 342.205 254.218 342.871C253.832 343.536 253.294 344.101 252.647 344.519L246.699 347.953C245.486 348.668 244.49 348.093 244.49 346.676V339.809C244.535 339.042 244.757 338.297 245.141 337.632C245.524 336.967 246.058 336.401 246.699 335.979Z" fill="white"/>
<path opacity="0.2" d="M279.722 316.907L285.671 313.473C286.884 312.771 287.879 313.346 287.879 314.75V321.618C287.838 322.385 287.616 323.131 287.233 323.797C286.849 324.462 286.314 325.028 285.671 325.448L279.722 328.881C278.446 329.584 277.501 329.022 277.501 327.605V320.737C277.544 319.969 277.767 319.222 278.153 318.556C278.539 317.891 279.077 317.326 279.722 316.907Z" fill="white"/>
<path opacity="0.2" d="M312.734 297.835L318.683 294.402C319.895 293.687 320.891 294.261 320.891 295.678V302.546C320.848 303.312 320.625 304.058 320.242 304.723C319.858 305.388 319.324 305.954 318.683 306.376L312.734 309.81C311.457 310.512 310.525 309.937 310.525 308.533V301.665C310.565 300.898 310.785 300.151 311.169 299.485C311.553 298.819 312.089 298.254 312.734 297.835Z" fill="white"/>
<path d="M303.428 321.171L327.976 307.001C328.742 306.554 329.354 306.874 329.354 307.691C329.322 308.155 329.181 308.606 328.941 309.005C328.701 309.405 328.371 309.742 327.976 309.988L303.428 324.158C302.674 324.605 302.049 324.286 302.049 323.456C302.085 322.994 302.228 322.547 302.468 322.15C302.707 321.754 303.036 321.418 303.428 321.171Z" fill="#E0E0E0"/>
<mask id="mask0_418_2381" style="mask-type:luminance" maskUnits="userSpaceOnUse" x="155" y="104" width="53" height="68">
<path d="M181.785 108.178C167.462 116.246 155.858 136.351 155.858 153.074C155.858 169.797 167.462 176.665 181.785 168.393C196.108 160.121 207.712 140.028 207.712 123.484C207.712 106.94 196.095 100.097 181.785 108.178Z" fill="white"/>
</mask>
<g mask="url(#mask0_418_2381)">
<path d="M181.785 108.178C167.462 116.246 155.858 136.351 155.858 153.074C155.858 169.797 167.462 176.665 181.785 168.393C196.108 160.121 207.712 140.028 207.712 123.484C207.712 106.94 196.095 100.097 181.785 108.178Z" fill="#FAFAFA"/>
<path d="M194.348 159.712L173.591 165.278C173.234 165.394 172.853 165.42 172.483 165.352C172.113 165.284 171.766 165.125 171.473 164.89C171.18 164.654 170.951 164.349 170.806 164.002C170.661 163.655 170.605 163.278 170.642 162.904V127.569C170.716 124.644 171.692 121.813 173.439 119.466C175.185 117.119 177.615 115.369 180.395 114.458L187.493 112.556C192.893 111.114 197.271 114.637 197.271 120.42V155.768C197.248 156.646 196.955 157.495 196.432 158.201C195.909 158.907 195.181 159.434 194.348 159.712Z" fill="#37474F"/>
<path d="M195.341 168.852L193.158 159.214C193.158 159.214 193.158 146.206 191.307 145.006C189.456 143.806 188.92 143.577 188.92 143.577C191.294 142.76 196.298 142.147 197.856 146.717C199.349 151.032 201.583 161.665 202.643 166.899L195.341 168.852Z" fill="#F7A9A0"/>
<path d="M195.165 168.903L187.761 143.691C191.041 142.415 195.254 141.355 197.297 144.738C199.135 147.776 202.071 163.695 202.645 166.899L195.165 168.903Z" fill="#437BFA"/>
<g opacity="0.4">
<path d="M195.165 168.904L187.761 143.692C191.041 142.415 195.254 141.356 197.297 144.738C199.135 147.777 202.071 163.695 202.645 166.899L195.165 168.904Z" fill="black"/>
</g>
<path d="M196.159 168.635L188.883 170.588C189.176 168.499 189.865 166.484 190.913 164.652C192.369 162.554 194.464 160.982 196.887 160.172C196.362 162.961 196.119 165.797 196.159 168.635Z" fill="#437BFA"/>
<path d="M196.159 168.635L188.883 170.588C189.176 168.499 189.865 166.484 190.913 164.652C192.369 162.554 194.464 160.982 196.887 160.172C196.362 162.961 196.119 165.797 196.159 168.635Z" fill="#437BFA"/>
<g opacity="0.7">
<path d="M196.159 168.635L188.883 170.588C189.176 168.499 189.865 166.484 190.913 164.652C192.369 162.554 194.464 160.982 196.887 160.172C196.362 162.961 196.119 165.797 196.159 168.635Z" fill="black"/>
</g>
<path d="M194.601 169.056L174.176 174.507L171.93 167.55C171.93 167.55 177.891 153.597 170.525 150.01C171.457 149.308 179.308 146.244 179.308 146.244L187.746 143.691C189.355 143.257 195.852 146.142 197.499 152.538C198.086 154.797 197.882 156.827 194.576 168.597C194.614 168.75 194.601 168.903 194.601 169.056Z" fill="#437BFA"/>
<path d="M192.917 116.896C194.321 117.407 196.058 120.726 195.892 128.73C195.751 135.521 193.709 137.666 192.687 138.483C191.158 139.249 189.471 139.647 187.76 139.645V143.691C187.76 143.691 190.415 146.244 190.249 148.185C190.083 150.125 186.42 151.504 183.943 150.355C182.134 149.335 180.57 147.932 179.36 146.244V136.926C179.174 137.14 178.946 137.316 178.691 137.442C178.436 137.568 178.159 137.643 177.875 137.66C177.591 137.678 177.306 137.639 177.037 137.546C176.769 137.453 176.521 137.307 176.309 137.117C175.911 136.844 175.571 136.494 175.31 136.088C175.049 135.681 174.872 135.226 174.79 134.75C174.708 134.274 174.722 133.786 174.832 133.316C174.941 132.845 175.144 132.402 175.428 132.011C176.705 130.339 178.939 130.096 179.807 131.768C180.888 129.145 182.822 126.964 185.296 125.577C189.33 123.126 191.526 120.943 192.917 116.896Z" fill="#FFBDA7"/>
<path d="M188.87 128.922C188.876 129.164 188.807 129.401 188.672 129.603C188.537 129.804 188.343 129.958 188.117 130.045C188.021 130.078 187.919 130.088 187.818 130.072C187.718 130.057 187.623 130.017 187.541 129.957C187.459 129.897 187.394 129.817 187.349 129.726C187.305 129.635 187.284 129.534 187.287 129.432C187.282 129.19 187.351 128.952 187.486 128.751C187.621 128.55 187.815 128.396 188.041 128.309C188.137 128.276 188.239 128.266 188.34 128.282C188.44 128.297 188.535 128.336 188.617 128.397C188.699 128.457 188.764 128.536 188.809 128.628C188.853 128.719 188.874 128.82 188.87 128.922Z" fill="#37474F"/>
<path d="M189.075 134.59L190.913 134.717C190.859 134.997 190.713 135.252 190.498 135.439C190.283 135.626 190.011 135.736 189.726 135.751C189.215 135.713 188.922 135.164 189.075 134.59Z" fill="#F7A9A0"/>
<path d="M195.355 124.581L193.76 123.828C193.855 123.581 194.038 123.378 194.273 123.258C194.509 123.138 194.781 123.109 195.036 123.177C195.15 123.248 195.249 123.34 195.327 123.449C195.406 123.558 195.461 123.682 195.491 123.812C195.52 123.943 195.524 124.078 195.501 124.21C195.477 124.343 195.428 124.469 195.355 124.581Z" fill="#37474F"/>
<path d="M186.572 127.569L188.168 125.947C188.083 125.861 187.981 125.794 187.869 125.75C187.756 125.706 187.636 125.687 187.515 125.693C187.395 125.699 187.277 125.73 187.169 125.785C187.062 125.84 186.967 125.917 186.891 126.011C186.67 126.196 186.518 126.451 186.46 126.734C186.402 127.017 186.441 127.311 186.572 127.569Z" fill="#37474F"/>
<path d="M194.985 126.675C194.993 126.917 194.924 127.156 194.789 127.357C194.654 127.559 194.459 127.713 194.232 127.798C194.135 127.832 194.031 127.841 193.93 127.825C193.828 127.809 193.732 127.769 193.65 127.707C193.568 127.645 193.503 127.564 193.46 127.471C193.416 127.378 193.397 127.275 193.402 127.173C193.399 126.931 193.469 126.694 193.603 126.493C193.738 126.292 193.931 126.138 194.155 126.049C194.253 126.016 194.356 126.006 194.458 126.022C194.559 126.038 194.655 126.079 194.737 126.141C194.819 126.203 194.885 126.284 194.928 126.377C194.971 126.47 194.991 126.572 194.985 126.675Z" fill="#37474F"/>
<path d="M191.257 127.185L191.372 132.253L193.887 130.747L191.257 127.185Z" fill="#F7A9A0"/>
<path d="M187.76 139.645C185.743 139.9 181.582 139.734 180.931 138.151C181.167 138.929 181.686 139.589 182.386 140.002C183.662 140.819 187.76 140.998 187.76 140.998V139.645Z" fill="#F7A9A0"/>
<path d="M174.292 174.495L173.437 171.456L175.683 174.124L174.292 174.495Z" fill="#437BFA"/>
<path d="M172.619 174.941C171.702 170.574 170.461 166.281 168.904 162.099C166.76 156.214 169.16 151.134 170.602 150.01C172.045 148.887 179.385 146.244 179.385 146.244C182.04 153.802 182.768 163.925 182.832 172.209L172.619 174.941Z" fill="#437BFA"/>
<path opacity="0.4" d="M172.619 174.941C171.702 170.574 170.461 166.281 168.904 162.099C166.76 156.214 169.16 151.134 170.602 150.01C172.045 148.887 179.385 146.244 179.385 146.244C182.04 153.802 182.768 163.925 182.832 172.209L172.619 174.941Z" fill="black"/>
<path d="M168.994 175.912L161.705 177.865C161.502 177.728 161.309 177.574 161.131 177.405C161.131 177.405 164.578 164.104 165.675 159.687C166.773 155.27 167.616 152.232 170.577 150.01C175.901 153.47 173.437 163.082 173.437 163.082L168.994 175.912Z" fill="#437BFA"/>
<path opacity="0.4" d="M168.994 175.912L161.705 177.865C161.502 177.728 161.309 177.574 161.131 177.405C161.131 177.405 164.578 164.104 165.675 159.687C166.773 155.27 167.616 152.232 170.577 150.01C175.901 153.47 173.437 163.082 173.437 163.082L168.994 175.912Z" fill="black"/>
</g>
<path d="M62.8627 90.9064V65.6179C62.7861 60.716 65.9775 55.8012 72.4496 52.0737C85.2151 44.6825 105.972 44.6825 118.763 52.0737C125.235 55.8012 128.426 60.716 128.35 65.6179V90.8171C128.35 95.6935 125.21 104.412 118.763 108.127C105.997 115.518 85.2407 115.518 72.4496 108.127C66.0668 104.451 62.8754 95.7956 62.8627 90.9575V90.9064Z" fill="#2E353A"/>
<path d="M95.6058 34.2402L149.642 65.4392L95.6058 96.6382L41.5693 65.4392L95.6058 34.2402Z" fill="#263238"/>
<path d="M68.5684 81.0261L95.1845 65.8351C95.2943 65.7722 95.4154 65.7316 95.5409 65.7156C95.6664 65.6995 95.7938 65.7083 95.9159 65.7415C96.038 65.7747 96.1524 65.8316 96.2525 65.909C96.3526 65.9864 96.4365 66.0827 96.4993 66.1925C96.5622 66.3023 96.6028 66.4235 96.6189 66.549C96.6349 66.6745 96.6261 66.8019 96.5929 66.924C96.5597 67.0461 96.5028 67.1604 96.4254 67.2605C96.3481 67.3606 96.2517 67.4445 96.1419 67.5074L70.4704 82.1239L68.5684 81.0261Z" fill="#263238"/>
<path d="M149.643 65.4395V67.6734L95.6064 98.8596V96.6384L149.643 65.4395Z" fill="#455A64"/>
<path d="M41.5693 65.4395V67.6734L95.6058 98.8596V96.6384L41.5693 65.4395Z" fill="#455A64" fill-opacity="0.66"/>
<path d="M67.2285 82.4813L68.8753 83.426C69.1242 83.0194 69.4709 82.6815 69.8837 82.443L70.4582 82.1111L68.5817 81.0388C68.0274 81.4112 67.5647 81.9044 67.2285 82.4813Z" fill="#263238"/>
<path d="M128.414 79.9282L95.6067 102.204L62.8887 79.9793L95.6067 98.8595L128.414 79.9282Z" fill="#263238"/>
<path d="M65.1222 108.753C65.58 108.989 66.0878 109.112 66.603 109.112C67.1182 109.112 67.6259 108.989 68.0838 108.753L70.522 124.493C70.522 127.467 62.7988 127.467 62.7988 124.493L65.1222 108.753Z" fill="#263238"/>
<path d="M64.9808 117.74L64.4957 126.369C64.3365 126.321 64.1825 126.257 64.0361 126.178L64.9808 117.74Z" fill="#2E353A"/>
<path d="M68.6316 126.433L67.6104 112.391L69.1294 126.229C68.9677 126.307 68.8014 126.375 68.6316 126.433Z" fill="#2E353A"/>
<path d="M66.8972 126.714H66.4121L66.6674 115.57L66.8972 126.714Z" fill="#2E353A"/>
<path d="M66.5903 110.068C67.1562 110.054 67.7042 109.867 68.1605 109.532C68.3545 109.388 68.4864 109.176 68.5291 108.939C68.5718 108.702 68.5221 108.457 68.3903 108.255C68.2509 108.056 68.0396 107.92 67.8012 107.875C67.5628 107.829 67.3162 107.879 67.1137 108.013C66.9922 108.13 66.8297 108.196 66.6605 108.196C66.4913 108.196 66.3288 108.13 66.2074 108.013C66.1081 107.924 65.9915 107.857 65.865 107.817C65.7385 107.776 65.6049 107.762 65.4726 107.775C65.3404 107.789 65.2125 107.83 65.097 107.896C64.9814 107.961 64.8809 108.051 64.8017 108.157C64.7225 108.264 64.6664 108.386 64.637 108.516C64.6076 108.645 64.6055 108.78 64.6309 108.91C64.6562 109.041 64.7085 109.165 64.7843 109.274C64.8601 109.383 64.9578 109.475 65.0712 109.544C65.5106 109.873 66.0417 110.056 66.5903 110.068Z" fill="#263238"/>
<path d="M66.6538 107.617C66.779 107.618 66.9032 107.595 67.0193 107.548C67.1354 107.502 67.241 107.432 67.3301 107.345C67.4192 107.257 67.4899 107.152 67.5382 107.037C67.5864 106.921 67.6113 106.797 67.6113 106.672V84.3579C67.6125 83.8562 67.7452 83.3636 67.996 82.9291C68.2469 82.4946 68.6071 82.1334 69.041 81.8814L96.1422 66.4351C96.3575 66.3118 96.5156 66.1089 96.5825 65.87C96.6493 65.6312 96.6196 65.3756 96.4997 65.1585C96.4398 65.0507 96.3592 64.9558 96.2625 64.8794C96.1657 64.803 96.0548 64.7465 95.936 64.7132C95.8173 64.68 95.6931 64.6706 95.5708 64.6857C95.4484 64.7008 95.3302 64.74 95.2231 64.8011L68.0581 80.2729C67.3339 80.691 66.7323 81.2919 66.3134 82.0155C65.8944 82.7391 65.6729 83.5601 65.6709 84.3962V106.71C65.6758 106.834 65.7052 106.956 65.7573 107.069C65.8093 107.182 65.8831 107.283 65.9744 107.367C66.0657 107.452 66.1727 107.517 66.2893 107.56C66.4059 107.602 66.5298 107.622 66.6538 107.617Z" fill="#455360"/>
<path d="M68.7476 106.672C68.7501 106.258 68.6295 105.852 68.401 105.506C68.1725 105.16 67.8464 104.889 67.4641 104.729C67.0818 104.569 66.6605 104.525 66.2535 104.605C65.8466 104.684 65.4723 104.882 65.1783 105.175C64.8842 105.467 64.6835 105.84 64.6017 106.246C64.5199 106.653 64.5606 107.074 64.7187 107.458C64.8768 107.841 65.1451 108.169 65.4896 108.399C65.8342 108.63 66.2395 108.753 66.6541 108.753C66.9284 108.755 67.2003 108.702 67.4543 108.598C67.7082 108.494 67.9391 108.341 68.1336 108.148C68.3282 107.955 68.4826 107.725 68.588 107.471C68.6934 107.218 68.7476 106.947 68.7476 106.672Z" fill="#263238"/>
<path d="M64.5871 106.787C64.6743 107.003 64.8071 107.198 64.9763 107.358C65.1455 107.518 65.3472 107.639 65.5676 107.714C65.7881 107.79 66.0221 107.816 66.2539 107.793C66.4856 107.769 66.7095 107.696 66.9104 107.578C67.1668 107.424 67.3789 107.206 67.5262 106.945C67.6734 106.685 67.7508 106.391 67.7508 106.091C67.7508 105.792 67.6734 105.498 67.5262 105.237C67.3789 104.977 67.1668 104.758 66.9104 104.604C67.301 104.658 67.6682 104.822 67.9692 105.076C68.2703 105.331 68.4929 105.665 68.6111 106.041C68.7293 106.418 68.7382 106.819 68.6368 107.2C68.5355 107.581 68.3279 107.926 68.0384 108.193C67.7489 108.461 67.3894 108.641 67.0016 108.712C66.6139 108.783 66.2139 108.743 65.8482 108.595C65.4826 108.448 65.1663 108.2 64.9363 107.879C64.7062 107.559 64.5719 107.18 64.5488 106.787H64.5871Z" fill="#2E353A"/>
<path d="M436.484 94.3532L426.616 88.6726L432.042 87.5237L437.441 91.2895L436.484 94.3532Z" fill="#B4CAFD"/>
<path d="M419.212 43.5081C419.212 28.1894 409.83 21.079 398.302 27.7299L381.273 37.5593C369.784 44.2102 360.376 62.133 360.376 77.5027C360.376 78.1282 360.376 78.7792 360.376 79.3281C360.376 79.6728 360.376 79.9664 360.376 80.2983C360.376 80.6302 360.44 80.8983 360.465 81.1919C360.491 81.4855 360.542 81.8685 360.593 82.2004C360.85 84.0144 361.304 85.7951 361.946 87.5108C362.214 88.1491 362.495 88.7874 362.801 89.3236C362.943 89.6196 363.105 89.9054 363.287 90.1788L363.452 90.4469C363.737 90.9042 364.066 91.3319 364.435 91.7235C364.64 91.9533 364.831 92.1958 365.048 92.4128L365.712 93.0511C365.942 93.2298 366.159 93.4468 366.401 93.6255C366.63 93.8102 366.874 93.9767 367.129 94.1234L367.882 94.5574C368.858 95.084 369.915 95.4422 371.01 95.617C371.094 95.5964 371.181 95.5964 371.265 95.617C371.559 95.617 371.827 95.6808 372.12 95.6808C372.43 95.7063 372.742 95.7063 373.052 95.6808C373.873 95.6897 374.691 95.5997 375.49 95.4127C375.968 95.3176 376.441 95.1984 376.907 95.0553C378.399 94.5983 379.83 93.964 381.171 93.166L398.2 83.3365C399.367 82.6588 400.485 81.8995 401.545 81.0643C401.545 80.86 401.545 80.6813 401.545 80.4898C401.545 80.2983 401.545 79.8898 401.545 79.66C401.545 79.1494 401.545 78.626 401.545 78.1027C401.507 65.0435 409.37 49.6355 419.212 43.5081Z" fill="#B4CAFD"/>
<path d="M422.085 32.4661L412.191 26.7727C412.255 26.7727 413.2 33.6533 413.2 33.6533L420.54 34.5214L422.085 32.4661Z" fill="#B4CAFD"/>
<path d="M376.371 99.3701L367.23 94.1873L372.732 91.8257L376.371 99.3701Z" fill="#B4CAFD"/>
<path d="M381.273 93.319C381.208 97.102 379.992 100.776 377.788 103.851C377.379 104.387 378.005 104.859 378.464 104.617C380.551 103.534 382.399 102.045 383.902 100.238C386.79 96.8257 388.809 92.7657 389.787 88.4043L381.273 93.319Z" fill="#B4CAFD"/>
<path d="M377.891 104.591L387.784 110.285C387.784 110.285 393.337 105.6 393.337 96.1151L382.601 95.3875C382.601 95.3875 382.346 101.566 377.891 104.591Z" fill="#B4CAFD"/>
<path d="M404.239 76.6857C404.239 77.1623 404.239 77.6218 404.239 78.0644C404.239 78.3197 404.239 78.5367 404.239 78.7793C404.239 79.0218 404.239 79.2261 404.316 79.4558C404.392 79.6856 404.316 79.9665 404.405 80.2218C404.553 81.3526 404.818 82.4649 405.197 83.5408C405.251 83.7368 405.32 83.9288 405.401 84.1153C405.494 84.3717 405.601 84.6231 405.72 84.8684C405.819 85.1056 405.935 85.3359 406.065 85.5578C406.166 85.7802 406.285 85.9937 406.422 86.196L406.55 86.4003C406.775 86.7519 407.022 87.0888 407.29 87.4088C407.43 87.5948 407.583 87.7698 407.75 87.9321L408.235 88.4045C408.4 88.5597 408.575 88.7046 408.758 88.8385C408.933 88.9736 409.116 89.0973 409.307 89.2087C409.499 89.3236 409.677 89.4385 409.882 89.5406L410.469 89.8214L411.082 90.0385C411.455 90.1516 411.834 90.2453 412.218 90.3193H412.409C412.622 90.3388 412.835 90.3388 413.047 90.3193C413.277 90.3452 413.508 90.3452 413.737 90.3193C414.286 90.3191 414.833 90.2635 415.371 90.1533C415.802 90.0803 416.228 89.9822 416.647 89.8597C417.768 89.5163 418.843 89.0407 419.851 88.4428L432.617 81.0643C433.756 80.4071 434.829 79.6419 435.821 78.7793C436.179 78.4729 436.536 78.141 436.893 77.8091C437.537 77.2096 438.146 76.5746 438.719 75.907L439.536 75.1666C439.753 74.9113 439.957 74.6432 440.174 74.3751C440.227 74.2824 440.291 74.1966 440.366 74.1198C441.216 72.996 442 71.8238 442.715 70.6093C442.906 70.2902 443.085 69.9583 443.276 69.6264C443.468 69.2945 443.646 68.9626 443.825 68.6179C444.004 68.2732 444.17 67.9286 444.349 67.5967L444.834 66.5499C445 66.2052 445.153 65.835 445.306 65.5031C445.574 64.8904 445.817 64.2266 446.034 63.6393C446.034 63.5245 446.123 63.4096 446.161 63.2947C446.302 62.9372 446.417 62.5798 446.531 62.2224C446.761 61.533 446.965 60.8437 447.17 60.1288C447.619 58.451 447.956 56.7452 448.178 55.0226C448.178 54.729 448.242 54.4482 448.28 54.1546C448.319 53.8609 448.28 53.6567 448.344 53.4014C448.408 53.1461 448.344 52.8908 448.344 52.6355C448.344 52.1589 448.344 51.6865 448.344 51.2185C448.344 39.7295 441.31 34.3552 432.655 39.3465L419.89 46.7378C411.273 51.7036 404.239 65.1457 404.239 76.6857Z" fill="#B4CAFD"/>
<path d="M452.951 44.2486L443.135 38.6062L439.433 41.2231L450.883 48.1548L452.951 44.2486Z" fill="#B4CAFD"/>
<path d="M419.251 94.8894L409.383 89.2088L417.119 86.8982L419.251 94.8894Z" fill="#B4CAFD"/>
<path d="M430.764 82.3027C430.764 84.3452 433.318 87.1281 436.241 87.6515C436.637 87.7281 436.534 88.5961 436.062 88.928C434.32 89.8743 432.31 90.2071 430.356 89.8727C429.087 89.8349 427.851 89.4603 426.774 88.7873C425.697 88.1144 424.819 87.1673 424.229 86.043L430.764 82.3027Z" fill="#437BFA"/>
<path d="M408.183 33.4105L391.141 43.2527C379.652 49.9036 370.257 67.8264 370.257 83.1833C370.257 83.8216 370.257 84.4599 370.257 85.0215C370.257 85.3662 370.257 85.6598 370.257 85.9917C370.257 86.3236 370.321 86.5789 370.359 86.8725C370.397 87.1661 370.436 87.5746 370.487 87.8938C370.717 89.7011 371.145 91.4776 371.763 93.1915C372.031 93.8425 372.312 94.468 372.618 95.017C372.759 95.3093 372.921 95.5909 373.104 95.8595C373.157 95.9527 373.217 96.0422 373.282 96.1275C373.56 96.6099 373.885 97.0633 374.252 97.4807C374.457 97.7105 374.661 97.9658 374.878 98.17L375.529 98.8083C375.759 98.987 375.989 99.204 376.218 99.3828C376.45 99.5646 376.693 99.7309 376.946 99.8806L377.712 100.315C378.684 100.839 379.737 101.197 380.827 101.374C380.909 101.346 380.999 101.346 381.082 101.374C381.376 101.374 381.656 101.374 381.937 101.374C382.248 101.393 382.559 101.393 382.869 101.374C383.689 101.378 384.507 101.288 385.307 101.106C385.785 101.011 386.258 100.892 386.724 100.749C388.213 100.288 389.643 99.6582 390.988 98.8721C390.925 102.654 389.704 106.325 387.49 109.391C387.082 109.94 387.707 110.412 388.18 110.17C390.269 109.086 392.118 107.592 393.618 105.778C396.497 102.366 398.515 98.3119 399.503 93.9574L398.226 94.6595L407.966 89.0427C408.909 88.4995 409.817 87.8984 410.685 87.2427C410.61 86.9187 410.555 86.5905 410.519 86.2598C410.519 86.0428 410.443 85.7236 410.417 85.3917C410.371 85.1086 410.341 84.823 410.328 84.5364V84.3833C410.315 84.1707 410.315 83.9576 410.328 83.745C410.328 83.2599 410.328 82.7493 410.328 82.2387C410.328 69.3199 417.987 54.7545 427.842 49.0483L428.927 48.41C428.825 33.6403 419.545 26.849 408.183 33.4105Z" fill="#F0F0F0"/>
<path d="M442.586 45.0019L429.821 52.3804C421.178 57.3845 414.132 70.8266 414.132 82.3666C414.132 82.8389 414.132 83.2985 414.132 83.7453C414.132 84.1921 414.132 84.2176 414.132 84.4602C414.132 84.7027 414.132 84.9069 414.196 85.1367C414.216 85.3894 414.25 85.6408 414.298 85.8899C414.438 87.0263 414.704 88.1436 415.089 89.2217C415.138 89.4195 415.207 89.6119 415.294 89.7961C415.38 90.0491 415.482 90.2964 415.6 90.5365C415.702 90.7767 415.817 91.011 415.945 91.2386C416.05 91.4614 416.174 91.6749 416.315 91.8769C416.345 91.9494 416.383 92.018 416.43 92.0812C416.672 92.4386 416.915 92.7705 417.17 93.0897C417.317 93.2729 417.475 93.4476 417.642 93.613L418.127 94.0854C418.293 94.2406 418.468 94.3855 418.651 94.5194C418.819 94.6572 418.998 94.781 419.187 94.8896C419.378 95.0045 419.557 95.1194 419.761 95.2215L420.349 95.5023L420.961 95.7194C421.335 95.8325 421.714 95.9262 422.098 96.0002H422.289C422.501 96.0197 422.715 96.0197 422.927 96.0002C423.16 96.0325 423.396 96.0325 423.629 96.0002C424.178 96.0033 424.725 95.952 425.263 95.847C425.694 95.7729 426.12 95.6749 426.54 95.5534C427.662 95.2148 428.738 94.7389 429.744 94.1364L434.059 91.6599C434.657 92.7722 435.539 93.7064 436.616 94.3678C437.692 95.0292 438.924 95.3942 440.186 95.4257C442.142 95.7552 444.151 95.418 445.892 94.4683C446.352 94.1747 446.467 93.3067 446.058 93.1918C443.135 92.6684 440.595 89.8855 440.595 87.843L442.535 86.7197C443.672 86.0594 444.745 85.2944 445.739 84.4346C446.097 84.1283 446.454 83.7963 446.799 83.4644C447.447 82.8651 448.06 82.2301 448.637 81.5624C448.867 81.2943 449.097 81.039 449.326 80.7326C449.556 80.4262 449.748 80.222 449.965 79.9539L450.156 79.6986C451.006 78.5747 451.79 77.4026 452.505 76.1881L453.079 75.2051C453.271 74.8732 453.45 74.5413 453.628 74.1967C453.807 73.852 453.96 73.5073 454.139 73.1754L454.637 72.1287C454.803 71.7712 454.943 71.4138 455.096 71.0819C455.364 70.4691 455.62 69.8053 455.837 69.2181L455.952 68.8734C456.092 68.516 456.22 68.1586 456.322 67.8011C456.564 67.099 456.756 66.4225 456.973 65.7076C457.422 64.0298 457.759 62.3239 457.981 60.6014C457.981 60.3078 458.045 60.0269 458.071 59.7333C458.096 59.4397 458.071 59.2227 458.135 58.9802C458.198 58.7376 458.135 58.4695 458.135 58.2142C458.135 57.7419 458.135 57.2568 458.135 56.7845C458.275 45.3338 451.228 40.0106 442.586 45.0019Z" fill="#F0F0F0"/>
<path d="M340.028 213.864C335.203 212.357 330.25 216.263 327.007 224.153C323.765 232.042 316.961 252.109 315.952 257.458C314.944 262.807 337.769 274.449 337.13 274.142C336.492 273.836 340.028 213.864 340.028 213.864Z" fill="#263238"/>
<path d="M329.419 399.551C328.73 399.806 328.564 401.109 328.462 403.687C328.385 405.64 327.964 409.049 330.249 409.725C332.534 410.402 335.891 410.057 337.359 408.219C339.185 405.921 340.423 403.904 343.027 401.096C345.299 398.67 347.738 396.398 348.657 392.99C349.486 389.9 348.797 388.573 346.691 387.679C343.806 386.403 339.261 390.462 337.002 391.1C335.049 391.649 330.096 399.296 329.419 399.551Z" fill="#263238"/>
<path d="M329.42 397.164V400.33C330.608 401.09 331.982 401.512 333.392 401.55C334.802 401.588 336.196 401.242 337.424 400.547C337.564 400.241 338.254 396.015 338.254 396.015L329.42 397.164Z" fill="#FFBDA7"/>
<path d="M355.065 417.806C355.065 417.806 354.159 420.563 353.674 422.912C353.278 424.827 352.729 428.018 353.393 429.474C354.057 430.929 356.687 431.848 360.733 431.81C363.363 431.81 367.461 433.584 370.257 435.141C373.052 436.699 379.192 437.401 382.243 437.044C385.843 436.622 389.583 434.49 390.171 433.035C390.758 431.58 389.979 429.984 381.477 426.359C381.401 426.359 369.657 422.529 365.533 417.972L355.065 417.806Z" fill="#263238"/>
<path d="M355.064 414.385C355.064 414.385 355.064 416.733 355.064 418.074C355.064 419.414 356.647 421.418 360.758 421.278C363.643 421.176 365.647 420.397 365.532 418.023V414.589L355.064 414.385Z" fill="#FFBDA7"/>
<path d="M327.351 355.127C328.057 349.516 329.31 343.988 331.091 338.621C331.091 338.621 329.968 324.388 329.419 310.894C328.832 296.316 329.419 277.985 329.177 274.359C329.177 274.359 376.218 264.836 377.06 281.687C377.903 298.537 375.196 341.429 374.648 348.833C374.099 356.238 372.809 362.786 371.277 374.786C369.746 386.785 365.533 414.589 365.533 414.589C363.906 415.418 362.099 415.833 360.273 415.797C358.448 415.762 356.659 415.277 355.065 414.385C355.065 414.385 351.759 380.684 352.104 372.143C352.373 365.8 353.462 359.518 355.346 353.455L353.674 327.477C352.882 315.388 352.053 309.605 351.861 304.333L350.853 303.822C350.853 303.822 349.819 324.681 349.27 332.085C348.721 339.489 347.534 346.587 345.44 360.335C343.576 372.258 338.049 397.496 338.049 397.496C332.674 400.406 329.47 397.125 329.47 397.125C329.47 397.125 325.921 365.467 327.351 355.127Z" fill="#455A64"/>
<path d="M351.862 304.371C351.862 304.371 340.449 298.742 334.743 293.674C334.743 293.674 340.041 301.142 347.011 304.461C347.011 304.461 349.487 330.362 349.475 329.851L350.904 304.32L351.862 304.371Z" fill="#37474F"/>
<path d="M362.022 208.528L359.239 223.846L345.401 222.838L348.299 205.464L362.022 208.528Z" fill="#FFBDA7"/>
<path d="M330.786 221.714C332.152 217.553 337.437 213.021 342.722 214.055C350.582 215.385 358.328 217.318 365.891 219.838C370.729 221.561 375.133 225.748 375.542 241.68L377.993 289.116L372.133 290.393L370.091 279.644L369.146 290.393C363.019 291.925 352.385 290.661 345.402 289.116C330.85 285.938 329.101 279.9 329.101 279.9C329.101 279.9 328.909 253.207 329.343 241.68C329.752 231.825 329.841 224.523 330.786 221.714Z" fill="#37474F"/>
<path d="M372.261 190.375C372.261 190.375 375.618 195.341 375.184 195.864C374.408 196.387 373.543 196.764 372.631 196.975L372.261 190.375Z" fill="#FFBDA7"/>
<path d="M362.022 174.648C365.251 176.282 370.83 179.295 372.362 191.103C373.945 203.23 371.864 207.136 370.23 208.745C369.119 209.83 363.094 209.894 360.081 208.987C356.252 207.851 347.801 204.621 343.92 198.392C339.35 191.064 338.329 181.248 343.486 177.341C350.724 171.852 359.29 173.269 362.022 174.648Z" fill="#FFBDA7"/>
<path d="M373.04 178.708C371.98 181.618 370.193 188.741 362.763 191.716C362.763 191.716 361.704 187.171 357.887 187.656C354.07 188.141 353.419 193.005 355.768 196.03C358.117 199.056 360.389 197.958 360.389 197.958C360.389 197.958 360.9 204.468 356.559 207.417C356.559 207.417 351.313 210.736 345.76 208.183C343.207 207.034 339.722 201.047 337.654 196.133C333.262 185.741 332.637 177.406 339.262 174.776C340.079 170.053 342.211 168.278 346.487 167.397C355.691 165.495 362.649 171.546 370.384 170.487C374.431 169.925 374.252 175.389 373.04 178.708Z" fill="#37474F"/>
<path d="M339.109 176.359L334.769 173.678C334.937 173.377 335.164 173.114 335.437 172.903C335.71 172.693 336.022 172.539 336.356 172.453C336.689 172.366 337.037 172.348 337.378 172.4C337.718 172.451 338.045 172.571 338.338 172.752C338.632 172.933 338.885 173.172 339.084 173.453C339.282 173.735 339.422 174.054 339.494 174.391C339.566 174.728 339.569 175.076 339.502 175.414C339.436 175.752 339.302 176.074 339.109 176.359Z" fill="#37474F"/>
<path d="M361.001 214.106L362.584 218.689C362.584 218.689 361.423 220.731 356.482 220.833C351.542 220.936 346.27 219.365 344.636 217.259C344.264 216.847 343.988 216.357 343.829 215.824C343.67 215.292 343.632 214.731 343.717 214.183C343.717 214.183 345.683 209.842 347.546 210.034L347.24 211.923C347.24 211.923 347.661 213.468 352.142 214.655C359.112 216.506 361.001 214.106 361.001 214.106Z" fill="#455A64"/>
<path d="M400.702 244.565C402.694 242.28 403.46 237.212 406.115 233.74C408.77 230.268 409.753 227.727 410.8 229.246C412.191 231.251 409.051 235.272 409.753 235.629C410.455 235.987 413.046 241.323 413.314 244.259C413.583 247.195 405.796 254.599 405.796 254.599L400.702 244.565Z" fill="#FFBDA7"/>
<path d="M361.002 214.106C361.323 214.1 361.64 214.181 361.919 214.341C362.198 214.5 362.428 214.732 362.585 215.013C363.366 216.422 364.065 217.876 364.678 219.366L362.585 218.689L361.002 214.106Z" fill="#455A64"/>
<path d="M409.536 235.22C409.536 235.22 418.944 234.403 420.31 235.22C421.676 236.037 421.268 240.109 420.31 242.612C419.353 245.114 414.553 246.735 410.098 249.747C410.098 249.288 409.536 235.22 409.536 235.22Z" fill="#FFBDA7"/>
<path d="M364.678 219.417C368.724 220.834 372.26 222.455 376.039 229.553C380.89 238.667 390.081 253.245 390.081 253.245L400.664 243.914C400.664 243.914 402.259 242.369 405.234 247.284C406.105 248.607 406.657 250.115 406.845 251.688C407.034 253.261 406.853 254.856 406.319 256.347C406.319 256.347 394.102 270.683 391.766 272.866C389.43 275.049 385.562 273.351 383.047 269.917C380.533 266.483 364.639 246.633 364.639 246.633C364.639 246.633 356.01 235.169 364.678 219.417Z" fill="#37474F"/>
<path d="M473.836 195.583H443.696C442.559 195.583 441.468 195.132 440.663 194.327C439.859 193.523 439.407 192.432 439.407 191.294V143.411C439.407 139.643 440.904 136.029 443.569 133.364C446.233 130.7 449.847 129.203 453.615 129.203H463.955C467.717 129.213 471.321 130.714 473.977 133.378C476.633 136.041 478.125 139.649 478.125 143.411V191.294C478.125 192.432 477.673 193.523 476.869 194.327C476.064 195.132 474.973 195.583 473.836 195.583Z" fill="#37474F"/>
<path d="M438.616 179.244C435.693 187.86 430.791 212.651 430.791 212.651C430.791 212.651 420.578 225.136 417.247 228.161C415.421 229.846 411.311 232.872 411.311 232.872L418.778 238.361C425.521 233.174 431.854 227.477 437.722 221.319C439.028 219.93 439.943 218.221 440.378 216.366L445.484 194.46C445.484 194.46 445.484 176.844 448.177 174.533C450.871 172.223 451.65 171.737 451.65 171.737C448.19 171.482 440.914 172.465 438.616 179.244Z" fill="#F7A9A0"/>
<path d="M453.244 171.482C448.482 170.933 442.38 171.036 439.406 176.359C436.432 181.682 431.479 209.204 431.479 209.204C431.479 209.204 436.163 212.843 441.219 212.779L453.244 171.482Z" fill="#437BFA"/>
<path d="M440.007 197.128C440.864 201.231 441.194 205.426 440.99 209.613C440.62 215.127 436.815 224.753 436.815 224.753C436.815 224.753 439.79 228.021 448.177 226.706C455.006 225.646 452.594 205.004 448.675 201.047C446.389 198.686 443.289 197.284 440.007 197.128Z" fill="#437BFA"/>
<path opacity="0.3" d="M440.007 197.128C440.864 201.231 441.194 205.426 440.99 209.613C440.62 215.127 436.815 224.753 436.815 224.753C436.815 224.753 439.79 228.021 448.177 226.706C455.006 225.646 452.594 205.004 448.675 201.047C446.389 198.686 443.289 197.284 440.007 197.128Z" fill="black"/>
<path d="M455.786 342.911C455.84 343.852 455.604 344.788 455.109 345.591C453.847 347.678 452.361 349.621 450.68 351.387C448.318 353.94 444.782 356.94 442.242 359.148C440.837 360.425 440.786 362.238 442.803 362.889C446.563 363.804 450.53 363.252 453.897 361.344C456.45 359.991 459.999 353.685 462.092 352.791C464.505 351.706 465.845 351.17 466.662 350.059C467.28 349.428 467.666 348.606 467.756 347.727C467.846 346.848 467.636 345.965 467.16 345.221C466.024 343.102 464.313 339.847 463.611 340.217L463.828 340.881C463.279 342.604 458.582 344.608 456.169 344.136L455.786 342.911Z" fill="#37474F"/>
<path d="M480.384 270.887C481.469 259.398 484.584 240.914 481.393 227.229L439.011 229.476C437.837 242.969 436.458 285.095 437.939 289.921C439.65 295.614 454.93 335.021 455.811 342.949C455.871 343.879 455.634 344.805 455.134 345.591C453.873 347.683 452.388 349.63 450.704 351.4C449.556 352.676 448.151 353.953 446.671 355.229C446.547 355.411 446.472 355.622 446.454 355.842C446.454 357.119 449.67 357.514 451.56 356.965C453.916 356.134 455.946 354.573 457.355 352.51C458.44 351.068 460.879 348.298 462.462 346.217C462.99 345.575 463.44 344.872 463.802 344.123C464.225 343.188 464.297 342.133 464.006 341.149L463.904 340.83C463.076 338.246 462.561 335.571 462.372 332.864C461.785 324.171 460.291 304.091 458.913 298.742C457.956 294.844 456.501 291.086 454.585 287.559L459.423 249.914C459.423 249.914 459.934 283.104 461.44 291.568C462.627 298.346 463.087 306.822 464.479 318.452C465.755 329.583 467.236 349.191 467.236 349.191C467.274 349.198 467.313 349.198 467.351 349.191V358.561H475.278V353.123C475.278 350.668 475.483 348.217 475.891 345.795C477.167 338.391 479.823 321.452 480.372 315.72C481.24 306.631 477.959 295.206 477.959 295.206C477.959 295.206 479.325 282.096 480.384 270.887Z" fill="#FFBDA7"/>
<path d="M465.449 171.878C465.449 171.878 476.848 173.155 478.214 173.806C467.517 181.325 476.185 198.06 476.185 198.06L472.087 210.915C476.644 216.749 480.576 220.221 483.014 226.617C485.72 233.765 488.12 244.399 487.482 266.19C477.27 273.849 446.198 273.019 434.097 266.19C434.097 266.19 436.139 246.952 438.552 232.004C440.148 222.136 443.913 211.387 443.275 207.749C438.475 192.992 438.169 190.337 439.037 187.043C441.424 177.776 450.871 171.508 453.194 171.508L465.449 171.878Z" fill="#437BFA"/>
<path opacity="0.6" d="M465.449 171.878C465.449 171.878 476.848 173.155 478.214 173.806C467.517 181.325 476.185 198.06 476.185 198.06L472.087 210.915C476.644 216.749 480.576 220.221 483.014 226.617C485.72 233.765 488.12 244.399 487.482 266.19C477.27 273.849 446.198 273.019 434.097 266.19C434.097 266.19 436.139 246.952 438.552 232.004C440.148 222.136 443.913 211.387 443.275 207.749C438.475 192.992 438.169 190.337 439.037 187.043C441.424 177.776 450.871 171.508 453.194 171.508L465.449 171.878Z" fill="white"/>
<path d="M467.275 354.591V353.455C466.279 357.272 464.288 360.756 461.505 363.552C458.951 365.863 455.505 368.544 454.611 371.135C453.718 373.726 458.709 374.888 462.002 374.556C465.194 374.166 468.134 372.628 470.275 370.229C472.368 367.829 472.33 366.195 473.3 364.867C474.27 363.54 476.53 362.084 477.053 360.552C477.216 359.123 477.059 357.675 476.593 356.314C476.223 354.897 475.815 353.327 475.317 353.455V354.336C474.168 355.239 472.744 355.722 471.283 355.702C470.172 355.727 467.262 355.485 467.275 354.591Z" fill="#37474F"/>
<path d="M475.278 354.31C474.13 355.214 472.706 355.696 471.244 355.676C470.07 355.676 467.21 355.484 467.223 354.591V353.455C466.227 357.272 464.236 360.756 461.453 363.552L459.525 365.275C458.172 366.782 458.555 368.097 461.734 368.365C464.913 368.633 467.708 366.718 470.108 363.769C472.154 360.804 473.887 357.633 475.278 354.31Z" fill="#FFBDA7"/>
<path d="M445.765 137.028C443.722 138.241 441.195 143.411 441.437 154.159C441.654 163.3 444.616 165.559 446.109 166.21C447.603 166.861 450.462 166.465 453.245 166.006V171.482C453.245 171.482 449.416 175.963 449.633 178.478C449.85 180.993 455.198 181.58 458.811 179.129C461.419 177.106 463.664 174.654 465.449 171.878L465.385 159.278C465.385 159.278 467.032 160.861 469.815 158.436C472.113 156.432 472.879 153.036 471.091 151.223C470.627 150.787 470.066 150.468 469.453 150.293C468.841 150.118 468.196 150.092 467.571 150.216C466.946 150.341 466.361 150.614 465.863 151.011C465.365 151.408 464.969 151.919 464.709 152.5C464.709 152.5 463.164 148.198 456.743 146.117C450.947 144.19 447.794 142.007 445.765 137.028Z" fill="#FFBDA7"/>
<path d="M451.649 151.874C451.65 152.099 451.716 152.319 451.84 152.507C451.964 152.694 452.141 152.841 452.348 152.93C452.555 153.018 452.783 153.044 453.004 153.003C453.226 152.963 453.43 152.858 453.593 152.703C453.755 152.547 453.869 152.347 453.919 152.128C453.968 151.908 453.953 151.679 453.874 151.469C453.795 151.258 453.655 151.075 453.473 150.943C453.291 150.811 453.074 150.735 452.849 150.725C452.695 150.722 452.542 150.749 452.398 150.805C452.254 150.861 452.123 150.944 452.011 151.051C451.9 151.158 451.811 151.285 451.749 151.427C451.686 151.568 451.653 151.72 451.649 151.874Z" fill="#37474F"/>
<path d="M451.343 159.61L448.675 160.465C448.722 160.643 448.804 160.81 448.917 160.956C449.03 161.101 449.171 161.222 449.332 161.312C449.493 161.401 449.671 161.457 449.854 161.476C450.037 161.495 450.222 161.477 450.398 161.423C450.758 161.3 451.058 161.043 451.233 160.706C451.409 160.368 451.448 159.976 451.343 159.61Z" fill="#F7A9A0"/>
<path d="M442.229 148.338L444.552 146.73C444.454 146.573 444.325 146.437 444.173 146.332C444.021 146.226 443.849 146.153 443.667 146.116C443.486 146.079 443.298 146.079 443.117 146.117C442.936 146.154 442.764 146.228 442.612 146.334C442.301 146.553 442.087 146.885 442.015 147.259C441.944 147.633 442.02 148.02 442.229 148.338Z" fill="#37474F"/>
<path d="M454.993 149.206L452.657 147.598C452.756 147.441 452.885 147.306 453.036 147.2C453.188 147.094 453.36 147.02 453.541 146.982C453.722 146.944 453.909 146.943 454.09 146.978C454.272 147.014 454.444 147.086 454.598 147.189C454.907 147.413 455.119 147.745 455.193 148.12C455.266 148.494 455.195 148.883 454.993 149.206Z" fill="#37474F"/>
<path d="M442.765 151.032C442.762 151.257 442.827 151.478 442.949 151.668C443.072 151.857 443.247 152.006 443.454 152.096C443.661 152.187 443.89 152.214 444.112 152.175C444.334 152.136 444.54 152.033 444.703 151.878C444.867 151.723 444.982 151.523 445.033 151.303C445.084 151.083 445.069 150.853 444.99 150.642C444.911 150.431 444.772 150.247 444.59 150.114C444.407 149.982 444.19 149.906 443.965 149.896C443.655 149.889 443.356 150.004 443.131 150.217C442.906 150.43 442.775 150.722 442.765 151.032Z" fill="#37474F"/>
<path d="M448.177 150.381L447.999 157.3L444.36 156.176L448.177 150.381Z" fill="#F7A9A0"/>
<path d="M453.244 166.006C456.18 165.61 462.18 163.874 463.176 161.487C462.797 162.696 462.057 163.761 461.057 164.538C459.244 166.082 453.244 167.831 453.244 167.831V166.006Z" fill="#F7A9A0"/>
<path d="M474.066 203.907L466.011 214.808L472.087 210.915L474.066 203.907Z" fill="#437BFA"/>
<path d="M410.61 232.872C408.886 235.093 407.827 239.408 406.92 240.863C406.014 242.318 404.929 243.582 406.92 243.85C408.912 244.118 411.822 240.225 412.907 237.863C413.457 236.531 414.493 235.459 415.805 234.863C414.873 234.544 415.358 230.804 414.707 230.281C414.707 230.281 411.312 231.672 410.61 232.872Z" fill="#F7A9A0"/>
<path d="M410.099 249.722C411.899 248.382 411.962 246.735 412.307 244.118C412.652 241.501 419.864 238.667 420.094 240.62C420.324 242.573 420.975 244.207 418.817 246.582C416.66 248.956 413.392 251.484 410.099 249.722Z" fill="#F7A9A0"/>
<path d="M465.449 171.878C465.449 171.878 476.121 172.81 478.214 173.805C480.308 174.801 483.793 180.826 480.678 189.571C477.563 198.315 474.729 208.604 475.048 210.672C475.368 212.74 482.81 223.438 482.81 223.438C480.756 224.953 478.435 226.066 475.967 226.718L472.138 218.395L473.031 227.242C469.185 228.177 465.232 228.606 461.274 228.518C461.274 228.518 457.662 194.536 465.449 171.878Z" fill="#437BFA"/>
<path d="M491.746 213.557C492.602 208.528 491.746 206.881 489.985 201.954L481.049 207.736C481.782 209.596 482.213 211.562 482.325 213.557C482.249 215.013 480.27 229.438 478.419 234.467C478.086 235.362 477.43 236.099 476.581 236.535C474.74 237.659 473.072 239.044 471.628 240.646C470.262 241.922 469.164 242.152 469.305 242.586C469.515 243.057 469.893 243.433 470.364 243.643C470.835 243.852 471.367 243.881 471.858 243.722C472.97 243.361 474.036 242.873 475.036 242.267C474.15 244.145 472.969 245.868 471.539 247.373C468.258 250.871 467.964 253.143 474.092 253.616C477.921 253.909 481.125 251.765 484.585 243.531C485.657 240.512 486.539 237.43 487.227 234.301C489.091 227.166 490.904 218.625 491.746 213.557Z" fill="#FFBDA7"/>
<path d="M478.215 173.806C482.517 175.733 483.742 179.537 485.338 185.129C486.934 190.72 491.938 207.494 491.938 207.494C491.938 207.494 487.649 212.6 481.725 211.17L474.066 192.571C474.066 192.571 470.492 180.431 478.215 173.806Z" fill="#437BFA"/>
</svg>
