<svg width="540" height="359" viewBox="0 0 540 359" fill="none" xmlns="http://www.w3.org/2000/svg">
<rect width="540" height="359" rx="5" fill="#D8ECFF"/>
<path d="M484.028 304.311H56V304.525H484.028V304.311Z" fill="#EBEBEB"/>
<path d="M129.261 312.46H100.908V312.674H129.261V312.46Z" fill="#EBEBEB"/>
<path d="M242.526 310.141H202.506V310.355H242.526V310.141Z" fill="#EBEBEB"/>
<path d="M168.991 319.078H152.563V319.292H168.991V319.078Z" fill="#EBEBEB"/>
<path d="M349.233 315.362H323.371V315.576H349.233V315.362Z" fill="#EBEBEB"/>
<path d="M373.391 315.362H356.852V315.576H373.391V315.362Z" fill="#EBEBEB"/>
<path d="M441.147 318.975H391.017V319.189H441.147V318.975Z" fill="#EBEBEB"/>
<path d="M258.885 266.131H93.5895C92.2946 266.128 91.0535 265.612 90.1386 264.696C89.2238 263.779 88.71 262.537 88.71 261.243V28.8834C88.7212 27.5959 89.24 26.3648 90.1537 25.4576C91.0673 24.5504 92.3019 24.0403 93.5895 24.0381H258.885C260.182 24.0381 261.425 24.5531 262.342 25.4698C263.258 26.3865 263.773 27.6298 263.773 28.9262V261.243C263.773 262.539 263.258 263.782 262.342 264.699C261.425 265.616 260.182 266.131 258.885 266.131ZM93.5895 24.2093C92.3513 24.2116 91.1647 24.705 90.2899 25.5813C89.4152 26.4576 88.924 27.6452 88.924 28.8834V261.243C88.924 262.481 89.4152 263.668 90.2899 264.545C91.1647 265.421 92.3513 265.914 93.5895 265.917H258.885C260.124 265.914 261.312 265.421 262.188 264.545C263.064 263.669 263.557 262.482 263.559 261.243V28.8834C263.557 27.6444 263.064 26.4569 262.188 25.5808C261.312 24.7047 260.124 24.2116 258.885 24.2093H93.5895Z" fill="#EBEBEB"/>
<path d="M444.059 266.131H278.754C277.459 266.128 276.217 265.613 275.3 264.696C274.384 263.78 273.868 262.538 273.866 261.243V28.8834C273.88 27.5951 274.4 26.3641 275.315 25.4571C276.23 24.5501 277.466 24.0403 278.754 24.0381H444.059C445.345 24.0425 446.577 24.5536 447.489 25.4606C448.401 26.3676 448.918 27.5974 448.93 28.8834V261.243C448.93 262.536 448.417 263.777 447.504 264.693C446.591 265.609 445.352 266.126 444.059 266.131ZM278.754 24.2093C277.515 24.2116 276.328 24.7047 275.452 25.5808C274.576 26.4569 274.082 27.6444 274.08 28.8834V261.243C274.082 262.482 274.576 263.669 275.452 264.545C276.328 265.421 277.515 265.914 278.754 265.917H444.059C445.298 265.914 446.485 265.421 447.361 264.545C448.237 263.669 448.73 262.482 448.733 261.243V28.8834C448.73 27.6444 448.237 26.4569 447.361 25.5808C446.485 24.7047 445.298 24.2116 444.059 24.2093H278.754Z" fill="#EBEBEB"/>
<path d="M420.389 45.1738H355.055V290.845H420.389V45.1738Z" fill="#E6E6E6"/>
<path d="M424.377 45.1738H359.043V290.845H424.377V45.1738Z" fill="#F5F5F5"/>
<path d="M417.213 284.313V51.7056H366.209V284.313H417.213Z" fill="white"/>
<path d="M417.213 284.313V51.7056H414.2V284.313H417.213Z" fill="#E6E6E6"/>
<path d="M421.416 245.114H362.006V253.88H421.416V245.114Z" fill="#F5F5F5"/>
<path d="M421.416 63.2197H362.006V71.9857H421.416V63.2197Z" fill="#F5F5F5"/>
<path d="M175.848 45.1738H110.514V290.845H175.848V45.1738Z" fill="#E6E6E6"/>
<path d="M179.837 45.1738H114.503V290.845H179.837V45.1738Z" fill="#F5F5F5"/>
<path d="M172.672 284.313L172.672 51.7056H121.668L121.668 284.313H172.672Z" fill="white"/>
<path d="M172.672 284.313L172.672 51.7056H169.659V284.313H172.672Z" fill="#E6E6E6"/>
<path d="M176.875 245.114H117.465V253.88H176.875V245.114Z" fill="#F5F5F5"/>
<path d="M176.875 63.2197H117.465V71.9857H176.875V63.2197Z" fill="#F5F5F5"/>
<path d="M206.34 188.161L336.786 188.161V64.033L206.34 64.033L206.34 188.161Z" fill="#F5F5F5"/>
<path d="M206.341 64.0415H203.242V188.17H206.341V64.0415Z" fill="#F0F0F0"/>
<path d="M331.658 183.033V69.1777L211.485 69.1777V183.033H331.658Z" fill="#FAFAFA"/>
<path d="M211.477 125.678C251.103 121.106 290.739 130.24 330.366 125.678V123.392C290.739 127.955 251.103 118.829 211.477 123.392V125.678Z" fill="#F0F0F0"/>
<path d="M331.649 183.033V69.1777H330.365V183.033H331.649Z" fill="#F0F0F0"/>
<path d="M173.921 278.997C173.505 278.988 173.099 278.863 172.75 278.636C172.4 278.408 172.121 278.089 171.943 277.712C171.765 277.335 171.696 276.916 171.743 276.502C171.79 276.088 171.952 275.695 172.209 275.367C173.476 273.767 170.395 270.06 167.133 266.131C160.182 257.775 149.678 245.14 164.025 230.647C173.074 221.504 172.877 217.721 172.372 216.514C171.473 214.373 167.236 213.894 165.866 213.945C165.296 213.91 164.761 213.659 164.37 213.243C163.979 212.827 163.762 212.278 163.762 211.707C163.762 211.136 163.979 210.587 164.37 210.171C164.761 209.755 165.296 209.504 165.866 209.468C166.722 209.468 174.307 209.528 176.532 214.784C178.459 219.33 175.42 225.562 167.244 233.814C155.756 245.414 163.657 254.908 170.617 263.289C175.077 268.656 179.289 273.715 175.753 278.167C175.535 278.439 175.255 278.656 174.937 278.801C174.618 278.945 174.271 279.012 173.921 278.997Z" fill="#E0E0E0"/>
<path d="M141.529 258.82H189.289L178.716 304.311H152.11L141.529 258.82Z" fill="#F5F5F5"/>
<path d="M141.032 260.857H189.827C190.367 260.855 190.883 260.64 191.265 260.258C191.647 259.876 191.862 259.36 191.864 258.82C191.862 258.281 191.646 257.765 191.265 257.385C190.883 257.004 190.366 256.791 189.827 256.791H141.032C140.5 256.802 139.994 257.021 139.622 257.4C139.249 257.779 139.039 258.288 139.037 258.82C139.037 259.353 139.246 259.865 139.619 260.246C139.992 260.626 140.499 260.846 141.032 260.857Z" fill="#EBEBEB"/>
<path d="M182.191 210.915L137.069 225.819C137.069 225.819 120.718 214.776 132.591 209.811C126.95 200.18 126.231 181.39 144.405 175.945C162.579 170.501 161.295 197.038 161.295 197.038C161.295 197.038 183.707 173.334 182.696 201.49C186.977 200.317 205.065 204.606 182.191 210.915Z" fill="#E0E0E0"/>
<path d="M144.533 231.315H199.252C199.252 231.315 213.685 221.128 198.567 221.641C201.572 208.647 193.114 194.41 174.016 193.862C154.917 193.315 161.637 214.502 161.637 214.502C161.637 214.502 129.561 206.857 139.268 222.643C123.371 223.422 131.59 227.497 144.533 231.315Z" fill="#E6E6E6"/>
<path d="M188.226 234.259L145.235 235.809C144.113 235.822 143.006 235.55 142.018 235.019C141.03 234.487 140.193 233.713 139.585 232.77C137.959 230.467 137.531 227.633 144.405 226.777C142.205 219.98 147.067 208.141 164.839 207.225C182.611 206.309 173.699 222.737 173.699 222.737C173.699 222.737 200.588 211 191.411 228.455C195.537 228.284 210.424 233.463 188.226 234.259Z" fill="#E0E0E0"/>
<path d="M270.014 342.97C361.682 342.97 435.995 338.631 435.995 333.279C435.995 327.927 361.682 323.589 270.014 323.589C178.345 323.589 104.033 327.927 104.033 333.279C104.033 338.631 178.345 342.97 270.014 342.97Z" fill="#F5F5F5"/>
<path d="M192.035 96.1348C185.076 95.1589 179.083 114.035 185.076 118.598C191.068 123.16 204.457 125.617 216.416 120.31C225.122 116.466 223.538 107.692 217.486 97.9154C212.606 90.0654 201.897 81.7531 192.035 96.1348Z" fill="#263238"/>
<path d="M222.16 137.593C222.554 142.327 222.845 147.078 223.101 151.821C223.358 156.563 223.572 161.323 223.761 166.074L223.624 165.338C223.566 165.13 223.464 164.937 223.324 164.773C223.502 164.948 223.694 165.109 223.898 165.252C224.5 165.676 225.129 166.059 225.781 166.4C227.176 167.136 228.709 167.855 230.267 168.514C231.825 169.173 233.417 169.841 235.018 170.491L239.837 172.418L238.904 176.116C237.106 175.893 235.369 175.568 233.605 175.26C231.842 174.952 230.104 174.498 228.358 174.027C226.567 173.552 224.804 172.98 223.076 172.315C222.127 171.944 221.206 171.507 220.319 171.005C219.769 170.703 219.25 170.348 218.77 169.944C218.458 169.667 218.171 169.364 217.914 169.036C217.491 168.534 217.174 167.952 216.981 167.324L216.895 167.05L216.844 166.588C216.373 161.854 215.902 157.111 215.534 152.369C215.166 147.626 214.763 142.875 214.498 138.124L222.16 137.593Z" fill="#F7A9A0"/>
<path d="M221.621 131.225C223.281 134.846 224.189 144.528 224.403 158.387C221.34 159.1 218.486 160.515 216.065 162.522L212.315 140.753L214.396 137.131C214.95 135.583 215.915 134.215 217.188 133.175C218.461 132.134 219.993 131.46 221.621 131.225Z" fill="#407BFF"/>
<path opacity="0.1" d="M221.621 131.225C223.281 134.846 224.189 144.528 224.403 158.387C221.34 159.1 218.486 160.515 216.065 162.522L212.315 140.753L214.396 137.131C214.95 135.583 215.915 134.215 217.188 133.175C218.461 132.134 219.993 131.46 221.621 131.225Z" fill="white"/>
<path d="M238.425 171.93L245.556 171.553L241.216 177.289C241.216 177.289 236.721 176.638 235.72 173.865L238.425 171.93Z" fill="#FFBDA7"/>
<path d="M248.835 176.852L247.611 178.299C247.3 178.669 246.878 178.929 246.407 179.041C245.937 179.152 245.443 179.108 245 178.915L241.216 177.289L245.556 171.553L248.407 173.556C248.664 173.735 248.881 173.965 249.043 174.233C249.206 174.5 249.311 174.799 249.351 175.109C249.391 175.42 249.366 175.735 249.277 176.035C249.188 176.336 249.038 176.614 248.835 176.852Z" fill="#FFBDA7"/>
<path d="M221.287 133.51C221.407 138.647 220.687 149.304 217.075 171.476H188.346C188.825 159.783 189.399 152.455 183.809 128.451C187.648 127.669 191.539 127.171 195.451 126.961C199.794 126.653 204.154 126.653 208.497 126.961C211.314 127.218 214.31 127.672 216.604 128.066C217.895 128.288 219.069 128.953 219.924 129.947C220.778 130.94 221.26 132.2 221.287 133.51Z" fill="#263238"/>
<path d="M199.595 141.609C199.568 141.61 199.54 141.606 199.515 141.595C199.49 141.585 199.468 141.569 199.449 141.549C197.232 139.04 193.252 132.466 193.2 128.271C193.2 128.219 193.221 128.169 193.258 128.132C193.295 128.095 193.345 128.074 193.397 128.074C193.424 128.073 193.45 128.077 193.475 128.087C193.5 128.096 193.523 128.111 193.542 128.129C193.561 128.147 193.576 128.169 193.587 128.194C193.597 128.218 193.603 128.245 193.603 128.271C193.603 131.935 197.104 138.184 199.595 141.112C200.942 139.247 202.616 137.64 204.534 136.37C204.556 136.355 204.581 136.346 204.606 136.341C204.632 136.336 204.658 136.337 204.684 136.342C204.709 136.348 204.733 136.358 204.755 136.373C204.776 136.388 204.794 136.407 204.808 136.43C204.836 136.473 204.846 136.526 204.836 136.577C204.827 136.627 204.798 136.673 204.757 136.703C202.815 137.996 201.131 139.639 199.792 141.549C199.777 141.577 199.755 141.601 199.728 141.618C199.701 141.634 199.67 141.643 199.638 141.643L199.595 141.609Z" fill="white"/>
<path d="M211.442 141.608C211.41 141.608 211.38 141.598 211.352 141.582C211.325 141.565 211.303 141.542 211.288 141.514C209.954 139.603 208.272 137.959 206.332 136.669C206.287 136.64 206.256 136.596 206.245 136.544C206.234 136.493 206.243 136.439 206.272 136.395C206.3 136.351 206.345 136.319 206.396 136.308C206.448 136.297 206.501 136.307 206.546 136.335C208.464 137.605 210.138 139.212 211.485 141.077C213.702 138.218 213.06 131.661 211.579 128.151C211.568 128.127 211.562 128.101 211.561 128.074C211.56 128.048 211.564 128.021 211.574 127.996C211.583 127.972 211.598 127.949 211.616 127.93C211.635 127.911 211.657 127.896 211.682 127.886C211.732 127.866 211.788 127.866 211.837 127.887C211.887 127.908 211.926 127.947 211.947 127.997C213.505 131.729 214.139 138.689 211.613 141.548C211.591 141.571 211.564 141.588 211.535 141.598C211.505 141.609 211.473 141.612 211.442 141.608Z" fill="white"/>
<path d="M196.744 112.271C197.6 116.466 198.387 124.162 195.451 126.961C197.833 130.814 201.376 133.811 205.57 135.522C211.185 132.004 208.497 126.961 208.497 126.961C203.815 125.84 203.943 122.373 204.757 119.111L196.744 112.271Z" fill="#FFBDA7"/>
<path opacity="0.2" d="M200.014 115.062L204.748 119.103C204.553 119.864 204.418 120.64 204.346 121.422C202.565 121.166 200.108 119.197 199.912 117.322C199.807 116.569 199.842 115.803 200.014 115.062Z" fill="black"/>
<path d="M192.318 104.567C193.962 111.415 194.518 114.317 198.627 117.245C204.816 121.645 212.838 118.101 213.266 110.944C213.651 104.481 210.894 94.4053 203.652 92.8559C202.057 92.5067 200.399 92.5711 198.836 93.0429C197.273 93.5147 195.856 94.3782 194.72 95.5516C193.585 96.7249 192.768 98.1691 192.347 99.7469C191.927 101.325 191.917 102.984 192.318 104.567Z" fill="#FFBDA7"/>
<path d="M192.506 97.162C196.786 99.5504 211.296 98.6944 209.139 94.337C206.982 89.9797 197.779 91.0584 192.506 97.162Z" fill="#263238"/>
<path d="M195.717 96.948C199.458 102.264 198.388 109.592 190.041 109.618C181.695 109.643 187.55 95.0904 195.717 96.948Z" fill="#263238"/>
<path d="M201.897 109.644L209.602 110.679C209.602 110.679 208.618 112.897 205.014 112.391C202.034 111.886 201.897 109.644 201.897 109.644Z" fill="white"/>
<path d="M217.075 171.477C217.075 171.477 214.653 224.749 214.19 246.322C213.702 268.767 213.488 321.175 213.488 321.175H207.83C207.83 321.175 198.79 277.619 201.469 246.322C197.42 222.292 194.689 171.477 194.689 171.477H217.075Z" fill="#FFBDA7"/>
<path d="M209.568 171.477C209.568 171.477 197.583 226.958 191.847 247.751C187.567 263.357 157.742 307.744 157.528 309.387L153.017 306.905C153.017 306.905 170.446 258.349 178.21 244.558C178.21 220.186 188.346 171.511 188.346 171.511L209.568 171.477Z" fill="#FFBDA7"/>
<path d="M204.14 104.507C204.243 105.072 204.619 105.475 204.996 105.363C205.373 105.252 205.578 104.79 205.484 104.233C205.39 103.677 205.005 103.266 204.628 103.335C204.251 103.403 204.046 103.942 204.14 104.507Z" fill="#263238"/>
<path d="M210.491 103.377C210.594 103.933 210.971 104.344 211.348 104.233C211.724 104.122 211.93 103.659 211.835 103.094C211.741 102.529 211.356 102.136 210.979 102.195C210.603 102.255 210.397 102.795 210.491 103.377Z" fill="#263238"/>
<path d="M210.826 102.298L212.102 101.673C212.102 101.673 211.597 102.846 210.826 102.298Z" fill="#263238"/>
<path d="M208.438 104.387C209.169 105.578 210.059 106.664 211.083 107.615C210.831 107.869 210.527 108.066 210.191 108.192C209.856 108.318 209.497 108.369 209.139 108.342L208.438 104.387Z" fill="#F28F8F"/>
<path d="M191.36 108.462C191.885 109.715 192.885 110.71 194.142 111.227C195.811 111.895 196.847 110.448 196.548 108.77C196.274 107.264 195.084 105.089 193.329 105.132C192.945 105.149 192.572 105.262 192.243 105.46C191.914 105.657 191.639 105.934 191.444 106.265C191.248 106.595 191.138 106.969 191.124 107.353C191.109 107.736 191.19 108.118 191.36 108.462Z" fill="#FFBDA7"/>
<path d="M201.213 101.811C201.3 101.786 201.376 101.731 201.427 101.656C201.637 101.291 201.932 100.981 202.286 100.752C202.641 100.522 203.044 100.381 203.464 100.338C203.552 100.334 203.635 100.296 203.695 100.232C203.756 100.168 203.789 100.084 203.789 99.9957C203.788 99.9511 203.778 99.9071 203.76 99.8665C203.741 99.8258 203.715 99.7892 203.682 99.7589C203.65 99.7286 203.611 99.7051 203.569 99.6899C203.527 99.6747 203.483 99.6681 203.438 99.6704C202.91 99.7156 202.401 99.888 201.954 100.173C201.506 100.457 201.135 100.846 200.87 101.305C200.846 101.342 200.83 101.384 200.823 101.427C200.815 101.471 200.816 101.515 200.825 101.558C200.835 101.601 200.853 101.642 200.878 101.678C200.903 101.714 200.936 101.744 200.973 101.768C201.046 101.809 201.13 101.824 201.213 101.811Z" fill="#263238"/>
<path d="M211.802 100.021C211.844 100.018 211.885 100.005 211.922 99.9845C211.958 99.9638 211.99 99.9356 212.016 99.9016C212.043 99.8674 212.064 99.8281 212.076 99.7858C212.089 99.7436 212.093 99.6993 212.088 99.6555C212.083 99.6118 212.07 99.5694 212.049 99.5308C212.027 99.4923 211.999 99.4583 211.964 99.4308C211.555 99.0899 211.071 98.8515 210.551 98.7354C210.032 98.6192 209.492 98.6287 208.977 98.7631C208.904 98.8005 208.847 98.8627 208.816 98.9384C208.785 99.0141 208.783 99.0983 208.809 99.1758C208.834 99.2534 208.887 99.3191 208.957 99.3611C209.027 99.4032 209.11 99.4188 209.191 99.4051C209.598 99.3035 210.025 99.3002 210.434 99.3955C210.843 99.4907 211.224 99.6818 211.545 99.953C211.619 100.008 211.71 100.032 211.802 100.021Z" fill="#263238"/>
<path d="M204.474 103.428L205.749 102.795C205.749 102.795 205.244 103.976 204.474 103.428Z" fill="#263238"/>
<path d="M217.487 175.303L216.203 246.355C216.203 246.355 207.274 247.956 196.753 242.52C190.509 239.272 183.465 237.882 176.456 238.514C174.153 195.471 181.678 181.937 187.448 175.337L217.487 175.303Z" fill="#263238"/>
<path opacity="0.2" d="M212.015 219.835L196.084 208.047L190.888 198.451L212.015 219.835Z" fill="black"/>
<path d="M218.71 167.093L217.649 177.058C210.03 177.974 198.952 177.64 187.182 177.058L188.115 167.093C199.192 167.47 209.73 167.607 218.71 167.093Z" fill="white"/>
<path d="M194.68 126.414C194.68 126.414 194.903 182.057 192.249 195.514C187.866 191.397 181.813 181.818 181.813 181.818C181.813 181.818 185.238 170.954 186.188 168.36C185.657 164.448 181.274 131.986 181.908 128.605C186.316 127.073 194.68 126.414 194.68 126.414Z" fill="#407BFF"/>
<path opacity="0.2" d="M194.68 126.414C194.68 126.414 194.903 182.057 192.249 195.514C187.866 191.397 181.813 181.818 181.813 181.818C181.813 181.818 185.238 170.954 186.188 168.36C185.657 164.448 181.274 131.986 181.908 128.605C186.316 127.073 194.68 126.414 194.68 126.414Z" fill="white"/>
<path d="M185.187 137.088C182.995 140.059 180.787 143.175 178.681 146.265C176.575 149.356 174.52 152.497 172.688 155.682C172.235 156.478 171.832 157.274 171.396 158.07C171.173 158.464 170.976 158.867 170.797 159.26L170.274 160.347C170.274 160.219 170.274 160.056 170.274 160.056C170.274 160.056 170.274 160.185 170.274 160.382C170.538 160.966 170.89 161.506 171.319 161.983C172.458 163.273 173.713 164.456 175.068 165.518C176.472 166.657 178.005 167.795 179.477 168.84L177.825 172.264C175.903 171.618 174.032 170.831 172.226 169.91C170.321 168.951 168.537 167.77 166.91 166.391C165.929 165.557 165.09 164.568 164.428 163.464C163.988 162.733 163.681 161.93 163.52 161.092C163.324 160.049 163.398 158.974 163.734 157.968L163.803 157.779V157.677L163.88 157.488L164.025 157.129L164.316 156.41C164.505 155.913 164.701 155.442 164.916 154.98C165.335 154.047 165.772 153.122 166.225 152.241C168.031 148.708 170.031 145.279 172.218 141.968C173.279 140.324 174.383 138.706 175.513 137.114C176.643 135.522 177.782 133.955 179.023 132.372L185.187 137.088Z" fill="#F7A9A0"/>
<path d="M178.613 168.48L186.241 167.906L182.029 173.736C182.029 173.736 177.518 173.18 176.456 170.44L178.613 168.48Z" fill="#FFBDA7"/>
<path d="M189.545 173.222L188.432 174.592C188.123 174.976 187.702 175.252 187.227 175.383C186.752 175.514 186.248 175.491 185.787 175.32L182.012 173.736L186.224 167.906L189.023 169.781C189.294 169.964 189.525 170.201 189.7 170.477C189.875 170.754 189.991 171.063 190.04 171.387C190.089 171.71 190.07 172.041 189.985 172.357C189.9 172.673 189.75 172.967 189.545 173.222Z" fill="#FFBDA7"/>
<path d="M210.792 126.414C210.792 126.414 214.011 148.534 214.593 166.237C214.944 176.861 213.009 190.378 213.232 195.514C216.04 192.711 218.212 189.336 219.601 185.618C219.601 185.618 220.902 180.979 219.293 168.36C219.729 165.176 221.655 143.312 222.032 133.476C222.083 132.18 221.685 130.907 220.905 129.871C220.125 128.835 219.011 128.101 217.752 127.792C214.173 126.944 210.792 126.414 210.792 126.414Z" fill="#407BFF"/>
<g opacity="0.2">
<path d="M210.792 126.414C210.792 126.414 214.011 148.534 214.593 166.237C214.944 176.861 213.009 190.378 213.232 195.514C216.04 192.711 218.212 189.336 219.601 185.618C219.601 185.618 220.902 180.979 219.293 168.36C219.729 165.176 221.655 143.312 222.032 133.476C222.083 132.18 221.685 130.907 220.905 129.871C220.125 128.835 219.011 128.101 217.752 127.792C214.173 126.944 210.792 126.414 210.792 126.414Z" fill="white"/>
</g>
<path d="M206.015 140.607C205.706 140.607 205.381 140.196 205.253 139.596C205.116 138.963 205.253 138.424 205.595 138.355C205.938 138.287 206.314 138.723 206.451 139.357C206.552 139.711 206.516 140.09 206.348 140.418C206.287 140.512 206.192 140.58 206.083 140.607H206.015ZM205.45 139.554C205.569 140.102 205.869 140.41 206.049 140.41C206.077 140.403 206.104 140.39 206.128 140.373C206.152 140.355 206.171 140.333 206.186 140.307C206.314 140.022 206.338 139.701 206.254 139.4C206.143 138.86 205.835 138.544 205.638 138.544C205.441 138.544 205.33 139.006 205.45 139.545V139.554Z" fill="white"/>
<path d="M206.923 146.616C206.589 146.616 206.298 146.163 206.229 145.546C206.161 144.93 206.358 144.399 206.7 144.356C206.758 144.353 206.815 144.361 206.87 144.38C206.924 144.399 206.974 144.429 207.017 144.468C207.271 144.725 207.423 145.066 207.445 145.426C207.505 145.784 207.428 146.15 207.231 146.454C207.197 146.498 207.155 146.536 207.106 146.564C207.058 146.592 207.004 146.609 206.948 146.616H206.923ZM206.743 144.553C206.546 144.553 206.383 144.964 206.443 145.512C206.503 146.06 206.743 146.368 206.94 146.368C206.969 146.365 206.997 146.356 207.022 146.341C207.047 146.326 207.069 146.306 207.085 146.283C207.243 146.027 207.304 145.723 207.257 145.426C207.249 145.106 207.12 144.8 206.897 144.57C206.849 144.548 206.795 144.542 206.743 144.553Z" fill="white"/>
<path d="M207.197 152.591C206.854 152.591 206.597 152.095 206.589 151.47C206.589 150.837 206.837 150.357 207.18 150.349C207.236 150.349 207.292 150.361 207.344 150.385C207.396 150.409 207.442 150.443 207.479 150.486C207.71 150.76 207.829 151.112 207.813 151.47C207.834 151.819 207.731 152.165 207.522 152.446C207.48 152.491 207.43 152.527 207.374 152.552C207.318 152.577 207.258 152.59 207.197 152.591ZM206.777 151.47C206.777 152.009 207 152.386 207.197 152.395C207.257 152.387 207.312 152.356 207.351 152.309C207.54 152.066 207.629 151.76 207.599 151.453C207.622 151.144 207.527 150.838 207.334 150.597C207.314 150.574 207.291 150.556 207.264 150.543C207.238 150.53 207.209 150.522 207.18 150.52C206.991 150.52 206.786 150.897 206.786 151.436L206.777 151.47Z" fill="white"/>
<path d="M206.872 158.481H206.82C206.486 158.438 206.272 157.942 206.332 157.326C206.392 156.701 206.7 156.247 207.034 156.281C207.148 156.297 207.252 156.355 207.325 156.444C207.517 156.74 207.595 157.096 207.548 157.445C207.531 157.797 207.385 158.129 207.137 158.378C207.062 158.441 206.969 158.478 206.872 158.481ZM206.529 157.343C206.478 157.873 206.658 158.259 206.846 158.284C206.877 158.286 206.908 158.282 206.938 158.272C206.967 158.262 206.994 158.245 207.017 158.224C207.219 158.007 207.338 157.725 207.351 157.428C207.39 157.131 207.327 156.829 207.171 156.572C207.133 156.523 207.078 156.49 207.017 156.478C206.829 156.478 206.598 156.82 206.546 157.334L206.529 157.343Z" fill="white"/>
<path d="M206.349 164.268C206.006 164.225 205.801 163.729 205.861 163.112C205.912 162.513 206.203 162.077 206.529 162.077C206.586 162.083 206.641 162.101 206.691 162.128C206.741 162.156 206.785 162.194 206.82 162.239C207.013 162.532 207.09 162.886 207.034 163.232C207.024 163.581 206.88 163.912 206.631 164.157C206.554 164.227 206.453 164.266 206.349 164.268ZM206.486 162.282C206.298 162.282 206.066 162.616 206.015 163.138C205.964 163.669 206.135 164.054 206.332 164.08C206.396 164.08 206.457 164.055 206.503 164.011C206.704 163.797 206.819 163.517 206.828 163.224C206.878 162.927 206.817 162.622 206.657 162.368C206.639 162.342 206.617 162.321 206.59 162.304C206.563 162.288 206.534 162.278 206.503 162.274L206.486 162.282Z" fill="white"/>
<path opacity="0.2" d="M185.076 140.881C184.77 142.936 184.221 144.947 183.441 146.873C183.27 145.409 183.098 143.946 182.944 142.542L185.076 140.881Z" fill="black"/>
<path d="M181.84 128.605C178.655 130.993 172.261 140.838 165.489 152.926C167.703 154.757 169.815 156.709 171.816 158.772L185.512 141.412L185.41 137.234C185.658 135.607 185.457 133.943 184.828 132.422C184.199 130.901 183.165 129.581 181.84 128.605Z" fill="#407BFF"/>
<path opacity="0.2" d="M181.84 128.605C178.655 130.993 172.261 140.838 165.489 152.926C167.703 154.757 169.815 156.709 171.816 158.772L185.512 141.412L185.41 137.234C185.658 135.607 185.457 133.943 184.828 132.422C184.199 130.901 183.165 129.581 181.84 128.605Z" fill="white"/>
<path d="M213.515 316.021C214.516 324.411 219.867 330.9 219.867 330.9L211.161 328.665L207.188 322.425L208.045 320.781L213.515 316.021Z" fill="#FFBDA7"/>
<path d="M206.836 320.31C206.496 321.035 206.331 321.83 206.357 322.63C206.408 325.532 206.734 333.245 206.734 333.245H207.419C207.411 330.872 207.531 328.5 207.778 326.14C208.112 324.222 209.49 326.491 210.226 328.657C210.963 330.823 214.036 333.142 218.462 333.245C223.649 333.374 225.755 333.142 224.249 331.884C222.742 330.626 219.301 329.821 219.301 329.821C217.893 329.783 216.52 329.376 215.318 328.642C214.116 327.907 213.128 326.87 212.452 325.635C210.911 322.853 209.028 320.088 207.752 319.437C207.543 319.502 207.351 319.615 207.192 319.766C207.033 319.917 206.911 320.104 206.836 320.31Z" fill="#263238"/>
<path d="M158.478 307.572C156.09 313.453 155.816 322.364 155.816 322.364L150.166 314.052L151.262 306.741L152.974 306.074L158.478 307.572Z" fill="#FFBDA7"/>
<path d="M152.392 304.918C151.661 305.238 151.018 305.728 150.517 306.348C148.642 308.574 143.831 314.609 143.831 314.609L144.345 315.054C145.899 313.256 147.548 311.541 149.284 309.918C150.791 308.694 150.329 311.296 149.472 313.428C148.616 315.559 149.404 319.309 152.674 322.296C156.501 325.798 158.238 327.005 157.93 325.07C157.622 323.135 155.559 320.233 155.559 320.233C154.53 319.28 153.768 318.076 153.347 316.738C152.927 315.4 152.863 313.976 153.162 312.606C153.821 309.49 154.232 306.177 153.684 304.841C153.478 304.752 153.253 304.713 153.029 304.726C152.804 304.74 152.586 304.805 152.392 304.918Z" fill="#263238"/>
<path d="M246.9 176.955H379.751C383.453 177.012 387 178.447 389.699 180.98C392.398 183.513 394.056 186.962 394.347 190.652L399.569 272.269C399.699 274.028 399.463 275.796 398.875 277.46C398.288 279.123 397.361 280.647 396.154 281.935C394.947 283.222 393.486 284.245 391.864 284.939C390.242 285.632 388.493 285.982 386.728 285.965H253.834C250.141 285.896 246.606 284.456 243.916 281.924C241.226 279.392 239.574 275.951 239.281 272.269L234.059 190.669C233.925 188.908 234.159 187.138 234.745 185.471C235.331 183.805 236.257 182.279 237.465 180.989C238.672 179.7 240.134 178.675 241.758 177.981C243.383 177.286 245.134 176.937 246.9 176.955Z" fill="#407BFF"/>
<path opacity="0.3" d="M246.9 176.955H379.751C383.453 177.012 387 178.447 389.699 180.98C392.398 183.513 394.056 186.962 394.347 190.652L399.569 272.269C399.699 274.028 399.463 275.796 398.875 277.46C398.288 279.123 397.361 280.647 396.154 281.935C394.947 283.222 393.486 284.245 391.864 284.939C390.242 285.632 388.493 285.982 386.728 285.965H253.834C250.141 285.896 246.606 284.456 243.916 281.924C241.226 279.392 239.574 275.951 239.281 272.269L234.059 190.669C233.925 188.908 234.159 187.138 234.745 185.471C235.331 183.805 236.257 182.279 237.465 180.989C238.672 179.7 240.134 178.675 241.758 177.981C243.383 177.286 245.134 176.937 246.9 176.955Z" fill="white"/>
<path d="M253.842 285.991H386.719C389.98 286.021 393.128 284.795 395.511 282.567L316.051 219.904L244.588 282.567C247.171 284.765 250.45 285.978 253.842 285.991Z" fill="#407BFF"/>
<path opacity="0.5" d="M253.842 285.991H386.719C389.98 286.021 393.128 284.795 395.511 282.567L316.051 219.904L244.588 282.567C247.171 284.765 250.45 285.978 253.842 285.991Z" fill="white"/>
<path d="M317.319 239.764L386.805 178.838C384.66 177.6 382.228 176.945 379.751 176.938H246.9C244.485 176.921 242.113 177.579 240.052 178.838L317.319 239.764Z" fill="#407BFF"/>
<path d="M365.122 177.272L360.491 104.764C360.345 102.778 359.46 100.919 358.009 99.5539C356.559 98.1892 354.649 97.4182 352.658 97.3936H249.075C251.067 97.42 252.976 98.1913 254.428 99.5555C255.879 100.92 256.767 102.778 256.917 104.764L261.514 176.673" fill="white"/>
<path d="M365.121 178.325C364.847 178.325 364.582 178.221 364.382 178.034C364.182 177.846 364.06 177.589 364.043 177.315L359.412 104.807C359.287 103.094 358.524 101.49 357.273 100.314C356.022 99.1375 354.375 98.474 352.657 98.4549H254.827C255.742 99.2276 256.493 100.176 257.035 101.243C257.578 102.31 257.901 103.476 257.986 104.67L262.583 176.579C262.602 176.726 262.59 176.875 262.549 177.018C262.507 177.161 262.437 177.293 262.342 177.408C262.248 177.522 262.131 177.616 261.998 177.683C261.866 177.751 261.721 177.79 261.573 177.8C261.425 177.809 261.276 177.788 261.137 177.738C260.997 177.688 260.869 177.609 260.761 177.508C260.652 177.406 260.566 177.283 260.507 177.147C260.448 177.011 260.417 176.864 260.417 176.716L255.829 104.807C255.704 103.093 254.94 101.488 253.687 100.311C252.434 99.1344 250.785 98.4718 249.066 98.4549C248.795 98.4308 248.544 98.3063 248.36 98.1059C248.177 97.9054 248.075 97.6436 248.075 97.372C248.075 97.1003 248.177 96.8385 248.36 96.6381C248.544 96.4377 248.795 96.3131 249.066 96.2891H352.649C354.921 96.3083 357.104 97.1804 358.764 98.7326C360.424 100.285 361.44 102.404 361.612 104.67L366.251 177.178C366.268 177.465 366.17 177.747 365.979 177.962C365.788 178.177 365.52 178.307 365.233 178.325H365.121Z" fill="#407BFF"/>
<path d="M249.066 97.3676C248.117 97.3577 247.176 97.5453 246.303 97.9185C245.43 98.2917 244.644 98.8423 243.995 99.5354C243.346 100.228 242.849 101.049 242.534 101.945C242.219 102.84 242.094 103.792 242.166 104.738H256.908C256.758 102.752 255.87 100.894 254.419 99.5295C252.968 98.1653 251.058 97.394 249.066 97.3676Z" fill="#407BFF"/>
<path d="M256.908 105.826H242.167C241.891 105.826 241.625 105.721 241.424 105.531C241.224 105.342 241.103 105.082 241.088 104.807C241.003 103.712 241.148 102.612 241.512 101.577C241.876 100.541 242.451 99.5923 243.201 98.7911C243.952 97.9899 244.861 97.3537 245.871 96.923C246.88 96.4922 247.969 96.2764 249.066 96.2891C251.338 96.3103 253.52 97.1831 255.179 98.7349C256.839 100.287 257.856 102.405 258.029 104.67C258.038 104.818 258.017 104.966 257.967 105.106C257.916 105.246 257.839 105.374 257.738 105.483C257.631 105.595 257.502 105.683 257.359 105.742C257.216 105.801 257.062 105.829 256.908 105.826ZM243.262 103.651H255.649C255.285 102.176 254.44 100.865 253.248 99.9223C252.057 98.9801 250.585 98.4609 249.066 98.4464C247.62 98.4189 246.217 98.9406 245.14 99.9064C244.063 100.872 243.392 102.21 243.262 103.651Z" fill="#407BFF"/>
<path d="M352.658 97.3677H249.075C251.067 97.3941 252.976 98.1654 254.428 99.5296C255.879 100.894 256.767 102.752 256.917 104.738L262.798 196.773L317.32 239.764L366.406 197.338L360.491 104.721C360.341 102.738 359.454 100.883 358.004 99.5218C356.554 98.1605 354.647 97.392 352.658 97.3677Z" fill="white"/>
<path opacity="0.3" d="M262.788 196.773L317.31 239.781L366.405 197.355L313.424 232.342L262.788 196.773Z" fill="#407BFF"/>
<path opacity="0.3" d="M355.175 155.614H268.722L268.285 148.877H354.747L355.175 155.614Z" fill="#407BFF"/>
<path opacity="0.3" d="M337.367 176.493H270.047L269.619 169.756H336.939L337.367 176.493Z" fill="#407BFF"/>
<path opacity="0.3" d="M357.845 197.372H307.03L306.602 190.626H357.417L357.845 197.372Z" fill="#407BFF"/>
<path opacity="0.3" d="M271.383 197.372H298.589L298.152 190.626H270.955L271.383 197.372Z" fill="#407BFF"/>
<g opacity="0.5">
<path d="M267.488 124.317L267.12 118.598H270.074C270.498 118.584 270.922 118.633 271.332 118.744C271.625 118.834 271.882 119.014 272.068 119.257C272.263 119.531 272.373 119.855 272.385 120.19C272.419 120.46 272.374 120.734 272.255 120.979C272.137 121.223 271.95 121.428 271.717 121.569C271.529 121.679 271.323 121.757 271.109 121.8C271.275 121.845 271.434 121.915 271.58 122.005C271.806 122.192 272 122.415 272.154 122.664L273.121 124.317H271.118L270.065 122.604C269.975 122.439 269.856 122.292 269.714 122.168C269.584 122.077 269.428 122.029 269.269 122.031H269.158L269.312 124.351L267.488 124.317ZM269.046 120.892H269.791C269.947 120.881 270.102 120.856 270.253 120.815C270.367 120.794 270.468 120.729 270.536 120.635C270.6 120.537 270.63 120.419 270.621 120.302C270.621 120.22 270.602 120.139 270.567 120.065C270.531 119.991 270.48 119.925 270.416 119.874C270.214 119.757 269.98 119.707 269.748 119.728H268.969L269.046 120.892Z" fill="#407BFF"/>
<path d="M273.31 118.598H278.052L278.129 119.822H275.15L275.201 120.73H277.958L278.026 121.894H275.278L275.347 123.024H278.403L278.489 124.317H273.661L273.31 118.598Z" fill="#407BFF"/>
<path d="M283.112 121.98L284.696 122.45C284.634 122.84 284.488 123.211 284.268 123.538C284.073 123.827 283.8 124.056 283.48 124.197C283.084 124.358 282.658 124.433 282.23 124.419C281.703 124.436 281.178 124.343 280.689 124.145C280.246 123.936 279.869 123.607 279.602 123.195C279.277 122.681 279.091 122.091 279.063 121.483C279.008 121.096 279.035 120.702 279.141 120.327C279.247 119.951 279.43 119.601 279.679 119.3C279.953 119.031 280.281 118.824 280.641 118.693C281.001 118.562 281.386 118.509 281.768 118.538C282.369 118.511 282.965 118.663 283.48 118.975C283.943 119.31 284.292 119.779 284.482 120.319L282.949 120.661C282.9 120.528 282.834 120.401 282.752 120.285C282.647 120.154 282.516 120.046 282.367 119.968C282.215 119.895 282.048 119.857 281.879 119.856C281.706 119.854 281.535 119.897 281.384 119.983C281.234 120.069 281.109 120.194 281.023 120.344C280.857 120.693 280.798 121.083 280.852 121.466C280.839 121.931 280.97 122.389 281.229 122.776C281.335 122.895 281.468 122.989 281.616 123.05C281.764 123.111 281.925 123.137 282.085 123.127C282.223 123.138 282.363 123.119 282.493 123.07C282.623 123.021 282.741 122.944 282.838 122.844C283.005 122.586 283.1 122.287 283.112 121.98Z" fill="#407BFF"/>
<path d="M285.268 121.466C285.216 121.077 285.246 120.682 285.357 120.306C285.467 119.93 285.656 119.581 285.91 119.283C286.189 119.01 286.522 118.8 286.888 118.666C287.254 118.531 287.644 118.476 288.033 118.504C288.854 118.46 289.66 118.732 290.285 119.266C290.855 119.837 291.181 120.608 291.192 121.415C291.251 121.973 291.172 122.538 290.961 123.058C290.768 123.48 290.448 123.83 290.045 124.06C289.564 124.317 289.023 124.441 288.478 124.419C287.923 124.436 287.371 124.331 286.86 124.111C286.411 123.895 286.031 123.557 285.765 123.135C285.458 122.631 285.287 122.056 285.268 121.466ZM287.032 121.466C287.027 121.913 287.168 122.348 287.434 122.707C287.542 122.827 287.674 122.922 287.822 122.987C287.969 123.052 288.129 123.085 288.29 123.084C288.452 123.094 288.613 123.066 288.762 123.002C288.911 122.939 289.042 122.84 289.146 122.716C289.367 122.311 289.445 121.844 289.369 121.389C289.377 120.96 289.235 120.542 288.966 120.208C288.851 120.083 288.71 119.985 288.554 119.92C288.397 119.855 288.228 119.825 288.059 119.831C287.896 119.82 287.734 119.849 287.585 119.914C287.436 119.98 287.305 120.08 287.203 120.208C287.001 120.597 286.941 121.045 287.032 121.475V121.466Z" fill="#407BFF"/>
<path d="M291.945 118.598H294.265L295.387 122.082L296.054 118.598H298.383L298.742 124.317H297.296L297.022 119.959L296.166 124.317H294.839L293.443 119.959L293.726 124.317H292.279L291.945 118.598Z" fill="#407BFF"/>
<path d="M299.487 118.598H301.816L302.929 122.082L303.596 118.598H305.968L306.336 124.317H304.88L304.607 119.959L303.75 124.317H302.441L301.045 119.959L301.328 124.317H299.881L299.487 118.598Z" fill="#407BFF"/>
<path d="M307.047 118.598H311.789L311.866 119.822H308.896L308.956 120.73H311.704L311.781 121.894H309.033L309.101 123.024H312.158L312.235 124.317H307.415L307.047 118.598Z" fill="#407BFF"/>
<path d="M312.816 118.598H314.529L316.883 121.766L316.686 118.598H318.347L318.715 124.317H317.045L314.708 121.183L314.905 124.317H313.244L312.816 118.598Z" fill="#407BFF"/>
<path d="M319.503 118.598H322.131C322.564 118.581 322.995 118.654 323.398 118.812C323.728 118.94 324.021 119.145 324.254 119.411C324.481 119.685 324.655 119.999 324.768 120.336C324.885 120.694 324.957 121.065 324.982 121.44C325.027 121.917 324.987 122.399 324.862 122.861C324.759 123.186 324.577 123.481 324.331 123.717C324.121 123.933 323.859 124.089 323.569 124.171C323.229 124.268 322.878 124.32 322.525 124.325H319.897L319.503 118.598ZM321.378 119.916L321.575 123.041H322.003C322.272 123.061 322.541 123.017 322.79 122.913C322.95 122.816 323.069 122.663 323.124 122.485C323.213 122.162 323.237 121.824 323.193 121.492C323.211 121.047 323.078 120.61 322.816 120.25C322.681 120.128 322.523 120.036 322.35 119.978C322.178 119.921 321.995 119.9 321.814 119.916H321.378Z" fill="#407BFF"/>
<path d="M329.176 123.341H327.172L326.95 124.282H325.144L326.933 118.564H328.859L331.376 124.282H329.527L329.176 123.341ZM328.73 122.108L327.969 120.045L327.472 122.108H328.73Z" fill="#407BFF"/>
<path d="M330.622 118.598H335.99L336.084 120.011H334.277L334.56 124.291H332.788L332.514 120.011H330.708L330.622 118.598Z" fill="#407BFF"/>
<path d="M336.863 118.598H338.635L339.003 124.317H337.231L336.863 118.598Z" fill="#407BFF"/>
<path d="M339.868 121.466C339.815 121.077 339.846 120.682 339.956 120.306C340.067 119.93 340.255 119.581 340.51 119.283C340.788 119.01 341.121 118.799 341.487 118.664C341.853 118.53 342.244 118.475 342.633 118.504C343.451 118.459 344.254 118.732 344.876 119.266C345.45 119.835 345.778 120.606 345.792 121.415C345.851 121.973 345.771 122.538 345.561 123.058C345.368 123.48 345.047 123.83 344.645 124.06C344.163 124.317 343.623 124.441 343.078 124.419C342.522 124.438 341.97 124.332 341.46 124.111C341.01 123.895 340.631 123.557 340.364 123.135C340.058 122.631 339.887 122.056 339.868 121.466ZM341.631 121.466C341.626 121.913 341.768 122.349 342.034 122.707C342.147 122.832 342.286 122.931 342.441 122.996C342.596 123.061 342.764 123.091 342.932 123.084C343.094 123.094 343.256 123.066 343.405 123.003C343.553 122.939 343.685 122.84 343.788 122.716C344.009 122.311 344.088 121.844 344.011 121.389C344.016 120.961 343.874 120.544 343.609 120.208C343.493 120.083 343.353 119.985 343.196 119.92C343.039 119.855 342.871 119.825 342.701 119.831C342.539 119.82 342.376 119.849 342.227 119.914C342.078 119.98 341.947 120.08 341.845 120.208C341.625 120.591 341.549 121.04 341.631 121.475V121.466Z" fill="#407BFF"/>
<path d="M346.57 118.598H348.222L350.577 121.766L350.38 118.598H352.041L352.409 124.317H350.748L348.402 121.183L348.599 124.317H346.938L346.57 118.598Z" fill="#407BFF"/>
<path d="M293.393 127.27H295.165L295.439 131.55H298.195L298.289 132.963H293.761L293.393 127.27Z" fill="#407BFF"/>
<path d="M298.727 127.27H303.461L303.538 128.486H300.576L300.636 129.393H303.401L303.478 130.566H300.721L300.798 131.696H303.846L303.931 132.988H299.12L298.727 127.27Z" fill="#407BFF"/>
<path d="M304.093 127.27H309.469L309.563 128.683H307.757L308.031 132.963H306.267L305.993 128.683H304.187L304.093 127.27Z" fill="#407BFF"/>
<path d="M309.872 127.27H315.24L315.334 128.683H313.527L313.81 132.963H312.038L311.764 128.683H309.958L309.872 127.27Z" fill="#407BFF"/>
<path d="M316.035 127.27H320.778L320.855 128.486H317.893L317.944 129.393H320.701L320.769 130.566H318.021L318.09 131.696H321.146L321.231 132.988H316.403L316.035 127.27Z" fill="#407BFF"/>
<path d="M322.233 132.988L321.865 127.27H324.801C325.225 127.254 325.649 127.3 326.06 127.407C326.355 127.498 326.613 127.681 326.796 127.929C326.996 128.197 327.109 128.519 327.121 128.853C327.151 129.148 327.098 129.444 326.967 129.71C326.85 129.941 326.669 130.134 326.445 130.266C326.258 130.378 326.052 130.456 325.837 130.497C326.008 130.541 326.17 130.614 326.317 130.711C326.428 130.799 326.528 130.9 326.616 131.011C326.718 131.12 326.809 131.237 326.89 131.362L327.849 133.022H325.854L324.793 131.31C324.71 131.141 324.593 130.989 324.451 130.865C324.317 130.782 324.163 130.738 324.005 130.737H323.851L323.997 133.057L322.233 132.988ZM323.791 129.564H324.536C324.692 129.552 324.847 129.526 324.998 129.487C325.109 129.462 325.206 129.399 325.272 129.307C325.341 129.21 325.371 129.091 325.358 128.973C325.358 128.893 325.34 128.814 325.306 128.742C325.272 128.669 325.223 128.605 325.161 128.554C324.961 128.432 324.727 128.378 324.493 128.4H323.714L323.791 129.564Z" fill="#407BFF"/>
</g>
<path d="M331.316 51.286H330.46L330.075 45.7217H330.931L331.316 51.286Z" fill="#407BFF"/>
<path d="M330.64 41.4414H329.784L328.928 29.645C328.709 26.5731 327.583 23.6354 325.692 21.2043L326.36 20.7163C328.358 23.2894 329.549 26.3961 329.784 29.645L330.64 41.4414Z" fill="#407BFF"/>
<path d="M227.032 17.0011H313.297C316.717 17.0589 319.994 18.3842 322.493 20.7202C324.992 23.0561 326.534 26.2365 326.822 29.645L329.861 73.535C329.998 75.1564 329.793 76.7883 329.262 78.3262C328.73 79.864 327.883 81.2737 326.775 82.465C325.667 83.6563 324.322 84.6028 322.826 85.2439C321.331 85.8849 319.718 86.2063 318.091 86.1875H311.713L312.826 102.187L295.696 86.1875H231.826C228.405 86.1276 225.128 84.8004 222.629 82.4631C220.131 80.1257 218.588 76.9444 218.3 73.535L215.227 29.645C215.093 28.0217 215.3 26.3883 215.835 24.8497C216.37 23.3111 217.22 21.9013 218.332 20.7107C219.443 19.5201 220.791 18.5751 222.29 17.9363C223.788 17.2974 225.403 16.9789 227.032 17.0011Z" fill="#407BFF"/>
<path d="M249.76 49.3004H249.923C249.073 49.2882 248.254 48.9862 247.6 48.4443C246.946 47.9025 246.497 47.1534 246.327 46.3213C246.285 45.828 246.347 45.3314 246.508 44.8634C246.67 44.3954 246.927 43.9663 247.264 43.6036C247.601 43.2409 248.01 42.9526 248.465 42.7572C248.92 42.5618 249.41 42.4637 249.905 42.469H251.181L265.092 41.1593C264.531 38.7608 264.113 36.331 263.842 33.8828C263.44 29.8508 265.76 24.8771 269.603 26.6577C271.153 27.3768 270.596 32.3847 271.461 34.3622C272.326 36.3397 279.636 42.1865 281.862 46.347C282.459 46.5844 282.976 46.9848 283.356 47.5025C283.736 48.0202 283.963 48.6343 284.011 49.2747L284.927 62.4836C284.997 63.4154 284.877 64.3517 284.572 65.235C284.267 66.1184 283.785 66.93 283.155 67.6199C282.51 68.2987 281.733 68.838 280.872 69.2046C280.01 69.5712 279.083 69.7574 278.147 69.7515H255.239C254.442 69.7548 253.663 69.5091 253.013 69.0487C252.362 68.5883 251.871 67.9362 251.609 67.1834C251.44 66.7029 251.389 66.1887 251.46 65.6844C251.532 65.18 251.724 64.7004 252.021 64.2862C252.317 63.872 252.71 63.5355 253.164 63.3051C253.618 63.0748 254.121 62.9574 254.631 62.963H251.703C250.898 62.951 250.127 62.6404 249.538 62.0914C248.95 61.5425 248.586 60.7944 248.519 59.9925C248.414 59.5275 248.416 59.0448 248.524 58.5807C248.633 58.1165 248.845 57.6829 249.144 57.3123C249.444 56.9417 249.824 56.6438 250.255 56.4408C250.686 56.2378 251.158 56.1351 251.635 56.1402H250.077C249.175 56.1257 248.309 55.7845 247.64 55.1799C246.971 54.5754 246.544 53.7486 246.438 52.853C246.393 52.3949 246.446 51.9324 246.594 51.4964C246.741 51.0604 246.981 50.661 247.295 50.3247C247.609 49.9885 247.992 49.7232 248.417 49.5465C248.842 49.3699 249.3 49.2859 249.76 49.3004Z" fill="white"/>
<path d="M290.86 69.7772H295.14C295.469 69.7809 295.796 69.7155 296.098 69.5851C296.401 69.4547 296.673 69.2623 296.896 69.0202C297.12 68.7781 297.29 68.4918 297.396 68.1798C297.502 67.8679 297.541 67.5371 297.511 67.209L296.184 48.059C296.131 47.3676 295.821 46.721 295.316 46.246C294.811 45.7709 294.147 45.5016 293.453 45.4909H289.216C288.886 45.4872 288.559 45.5527 288.256 45.683C287.953 45.8133 287.681 46.0056 287.457 46.2475C287.233 46.4894 287.062 46.7756 286.955 47.0876C286.848 47.3996 286.807 47.7305 286.836 48.059L288.163 67.209C288.217 67.894 288.523 68.5347 289.02 69.0086C289.518 69.4825 290.173 69.7561 290.86 69.7772Z" fill="white"/>
</svg>
