<svg width="540" height="359" viewBox="0 0 540 359" fill="none" xmlns="http://www.w3.org/2000/svg">
<rect width="540" height="359" rx="5" fill="#D8ECFF"/>
<path d="M406.78 256.025H428.384V246.896H406.78V256.025Z" fill="#EBEBEB"/>
<path d="M418.84 267.537H440.443V258.407H418.84V267.537Z" fill="#EBEBEB"/>
<path d="M234.645 155.21H256.249V146.081H234.645V155.21Z" fill="#EBEBEB"/>
<path d="M246.703 166.722H268.307V157.593H246.703V166.722Z" fill="#EBEBEB"/>
<path d="M258.704 155.21H280.308V146.081H258.704V155.21Z" fill="#EBEBEB"/>
<path d="M99.9725 267.528H121.576V258.399H99.9725V267.528Z" fill="#EBEBEB"/>
<path d="M112.031 36.5537H133.635V27.4244H112.031V36.5537Z" fill="#EBEBEB"/>
<path d="M99.9725 48.0654H121.576V38.9361H99.9725V48.0654Z" fill="#EBEBEB"/>
<path d="M406.78 36.5537H428.384V27.4244H406.78V36.5537Z" fill="#EBEBEB"/>
<path d="M433.9 47.437H317.396V177.418H433.9V47.437Z" fill="#DBDBDB"/>
<path d="M426.23 55.1143H325.073V169.814H426.23V55.1143Z" fill="#EBEBEB"/>
<path d="M369.871 75.396H334.219V117.649H369.871V75.396Z" fill="white"/>
<path d="M353.326 78.2677C353.326 78.521 353.251 78.7687 353.111 78.9793C352.97 79.19 352.77 79.3541 352.536 79.4511C352.302 79.548 352.044 79.5734 351.796 79.524C351.547 79.4745 351.319 79.3526 351.14 79.1734C350.961 78.9943 350.839 78.7661 350.789 78.5176C350.74 78.2691 350.765 78.0116 350.862 77.7775C350.959 77.5435 351.123 77.3434 351.334 77.2027C351.545 77.0619 351.792 76.9868 352.046 76.9868C352.385 76.9868 352.711 77.1218 352.951 77.362C353.191 77.6022 353.326 77.928 353.326 78.2677Z" fill="#A6A6A6"/>
<path d="M341.007 83.8566C344.613 83.5792 348.219 83.5628 351.817 83.5221C355.415 83.4813 359.029 83.5792 362.635 83.8566C359.029 84.1339 355.423 84.1503 351.817 84.1911C348.211 84.2318 344.613 84.1339 341.007 83.8566Z" fill="#EBEBEB"/>
<path d="M341.007 87.2012C344.913 86.7552 348.857 86.7552 352.763 87.2012C350.812 87.4429 348.847 87.5547 346.881 87.5357C344.918 87.5504 342.956 87.4386 341.007 87.2012Z" fill="#EBEBEB"/>
<path d="M341.007 90.5382C343.504 90.3006 346.012 90.1889 348.521 90.2037C351.027 90.1849 353.532 90.2965 356.027 90.5382C353.522 90.7993 351.025 90.8564 348.521 90.8727C346.016 90.889 343.511 90.7993 341.007 90.5382Z" fill="#EBEBEB"/>
<path d="M341.007 93.8751C344.14 93.614 347.273 93.5487 350.405 93.5406C353.538 93.5324 356.671 93.614 359.804 93.8751C356.671 94.1362 353.538 94.2014 350.405 94.2096C347.273 94.2177 344.14 94.1362 341.007 93.8751Z" fill="#EBEBEB"/>
<path d="M341.007 97.2118C343.724 96.9508 346.449 96.8937 349.165 96.8773C351.882 96.861 354.607 96.9508 357.324 97.2118C354.599 97.4729 351.874 97.5382 349.165 97.5463C346.457 97.5545 343.724 97.4729 341.007 97.2118Z" fill="#EBEBEB"/>
<path d="M341.007 100.548C344.491 100.271 347.974 100.255 351.458 100.214C354.942 100.173 358.425 100.271 361.909 100.548C358.425 100.834 354.942 100.85 351.458 100.891C347.974 100.932 344.491 100.826 341.007 100.548Z" fill="#EBEBEB"/>
<path d="M341.007 103.894C343.248 103.656 345.5 103.544 347.754 103.559C350.01 103.54 352.266 103.652 354.509 103.894C350.019 104.34 345.497 104.34 341.007 103.894Z" fill="#EBEBEB"/>
<path d="M341.007 107.231C344.613 106.953 348.219 106.937 351.817 106.896C355.415 106.855 359.029 106.953 362.635 107.231C359.029 107.508 355.423 107.524 351.817 107.565C348.211 107.606 344.613 107.508 341.007 107.231Z" fill="#EBEBEB"/>
<path d="M341.007 110.567C344.613 110.29 348.219 110.274 351.817 110.233C355.415 110.192 359.029 110.29 362.635 110.567C359.029 110.845 355.423 110.869 351.817 110.902C348.211 110.935 344.613 110.861 341.007 110.567Z" fill="#EBEBEB"/>
<path d="M417.493 101.74H375.306V151.735H417.493V101.74Z" fill="white"/>
<path d="M380.453 105.379C380.453 105.632 380.378 105.88 380.238 106.09C380.097 106.301 379.897 106.465 379.663 106.562C379.429 106.659 379.171 106.684 378.923 106.635C378.674 106.585 378.446 106.463 378.267 106.284C378.088 106.105 377.966 105.877 377.916 105.628C377.867 105.38 377.892 105.122 377.989 104.888C378.086 104.654 378.25 104.454 378.461 104.314C378.671 104.173 378.919 104.098 379.172 104.098C379.512 104.098 379.838 104.233 380.078 104.473C380.318 104.713 380.453 105.039 380.453 105.379Z" fill="#A6A6A6"/>
<path d="M381.204 114.214C382.754 113.978 384.32 113.864 385.887 113.871C387.452 113.86 389.015 113.974 390.562 114.214C387.459 114.66 384.307 114.66 381.204 114.214Z" fill="#EBEBEB"/>
<path d="M381.204 117.984C383.216 117.748 385.24 117.633 387.266 117.641C389.289 117.629 391.311 117.743 393.319 117.984C389.293 118.43 385.23 118.43 381.204 117.984Z" fill="#EBEBEB"/>
<path d="M381.204 121.753C383.066 121.515 384.941 121.404 386.817 121.418C388.694 121.399 390.569 121.511 392.43 121.753C388.701 122.199 384.933 122.199 381.204 121.753Z" fill="#EBEBEB"/>
<path d="M381.204 125.547C383.066 125.309 384.941 125.198 386.817 125.212C388.694 125.193 390.569 125.305 392.43 125.547C388.701 125.993 384.933 125.993 381.204 125.547Z" fill="#EBEBEB"/>
<path d="M381.204 129.291C382.825 129.053 384.461 128.942 386.099 128.957C387.737 128.937 389.374 129.049 390.994 129.291C387.746 129.74 384.452 129.74 381.204 129.291Z" fill="#EBEBEB"/>
<path d="M381.204 133.061C383.276 132.823 385.36 132.711 387.445 132.726C389.531 132.707 391.615 132.819 393.687 133.061C389.538 133.507 385.353 133.507 381.204 133.061Z" fill="#EBEBEB"/>
<path d="M381.204 136.83C384.624 136.384 388.088 136.384 391.508 136.83C388.088 137.276 384.624 137.276 381.204 136.83Z" fill="#EBEBEB"/>
<path d="M381.204 140.599C385.498 140.153 389.826 140.153 394.119 140.599C389.826 141.045 385.498 141.045 381.204 140.599Z" fill="#EBEBEB"/>
<path d="M381.204 144.368C385.498 143.922 389.826 143.922 394.119 144.368C389.826 144.814 385.498 144.814 381.204 144.368Z" fill="#EBEBEB"/>
<path d="M399.642 114.214C401.678 113.978 403.727 113.864 405.777 113.871C407.824 113.86 409.87 113.974 411.904 114.214C407.837 114.658 403.733 114.658 399.666 114.214H399.642Z" fill="#EBEBEB"/>
<path d="M399.642 117.984C400.972 117.748 402.321 117.634 403.672 117.641C405.023 117.629 406.372 117.744 407.702 117.984C405.034 118.429 402.31 118.429 399.642 117.984Z" fill="#EBEBEB"/>
<path d="M399.642 121.753C401.555 121.515 403.482 121.404 405.41 121.418C407.338 121.399 409.265 121.511 411.178 121.753C407.345 122.199 403.474 122.199 399.642 121.753Z" fill="#EBEBEB"/>
<path d="M399.642 125.546C401.503 125.309 403.378 125.198 405.255 125.212C407.131 125.193 409.007 125.305 410.868 125.546C407.139 125.992 403.37 125.992 399.642 125.546Z" fill="#EBEBEB"/>
<path d="M399.642 129.291C401.678 129.054 403.727 128.942 405.777 128.957C407.824 128.938 409.871 129.05 411.904 129.291C407.837 129.735 403.733 129.735 399.666 129.291H399.642Z" fill="#EBEBEB"/>
<path d="M399.642 133.06C401.262 132.822 402.899 132.711 404.537 132.726C406.175 132.706 407.812 132.818 409.432 133.06C406.184 133.51 402.89 133.51 399.642 133.06Z" fill="#EBEBEB"/>
<path d="M399.642 136.83C403.474 136.384 407.345 136.384 411.178 136.83C407.345 137.276 403.474 137.276 399.642 136.83Z" fill="#EBEBEB"/>
<path d="M399.642 140.599C402.6 140.153 405.609 140.153 408.567 140.599C405.609 141.045 402.6 141.045 399.642 140.599Z" fill="#EBEBEB"/>
<path d="M399.642 144.368C402.477 143.922 405.365 143.922 408.2 144.368C405.365 144.814 402.477 144.814 399.642 144.368Z" fill="#EBEBEB"/>
<path d="M388.05 63.7783H366.593V85.2351H388.05V63.7783Z" fill="#A6A6A6"/>
<path d="M378.602 65.9894C378.602 66.2427 378.527 66.4904 378.386 66.701C378.245 66.9116 378.045 67.0758 377.811 67.1728C377.577 67.2697 377.32 67.2951 377.071 67.2457C376.823 67.1962 376.594 67.0742 376.415 66.8951C376.236 66.716 376.114 66.4877 376.065 66.2393C376.015 65.9908 376.041 65.7333 376.138 65.4992C376.234 65.2652 376.399 65.0651 376.609 64.9244C376.82 64.7836 377.068 64.7085 377.321 64.7085C377.661 64.7085 377.986 64.8434 378.227 65.0837C378.467 65.3239 378.602 65.6497 378.602 65.9894Z" fill="#EBEBEB"/>
<path d="M426.14 55.1143H423.244V169.945H426.14V55.1143Z" fill="#C7C7C7"/>
<path d="M194.035 86.6136C205.342 70.78 201.672 48.7786 185.838 37.4721C170.005 26.1656 148.003 29.8355 136.697 45.6691C125.39 61.5027 129.06 83.5041 144.894 94.8106C160.727 106.117 182.729 102.447 194.035 86.6136Z" fill="#EBEBEB"/>
<path d="M193.862 87.0825C205 72.2314 201.99 51.1627 187.139 40.0243C172.288 28.8859 151.219 31.8957 140.081 46.7468C128.943 61.598 131.952 82.6667 146.803 93.805C161.655 104.943 182.723 101.934 193.862 87.0825Z" fill="#DBDBDB"/>
<path d="M185.235 92.578C199.403 82.4905 202.711 62.8273 192.624 48.6591C182.536 34.4908 162.873 31.1827 148.705 41.2702C134.536 51.3576 131.228 71.0208 141.316 85.1891C151.403 99.3573 171.066 102.665 185.235 92.578Z" fill="white"/>
<path opacity="0.5" d="M197.752 60.2785C183.409 68.9673 159.84 83.2202 146.672 91.036C142.933 87.8876 139.978 83.9131 138.04 79.4265L181.631 39.0664C185.704 41.2099 189.259 44.2199 192.044 47.8846C194.829 51.5494 196.777 55.7798 197.752 60.2785Z" fill="#EBEBEB"/>
<path opacity="0.5" d="M198.412 68.0288C198.303 71.5186 197.611 74.9655 196.365 78.2269L157.081 96.8038C155.371 96.2341 153.712 95.5218 152.121 94.6744C163.992 87.8458 185.669 75.3715 198.412 68.0288Z" fill="#EBEBEB"/>
<path d="M167.28 37.7202H166.668V42.4929H167.28V37.7202Z" fill="#C7C7C7"/>
<path d="M152.639 41.4685L152.109 41.7744L154.496 45.9077L155.026 45.6018L152.639 41.4685Z" fill="#C7C7C7"/>
<path d="M142.08 51.7474L141.774 52.2798L145.927 54.6661L146.233 54.1338L142.08 51.7474Z" fill="#C7C7C7"/>
<path d="M142.543 66.626H137.771V67.2379H142.543V66.626Z" fill="#C7C7C7"/>
<path d="M145.655 78.8849L141.522 81.272L141.828 81.8018L145.961 79.4147L145.655 78.8849Z" fill="#C7C7C7"/>
<path d="M154.489 87.9474L152.104 92.0815L152.635 92.3873L155.019 88.2532L154.489 87.9474Z" fill="#C7C7C7"/>
<path d="M167.28 91.3623H166.668V96.135H167.28V91.3623Z" fill="#C7C7C7"/>
<path d="M179.454 87.9279L178.924 88.2339L181.31 92.3672L181.84 92.0612L179.454 87.9279Z" fill="#C7C7C7"/>
<path d="M188.288 78.8842L187.982 79.4141L192.115 81.8011L192.421 81.2713L188.288 78.8842Z" fill="#C7C7C7"/>
<path d="M196.177 66.626H191.404V67.2379H196.177V66.626Z" fill="#C7C7C7"/>
<path d="M192.114 52.058L187.981 54.4458L188.288 54.9756L192.42 52.5878L192.114 52.058Z" fill="#C7C7C7"/>
<path d="M181.316 41.4758L178.932 45.6104L179.462 45.916L181.846 41.7815L181.316 41.4758Z" fill="#C7C7C7"/>
<path d="M167.435 39.8822L168.471 69.0488L165.477 69.0162L166.619 39.874L167.435 39.8822Z" fill="#C7C7C7"/>
<path d="M185.604 56.7542L165.975 69.2775L164.547 66.6586L185.212 56.0444L185.604 56.7542Z" fill="#A6A6A6"/>
<path d="M167.99 66.928C167.99 67.1297 167.93 67.3269 167.818 67.4946C167.706 67.6623 167.547 67.793 167.36 67.8702C167.174 67.9474 166.969 67.9676 166.771 67.9283C166.573 67.8889 166.392 67.7918 166.249 67.6492C166.106 67.5065 166.009 67.3248 165.97 67.127C165.93 66.9292 165.951 66.7241 166.028 66.5378C166.105 66.3514 166.236 66.1922 166.403 66.0801C166.571 65.968 166.768 65.9082 166.97 65.9082C167.104 65.9071 167.237 65.9328 167.362 65.9837C167.486 66.0345 167.599 66.1096 167.694 66.2045C167.788 66.2994 167.864 66.4123 167.914 66.5365C167.965 66.6607 167.991 66.7938 167.99 66.928Z" fill="#C7C7C7"/>
<path d="M446.406 342.562L402.358 342.766L358.311 342.831L270.207 342.97L182.104 342.84L138.056 342.766L94 342.562L138.056 342.366L182.104 342.293L270.207 342.154L358.311 342.293L402.358 342.366L446.406 342.562Z" fill="#263238"/>
<path d="M406.829 104.522C406.769 102.025 406.864 99.5263 407.115 97.0409C407.331 94.5542 407.699 92.0831 408.216 89.6411C408.276 92.1384 408.181 94.637 407.93 97.1225C407.714 99.6091 407.346 102.08 406.829 104.522Z" fill="#263238"/>
<path d="M402.424 105.379C401.128 103.244 399.964 101.032 398.94 98.7541C397.878 96.4943 396.96 94.17 396.19 91.7949C398.76 96.0807 400.85 100.636 402.424 105.379Z" fill="#263238"/>
<path d="M399.046 108.324C396.856 107.123 394.742 105.791 392.715 104.334C390.663 102.906 388.704 101.35 386.849 99.6758C391.216 102.107 395.306 105.007 399.046 108.324Z" fill="#263238"/>
<path d="M397.585 112.558C392.589 112.642 387.599 112.176 382.704 111.171C385.199 111.111 387.695 111.206 390.177 111.457C392.667 111.674 395.14 112.041 397.585 112.558Z" fill="#263238"/>
<path d="M413.404 118C417.785 120.431 421.888 123.33 425.642 126.648C423.449 125.453 421.335 124.121 419.311 122.659C417.249 121.228 415.276 119.672 413.404 118Z" fill="#263238"/>
<path d="M414.865 113.766C419.864 113.683 424.857 114.148 429.754 115.153C427.257 115.213 424.759 115.118 422.273 114.867C419.784 114.65 417.31 114.283 414.865 113.766Z" fill="#263238"/>
<path d="M414.008 109.36C416.143 108.064 418.355 106.901 420.633 105.876C422.892 104.815 425.217 103.897 427.592 103.127C425.459 104.424 423.249 105.59 420.975 106.619C418.712 107.676 416.385 108.592 414.008 109.36Z" fill="#263238"/>
<path d="M411.062 105.966C412.263 103.775 413.598 101.661 415.06 99.6355C416.483 97.5824 418.036 95.6231 419.711 93.7695C417.282 98.1515 414.382 102.255 411.062 106.007V105.966Z" fill="#263238"/>
<path d="M225.335 290.176C224.43 291.327 148.254 294.745 144.631 293.701C144.455 293.649 144.286 293.578 144.126 293.489C139.638 291.384 120.384 276.845 117.317 270.718C114.869 265.823 129.383 239.031 134.45 234.437C137.819 231.394 144.068 230.195 144.068 230.195C144.068 230.195 161.707 179.286 172.582 168.631C175.315 165.955 222.553 164.911 230.989 168.761C234.603 170.393 243.39 179.368 243.635 180.999C243.839 183.357 226.224 289.01 225.335 290.176Z" fill="#37474F"/>
<path d="M225.857 290.176C224.951 291.326 148.784 294.745 145.153 293.7C144.978 293.646 144.809 293.575 144.647 293.488C151.99 273.753 186.256 181.154 187.235 180.559C188.214 179.963 233.347 180.232 244.157 181.015C244.385 183.357 226.771 289.009 225.857 290.176Z" fill="#263238"/>
<path d="M197.882 172.384C197.123 171.666 196.617 161.321 198.021 159.257C199.587 156.948 217.699 158.09 218.768 160.073C219.836 162.055 220.35 172.384 219.804 172.759C219.257 173.134 216.239 173.485 215.831 172.824C215.423 172.163 215.447 163.613 215.129 163.156C214.811 162.7 202.124 161.884 201.684 162.536C201.243 163.189 202.312 171.837 201.806 172.212C201.3 172.588 198.624 173.085 197.882 172.384Z" fill="#37474F"/>
<path d="M160.477 219.388L154.885 216.768L151.869 223.202L157.462 225.823L160.477 219.388Z" fill="#DBDBDB"/>
<path d="M160.207 224.565L151.091 220.292L147.649 227.636L156.766 231.908L160.207 224.565Z" fill="#C7C7C7"/>
<path d="M158.77 243.942L143.016 277.555L121.347 267.39L137.093 233.785C140.217 227.136 146.801 223.995 153.41 227.079C160.018 230.163 161.886 237.318 158.77 243.942Z" fill="#407BFF"/>
<path opacity="0.1" d="M158.77 243.942L143.016 277.555L121.347 267.39L137.093 233.785C140.217 227.136 146.801 223.995 153.41 227.079C160.018 230.163 161.886 237.318 158.77 243.942Z" fill="black"/>
<path d="M151.094 229.045C151.04 229.156 150.965 229.255 150.873 229.337C150.781 229.419 150.674 229.482 150.558 229.523C150.442 229.563 150.319 229.58 150.196 229.573C150.073 229.566 149.952 229.535 149.841 229.481C149.73 229.428 149.631 229.353 149.549 229.261C149.467 229.169 149.404 229.062 149.364 228.946C149.323 228.829 149.306 228.706 149.313 228.583C149.32 228.46 149.351 228.34 149.405 228.229C149.513 228.005 149.706 227.833 149.941 227.751C150.176 227.67 150.433 227.684 150.657 227.793C150.881 227.901 151.053 228.093 151.135 228.328C151.217 228.563 151.202 228.821 151.094 229.045Z" fill="white"/>
<path d="M158.313 241.682C158.235 241.848 158.109 241.987 157.951 242.082C157.794 242.177 157.612 242.223 157.429 242.214C157.245 242.206 157.068 242.143 156.92 242.034C156.772 241.925 156.66 241.774 156.597 241.601C156.535 241.429 156.525 241.241 156.569 241.063C156.613 240.884 156.709 240.723 156.844 240.599C156.98 240.475 157.149 240.394 157.33 240.366C157.512 240.338 157.698 240.364 157.864 240.442C157.976 240.494 158.075 240.567 158.158 240.657C158.241 240.747 158.305 240.853 158.347 240.969C158.388 241.084 158.407 241.206 158.401 241.329C158.395 241.451 158.365 241.571 158.313 241.682Z" fill="white"/>
<path d="M148.328 238.035C148.275 238.145 148.202 238.244 148.111 238.326C148.02 238.408 147.914 238.471 147.799 238.512C147.684 238.553 147.562 238.571 147.44 238.565C147.318 238.558 147.198 238.528 147.088 238.476C146.977 238.422 146.879 238.347 146.797 238.256C146.716 238.164 146.653 238.057 146.613 237.941C146.573 237.825 146.556 237.702 146.563 237.58C146.57 237.458 146.602 237.338 146.655 237.227C146.709 237.117 146.784 237.018 146.875 236.937C146.967 236.855 147.074 236.793 147.19 236.753C147.306 236.712 147.428 236.696 147.551 236.703C147.673 236.71 147.793 236.741 147.904 236.795C148.122 236.905 148.289 237.097 148.368 237.329C148.447 237.56 148.433 237.814 148.328 238.035Z" fill="white"/>
<path d="M145.383 246.496C145.332 246.608 145.259 246.708 145.169 246.792C145.079 246.875 144.973 246.939 144.857 246.981C144.742 247.023 144.619 247.041 144.496 247.035C144.373 247.029 144.253 246.998 144.143 246.945C143.976 246.866 143.837 246.74 143.742 246.583C143.648 246.425 143.602 246.243 143.61 246.06C143.619 245.876 143.682 245.699 143.791 245.552C143.9 245.404 144.05 245.291 144.223 245.229C144.396 245.166 144.583 245.156 144.762 245.2C144.94 245.244 145.101 245.34 145.226 245.475C145.35 245.611 145.431 245.78 145.459 245.962C145.487 246.143 145.46 246.329 145.383 246.496Z" fill="white"/>
<path d="M132.704 250.836C132.653 250.948 132.58 251.048 132.49 251.132C132.4 251.215 132.294 251.28 132.178 251.321C132.063 251.363 131.94 251.381 131.817 251.375C131.695 251.369 131.574 251.338 131.464 251.285C131.353 251.231 131.255 251.156 131.173 251.065C131.092 250.973 131.029 250.866 130.989 250.75C130.949 250.634 130.932 250.512 130.939 250.389C130.946 250.267 130.978 250.147 131.031 250.036C131.085 249.926 131.16 249.827 131.251 249.746C131.343 249.664 131.45 249.602 131.566 249.562C131.682 249.522 131.804 249.505 131.927 249.512C132.049 249.519 132.169 249.55 132.28 249.604C132.389 249.656 132.487 249.73 132.568 249.82C132.648 249.911 132.71 250.016 132.75 250.131C132.789 250.246 132.806 250.367 132.798 250.488C132.79 250.609 132.758 250.727 132.704 250.836Z" fill="white"/>
<path d="M135.38 242.938C135.326 243.049 135.251 243.149 135.159 243.231C135.068 243.313 134.96 243.376 134.844 243.416C134.728 243.457 134.605 243.474 134.482 243.467C134.359 243.46 134.238 243.429 134.128 243.375C134.017 243.321 133.917 243.246 133.835 243.155C133.753 243.063 133.69 242.955 133.65 242.839C133.609 242.723 133.592 242.6 133.599 242.477C133.606 242.354 133.637 242.234 133.691 242.123C133.799 241.899 133.992 241.727 134.227 241.645C134.462 241.563 134.719 241.578 134.943 241.686C135.167 241.794 135.339 241.987 135.421 242.222C135.503 242.457 135.488 242.715 135.38 242.938Z" fill="white"/>
<path d="M139.32 235.082C139.267 235.193 139.192 235.292 139.1 235.374C139.008 235.456 138.901 235.519 138.784 235.56C138.668 235.6 138.545 235.617 138.422 235.61C138.299 235.603 138.179 235.572 138.068 235.519C137.957 235.465 137.858 235.39 137.776 235.298C137.694 235.206 137.631 235.099 137.59 234.983C137.55 234.866 137.533 234.743 137.54 234.62C137.547 234.497 137.578 234.377 137.631 234.266C137.74 234.042 137.932 233.87 138.167 233.789C138.402 233.707 138.66 233.722 138.884 233.83C139.108 233.938 139.28 234.131 139.361 234.365C139.443 234.6 139.428 234.858 139.32 235.082Z" fill="white"/>
<path d="M145.26 231.933C145.182 232.1 145.057 232.241 144.9 232.337C144.743 232.433 144.561 232.48 144.377 232.472C144.193 232.464 144.015 232.402 143.866 232.293C143.718 232.185 143.605 232.034 143.542 231.861C143.478 231.688 143.468 231.5 143.512 231.321C143.556 231.142 143.652 230.981 143.788 230.856C143.924 230.732 144.094 230.651 144.276 230.623C144.458 230.596 144.644 230.623 144.811 230.701C145.033 230.806 145.205 230.994 145.289 231.225C145.373 231.455 145.363 231.71 145.26 231.933Z" fill="white"/>
<path d="M142.184 240.703C142.106 240.869 141.98 241.008 141.823 241.103C141.665 241.198 141.483 241.244 141.3 241.235C141.116 241.226 140.939 241.164 140.791 241.055C140.643 240.946 140.531 240.795 140.469 240.623C140.406 240.45 140.396 240.262 140.44 240.084C140.484 239.905 140.58 239.744 140.715 239.62C140.851 239.496 141.02 239.415 141.202 239.387C141.383 239.359 141.569 239.385 141.736 239.463C141.847 239.515 141.946 239.588 142.029 239.678C142.112 239.768 142.176 239.874 142.218 239.99C142.259 240.105 142.278 240.227 142.272 240.35C142.266 240.472 142.237 240.592 142.184 240.703Z" fill="white"/>
<path d="M154.716 235.466C154.637 235.632 154.511 235.771 154.354 235.866C154.196 235.96 154.014 236.006 153.831 235.998C153.647 235.989 153.47 235.926 153.323 235.817C153.175 235.708 153.062 235.558 153 235.385C152.937 235.212 152.927 235.025 152.971 234.847C153.015 234.668 153.111 234.507 153.246 234.383C153.382 234.259 153.551 234.177 153.733 234.15C153.914 234.122 154.1 234.148 154.267 234.226C154.378 234.277 154.478 234.35 154.56 234.441C154.643 234.531 154.707 234.637 154.749 234.752C154.791 234.868 154.809 234.99 154.803 235.112C154.798 235.235 154.768 235.355 154.716 235.466Z" fill="white"/>
<path d="M151.909 244.146C151.831 244.312 151.705 244.451 151.547 244.546C151.39 244.641 151.208 244.687 151.024 244.678C150.841 244.669 150.664 244.607 150.516 244.498C150.368 244.389 150.256 244.238 150.193 244.065C150.131 243.893 150.121 243.705 150.165 243.527C150.209 243.348 150.304 243.187 150.44 243.063C150.575 242.939 150.745 242.858 150.926 242.83C151.108 242.802 151.294 242.828 151.46 242.906C151.571 242.957 151.671 243.031 151.754 243.121C151.837 243.211 151.901 243.317 151.942 243.432C151.984 243.548 152.003 243.67 151.997 243.792C151.991 243.915 151.961 244.035 151.909 244.146Z" fill="white"/>
<path d="M138.954 248.74C138.875 248.906 138.75 249.045 138.592 249.14C138.435 249.234 138.253 249.28 138.069 249.272C137.886 249.263 137.709 249.2 137.561 249.091C137.413 248.982 137.301 248.832 137.238 248.659C137.176 248.486 137.166 248.299 137.21 248.12C137.253 247.942 137.349 247.781 137.485 247.657C137.62 247.533 137.79 247.451 137.971 247.423C138.153 247.395 138.339 247.422 138.505 247.499C138.616 247.551 138.716 247.624 138.799 247.715C138.882 247.805 138.946 247.911 138.987 248.026C139.029 248.141 139.047 248.264 139.042 248.386C139.036 248.509 139.006 248.629 138.954 248.74Z" fill="white"/>
<path d="M144.926 259.704C144.847 259.871 144.721 260.01 144.564 260.104C144.406 260.199 144.224 260.245 144.041 260.237C143.857 260.228 143.68 260.165 143.533 260.056C143.385 259.947 143.272 259.797 143.21 259.624C143.147 259.451 143.137 259.264 143.181 259.085C143.225 258.907 143.321 258.745 143.456 258.621C143.592 258.497 143.761 258.416 143.943 258.388C144.124 258.36 144.31 258.387 144.477 258.464C144.588 258.516 144.688 258.589 144.77 258.68C144.853 258.77 144.917 258.876 144.959 258.991C145.001 259.106 145.019 259.229 145.013 259.351C145.008 259.473 144.978 259.594 144.926 259.704Z" fill="white"/>
<path d="M141.817 265.994C141.739 266.161 141.613 266.3 141.455 266.395C141.298 266.489 141.116 266.535 140.932 266.527C140.749 266.518 140.572 266.455 140.424 266.346C140.276 266.237 140.164 266.087 140.101 265.914C140.039 265.741 140.029 265.554 140.073 265.375C140.117 265.197 140.212 265.036 140.348 264.911C140.484 264.787 140.653 264.706 140.834 264.678C141.016 264.65 141.202 264.677 141.368 264.754C141.48 264.806 141.579 264.879 141.662 264.97C141.745 265.06 141.809 265.166 141.851 265.281C141.892 265.396 141.911 265.519 141.905 265.641C141.899 265.764 141.869 265.884 141.817 265.994Z" fill="white"/>
<path d="M136.261 255.829C136.209 255.94 136.136 256.04 136.045 256.122C135.955 256.205 135.849 256.269 135.734 256.311C135.619 256.353 135.496 256.371 135.374 256.365C135.251 256.36 135.131 256.33 135.021 256.278C134.854 256.199 134.715 256.073 134.62 255.916C134.526 255.758 134.48 255.576 134.488 255.393C134.497 255.209 134.56 255.032 134.669 254.885C134.778 254.737 134.928 254.624 135.101 254.562C135.274 254.499 135.461 254.489 135.64 254.533C135.818 254.577 135.979 254.673 136.103 254.808C136.227 254.944 136.309 255.113 136.337 255.295C136.365 255.476 136.338 255.662 136.261 255.829Z" fill="white"/>
<path d="M127.507 263.8C127.453 263.911 127.378 264.01 127.286 264.092C127.194 264.174 127.087 264.237 126.971 264.277C126.855 264.318 126.732 264.335 126.609 264.328C126.486 264.321 126.365 264.29 126.254 264.236C126.144 264.183 126.044 264.108 125.962 264.016C125.88 263.924 125.817 263.817 125.777 263.7C125.736 263.584 125.719 263.461 125.726 263.338C125.733 263.215 125.764 263.095 125.818 262.984C125.926 262.76 126.119 262.588 126.354 262.506C126.589 262.424 126.846 262.439 127.07 262.547C127.294 262.656 127.466 262.848 127.548 263.083C127.63 263.318 127.615 263.576 127.507 263.8Z" fill="white"/>
<path d="M142.413 254.075C142.334 254.241 142.209 254.38 142.051 254.475C141.894 254.57 141.712 254.616 141.528 254.607C141.345 254.599 141.168 254.536 141.02 254.427C140.872 254.318 140.76 254.167 140.697 253.995C140.635 253.822 140.625 253.634 140.669 253.456C140.712 253.278 140.808 253.116 140.944 252.992C141.079 252.868 141.248 252.787 141.43 252.759C141.612 252.731 141.798 252.757 141.964 252.835C142.075 252.887 142.175 252.96 142.258 253.05C142.34 253.141 142.405 253.246 142.446 253.362C142.488 253.477 142.506 253.599 142.501 253.722C142.495 253.844 142.465 253.964 142.413 254.075Z" fill="white"/>
<path d="M139.304 260.977C139.226 261.143 139.1 261.282 138.943 261.377C138.785 261.472 138.603 261.518 138.42 261.509C138.236 261.5 138.059 261.438 137.911 261.329C137.764 261.22 137.651 261.069 137.589 260.896C137.526 260.724 137.516 260.536 137.56 260.358C137.604 260.179 137.7 260.018 137.835 259.894C137.971 259.77 138.14 259.689 138.322 259.661C138.503 259.633 138.689 259.659 138.856 259.737C138.967 259.788 139.067 259.862 139.149 259.952C139.232 260.042 139.296 260.148 139.338 260.264C139.38 260.379 139.398 260.501 139.392 260.624C139.387 260.746 139.357 260.866 139.304 260.977Z" fill="white"/>
<path d="M136.097 267.822C136.019 267.988 135.893 268.127 135.736 268.222C135.578 268.317 135.396 268.363 135.213 268.354C135.029 268.346 134.852 268.283 134.704 268.174C134.556 268.065 134.444 267.914 134.382 267.742C134.319 267.569 134.309 267.381 134.353 267.203C134.397 267.025 134.493 266.863 134.628 266.739C134.764 266.615 134.933 266.534 135.115 266.506C135.296 266.478 135.482 266.504 135.649 266.582C135.76 266.634 135.86 266.707 135.942 266.797C136.025 266.888 136.089 266.993 136.131 267.109C136.173 267.224 136.191 267.346 136.185 267.469C136.18 267.591 136.15 267.711 136.097 267.822Z" fill="white"/>
<path d="M138.913 273.002C138.806 273.225 138.617 273.397 138.385 273.481C138.152 273.565 137.897 273.555 137.672 273.451C137.562 273.398 137.462 273.323 137.38 273.231C137.298 273.139 137.235 273.032 137.195 272.915C137.154 272.799 137.137 272.676 137.144 272.553C137.151 272.43 137.182 272.31 137.236 272.199C137.29 272.088 137.364 271.989 137.456 271.907C137.548 271.825 137.655 271.762 137.772 271.721C137.888 271.681 138.011 271.663 138.134 271.67C138.257 271.678 138.377 271.709 138.488 271.762C138.707 271.873 138.874 272.064 138.953 272.296C139.032 272.528 139.018 272.781 138.913 273.002Z" fill="white"/>
<path d="M130.42 257.314C130.312 257.538 130.119 257.71 129.884 257.792C129.649 257.873 129.391 257.859 129.168 257.75C128.944 257.642 128.772 257.45 128.69 257.215C128.608 256.98 128.623 256.722 128.731 256.498C128.785 256.387 128.86 256.288 128.951 256.206C129.043 256.124 129.151 256.061 129.267 256.02C129.383 255.98 129.506 255.963 129.629 255.97C129.752 255.977 129.873 256.008 129.983 256.062C130.094 256.115 130.194 256.19 130.275 256.282C130.357 256.374 130.42 256.481 130.461 256.597C130.502 256.714 130.519 256.837 130.512 256.96C130.505 257.083 130.473 257.203 130.42 257.314Z" fill="white"/>
<path d="M133.218 262.331C133.14 262.498 133.014 262.637 132.857 262.731C132.699 262.826 132.517 262.872 132.334 262.864C132.15 262.855 131.973 262.792 131.825 262.683C131.678 262.574 131.565 262.424 131.503 262.251C131.44 262.078 131.43 261.891 131.474 261.712C131.518 261.534 131.614 261.372 131.749 261.248C131.885 261.124 132.054 261.043 132.236 261.015C132.417 260.987 132.603 261.014 132.77 261.091C132.881 261.143 132.981 261.216 133.063 261.307C133.146 261.397 133.21 261.503 133.252 261.618C133.294 261.733 133.312 261.856 133.306 261.978C133.301 262.1 133.271 262.22 133.218 262.331Z" fill="white"/>
<path d="M144.412 271.722C144.333 271.888 144.208 272.027 144.05 272.122C143.893 272.217 143.711 272.263 143.527 272.254C143.344 272.246 143.167 272.183 143.019 272.074C142.871 271.965 142.759 271.814 142.696 271.642C142.634 271.469 142.624 271.281 142.668 271.103C142.711 270.925 142.807 270.763 142.943 270.639C143.078 270.515 143.248 270.434 143.429 270.406C143.611 270.378 143.797 270.404 143.963 270.482C144.186 270.588 144.358 270.778 144.442 271.01C144.526 271.242 144.515 271.498 144.412 271.722Z" fill="white"/>
<path d="M130.297 269.046C130.218 269.212 130.092 269.351 129.935 269.446C129.777 269.541 129.595 269.586 129.412 269.578C129.228 269.569 129.051 269.507 128.904 269.397C128.756 269.288 128.643 269.138 128.581 268.965C128.518 268.793 128.508 268.605 128.552 268.427C128.596 268.248 128.692 268.087 128.828 267.963C128.963 267.839 129.132 267.758 129.314 267.73C129.495 267.702 129.681 267.728 129.848 267.806C129.959 267.857 130.059 267.93 130.142 268.021C130.224 268.111 130.288 268.217 130.33 268.332C130.372 268.448 130.39 268.57 130.385 268.692C130.379 268.815 130.349 268.935 130.297 269.046Z" fill="white"/>
<path d="M150.848 258.317C150.77 258.483 150.644 258.623 150.487 258.717C150.329 258.812 150.147 258.858 149.964 258.849C149.78 258.841 149.603 258.778 149.455 258.669C149.307 258.56 149.195 258.41 149.133 258.237C149.07 258.064 149.06 257.877 149.104 257.698C149.148 257.52 149.244 257.358 149.379 257.234C149.515 257.11 149.684 257.029 149.866 257.001C150.047 256.973 150.233 257 150.4 257.077C150.511 257.129 150.611 257.202 150.693 257.292C150.776 257.383 150.84 257.489 150.882 257.604C150.923 257.719 150.942 257.841 150.936 257.964C150.931 258.086 150.901 258.206 150.848 258.317Z" fill="white"/>
<path d="M147.748 264.942C147.669 265.108 147.544 265.247 147.386 265.342C147.229 265.437 147.047 265.482 146.863 265.474C146.68 265.465 146.503 265.403 146.355 265.293C146.207 265.184 146.095 265.034 146.032 264.861C145.97 264.689 145.96 264.501 146.003 264.323C146.047 264.144 146.143 263.983 146.279 263.859C146.414 263.735 146.583 263.654 146.765 263.626C146.947 263.598 147.132 263.624 147.299 263.702C147.41 263.753 147.51 263.826 147.593 263.917C147.675 264.007 147.74 264.113 147.781 264.228C147.823 264.344 147.841 264.466 147.836 264.588C147.83 264.711 147.8 264.831 147.748 264.942Z" fill="white"/>
<path d="M148.343 252.867C148.265 253.034 148.139 253.173 147.982 253.268C147.824 253.362 147.642 253.408 147.459 253.4C147.275 253.391 147.098 253.328 146.95 253.219C146.803 253.11 146.69 252.96 146.628 252.787C146.565 252.614 146.555 252.427 146.599 252.248C146.643 252.07 146.739 251.909 146.874 251.785C147.01 251.66 147.179 251.579 147.361 251.551C147.542 251.523 147.728 251.55 147.895 251.627C148.006 251.679 148.106 251.752 148.188 251.843C148.271 251.933 148.335 252.039 148.377 252.154C148.419 252.269 148.437 252.392 148.431 252.514C148.426 252.637 148.396 252.757 148.343 252.867Z" fill="white"/>
<path d="M154.886 250.803C154.808 250.97 154.682 251.109 154.525 251.204C154.367 251.298 154.185 251.344 154.002 251.336C153.818 251.327 153.641 251.264 153.493 251.155C153.346 251.046 153.233 250.896 153.171 250.723C153.108 250.55 153.098 250.363 153.142 250.184C153.186 250.006 153.282 249.845 153.417 249.721C153.553 249.597 153.722 249.515 153.904 249.487C154.085 249.459 154.271 249.486 154.438 249.563C154.549 249.615 154.649 249.688 154.731 249.779C154.814 249.869 154.878 249.975 154.92 250.09C154.962 250.205 154.98 250.328 154.974 250.45C154.969 250.573 154.939 250.693 154.886 250.803Z" fill="white"/>
<path d="M118.81 267.871C120.637 276.845 140.577 286.521 141.939 286.481C143.302 286.44 156.535 253.683 156.535 253.683C156.535 253.683 140.405 248.38 133.144 238.949C133.144 238.949 118.239 265.056 118.81 267.871Z" fill="#455A64"/>
<path d="M272.728 342.236H195.557C190.858 324.287 186.542 308.451 183.792 298.449C182.063 292.159 180.953 288.169 180.741 287.419C180.73 287.374 180.716 287.331 180.7 287.288H260.955L263.403 298.539C264.374 303.091 265.606 308.835 267.025 315.402C267.139 315.973 267.27 316.553 267.392 317.156C269.008 324.678 270.827 333.204 272.728 342.236Z" fill="#455A64"/>
<path d="M207.256 342.235H205.804C201.855 327.686 198.002 313.11 194.243 298.506L193.933 297.274C193.86 296.94 194.357 296.785 194.455 297.119C194.594 297.584 194.733 298.041 194.863 298.506C199.122 313.044 203.218 327.632 207.256 342.235Z" fill="#263238"/>
<path d="M254.706 287.419C254.077 291.232 253.16 294.993 251.965 298.669C251.067 301.59 249.982 304.747 248.758 308.003C248.497 308.745 248.204 309.463 247.942 310.197C244.051 320.11 238.968 330.21 233.714 335.007H233.673C233.057 335.596 232.385 336.124 231.666 336.582L227.195 339.347C227.2 339.369 227.2 339.391 227.195 339.413C227.195 339.682 226.991 340.653 226.739 342.219H151.411C149.486 324.776 153.5 308.459 157 298.229C158.225 294.53 159.685 290.914 161.373 287.402L254.706 287.419Z" fill="#455A64"/>
<path d="M245.731 330.757C240.998 333.356 236.122 335.688 231.128 337.74C229.798 338.311 228.468 338.874 227.114 339.421C227.032 339.421 226.95 339.494 226.869 339.519C225.705 340.003 224.538 340.468 223.369 340.914C222.227 341.355 221.093 341.811 219.934 342.236H217.389C219.143 341.355 220.978 340.604 222.765 339.788C225.245 338.7 227.734 337.613 230.23 336.525C231.364 336.035 232.498 335.538 233.624 335.032H233.665C237.556 333.302 241.432 331.573 245.438 330.137C245.837 329.941 246.098 330.545 245.731 330.757Z" fill="#263238"/>
<path d="M227.155 339.478C227.155 340.065 227.106 341.036 226.992 342.236H226.176C226.437 341.11 226.673 340.188 226.902 339.519C226.9 339.494 226.9 339.47 226.902 339.445C226.943 339.339 227.09 339.331 227.122 339.445C227.122 339.445 227.155 339.454 227.155 339.478Z" fill="#263238"/>
<path d="M168.658 292.11C167.639 294.15 166.717 296.189 165.86 298.327C160.664 311.102 158.703 324.963 160.149 338.679C160.288 339.87 160.459 341.053 160.639 342.236H159.333C158.818 338.79 158.518 335.316 158.436 331.834C158.166 320.314 160.41 308.874 165.011 298.31C165.974 296.116 167.043 293.962 168.21 291.865C168.226 291.836 168.247 291.81 168.274 291.789C168.3 291.768 168.33 291.752 168.362 291.742C168.394 291.733 168.428 291.73 168.461 291.733C168.495 291.737 168.527 291.747 168.556 291.763C168.586 291.779 168.612 291.801 168.633 291.827C168.654 291.853 168.67 291.883 168.679 291.915C168.689 291.948 168.692 291.981 168.688 292.015C168.685 292.048 168.674 292.08 168.658 292.11Z" fill="#263238"/>
<path d="M225.263 318.478C225.336 315.573 225.54 312.677 225.687 309.781C226.021 302.944 226.29 296.066 226.927 289.254C226.927 289.198 226.949 289.144 226.989 289.104C227.029 289.064 227.083 289.042 227.139 289.042C227.195 289.042 227.249 289.064 227.289 289.104C227.329 289.144 227.351 289.198 227.351 289.254C227.433 294.541 227.229 299.86 227.123 305.139C227.066 307.782 226.992 310.434 226.919 313.077C226.776 315.601 226.76 318.13 226.87 320.656C227.008 322.565 227.425 326.269 229.913 326.498C232.263 326.718 234.114 324.189 234.702 322.337C236.187 317.621 236.717 312.547 237.198 307.652C237.484 304.755 237.818 292.966 237.663 290.013C237.663 289.825 237.941 289.833 237.957 290.013C238.12 292.999 238.528 295.969 238.626 298.987C238.724 302.006 238.732 304.959 238.545 307.962C238.357 310.817 238.12 313.672 237.688 316.52C237.398 319.108 236.781 321.649 235.852 324.083C234.987 326.09 233.503 327.934 231.251 328.374C230.981 328.42 230.709 328.447 230.435 328.456C230.435 329.068 230.321 329.688 230.28 330.291C230.215 331.254 230.092 332.2 229.962 333.155C229.83 334.091 229.637 335.018 229.383 335.929C229.178 336.85 228.848 337.74 228.404 338.572C228.387 338.598 228.362 338.618 228.333 338.629C228.304 338.64 228.272 338.641 228.242 338.633C228.212 338.625 228.186 338.607 228.167 338.583C228.147 338.559 228.136 338.53 228.134 338.499C228.112 337.582 228.189 336.666 228.363 335.766C228.493 334.836 228.624 333.889 228.811 332.975C228.999 332.062 229.17 331.156 229.358 330.251C229.48 329.647 229.562 329.019 229.676 328.407C228.949 328.279 228.266 327.973 227.686 327.516C227.107 327.059 226.65 326.465 226.356 325.788C225.287 323.528 225.205 320.893 225.263 318.478Z" fill="#263238"/>
<path d="M223.875 187.306C233.609 199.503 271.774 242.784 292.986 246.822C307.272 249.555 353.163 226.198 363.214 217.737C367.294 214.278 344.344 180.037 338.739 181.416C332.669 182.909 299.643 204.863 295.352 204.61C291.061 204.357 257.26 185.356 236.758 176.945C224.438 171.854 218.393 180.445 223.875 187.306Z" fill="#FFBDA7"/>
<path d="M350.609 225.895C359.436 222.493 386.205 203.721 390.651 198.842C395.097 193.963 406.878 179.025 403.484 175.239C400.09 171.454 396.305 175.558 396.305 175.558C396.305 175.558 400.767 167.848 396.525 164.952C393.139 162.643 387.485 168.133 387.485 168.133C387.485 168.133 391.932 159.428 387.355 157.103C383.186 154.982 378.593 162.439 378.593 162.439C378.593 162.439 381.57 154.778 377.165 153.513C371.862 151.98 366.698 165.237 361.386 170.255C360.179 171.389 324.551 188.872 324.551 188.872L350.609 225.895Z" fill="#FFBDA7"/>
<path d="M378.397 162.055C373.502 171.592 371.217 175.394 362.896 181.497C362.733 181.611 362.896 181.88 363.059 181.774C371.723 176.536 374.774 172.221 378.854 162.194C379.074 161.729 378.625 161.615 378.397 162.055Z" fill="#263238"/>
<path d="M387.387 168.133C382.533 177.923 378.821 181.603 370.605 188.627C370.483 188.725 370.605 188.937 370.769 188.848C379.408 182.623 384.173 178.617 387.738 168.215C387.901 167.75 387.608 167.693 387.387 168.133Z" fill="#263238"/>
<path d="M395.896 175.908C390.512 185.029 386.751 189.517 377.89 195.309C377.845 195.335 377.812 195.378 377.798 195.429C377.784 195.479 377.791 195.533 377.817 195.578C377.843 195.624 377.886 195.657 377.936 195.671C377.987 195.685 378.041 195.678 378.086 195.652C387.689 190.618 392.437 185.046 396.157 176.071C396.41 175.492 396.231 175.313 395.896 175.908Z" fill="#263238"/>
<path d="M431.443 202.84C408.02 209.677 384.94 216.522 362.504 223.358C349.067 193.172 347.085 162.986 337.882 132.799C361.338 125.954 384.385 119.117 406.911 112.272C420.323 142.451 422.265 172.645 431.443 202.84Z" fill="white"/>
<path d="M431.443 202.84C419.766 206.31 408.197 209.774 396.737 213.233C385.277 216.693 373.902 220.149 362.61 223.603L362.382 223.676L362.268 223.432C348.773 193.245 346.766 163.059 337.49 132.872C337.449 132.742 337.417 132.611 337.376 132.481L337.759 132.366C361.215 125.562 384.263 118.758 406.788 111.97L407.058 111.889L407.18 112.166C413.87 127.3 417.68 142.434 420.968 157.568C424.256 172.702 426.924 187.754 431.443 202.84ZM431.443 202.84C426.785 187.738 423.929 172.653 420.552 157.527C417.174 142.401 413.356 127.398 406.682 112.337L407.066 112.533C384.573 119.411 361.493 126.297 338.037 133.174L338.306 132.668C347.468 162.855 349.402 193.082 362.782 223.285L362.447 223.113C373.673 219.73 385.038 216.347 396.541 212.964C408.045 209.581 419.679 206.206 431.443 202.84Z" fill="#263238"/>
<path d="M348.97 145.942C362.203 142.135 375.357 138.328 388.432 134.521C388.661 135.296 388.889 136.071 389.109 136.846C376.007 140.653 362.815 144.46 349.533 148.268C349.345 147.525 349.157 146.758 348.97 145.942Z" fill="#DBDBDB"/>
<path d="M350.373 151.849C363.671 148.041 376.91 144.234 390.089 140.427L390.7 142.752C377.505 146.559 364.24 150.367 350.903 154.174C350.732 153.399 350.553 152.624 350.373 151.849Z" fill="#DBDBDB"/>
<path d="M351.694 157.723C365.042 153.916 378.343 150.109 391.598 146.301C391.785 147.117 391.981 147.851 392.16 148.626C378.895 152.434 365.569 156.241 352.184 160.048C352.037 159.273 351.866 158.498 351.694 157.723Z" fill="#DBDBDB"/>
<path d="M352.967 163.589C372.547 158.02 392.068 152.448 411.528 146.873L412.091 149.206C392.642 154.77 373.053 160.342 353.464 165.914C353.293 165.139 353.13 164.364 352.967 163.589Z" fill="#DBDBDB"/>
<path d="M354.239 169.463C373.82 163.888 393.386 158.316 412.94 152.747C413.119 153.522 413.299 154.297 413.47 155.072C393.938 160.647 374.358 166.219 354.729 171.788C354.541 171.013 354.378 170.238 354.239 169.463Z" fill="#DBDBDB"/>
<path d="M355.472 175.313L414.213 158.604C414.384 159.42 414.555 160.154 414.719 160.929C395.138 166.501 375.558 172.066 355.978 177.638C355.806 176.879 355.643 176.128 355.472 175.313Z" fill="#DBDBDB"/>
<path d="M356.769 181.204C376.289 175.629 395.869 170.056 415.51 164.487C415.681 165.303 415.844 166.037 416.007 166.812C396.427 172.382 376.863 177.954 357.315 183.529C357.119 182.754 356.94 181.979 356.769 181.204Z" fill="#DBDBDB"/>
<path d="M358.131 187.069C377.573 181.497 397.153 175.933 416.741 170.361C416.913 171.136 417.076 171.911 417.239 172.686C397.659 178.261 378.146 183.831 358.702 189.395C358.506 188.62 358.319 187.844 358.131 187.069Z" fill="#DBDBDB"/>
<path d="M359.6 192.943C378.935 187.368 398.404 181.796 418.006 176.227C418.178 177.002 418.341 177.777 418.512 178.552C398.964 184.127 379.534 189.699 360.22 195.268C360.008 194.493 359.804 193.718 359.6 192.943Z" fill="#DBDBDB"/>
<path d="M361.198 198.809C380.387 193.245 399.758 187.676 419.311 182.101C419.491 182.916 419.662 183.651 419.85 184.426C400.367 189.998 380.999 195.57 361.875 201.143C361.647 200.359 361.419 199.584 361.198 198.809Z" fill="#DBDBDB"/>
<path d="M362.953 204.684C381.99 199.114 401.236 193.542 420.691 187.967C420.878 188.783 421.066 189.517 421.262 190.292C401.877 195.867 382.691 201.439 363.704 207.009C363.451 206.234 363.214 205.499 362.953 204.684Z" fill="#DBDBDB"/>
<path d="M364.902 210.558C383.732 204.988 402.823 199.416 422.175 193.841C422.379 194.616 422.583 195.391 422.795 196.166C403.541 201.736 384.521 207.308 365.735 212.883L364.902 210.558Z" fill="#DBDBDB"/>
<path d="M395.171 146.677C394.298 140.337 393.229 133.998 391.802 127.659C396.264 132.203 400.531 136.748 404.684 141.292L403.46 142.41C400.556 139.212 397.594 136.013 394.543 132.815C395.432 137.343 396.175 141.863 396.787 146.391L395.171 146.677Z" fill="#407BFF"/>
<path d="M394.004 143.381L393.058 142.083C395.962 139.908 398.839 137.732 401.689 135.557L402.668 136.854C399.813 139.04 396.925 141.216 394.004 143.381Z" fill="#407BFF"/>
<path d="M391.459 125.17C390.117 126.165 388.927 127.349 387.926 128.687C385.954 131.397 384.923 134.677 384.989 138.028C385.003 139.653 385.359 141.257 386.033 142.736C386.728 144.162 387.737 145.412 388.985 146.392C390.233 147.371 391.687 148.054 393.237 148.39C396.354 149.001 399.691 147.884 402.481 146.04C405.338 144.333 407.504 141.676 408.6 138.534C409.115 136.993 409.275 135.355 409.069 133.743C408.863 132.132 408.295 130.587 407.409 129.225C406.432 127.879 405.17 126.764 403.713 125.962C402.257 125.12 400.638 124.6 398.965 124.436C397.302 124.268 395.624 124.5 394.07 125.113C392.527 125.749 391.106 126.646 389.868 127.765C390.44 127.147 391.057 126.572 391.712 126.043C392.394 125.536 393.123 125.096 393.89 124.73C395.466 123.964 397.205 123.594 398.956 123.653C400.797 123.743 402.597 124.227 404.235 125.071C405.873 125.915 407.312 127.101 408.453 128.548C409.546 130.043 410.25 131.787 410.501 133.623C410.759 135.434 410.617 137.281 410.085 139.032C408.895 142.549 406.499 145.531 403.321 147.451C401.785 148.464 400.1 149.232 398.328 149.728C396.55 150.233 394.678 150.314 392.862 149.964C391.09 149.59 389.44 148.777 388.065 147.598C386.703 146.44 385.611 144.997 384.867 143.372C383.559 140.005 383.579 136.266 384.924 132.913C386.154 129.661 388.46 126.929 391.459 125.17Z" fill="#407BFF"/>
<path d="M400.409 131.257C399.473 129.973 398.519 128.692 397.545 127.414L398.826 126.468C399.805 127.746 400.768 129.027 401.714 130.31L400.409 131.257Z" fill="#407BFF"/>
<path d="M398.296 130.857L397.325 129.519L400.997 126.876C401.331 127.325 401.657 127.773 401.992 128.214L398.296 130.857Z" fill="#407BFF"/>
<path d="M324.551 188.88C324.551 188.88 333.223 179.996 337.123 175.582C341.023 171.168 350.34 157.16 355.398 157.495C361.109 157.87 356.981 172.629 350.071 180.559C350.071 180.559 359.249 195.195 352.975 203.133C351.613 204.847 341.724 210.28 339.269 209.774L324.551 188.88Z" fill="#FFBDA7"/>
<path d="M349.655 181.619C353.432 187.183 356.059 195.66 353.351 201.803C353.338 201.838 353.338 201.877 353.351 201.912C353.364 201.946 353.389 201.975 353.422 201.993C353.455 202.011 353.493 202.016 353.529 202.009C353.565 202.001 353.598 201.98 353.62 201.95C357.414 195.758 354.436 185.919 350.797 181.146C350.087 180.208 348.676 180.208 349.655 181.619Z" fill="#263238"/>
<path d="M324.551 188.88L350.609 225.895C350.686 228.246 350.041 230.563 348.762 232.536C347.483 234.509 345.631 236.044 343.454 236.934C335.679 240.336 303.518 251.937 290.783 247.638C278.047 243.338 241.718 212.026 226.045 191.214C210.373 170.401 233.535 174.538 237.948 176.528C242.362 178.519 294.177 202.937 296.021 202.896C297.864 202.856 309.89 193.71 315.601 190.871C321.312 188.032 324.551 188.88 324.551 188.88Z" fill="#407BFF"/>
<path opacity="0.1" d="M309.368 247.352C302.025 248.698 295.229 249.139 290.799 247.638C278.056 243.33 241.726 212.034 226.054 191.205C225.058 189.892 224.226 188.668 223.524 187.559L309.368 247.352Z" fill="black"/>
<path d="M340.46 233.54C338.07 230.611 336.079 227.356 333.999 224.223C331.918 221.09 329.92 218.039 327.904 214.923C323.825 208.649 319.607 202.416 315.96 195.905C315.949 195.875 315.948 195.843 315.958 195.812C315.968 195.782 315.988 195.756 316.015 195.739C316.042 195.722 316.074 195.714 316.105 195.718C316.137 195.721 316.166 195.736 316.189 195.758C320.896 201.69 325 208.102 329.128 214.409C331.2 217.569 333.226 220.756 335.206 223.97C337.217 227.017 339.055 230.174 340.713 233.426C340.787 233.581 340.558 233.663 340.46 233.54Z" fill="#263238"/>
<g opacity="0.1">
<path d="M332.106 241.209L329.16 242.213C329.006 241.132 328.933 240.041 328.94 238.949C328.94 236.885 329.103 234.87 329.079 232.904C329.086 230.937 328.894 228.974 328.508 227.046C328.114 225.156 327.451 223.332 326.542 221.629C326.321 221.205 326.068 220.813 325.832 220.405C325.595 219.997 325.326 219.654 325.057 219.279C324.477 218.537 323.874 217.77 323.246 217.019L319.493 212.459C318.22 210.925 316.963 209.383 315.723 207.808C314.483 206.234 313.276 204.602 312.158 202.913C310.998 201.168 309.996 199.322 309.164 197.398C308.878 196.695 308.633 195.976 308.43 195.244C309.482 194.551 310.518 193.882 311.497 193.262C311.82 194.142 312.193 195.002 312.615 195.84C313.516 197.489 314.51 199.085 315.593 200.621C317.779 203.802 320.08 207.009 322.389 210.248C323.539 211.879 324.722 213.511 325.799 215.2C326.338 216.057 326.876 216.921 327.357 217.86C327.594 218.333 327.831 218.798 328.043 219.32C328.255 219.842 328.41 220.315 328.557 220.821C329.764 224.835 329.944 228.882 330.409 232.839C330.724 235.674 331.292 238.475 332.106 241.209Z" fill="black"/>
<path d="M321.81 244.399C320.994 244.627 320.227 244.848 319.419 245.06C318.44 241.682 318.383 238.354 318.31 235.066V229.975C318.31 229.159 318.31 228.302 318.244 227.478C318.227 226.679 318.148 225.883 318.008 225.096C317.979 224.918 317.932 224.743 317.869 224.574L317.665 224.019L317.42 223.481C317.331 223.301 317.225 223.13 317.135 222.95C316.72 222.247 316.228 221.593 315.666 221C314.494 219.809 313.162 218.785 311.709 217.957C310.983 217.517 310.233 217.141 309.474 216.742L307.181 215.575C305.541 214.811 304.059 213.742 302.817 212.426C302.509 212.058 302.236 211.662 302.001 211.243C301.878 211.031 301.772 210.802 301.666 210.582L301.413 209.929C301.12 209.068 300.899 208.184 300.753 207.286C300.475 205.549 300.372 203.789 300.443 202.032C300.443 201.518 300.491 201.004 300.532 200.49L302.164 199.413C302.164 200.286 302.164 201.151 302.237 202.016C302.304 203.659 302.49 205.295 302.792 206.911C302.95 207.686 303.163 208.45 303.429 209.195L303.641 209.734C303.722 209.889 303.779 210.052 303.869 210.215C304.04 210.536 304.233 210.844 304.448 211.137C305.446 212.393 306.61 213.507 307.908 214.449C309.237 215.469 310.681 216.391 312.109 217.329C313.585 218.227 314.989 219.236 316.311 220.348C316.989 220.925 317.609 221.567 318.163 222.265C318.442 222.623 318.7 222.996 318.938 223.383L319.272 223.978C319.383 224.197 319.478 224.424 319.558 224.655C319.842 225.515 320.041 226.4 320.153 227.299C320.292 228.164 320.366 229.028 320.439 229.885C320.578 231.598 320.659 233.295 320.774 234.976C320.888 236.657 321.01 238.337 321.173 239.985C321.285 241.469 321.498 242.944 321.81 244.399Z" fill="black"/>
</g>
<path d="M153.1 303.614C153.182 303.72 264.521 298.515 265.247 297.829C265.581 297.511 267.025 291.172 265.32 282.369C260.205 255.976 244.875 202.065 231.356 179.254C227.979 173.543 212.755 165.148 201.708 175.933C179.313 197.798 161.732 253.439 154.805 284.001C151.411 298.939 152.643 302.977 153.1 303.614Z" fill="#407BFF"/>
<g opacity="0.1">
<path d="M264.822 279.848C264.488 279.848 264.153 279.848 263.827 279.897C260.662 280.199 257.518 280.693 254.412 281.373C248.007 282.679 241.489 284.147 234.921 285.608C231.658 286.334 228.345 287.101 224.96 287.655C223.263 287.925 221.558 288.194 219.787 288.324C218.89 288.382 218.009 288.447 217.046 288.431C216.083 288.414 215.267 288.341 214.378 288.235C207.321 287.476 200.9 285.086 194.414 283.201C187.928 281.316 181.238 280.027 175.283 280.052C173.814 280.052 172.231 280.174 170.64 280.321C169.05 280.468 167.459 280.704 165.851 280.941C162.645 281.455 159.406 282.1 156.175 282.801L155.009 283.062C155.4 281.349 155.825 279.554 156.29 277.702C159.09 276.777 161.939 276.006 164.823 275.393C166.52 275.023 168.245 274.73 169.996 274.512C170.877 274.406 171.758 274.316 172.647 274.267C173.571 274.206 174.498 274.206 175.421 274.267C179.026 274.512 182.558 275.402 185.848 276.894C189.062 278.232 192.065 279.815 195.165 281.096C198.227 282.406 201.414 283.402 204.678 284.066C207.887 284.699 211.169 284.872 214.427 284.58C215.243 284.523 216.059 284.4 216.801 284.294C217.544 284.188 218.294 283.992 219.061 283.813C220.611 283.397 222.194 282.997 223.769 282.491L233.371 279.644C236.586 278.673 239.833 277.727 243.104 276.837C246.376 275.948 249.704 275.157 253.106 274.528C256.515 273.882 259.974 273.538 263.443 273.5C263.949 275.72 264.406 277.849 264.822 279.848Z" fill="black"/>
<path d="M259.968 259.15C257.701 258.344 255.385 257.684 253.034 257.175C251.721 256.903 250.39 256.729 249.052 256.653H248.081C247.779 256.653 247.486 256.653 247.184 256.694C246.569 256.753 245.959 256.851 245.356 256.988C242.743 257.715 240.24 258.794 237.916 260.194C235.468 261.597 233.021 263.229 230.655 264.852C228.279 266.556 225.778 268.078 223.173 269.405C221.826 270.077 220.42 270.624 218.972 271.036C218.231 271.236 217.479 271.394 216.72 271.51L215.545 271.583C215.13 271.612 214.713 271.612 214.297 271.583C212.77 271.461 211.259 271.188 209.785 270.767C208.35 270.408 206.954 269.951 205.576 269.503C202.81 268.589 200.109 267.602 197.417 266.664C194.725 265.725 192.024 264.812 189.348 263.979C186.747 263.126 184.086 262.472 181.386 262.021C180.124 261.831 178.844 261.804 177.576 261.94C176.241 262.091 174.918 262.339 173.619 262.682C170.916 263.403 168.261 264.297 165.672 265.358C163.339 266.305 161.017 267.316 158.705 268.393C158.958 267.455 159.219 266.508 159.521 265.546C161.153 264.55 162.809 263.61 164.489 262.723C167.113 261.332 169.841 260.149 172.648 259.182C174.103 258.7 175.592 258.326 177.102 258.064C178.683 257.789 180.294 257.729 181.892 257.885C188.092 258.505 193.55 260.691 198.918 262.837L206.881 266.101C208.194 266.647 209.516 267.161 210.822 267.659C212.077 268.153 213.366 268.554 214.68 268.858C214.982 268.922 215.287 268.965 215.594 268.989L216.59 269.029H217.593C217.936 269.029 218.27 268.964 218.605 268.932C219.973 268.752 221.317 268.418 222.611 267.936C225.234 266.886 227.704 265.486 229.953 263.775C231.104 262.96 232.197 262.005 233.314 261.099L236.643 258.285C238.903 256.441 241.334 254.564 244.435 253.569C245.214 253.31 246.018 253.13 246.833 253.031C247.249 252.974 247.649 252.965 248.09 252.941H249.272C250.808 253.05 252.331 253.29 253.825 253.659C255.586 254.078 257.315 254.623 258.997 255.291L259.968 259.15Z" fill="black"/>
</g>
<path d="M190.017 178.576C153.671 193.988 125.451 207.408 129.546 221.376C131.178 226.858 140.642 241.649 152.83 241.633C162.408 241.633 179.484 226.263 198.942 199.38C209.018 185.47 212.967 168.835 190.017 178.576Z" fill="#407BFF"/>
<path d="M196.462 206.756C194.912 208.036 193.37 209.35 191.861 210.688L192.832 209.562C195.434 206.478 198.004 203.37 200.574 200.261C200.623 200.196 200.517 200.114 200.46 200.18C195.565 205.385 190.67 210.541 185.717 215.73C180.765 220.919 167.85 234.062 164.709 236.64C164.644 236.697 164.709 236.803 164.791 236.754C167.63 234.535 175.601 227.861 178.146 225.373C181.992 221.609 185.687 217.726 189.234 213.723C191.821 211.59 194.291 209.319 196.633 206.919C196.723 206.829 196.568 206.666 196.462 206.756Z" fill="#263238"/>
<path d="M142.543 233.181C126.65 226.654 116.354 178.446 112.455 145.999C111.712 139.823 160.533 133.876 160.59 140.525C160.786 178.478 159.953 240.312 142.543 233.181Z" fill="#FFBDA7"/>
<path d="M106.319 120.708C106.605 131.061 115.473 156.981 119.56 161.215C123.648 165.449 154.642 150.609 156.347 144.898C158.052 139.187 159.521 105.231 152.692 97.1709C145.863 89.1103 106.017 109.988 106.319 120.708Z" fill="#FFBDA7"/>
<path d="M160.712 111.677C158.004 116.449 153.933 110.526 153.933 110.526C153.933 110.526 157.743 120.463 153.051 124.306C148.515 127.994 143.841 120.667 143.506 120.145C143.702 120.675 146.965 129.935 141.874 133.272C136.555 136.772 133.128 128.614 132.9 128.083C132.9 128.646 133.202 136.005 128.731 137.686C121.054 140.574 119.846 121.761 114.682 117.583C114.682 117.583 106.613 121.336 106.328 121.516C106.328 121.516 104.818 107.842 110.831 101.185C111.69 100.202 112.859 99.5427 114.145 99.3171C115.43 99.0915 116.754 99.3129 117.897 99.9447C117.897 99.9447 116.779 94.2338 120.719 91.4517C122.743 90.024 126.83 92.0065 126.83 92.0065C126.83 92.0065 126.12 87.3969 129.775 85.137C132.696 83.3259 136.302 85.5939 136.302 85.5939C136.302 85.5939 137.673 80.8538 141.254 79.9646C148.491 78.1452 166.497 101.43 160.712 111.677Z" fill="#FFBDA7"/>
<path d="M136.946 85.8386C136.938 85.8235 136.934 85.806 136.936 85.7887C136.938 85.7714 136.945 85.7551 136.957 85.7424C136.969 85.7296 136.985 85.721 137.002 85.7177C137.019 85.7145 137.037 85.7168 137.052 85.7244C144.844 91.933 151.501 101.144 154.185 110.795C154.275 111.114 153.794 111.399 153.631 111.065C148.964 101.642 144.069 93.6463 136.946 85.8386Z" fill="#263238"/>
<path d="M126.765 91.8268C126.691 91.7452 126.83 91.6147 126.928 91.6881C134.923 98.1333 142.135 108.715 143.914 120.243C143.979 120.634 143.637 121.059 143.53 120.602C141.768 113.014 133.21 98.8268 126.765 91.8268Z" fill="#263238"/>
<path d="M132.736 128.907C130.599 117.951 125.165 108.78 118.23 100.165C118.141 100.051 118.312 99.9366 118.41 100.01C122.954 103.273 126.797 109.254 129.399 114.141C131.904 118.621 133.195 123.677 133.144 128.81C133.144 129.038 132.777 129.144 132.736 128.907Z" fill="#263238"/>
<path d="M153.932 110.502C154.486 112.473 154.858 114.492 155.042 116.531C155.293 118.508 155.012 120.517 154.226 122.348C153.829 123.171 153.14 123.817 152.292 124.159C151.434 124.495 150.504 124.605 149.592 124.477C148.693 124.28 147.845 123.894 147.106 123.346C146.366 122.797 145.751 122.099 145.3 121.296L142.934 117.469L143.832 121.883C144.243 123.841 144.334 125.852 144.101 127.839C143.848 129.772 143.081 131.632 141.605 132.611C140.922 133.136 140.079 133.411 139.219 133.39C138.358 133.369 137.53 133.054 136.873 132.497C135.427 131.219 134.332 129.593 133.691 127.773L131.741 122.813L131.953 128.116C132.02 129.592 131.893 131.07 131.578 132.514C131.334 133.893 130.69 135.17 129.726 136.185C129.271 136.622 128.704 136.924 128.087 137.057C127.47 137.189 126.828 137.147 126.234 136.935C124.978 136.263 123.94 135.247 123.24 134.007C121.703 131.34 120.377 128.558 119.275 125.685C118.663 124.249 118.043 122.813 117.358 121.402C116.746 119.947 115.834 118.637 114.682 117.559C115.693 118.737 116.466 120.101 116.958 121.573C117.529 123.017 118.035 124.494 118.541 125.97C119.483 128.984 120.71 131.902 122.204 134.684C122.989 136.206 124.199 137.467 125.687 138.314C126.547 138.684 127.496 138.794 128.418 138.632C129.34 138.47 130.194 138.042 130.876 137.401C132.124 136.181 132.977 134.615 133.324 132.905C133.699 131.302 133.864 129.656 133.813 128.01L132.084 128.353C132.808 130.519 134.088 132.457 135.796 133.974C136.765 134.79 137.988 135.243 139.255 135.255C140.498 135.224 141.703 134.82 142.714 134.096C144.778 132.66 145.627 130.221 145.872 128.059C146.1 125.876 145.965 123.671 145.472 121.532L143.995 122.128C144.592 123.102 145.396 123.934 146.348 124.566C147.301 125.197 148.38 125.612 149.51 125.783C150.647 125.886 151.791 125.692 152.831 125.22C153.892 124.72 154.733 123.85 155.197 122.772C156.094 120.692 155.907 118.505 155.621 116.466C155.283 114.421 154.717 112.42 153.932 110.502Z" fill="#263238"/>
<path d="M157.31 147.085C157.31 147.085 182.487 100.989 158.942 100.377C153.231 100.23 130.542 109.433 132.182 114.026C134.303 119.966 144.42 118.146 150.653 115.993C150.653 115.993 143.204 129.111 150.792 137.025C153.619 139.906 155.836 143.327 157.31 147.085Z" fill="#FFBDA7"/>
<path d="M160.573 100.353C158.331 100.265 156.088 100.507 153.915 101.071C151.728 101.573 149.577 102.225 147.478 103.021C143.242 104.546 139.148 106.438 135.241 108.675C134.208 109.269 133.263 110.005 132.434 110.861C131.962 111.359 131.605 111.955 131.39 112.607C131.268 112.967 131.21 113.345 131.219 113.725C131.229 114.098 131.298 114.466 131.423 114.818C131.89 116.081 132.788 117.139 133.96 117.804C135.05 118.378 136.231 118.759 137.452 118.93C139.764 119.208 142.106 119.089 144.378 118.579C146.596 118.122 148.777 117.503 150.905 116.727L149.983 115.593C149.189 117.122 148.542 118.723 148.05 120.374C147.545 122.005 147.209 123.684 147.046 125.383C146.904 127.089 147.008 128.806 147.356 130.482C147.706 132.139 148.368 133.715 149.306 135.124C148.575 133.634 148.098 132.032 147.895 130.384C147.717 128.754 147.761 127.108 148.025 125.489C148.273 123.877 148.683 122.295 149.249 120.765C149.803 119.242 150.497 117.773 151.321 116.376L152.357 114.671L150.399 115.25C148.323 115.917 146.206 116.445 144.06 116.833C141.974 117.257 139.834 117.343 137.721 117.086C135.738 116.784 133.699 115.854 133.144 114.231C132.524 112.844 134.409 111.285 136.163 110.151C138.008 108.984 139.914 107.916 141.874 106.953C143.84 105.941 145.822 104.962 147.846 104.09C151.974 102.433 156.126 100.704 160.573 100.353Z" fill="#263238"/>
<path d="M162.515 149.899L111.745 160.995C111.745 160.995 108.4 170.622 111.353 180.616C116.958 199.576 133.675 240.279 147.161 239.357C161.764 238.337 165.313 187.461 165.109 162.545C164.962 154.101 162.515 149.899 162.515 149.899Z" fill="#407BFF"/>
<g opacity="0.1">
<path d="M165.053 169.7C165.053 170.768 165.053 171.87 164.979 172.963C163.756 173.575 162.532 174.154 161.21 174.652C160.256 175.027 159.277 175.37 158.281 175.664C157.775 175.81 157.27 175.957 156.756 176.071C156.218 176.199 155.673 176.294 155.124 176.357C152.997 176.562 150.85 176.385 148.785 175.835C146.786 175.37 144.877 174.734 142.943 174.293C141.034 173.824 139.082 173.55 137.118 173.477C135.194 173.421 133.271 173.638 131.407 174.122C130.95 174.236 130.485 174.383 130.053 174.521C129.62 174.66 129.237 174.84 128.78 175.019C127.923 175.411 127.042 175.835 126.161 176.251L120.85 178.845C119.072 179.718 117.268 180.591 115.449 181.423C114.348 181.946 113.222 182.427 112.08 182.892C111.827 182.076 111.59 181.317 111.37 180.575C111.199 180.012 111.052 179.449 110.938 178.886C113.72 177.793 116.534 176.651 119.357 175.5C121.209 174.766 123.045 173.991 124.97 173.338C125.933 173.02 126.896 172.694 127.915 172.449C128.429 172.327 128.943 172.204 129.547 172.123C130.151 172.041 130.591 172 131.113 171.976C135.307 171.731 139.272 172.498 143.237 172.963C147.039 173.494 150.897 173.494 154.7 172.963C155.515 172.816 156.462 172.596 157.376 172.351C158.289 172.106 159.195 171.821 160.109 171.535C161.7 170.981 163.388 170.361 165.053 169.7Z" fill="black"/>
<path d="M164.776 178.576C164.776 179.163 164.727 179.751 164.694 180.346C164.025 180.909 163.348 181.456 162.646 181.978C161.257 183.038 159.79 183.993 158.257 184.833C157.468 185.252 156.65 185.615 155.81 185.918C154.914 186.229 153.981 186.42 153.036 186.489C149.356 186.726 145.971 185.984 142.626 185.257L137.665 184.115C136.849 183.928 136.033 183.756 135.218 183.593C134.438 183.428 133.647 183.319 132.852 183.267C132.672 183.254 132.492 183.254 132.313 183.267L131.726 183.34L131.138 183.454C130.951 183.454 130.755 183.561 130.559 183.609C129.752 183.86 128.977 184.205 128.25 184.637C126.816 185.499 125.509 186.556 124.367 187.778C123.771 188.382 123.225 189.027 122.662 189.663L121.03 191.629C119.907 193.049 118.522 194.24 116.951 195.137C116.786 195.229 116.614 195.308 116.437 195.374C116.184 194.713 115.939 194.06 115.694 193.408C115.817 193.359 115.947 193.318 116.07 193.261C117.521 192.581 118.874 191.708 120.092 190.667C121.397 189.606 122.629 188.423 123.869 187.248C125.089 186.021 126.401 184.889 127.793 183.862C128.511 183.34 129.276 182.887 130.078 182.508C130.494 182.32 130.894 182.165 131.35 182.019L132.011 181.831C132.24 181.782 132.509 181.733 132.737 181.709C133.638 181.622 134.545 181.622 135.446 181.709C136.319 181.782 137.176 181.904 138.024 182.035C139.721 182.304 141.394 182.614 143.058 182.9C144.722 183.185 146.378 183.454 148.018 183.675C149.617 183.919 151.231 184.042 152.848 184.042C153.604 184.028 154.355 183.919 155.084 183.716C155.845 183.498 156.589 183.225 157.311 182.9C158.818 182.219 160.279 181.439 161.684 180.566C162.728 179.952 163.759 179.288 164.776 178.576Z" fill="black"/>
</g>
<path d="M161.887 163.565C136.775 170.614 118.647 173.885 115.114 174.432C115.095 174.432 115.076 174.424 115.063 174.41C115.049 174.396 115.041 174.378 115.041 174.358C115.041 174.339 115.049 174.32 115.063 174.306C115.076 174.293 115.095 174.285 115.114 174.285C132.565 168.933 160.174 163.401 161.871 163.263C161.905 163.269 161.937 163.286 161.96 163.312C161.984 163.339 161.997 163.372 161.999 163.407C162.001 163.442 161.991 163.477 161.971 163.505C161.95 163.534 161.921 163.555 161.887 163.565Z" fill="#263238"/>
<path d="M164.359 193.751C163.763 198.507 162.409 206.054 161.316 210.721C161.242 211.014 161.169 211.308 161.103 211.602C161.413 213.275 161.569 214.974 161.569 216.676C161.569 218.667 161.397 220.633 161.193 222.608C161.193 222.689 161.055 222.681 161.063 222.608C161.193 220.643 161.177 218.671 161.014 216.709C160.924 215.542 160.826 214.367 160.728 213.193C159.659 217.647 158.534 222.102 157.147 226.467C157.147 226.548 157 226.467 157.024 226.418C158.069 221.677 159.186 216.946 160.059 212.173C160.932 207.4 162.931 196.198 163.763 191.458C164.424 187.697 164.546 192.258 164.359 193.751Z" fill="#263238"/>
<path d="M210.65 173.934C211.245 175.672 220.864 186.4 228.957 185.225C231.601 184.834 230.124 170.353 230.124 170.353L230.263 169.259L232.156 153.938L210.756 143.111C210.756 143.111 210.397 173.192 210.65 173.934Z" fill="#FFBDA7"/>
<path d="M232.14 153.946L230.231 169.251L230.1 170.353C230.1 170.353 230.361 172.98 230.467 176.015C219.225 175.452 213.334 167.619 210.561 162.088C210.609 153.399 210.732 143.111 210.732 143.111L232.14 153.946Z" fill="#263238"/>
<path d="M256.003 127.831C263.819 159.959 245.454 168.264 238.519 169.945C232.229 171.462 210.617 175.843 199.53 144.694C188.442 113.545 200.908 99.7574 215.112 95.515C229.316 91.2725 248.179 95.6945 256.003 127.831Z" fill="#FFBDA7"/>
<path d="M246.776 128.753C246.013 128.764 245.251 128.734 244.492 128.663C243.685 128.746 242.873 128.56 242.183 128.133C241.992 127.956 241.864 127.72 241.822 127.463C241.779 127.206 241.823 126.942 241.946 126.713C242.254 126.295 242.668 125.967 243.147 125.765C243.625 125.562 244.149 125.492 244.663 125.563C245.726 125.534 246.762 125.903 247.567 126.599C247.741 126.768 247.862 126.984 247.916 127.221C247.97 127.457 247.954 127.705 247.87 127.932C247.787 128.16 247.639 128.359 247.445 128.504C247.25 128.65 247.018 128.736 246.776 128.753Z" fill="#263238"/>
<path d="M223.916 133.648C224.639 133.412 225.35 133.139 226.046 132.832C226.833 132.642 227.536 132.198 228.044 131.567C228.168 131.337 228.212 131.073 228.167 130.815C228.123 130.558 227.993 130.323 227.8 130.148C227.37 129.856 226.871 129.685 226.353 129.652C225.835 129.619 225.317 129.725 224.854 129.96C223.842 130.287 222.987 130.979 222.456 131.902C222.355 132.118 222.318 132.359 222.348 132.596C222.379 132.833 222.477 133.056 222.631 133.239C222.784 133.423 222.986 133.558 223.214 133.631C223.442 133.703 223.685 133.709 223.916 133.648Z" fill="#263238"/>
<path d="M233.591 155.839C234.187 156.304 234.799 156.965 235.615 156.948C236.446 156.845 237.247 156.567 237.964 156.132C237.979 156.127 237.995 156.125 238.011 156.128C238.027 156.131 238.041 156.139 238.052 156.151C238.063 156.162 238.071 156.176 238.074 156.192C238.078 156.207 238.076 156.224 238.07 156.239C237.798 156.712 237.402 157.104 236.925 157.371C236.448 157.638 235.908 157.771 235.362 157.756C234.892 157.689 234.453 157.483 234.101 157.164C233.75 156.846 233.501 156.43 233.387 155.969C233.338 155.839 233.493 155.733 233.591 155.839Z" fill="#263238"/>
<path d="M241.701 150.495C241.117 151.967 240.165 153.265 238.936 154.264C238.246 154.778 237.413 155.063 236.553 155.08C234.669 155.129 234.163 153.53 234.106 152.061C234.074 151.279 234.137 150.495 234.294 149.728C236.618 150.767 239.213 151.035 241.701 150.495Z" fill="white"/>
<path d="M240.576 152.575C240.486 152.698 240.388 152.836 240.282 152.959C239.688 153.028 239.089 153.028 238.495 152.959C239.205 152.828 239.898 152.706 240.576 152.575Z" fill="#DBDBDB"/>
<path d="M236.602 152.804C236.144 152.808 235.686 152.758 235.239 152.657C234.85 152.556 234.47 152.419 234.105 152.249C234.105 152.2 234.105 152.135 234.105 152.086C234.105 152.037 234.105 151.922 234.105 151.841C234.917 152.214 235.75 152.535 236.602 152.804Z" fill="#DBDBDB"/>
<path d="M241.546 146.268C241.546 146.268 242.549 149.532 242.811 151.074C242.811 151.221 242.468 151.351 241.946 151.465C241.946 151.465 241.905 151.465 241.88 151.465C240.578 151.933 239.173 152.033 237.817 151.755C236.462 151.478 235.209 150.833 234.195 149.891C234.161 149.865 234.138 149.826 234.132 149.783C234.125 149.741 234.137 149.697 234.163 149.662C234.188 149.628 234.227 149.605 234.27 149.599C234.313 149.593 234.356 149.604 234.391 149.63C236.615 150.664 239.113 150.95 241.513 150.446C241.513 149.997 239.588 144.898 239.841 144.898C240.91 144.898 242.819 145.053 243.528 145.11C242.917 142.989 240.893 137.058 239.792 133.19C239.727 132.954 240.094 132.807 240.183 133.027C242.197 137.292 243.925 141.685 245.356 146.179C245.462 146.554 242.215 146.423 241.546 146.268Z" fill="#263238"/>
<path d="M225.703 139.66C225.713 139.083 225.88 138.519 226.184 138.029C226.364 137.773 226.594 137.556 226.861 137.392C227.127 137.228 227.424 137.119 227.734 137.074C228.052 137.037 228.373 137.074 228.674 137.183C228.974 137.292 229.245 137.47 229.464 137.702C229.843 138.115 230.122 138.609 230.28 139.146C230.364 139.469 230.43 139.796 230.475 140.125C230.572 140.813 230.511 141.513 230.296 142.173C230.259 141.672 230.166 141.177 230.019 140.697C229.893 140.265 229.738 139.842 229.554 139.432C229.154 138.616 228.55 137.939 227.857 138.07C227.163 138.2 226.665 138.82 226.486 139.701C226.334 140.65 226.274 141.612 226.306 142.573C225.887 141.66 225.681 140.664 225.703 139.66Z" fill="#263238"/>
<path d="M247.926 135.336C247.701 134.813 247.337 134.362 246.874 134.031C246.612 133.86 246.317 133.745 246.008 133.693C245.699 133.641 245.383 133.653 245.079 133.729C244.771 133.812 244.487 133.967 244.25 134.181C244.013 134.395 243.83 134.663 243.717 134.961C243.52 135.481 243.45 136.04 243.513 136.593C243.55 136.923 243.613 137.251 243.7 137.572C243.862 138.247 244.184 138.874 244.639 139.399C244.48 138.923 244.378 138.43 244.337 137.931C244.3 137.48 244.3 137.027 244.337 136.576C244.386 135.654 244.696 134.822 245.389 134.683C246.083 134.545 246.776 134.92 247.282 135.703C247.78 136.526 248.198 137.395 248.53 138.298C248.568 137.276 248.361 136.261 247.926 135.336Z" fill="#263238"/>
<path d="M196.349 147.574C206.18 147.68 210.602 135.703 207.771 126.451C207.771 126.451 234.008 128.361 234.016 107.393C236.012 110.11 238.646 112.294 241.685 113.752C244.724 115.21 248.075 115.898 251.443 115.756L254.812 123.286C257.44 122.356 259.83 114.605 252.944 109.033C252.944 109.033 251.884 98.6473 243.831 92.8466C241.651 91.1742 239.035 90.1674 236.296 89.9474C233.558 89.7274 230.814 90.3035 228.395 91.6065C223.67 88.5964 217.958 87.5431 212.47 88.6695C202.99 90.4643 199.555 99.4387 199.555 99.4387C199.555 99.4387 186.803 102.702 185.155 111.954C184.624 114.592 184.658 117.313 185.255 119.938C185.853 122.562 187.001 125.03 188.623 127.178C188.623 127.178 185.604 130.971 187.709 138.689C189.031 143.609 193.404 147.574 196.349 147.574Z" fill="#263238"/>
<path d="M233.314 105.59C233.613 107.273 233.733 108.982 233.673 110.689C233.662 112.374 233.443 114.051 233.021 115.682C232.216 118.911 230.224 121.716 227.44 123.539C224.74 125.505 221.281 125.987 217.985 126.509C216.296 126.558 214.599 126.729 212.894 126.68C211.189 126.631 209.484 126.501 207.754 126.468C209.443 126.77 211.148 127.006 212.861 127.284C214.574 127.561 216.312 127.39 218.058 127.447C221.485 127.104 225.091 126.631 228.101 124.551C231.098 122.54 233.189 119.436 233.926 115.903C234.594 112.469 234.384 108.921 233.314 105.59Z" fill="#263238"/>
<path d="M199.555 99.439C196.249 99.6604 193.024 100.563 190.083 102.09C187.014 103.603 184.578 106.152 183.205 109.286C182.629 110.882 182.313 112.559 182.267 114.255C182.16 115.938 182.342 117.626 182.806 119.248C183.677 122.529 185.754 125.361 188.623 127.178C186.151 125.091 184.431 122.251 183.727 119.093C183.039 116 183.254 112.774 184.347 109.8C184.912 108.354 185.742 107.026 186.795 105.884C187.913 104.76 189.165 103.779 190.523 102.963C193.328 101.317 196.377 100.128 199.555 99.439Z" fill="#263238"/>
<path d="M228.428 91.6392C230.83 90.5989 233.383 89.9489 235.991 89.7138C238.532 89.4666 241.094 89.8768 243.431 90.9049C245.717 92.0294 247.681 93.7132 249.142 95.8C250.65 97.9414 251.837 100.291 252.667 102.776C252.275 100.115 251.336 97.5651 249.909 95.286C248.527 92.8812 246.435 90.9629 243.92 89.7943C241.404 88.6258 238.589 88.2642 235.86 88.7592C233.203 89.1701 230.668 90.1527 228.428 91.6392Z" fill="#263238"/>
<path d="M247.453 116.873C244.543 116.073 241.786 114.793 239.295 113.088C238.078 112.237 236.98 111.228 236.032 110.086C235.073 108.907 234.252 107.623 233.584 106.259C233.811 107.816 234.367 109.307 235.216 110.632C236.066 111.981 237.176 113.148 238.479 114.067C239.772 114.984 241.201 115.692 242.713 116.164C244.241 116.672 245.844 116.912 247.453 116.873Z" fill="#263238"/>
<path d="M226.771 151.882C224.614 152.034 222.457 151.577 220.547 150.564C218.636 149.551 217.049 148.022 215.964 146.151C214.88 144.28 214.343 142.142 214.413 139.981C214.484 137.819 215.16 135.721 216.364 133.925C217.568 132.129 219.253 130.707 221.225 129.82C223.198 128.934 225.379 128.619 227.522 128.912C229.665 129.204 231.682 130.092 233.345 131.475C235.008 132.857 236.249 134.679 236.928 136.732C237.883 139.641 237.647 142.81 236.271 145.546C234.895 148.281 232.491 150.36 229.585 151.327C228.673 151.625 227.728 151.812 226.771 151.882ZM225.261 130.376C224.429 130.436 223.607 130.598 222.814 130.858C220.398 131.656 218.377 133.345 217.163 135.582C215.948 137.818 215.632 140.433 216.278 142.894C216.924 145.355 218.484 147.478 220.64 148.829C222.796 150.181 225.386 150.66 227.883 150.169C230.38 149.678 232.596 148.254 234.079 146.186C235.563 144.119 236.203 141.564 235.869 139.041C235.534 136.519 234.251 134.218 232.281 132.608C230.31 130.999 227.8 130.2 225.261 130.376Z" fill="#407BFF"/>
<path d="M251.786 146.889C247.372 147.199 243.064 142.964 241.938 137.041C241.36 134.22 241.673 131.289 242.836 128.654C243.268 127.493 243.994 126.463 244.941 125.664C245.889 124.866 247.027 124.325 248.245 124.095C249.463 123.866 250.719 123.954 251.893 124.353C253.066 124.751 254.117 125.446 254.943 126.37C256.987 128.395 258.348 131.008 258.835 133.843C260.018 140.101 257.203 145.91 252.536 146.791C252.288 146.839 252.038 146.872 251.786 146.889ZM249.11 125.546C248.914 125.546 248.726 125.546 248.53 125.619C247.57 125.848 246.678 126.304 245.93 126.948C245.182 127.593 244.599 128.407 244.231 129.323C243.202 131.662 242.931 134.264 243.456 136.764C244.484 142.181 248.416 146.008 252.251 145.281C256.085 144.555 258.345 139.571 257.317 134.145C256.895 131.624 255.694 129.299 253.882 127.496C253.267 126.856 252.525 126.351 251.703 126.015C250.881 125.679 249.997 125.52 249.11 125.546Z" fill="#407BFF"/>
<path d="M236.904 138.094L235.893 137.278C237.116 135.785 240.159 133.517 242.974 135.573L242.158 136.617C239.686 134.765 237.018 137.963 236.904 138.094Z" fill="#407BFF"/>
<path d="M191.2 149.304L189.952 148.928C190.132 148.349 191.731 143.217 194.496 142.214C197.091 141.284 214.534 139.652 215.276 139.579L215.398 140.876C210.397 141.341 196.944 142.711 194.945 143.438C193.118 144.107 191.625 147.9 191.2 149.304Z" fill="#407BFF"/>
<path d="M206.351 146.17C206.351 146.17 197.654 137.066 193.419 140.313C189.185 143.56 196.805 157.535 202.549 158.726C203.273 158.931 204.031 158.986 204.778 158.89C205.525 158.794 206.244 158.548 206.893 158.167C207.542 157.786 208.108 157.278 208.556 156.673C209.004 156.068 209.325 155.379 209.5 154.647L206.351 146.17Z" fill="#FFBDA7"/>
<path d="M195.704 144.262C195.687 144.267 195.673 144.277 195.663 144.291C195.653 144.305 195.647 144.322 195.647 144.339C195.647 144.356 195.653 144.373 195.663 144.387C195.673 144.401 195.687 144.411 195.704 144.417C199.783 145.371 202.296 148.602 204.262 152.053C202.916 150.813 201.251 150.274 199.571 151.914C199.481 152.004 199.571 152.143 199.709 152.102C200.347 151.787 201.066 151.677 201.768 151.787C202.471 151.896 203.122 152.22 203.634 152.714C204.48 153.55 205.235 154.475 205.885 155.471C206.114 155.781 206.701 155.471 206.514 155.137L206.465 155.047C205.812 150.177 200.998 143.952 195.704 144.262Z" fill="#263238"/>
<path d="M197.286 176.129C195.948 174.497 204.556 169.602 206.791 171.446C209.026 173.289 220.342 201.991 216.671 233.132C213 264.273 152.725 297.829 150.481 293.17C149.551 291.212 150.742 285.754 152.211 284.008C154.275 281.561 197.8 254.54 202.1 235.229C205.918 218.055 200.68 180.371 197.286 176.129Z" fill="#455A64"/>
<path d="M231.217 175.476C229.406 172.042 238.731 174.807 239.751 176.659C240.771 178.511 253.237 208.265 255.391 227.715C256.207 235.507 259.266 256.482 259.266 256.482C259.266 256.482 250.161 228.343 242.655 204.782C239.465 194.782 235.645 184.994 231.217 175.476Z" fill="#455A64"/>
<path d="M407.687 298.31C407.687 298.31 417.232 263.873 424.819 252.182C432.407 240.491 446.651 227.642 446.651 227.642C446.651 227.642 446.35 280.729 407.687 298.31Z" fill="#407BFF"/>
<path d="M408.371 297.69C411.583 292.31 414.484 286.751 417.06 281.039C418.155 274.885 419.74 268.828 421.8 262.927C421.84 262.821 421.995 262.878 421.971 262.992C420.706 268.426 419.23 273.819 417.892 279.244C421.743 270.865 425.406 262.38 429.991 254.459C431.05 250.63 432.536 246.933 434.421 243.436C434.47 243.338 434.633 243.387 434.584 243.494C433.423 246.187 432.428 248.95 431.606 251.766C433.768 248.231 436.193 244.863 438.859 241.69C439.03 241.495 439.365 241.69 439.194 241.927C433.058 249.8 428.824 258.75 424.794 267.814C429.131 263.084 433.133 258.057 436.771 252.77C436.771 252.721 436.885 252.77 436.852 252.827C433.062 258.755 428.771 264.348 424.027 269.544C421.09 276.185 418.202 282.85 414.702 289.173C421.702 283.225 427.086 275.532 432.414 268.108C432.426 268.091 432.441 268.076 432.458 268.065C432.476 268.053 432.495 268.045 432.516 268.042C432.536 268.038 432.557 268.038 432.577 268.042C432.598 268.047 432.617 268.055 432.634 268.067C432.651 268.079 432.666 268.094 432.677 268.111C432.689 268.129 432.696 268.148 432.7 268.169C432.704 268.189 432.704 268.21 432.699 268.23C432.695 268.251 432.687 268.27 432.675 268.287C427.339 276.446 421.824 284.106 414.155 290.136C412.602 292.912 410.891 295.598 409.032 298.18C408.967 298.268 408.87 298.326 408.762 298.342C408.654 298.358 408.544 298.33 408.456 298.266C408.369 298.201 408.311 298.104 408.295 297.996C408.278 297.888 408.306 297.778 408.371 297.69Z" fill="#263238"/>
<path d="M404.725 301.411C404.725 301.411 421.857 269.658 416.897 238.876C411.937 208.094 406.576 197.129 406.576 197.129C406.576 197.129 379.613 245.011 404.725 301.411Z" fill="#407BFF"/>
<path d="M397.683 251.497C399.136 260.219 401.352 268.797 404.308 277.131C404.357 265.831 404.569 254.54 404.871 243.24C402.933 236.385 401.837 229.32 401.607 222.2C401.607 221.996 401.909 222.004 401.925 222.2C402.468 228.302 403.475 234.354 404.936 240.303C405.197 230.986 405.496 221.669 405.833 212.352C405.833 212.32 405.846 212.289 405.869 212.266C405.892 212.243 405.923 212.23 405.956 212.23C405.988 212.23 406.019 212.243 406.042 212.266C406.065 212.289 406.078 212.32 406.078 212.352C406.078 226.907 406.078 241.462 405.98 256.025C408.073 250.396 409.726 244.613 410.924 238.729C410.929 238.718 410.936 238.709 410.945 238.703C410.955 238.696 410.966 238.693 410.977 238.693C410.989 238.693 411 238.696 411.009 238.703C411.019 238.709 411.026 238.718 411.03 238.729C410.508 245.525 408.452 252.101 405.964 258.407C405.899 267.716 405.801 277.017 405.589 286.325C408.493 276.429 411.593 266.851 412.434 256.392C412.434 256.378 412.436 256.364 412.442 256.351C412.447 256.338 412.455 256.327 412.465 256.317C412.475 256.307 412.486 256.299 412.499 256.294C412.512 256.289 412.526 256.286 412.54 256.286C412.554 256.286 412.567 256.289 412.58 256.294C412.593 256.299 412.605 256.307 412.615 256.317C412.624 256.327 412.632 256.338 412.638 256.351C412.643 256.364 412.646 256.378 412.646 256.392C412.425 267.92 409.464 279.619 405.687 290.462C405.645 290.569 405.577 290.664 405.491 290.739C405.409 294.133 405.311 297.532 405.197 300.937C405.197 301.037 405.157 301.132 405.087 301.203C405.017 301.273 404.921 301.313 404.822 301.313C404.722 301.313 404.627 301.273 404.556 301.203C404.486 301.132 404.446 301.037 404.446 300.937C404.305 293.981 404.248 287.024 404.275 280.068C400.424 271.093 398.368 261.148 397.512 251.513C397.528 251.423 397.675 251.407 397.683 251.497Z" fill="#263238"/>
<path d="M398.859 246.586C399.462 249.348 399.863 252.151 400.058 254.972C400.058 255.07 399.919 255.079 399.895 254.972C399.228 252.222 398.756 249.427 398.484 246.61C398.459 246.414 398.818 246.373 398.859 246.586Z" fill="#263238"/>
<path d="M408.901 223.375C408.901 223.277 409.064 223.31 409.064 223.375C409.043 225.333 408.752 227.28 408.2 229.159C408.159 229.314 407.938 229.241 407.971 229.094C408.338 227.209 408.567 225.292 408.901 223.375Z" fill="#263238"/>
<path d="M398.475 303.842C398.475 303.842 399.169 270.694 389.713 254.222C380.257 237.75 364.568 229.354 364.568 229.354C364.568 229.354 370.891 287.777 398.475 303.842Z" fill="#407BFF"/>
<path d="M381.237 275.5C385.21 281.251 389.167 286.799 394.037 291.817C392.145 285.04 389.969 278.377 387.511 271.828C382.208 267.153 376.954 262.307 373.698 255.911C373.649 255.813 373.796 255.723 373.853 255.821C377.353 261.483 382.012 266.019 386.948 270.376C383.156 260.507 378.761 250.881 373.788 241.552C373.771 241.506 373.771 241.455 373.788 241.408C373.804 241.361 373.837 241.322 373.88 241.297C373.922 241.272 373.972 241.262 374.021 241.27C374.07 241.278 374.114 241.303 374.147 241.34C377.171 246.231 379.927 251.283 382.403 256.474C381.514 252.925 380.772 249.303 379.899 245.786C379.893 245.767 379.896 245.746 379.906 245.728C379.916 245.711 379.932 245.698 379.952 245.693C379.971 245.687 379.992 245.69 380.01 245.7C380.027 245.71 380.04 245.726 380.046 245.746C381.726 250.176 383.391 255.071 383.929 259.803C387.241 267.155 390.025 274.735 392.259 282.483C392.014 277.515 391.704 272.571 391.198 267.61C391.198 267.521 391.345 267.496 391.361 267.61C392.411 273.11 392.89 278.704 392.789 284.303C394.152 289.238 395.302 294.24 396.224 299.273C396.224 299.412 396.053 299.469 396.02 299.331C395.506 297.217 394.943 295.129 394.388 293.04C394.388 293.04 394.315 293.04 394.282 293.04C389.208 287.925 384.394 282.108 381.229 275.589C381.163 275.491 381.212 275.467 381.237 275.5Z" fill="#263238"/>
<path d="M370.28 248.527C371.332 249.669 372.295 250.877 373.315 252.052C374.304 253.046 375.215 254.116 376.04 255.25C376.04 255.299 376.04 255.356 375.966 255.323C374.776 254.437 373.715 253.388 372.817 252.207C371.822 251.096 370.921 249.903 370.125 248.641C370.068 248.552 370.206 248.446 370.28 248.527Z" fill="#263238"/>
<path d="M426.573 299.795L425.382 310.401L421.784 342.562H390.456L386.874 310.417L385.675 299.811H426.581L426.573 299.795Z" fill="#455A64"/>
<path d="M426.573 299.795L425.382 310.401H386.874L385.675 299.795H426.581H426.573Z" fill="#37474F"/>
<path d="M382.884 304.119H429.354V292.085H382.884V304.119Z" fill="#455A64"/>
<path d="M384.141 331.475H290.4V342.57H384.141V331.475Z" fill="#37474F"/>
<path d="M312.607 331.475H308.789V342.57H312.607V331.475Z" fill="#455A64"/>
<path d="M373.111 331.475H363.949V342.57H373.111V331.475Z" fill="#455A64"/>
<path d="M377.395 299.036H281.646V313.697H377.395V299.036Z" fill="#37474F"/>
<path d="M360.458 303.793H337.459V308.941H360.458V303.793Z" fill="#407BFF"/>
<path d="M371.985 306.363C372.024 306.972 371.88 307.579 371.57 308.104C371.26 308.63 370.799 309.05 370.247 309.311C369.695 309.571 369.077 309.66 368.475 309.565C367.872 309.47 367.311 309.196 366.866 308.778C366.421 308.36 366.112 307.819 365.979 307.223C365.845 306.628 365.894 306.006 366.119 305.438C366.344 304.871 366.734 304.384 367.239 304.041C367.744 303.698 368.34 303.515 368.95 303.516C369.73 303.491 370.488 303.778 371.057 304.311C371.626 304.845 371.96 305.583 371.985 306.363Z" fill="#407BFF"/>
<path d="M325.4 286.064H277.028V299.004H325.4V286.064Z" fill="#263238"/>
<path d="M370.108 286.064H325.399V299.004H370.108V286.064Z" fill="#263238"/>
<path d="M325.4 287.411H277.028V297.666H325.4V287.411Z" fill="white"/>
<path d="M281.238 289.532C286.307 289.466 291.377 289.418 296.446 289.385L303.323 289.336L318.523 289.385C323.589 289.385 320.334 289.458 325.4 289.532C320.334 289.605 323.589 289.654 318.523 289.687L303.323 289.728L296.446 289.687C291.377 289.643 286.307 289.592 281.238 289.532Z" fill="#DBDBDB"/>
<path d="M281.238 291.531C286.307 291.46 291.377 291.411 296.446 291.384L303.323 291.335L318.523 291.376C323.589 291.376 320.334 291.457 325.4 291.531C320.334 291.604 323.589 291.653 318.523 291.678L303.323 291.727L296.446 291.678C291.377 291.656 286.307 291.607 281.238 291.531Z" fill="#DBDBDB"/>
<path d="M281.238 293.538C286.307 293.472 291.377 293.424 296.446 293.391L303.323 293.35L318.523 293.391C323.589 293.391 320.334 293.472 325.4 293.538C320.334 293.611 323.589 293.668 318.523 293.693H303.323H296.446C291.377 293.666 286.307 293.614 281.238 293.538Z" fill="#DBDBDB"/>
<path d="M281.238 295.553C286.307 295.482 291.377 295.433 296.446 295.406L303.323 295.357L318.523 295.406C323.589 295.406 320.334 295.479 325.4 295.553C320.334 295.626 323.589 295.675 318.523 295.7L303.323 295.749L296.446 295.7C291.377 295.678 286.307 295.629 281.238 295.553Z" fill="#DBDBDB"/>
<path d="M341.603 286.064H335.305V299.004H341.603V286.064Z" fill="#455A64"/>
<path d="M367.8 286.064H363.565V299.004H367.8V286.064Z" fill="#455A64"/>
<path d="M318.98 331.466H373.454V313.681H318.98V331.466Z" fill="#407BFF"/>
<path d="M277.616 331.466H318.979V313.681H277.616V331.466Z" fill="#407BFF"/>
<path d="M318.98 329.623H373.454V315.533H318.98V329.623Z" fill="white"/>
<path d="M369.92 326.727C365.678 326.803 361.433 326.852 357.185 326.873L344.45 326.922L331.714 326.873C327.466 326.873 323.219 326.824 318.971 326.727C323.224 326.656 327.472 326.607 331.714 326.58L344.45 326.531L357.185 326.58C361.433 326.607 365.678 326.656 369.92 326.727Z" fill="#DBDBDB"/>
<path d="M369.92 323.961C365.678 324.037 361.433 324.086 357.185 324.107L344.45 324.156L331.714 324.116C327.466 324.083 323.219 324.031 318.971 323.961C323.224 323.89 327.472 323.841 331.714 323.814L344.45 323.797L357.185 323.846C361.433 323.852 365.678 323.89 369.92 323.961Z" fill="#DBDBDB"/>
<path d="M369.92 321.195C365.678 321.266 361.433 321.317 357.185 321.35L344.45 321.391L331.714 321.35C327.466 321.317 323.219 321.266 318.971 321.195C323.224 321.124 327.472 321.075 331.714 321.048L344.45 320.999L357.185 321.048C361.433 321.075 365.678 321.124 369.92 321.195Z" fill="#DBDBDB"/>
<path d="M369.92 318.429C365.678 318.5 361.433 318.552 357.185 318.584L344.45 318.625L331.714 318.584C327.466 318.584 323.219 318.533 318.971 318.429C323.224 318.353 327.472 318.304 331.714 318.282L344.45 318.233L357.185 318.282C361.436 318.307 365.662 318.364 369.92 318.429Z" fill="#DBDBDB"/>
<path d="M291.942 313.689H284.199V331.474H291.942V313.689Z" fill="#455A64"/>
<path d="M323.172 73.8704C323.171 79.2687 321.67 84.5604 318.837 89.1557C316.004 93.7509 311.951 97.469 307.129 99.8953C302.306 102.322 296.905 103.361 291.527 102.897C286.148 102.433 281.005 100.485 276.669 97.269L262.392 100.916L268.339 87.6175C266.247 83.7099 265.074 79.3767 264.908 74.9475C264.743 70.5183 265.59 66.1097 267.384 62.0569C269.179 58.0042 271.874 54.414 275.265 51.5594C278.655 48.7049 282.652 46.6611 286.952 45.5836C291.251 44.506 295.739 44.423 300.076 45.341C304.412 46.2589 308.482 48.1536 311.975 50.8809C315.469 53.6083 318.295 57.0964 320.238 61.0801C322.181 65.0638 323.19 69.4381 323.189 73.8704H323.172Z" fill="white"/>
<path d="M323.172 73.8703C323.164 79.2699 321.668 84.5629 318.848 89.1675C318.14 90.2996 317.366 91.3893 316.531 92.4309C315.662 93.4561 314.73 94.4261 313.741 95.3353C313.258 95.8016 312.751 96.2428 312.223 96.657L310.591 97.8726C310.053 98.2724 309.457 98.5906 308.886 98.9577L308.03 99.488C307.736 99.6512 307.426 99.7899 307.132 99.9367C306.52 100.23 305.925 100.54 305.313 100.818L303.42 101.528C302.79 101.769 302.144 101.965 301.487 102.115C300.834 102.27 300.198 102.49 299.529 102.588C298.204 102.849 296.863 103.013 295.515 103.078C294.157 103.186 292.793 103.186 291.435 103.078C288.738 102.857 286.084 102.27 283.546 101.332C281.009 100.375 278.613 99.0798 276.424 97.481L276.668 97.53L262.407 101.234L261.689 101.422L261.991 100.744L267.906 87.4298V87.7806C265.79 83.8307 264.623 79.4427 264.496 74.9636C264.333 70.4757 265.2 66.0101 267.03 61.9091C268.86 57.808 271.604 54.1803 275.053 51.304C278.488 48.447 282.532 46.4152 286.875 45.3646C291.189 44.319 295.684 44.2648 300.021 45.2061C304.359 46.1474 308.428 48.0597 311.92 50.7993C315.413 53.5389 318.239 57.0345 320.186 61.0234C322.134 65.0123 323.152 69.3907 323.164 73.8296L323.172 73.8703ZM323.172 73.8703C323.149 69.4463 322.122 65.0853 320.169 61.1156C318.216 57.1459 315.387 53.6712 311.897 50.9531C308.397 48.2682 304.341 46.4005 300.026 45.487C295.704 44.6164 291.241 44.7363 286.973 45.8378C282.722 46.9225 278.776 48.9653 275.437 51.8098C272.126 54.6725 269.483 58.2259 267.694 62.22C265.934 66.2201 265.105 70.5676 265.271 74.9347C265.436 79.3018 266.591 83.5743 268.649 87.4298L268.738 87.6011L268.665 87.7806L262.701 101.071L262.285 100.573L276.587 96.9915H276.717L276.832 97.0731C281.099 100.308 286.185 102.286 291.517 102.784C292.846 102.909 294.183 102.928 295.515 102.841C296.847 102.787 298.175 102.642 299.488 102.409C300.149 102.319 300.785 102.099 301.438 101.952C302.092 101.816 302.736 101.63 303.363 101.397L305.248 100.72L307.059 99.8633C307.361 99.7164 307.671 99.5859 307.964 99.4227L308.78 98.9088C309.343 98.5579 309.947 98.2479 310.485 97.8563L312.117 96.657C312.646 96.2462 313.152 95.8078 313.635 95.3435C314.622 94.4405 315.553 93.4788 316.425 92.4635C317.265 91.4239 318.042 90.3341 318.75 89.2001C321.61 84.5961 323.141 79.2904 323.172 73.8703Z" fill="#263238"/>
<path d="M289.298 91.2153L276.236 77.9904L280.626 73.6501L288.254 81.3762L304.114 56.5254L309.311 59.8377L289.298 91.2153Z" fill="#407BFF"/>
</svg>
