<svg width="379" height="391" viewBox="0 0 379 391" fill="none" xmlns="http://www.w3.org/2000/svg">
<path d="M32.7566 249.777C33.2015 249.508 33.7079 249.358 34.2274 249.341C34.7469 249.323 35.2622 249.44 35.7239 249.678C36.1811 249.92 36.6204 250.207 37.0776 250.422C37.5581 250.623 38.0054 250.895 38.4044 251.229C38.7847 251.588 39.0657 252.039 39.2202 252.538C39.3408 253.043 39.395 253.561 39.3816 254.08L39.4802 257.182L52.1386 256.743L52.0579 256.823L51.9055 252.753C51.9214 252.037 52.1878 251.348 52.6585 250.808C53.7183 249.922 54.8947 249.186 56.1548 248.62C56.8533 248.423 57.5987 248.477 58.2615 248.773L61.8475 250.664L61.5696 250.745L67.4774 239.539L67.5939 239.951L64.008 238.033C63.3568 237.632 62.8655 237.017 62.6185 236.294C62.4944 235.936 62.4279 235.561 62.4212 235.182V234.178V233.165C62.3942 232.785 62.4305 232.403 62.5288 232.035C62.7306 231.286 63.187 230.63 63.8197 230.18L67.2802 228.01L67.1547 228.557L60.449 217.799L61.0496 217.934L57.5623 220.103C56.8664 220.48 56.0596 220.597 55.2852 220.435C54.9031 220.359 54.5364 220.22 54.2005 220.023L53.304 219.521L52.4075 219.072C51.863 218.822 51.3932 218.434 51.0442 217.946C50.6952 217.459 50.4792 216.889 50.4173 216.293L50.3008 212.196L50.7221 212.591L38.0638 212.94L38.4134 212.564L38.503 216.661C38.4707 217.42 38.1833 218.147 37.6872 218.723C37.4275 219.002 37.1249 219.238 36.7908 219.422L35.8943 219.942L34.9978 220.462C34.689 220.672 34.3463 220.826 33.9848 220.919C33.2573 221.102 32.4891 221.033 31.8063 220.722L28.2204 218.759L28.5431 218.66L22.4739 229.785L22.4112 229.588L25.9971 231.551C26.5954 231.932 27.0423 232.509 27.2611 233.183C27.4206 233.855 27.484 234.546 27.4494 235.236C27.5163 235.918 27.4891 236.605 27.3687 237.28C27.1847 237.954 26.7728 238.543 26.2033 238.947L22.7339 241.09V241.027L29.3768 251.785L32.7566 249.777ZM32.7566 249.777L29.4575 251.83L22.7429 241.072L26.1943 238.912C26.7345 238.518 27.1236 237.952 27.297 237.307C27.409 236.643 27.4271 235.967 27.3508 235.299C27.3739 234.629 27.3045 233.959 27.1446 233.308C26.9524 232.672 26.5473 232.121 25.9971 231.749L22.4112 229.848L22.2856 229.785L22.3484 229.66L28.2562 218.445L28.3638 218.23L28.579 218.346L32.1649 220.229C32.7284 220.481 33.3615 220.532 33.9579 220.372C34.2527 220.292 34.5316 220.161 34.7826 219.987L35.6791 219.431L36.5756 218.884C36.8375 218.731 37.0735 218.537 37.2749 218.31C37.6706 217.843 37.8952 217.255 37.9114 216.643L37.6514 212.591V212.232H38.0189L50.6952 211.811H51.0986V212.223L51.2331 216.266C51.2913 216.853 51.5511 217.401 51.9682 217.817C52.177 218.02 52.4159 218.189 52.6764 218.319L53.5729 218.776L54.4694 219.287C54.7178 219.439 54.991 219.545 55.2763 219.601C55.8483 219.711 56.4407 219.619 56.9527 219.341L60.4131 217.226L60.7807 216.992L61.0048 217.36L67.6567 228.118L67.8629 228.459L67.5222 228.665L64.0797 230.798C63.5906 231.138 63.2379 231.64 63.0846 232.215C63.0063 232.507 62.973 232.809 62.986 233.111V234.142V235.164C62.984 235.469 63.0325 235.772 63.1294 236.061C63.3206 236.635 63.6996 237.127 64.2052 237.459L67.7912 239.405L68.0601 239.548L67.9167 239.817L61.8475 250.933L61.7489 251.122L61.5696 251.023L57.9836 249.078C57.3931 248.81 56.7285 248.753 56.101 248.916C55.4643 249.13 54.8608 249.431 54.308 249.813C53.7191 250.119 53.1734 250.502 52.6854 250.951C52.239 251.444 51.9845 252.08 51.9682 252.744L52.0579 256.814V256.895H51.9772L39.4443 257.218L39.3547 254.116C39.3791 253.601 39.3308 253.085 39.2113 252.583C39.0587 252.092 38.7842 251.648 38.4134 251.292C38.0222 250.956 37.5805 250.684 37.1045 250.485C36.6383 250.261 36.208 249.974 35.7508 249.732C35.2914 249.477 34.7731 249.347 34.2477 249.355C33.7223 249.363 33.2081 249.508 32.7566 249.777Z" fill="#EBEBEB"/>
<path d="M35.3655 231.013C36.1048 229.068 37.4002 227.383 39.0902 226.168C40.7803 224.954 42.7904 224.264 44.8701 224.183C46.9497 224.103 49.0071 224.636 50.7857 225.717C52.5644 226.798 53.9859 228.378 54.8729 230.26C55.4759 231.544 55.8149 232.936 55.8699 234.354C55.9249 235.771 55.6947 237.185 55.1931 238.512C54.6915 239.839 53.9286 241.051 52.9496 242.078C51.9707 243.104 50.7956 243.924 49.494 244.488C48.2067 245.042 46.8227 245.336 45.4213 245.355C44.0199 245.373 42.6286 245.115 41.3271 244.595C38.7377 243.558 36.6649 241.537 35.5627 238.974C34.4462 236.451 34.3753 233.589 35.3655 231.013ZM35.3655 231.013C34.8973 232.288 34.6848 233.642 34.7402 234.999C34.7955 236.356 35.1177 237.688 35.6882 238.92C36.5365 240.724 37.8972 242.238 39.6004 243.273C41.3036 244.308 43.2739 244.819 45.2655 244.742C47.2572 244.664 49.1819 244.002 50.7995 242.838C52.4172 241.673 53.6562 240.058 54.3619 238.194C55.2947 235.712 55.2206 232.963 54.1554 230.535C53.0902 228.107 51.1183 226.19 48.6603 225.195C46.1413 224.191 43.327 224.227 40.834 225.294C38.3343 226.413 36.3716 228.466 35.3655 231.013Z" fill="#EBEBEB"/>
<path d="M334.495 164.1L330.067 156.417L327.709 157.78C327.37 157.971 326.984 158.065 326.595 158.051C326.205 158.037 325.828 157.915 325.504 157.699C325.129 157.459 324.743 157.237 324.347 157.036C323.999 156.862 323.705 156.594 323.499 156.264C323.294 155.933 323.184 155.552 323.182 155.162V152.473H314.306V155.162C314.304 155.552 314.194 155.933 313.989 156.264C313.783 156.594 313.489 156.862 313.141 157.036C312.748 157.237 312.365 157.459 311.994 157.699C311.668 157.916 311.289 158.038 310.898 158.052C310.507 158.067 310.12 157.972 309.779 157.78L307.43 156.417L303.011 164.1L305.377 165.463C305.713 165.662 305.986 165.95 306.168 166.294C306.35 166.639 306.433 167.028 306.408 167.417C306.408 167.641 306.408 167.856 306.408 168.071C306.408 168.287 306.408 168.511 306.408 168.726C306.432 169.115 306.349 169.503 306.167 169.848C305.985 170.192 305.712 170.48 305.377 170.68L303.011 172.043L307.448 179.735L309.806 178.372C310.146 178.178 310.532 178.082 310.923 178.095C311.314 178.107 311.694 178.228 312.02 178.444C312.386 178.687 312.767 178.909 313.159 179.107C313.506 179.283 313.798 179.55 314.004 179.881C314.209 180.211 314.32 180.592 314.324 180.981V183.67H323.2V180.981C323.204 180.592 323.314 180.211 323.52 179.881C323.725 179.55 324.018 179.283 324.365 179.107C324.76 178.909 325.143 178.687 325.512 178.444C325.839 178.228 326.219 178.107 326.61 178.095C327 178.082 327.387 178.178 327.727 178.372L330.085 179.735L334.513 172.043L332.155 170.68C331.821 170.482 331.548 170.196 331.366 169.853C331.184 169.51 331.1 169.123 331.124 168.735C331.124 168.511 331.124 168.295 331.124 168.071C331.124 167.847 331.124 167.641 331.124 167.417C331.099 167.027 331.183 166.637 331.367 166.292C331.551 165.947 331.827 165.66 332.164 165.463L334.495 164.1ZM326.015 168.071C326.015 169.51 325.588 170.916 324.789 172.112C323.989 173.307 322.853 174.239 321.524 174.789C320.195 175.339 318.733 175.483 317.322 175.201C315.912 174.92 314.616 174.227 313.6 173.209C312.583 172.191 311.892 170.895 311.612 169.484C311.333 168.073 311.478 166.611 312.03 165.283C312.581 163.954 313.514 162.82 314.711 162.022C315.908 161.224 317.315 160.799 318.753 160.801C320.68 160.803 322.527 161.57 323.888 162.934C325.25 164.297 326.015 166.145 326.015 168.071Z" fill="#EBEBEB"/>
<path d="M31.672 275.515L27.1895 267.823L24.8856 269.186C24.5451 269.378 24.1579 269.473 23.767 269.458C23.3761 269.444 22.9968 269.322 22.6713 269.105C22.3037 268.872 21.9182 268.648 21.5238 268.442C21.1753 268.268 20.8819 268 20.6761 267.67C20.4704 267.339 20.3604 266.958 20.3583 266.568V263.879H11.4742V266.568C11.4721 266.958 11.3621 267.339 11.1564 267.67C10.9506 268 10.6572 268.268 10.3087 268.442C9.91429 268.648 9.5288 268.872 9.16124 269.105C8.83569 269.322 8.45639 269.444 8.06549 269.458C7.67459 269.473 7.2874 269.378 6.94693 269.186L4.59814 267.823L0.115723 275.515L2.48244 276.869C2.83172 277.06 3.12029 277.345 3.31525 277.692C3.51021 278.039 3.60372 278.434 3.58511 278.832C3.58511 279.047 3.58511 279.262 3.58511 279.486C3.58511 279.71 3.58511 279.917 3.58511 280.132C3.61094 280.52 3.52921 280.908 3.34891 281.253C3.1686 281.597 2.89671 281.886 2.56312 282.086L0.18744 283.458L4.66986 291.141L6.95589 289.805C7.29637 289.612 7.68356 289.518 8.07446 289.532C8.46535 289.546 8.84465 289.669 9.17021 289.886C9.53777 290.128 9.92325 290.343 10.3087 290.549C10.6585 290.721 10.9531 290.988 11.159 291.319C11.365 291.65 11.4742 292.033 11.4742 292.423V295.112H20.3583V292.423C20.3524 292.029 20.4579 291.642 20.6625 291.306C20.8671 290.969 21.1625 290.698 21.5148 290.522C21.9003 290.316 22.2858 290.101 22.6533 289.859C22.9789 289.642 23.3582 289.52 23.7491 289.505C24.14 289.491 24.5272 289.585 24.8676 289.778L27.2254 291.141L31.7078 283.458L29.3411 282.095C29.0061 281.896 28.7331 281.608 28.5525 281.263C28.372 280.918 28.2912 280.529 28.3191 280.141C28.3191 279.926 28.3191 279.701 28.3191 279.486C28.3191 279.271 28.3191 279.047 28.3191 278.832C28.2935 278.441 28.3762 278.052 28.5581 277.705C28.74 277.359 29.0141 277.069 29.3501 276.869L31.672 275.515ZM23.1822 279.486C23.1805 280.924 22.7523 282.329 21.952 283.524C21.1516 284.719 20.015 285.649 18.6858 286.198C17.3566 286.746 15.8946 286.889 14.4846 286.606C13.0746 286.324 11.78 285.63 10.7644 284.612C9.74889 283.594 9.05804 282.298 8.77924 280.887C8.50045 279.476 8.64623 278.015 9.19815 276.687C9.75008 275.359 10.6834 274.225 11.88 273.427C13.0766 272.63 14.4828 272.205 15.9207 272.207C16.8758 272.207 17.8216 272.395 18.7037 272.761C19.5859 273.127 20.3872 273.664 21.0618 274.34C21.7363 275.016 22.2708 275.819 22.6347 276.702C22.9985 277.585 23.1846 278.531 23.1822 279.486Z" fill="#EBEBEB"/>
<path d="M82.3593 83.6136L3.81836 83.4971C3.81836 83.4971 7.72703 78.414 12.0391 77.7865C12.0391 77.7865 20.4481 52.8732 34.4512 52.6849C47.513 52.5953 52.6947 68.1044 52.6947 68.1044C52.6947 68.1044 58.7459 61.1657 64.5103 64.3482C70.2747 67.5307 73.511 76.639 73.511 76.639C73.511 76.639 80.0105 80.1442 82.3593 83.6136Z" fill="#EBEBEB"/>
<path d="M275.22 54.3434L374.541 54.4958C374.541 54.4958 374.541 48.1487 360.87 46.8936C360.87 46.8936 348.418 19.1026 329.34 22.832C317.417 25.136 311.321 41.4789 311.321 41.4789C311.321 41.4789 302.356 28.6323 295.184 31.1066C288.013 33.5809 283.718 47.2433 283.718 47.2433C283.718 47.2433 276.304 50.7575 275.22 54.3434Z" fill="#EBEBEB"/>
<path d="M106.574 24.9656L174.106 25.0732C174.106 25.0732 167.741 19.1295 164.908 19.1295C162.075 19.1295 153.845 -0.808293 143.276 0.0254374C132.706 0.859167 127.085 15.678 127.085 15.678C127.085 15.678 114.248 11.6349 106.574 24.9656Z" fill="#EBEBEB"/>
<path d="M263.261 106.573L321.012 106.662C321.012 106.662 318.143 102.915 314.979 102.449C314.979 102.449 308.856 84.1067 298.546 83.9632C288.963 83.8287 285.099 95.2141 285.099 95.2141C285.099 95.2141 280.67 90.0952 276.421 92.426C272.172 94.7569 269.769 101.445 269.769 101.445C269.769 101.445 264.991 104.009 263.261 106.573Z" fill="#EBEBEB"/>
<path d="M50.6059 265.394L70.1582 262.095L87.0838 244.864L117.349 276.331L138.291 263.323L153.056 275.327L181.986 243.546L204.756 241.44L229.159 205.32L255.685 231.892L271.347 207.651L281.119 206.253L294.118 182.164L319.506 224.182L355.007 362.259H4.91211L50.6059 265.394Z" fill="#DBDBDB"/>
<path d="M54.084 311.598L53.5371 310.89L82.9866 287.922L125.946 284.247L126.018 284.265L163.921 294.305L197.082 265.528L197.208 265.501L243.672 258.831L278.286 235.541L294.333 198.928L295.157 199.296L279.003 236.141L278.895 236.213L244.004 259.692L243.896 259.701L197.468 266.371L164.145 295.3L163.921 295.238L125.865 285.152L83.3273 288.801L54.084 311.598Z" fill="white"/>
<path d="M55.3928 311.07C55.3928 311.871 55.1551 312.654 54.7099 313.321C54.2646 313.987 53.6318 314.507 52.8914 314.813C52.1509 315.12 51.3362 315.2 50.5502 315.044C49.7641 314.887 49.0421 314.502 48.4754 313.935C47.9087 313.368 47.5228 312.646 47.3664 311.86C47.2101 311.074 47.2903 310.259 47.597 309.519C47.9037 308.778 48.4231 308.146 49.0894 307.7C49.7558 307.255 50.5392 307.017 51.3407 307.017C52.4154 307.017 53.446 307.444 54.206 308.204C54.9659 308.964 55.3928 309.995 55.3928 311.07Z" fill="#DBDBDB"/>
<path d="M51.3408 315.57C50.4543 315.57 49.5877 315.307 48.8505 314.814C48.1134 314.322 47.5389 313.622 47.1996 312.803C46.8603 311.984 46.7716 311.083 46.9445 310.213C47.1175 309.343 47.5444 308.545 48.1713 307.918C48.7981 307.291 49.5968 306.864 50.4663 306.691C51.3358 306.518 52.2371 306.607 53.0562 306.946C53.8752 307.286 54.5753 307.86 55.0678 308.597C55.5603 309.334 55.8232 310.201 55.8232 311.087C55.8232 312.276 55.351 313.416 54.5104 314.257C53.6698 315.098 52.5296 315.57 51.3408 315.57ZM51.3408 307.502C50.6316 307.502 49.9383 307.712 49.3486 308.106C48.7589 308.5 48.2993 309.06 48.0278 309.715C47.7564 310.37 47.6854 311.091 47.8238 311.787C47.9621 312.483 48.3037 313.122 48.8052 313.623C49.3067 314.125 49.9456 314.466 50.6412 314.605C51.3368 314.743 52.0579 314.672 52.7131 314.4C53.3683 314.129 53.9284 313.669 54.3224 313.08C54.7164 312.49 54.9268 311.797 54.9268 311.087C54.9315 310.614 54.8422 310.143 54.6642 309.704C54.4861 309.265 54.2227 308.865 53.8892 308.529C53.5558 308.192 53.1588 307.924 52.7214 307.742C52.284 307.56 51.8148 307.466 51.3408 307.466V307.502Z" fill="white"/>
<path d="M87.0207 288.362C87.0207 289.163 86.7831 289.946 86.3378 290.613C85.8926 291.279 85.2597 291.799 84.5193 292.105C83.7789 292.412 82.9641 292.492 82.1781 292.336C81.3921 292.179 80.67 291.794 80.1033 291.227C79.5366 290.66 79.1507 289.938 78.9944 289.152C78.838 288.366 78.9183 287.551 79.225 286.811C79.5316 286.07 80.051 285.438 80.7174 284.992C81.3837 284.547 82.1672 284.309 82.9686 284.309C84.0426 284.312 85.0719 284.74 85.8313 285.499C86.5907 286.258 87.0184 287.288 87.0207 288.362Z" fill="#DBDBDB"/>
<path d="M82.9688 292.862C82.0822 292.862 81.2156 292.599 80.4785 292.107C79.7413 291.614 79.1668 290.914 78.8275 290.095C78.4883 289.276 78.3995 288.375 78.5725 287.505C78.7454 286.636 79.1723 285.837 79.7992 285.21C80.4261 284.583 81.2248 284.156 82.0943 283.983C82.9638 283.81 83.865 283.899 84.6841 284.238C85.5032 284.578 86.2032 285.152 86.6957 285.889C87.1883 286.626 87.4512 287.493 87.4512 288.38C87.4512 289.568 86.9789 290.708 86.1383 291.549C85.2977 292.39 84.1576 292.862 82.9688 292.862ZM82.9688 284.794C82.2595 284.794 81.5662 285.004 80.9765 285.398C80.3868 285.792 79.9272 286.352 79.6558 287.007C79.3844 287.662 79.3134 288.384 79.4517 289.079C79.5901 289.775 79.9316 290.414 80.4331 290.915C80.9346 291.417 81.5736 291.758 82.2692 291.897C82.9648 292.035 83.6858 291.964 84.341 291.693C84.9963 291.421 85.5563 290.961 85.9504 290.372C86.3444 289.782 86.5547 289.089 86.5547 288.38C86.5594 287.906 86.4702 287.435 86.2921 286.996C86.114 286.557 85.8506 286.157 85.5172 285.821C85.1837 285.484 84.7868 285.217 84.3494 285.034C83.9119 284.852 83.4427 284.758 82.9688 284.758V284.794Z" fill="white"/>
<path d="M129.989 284.085C129.989 284.887 129.752 285.671 129.306 286.337C128.86 287.004 128.227 287.523 127.486 287.83C126.745 288.136 125.93 288.216 125.144 288.059C124.357 287.902 123.635 287.515 123.069 286.947C122.503 286.38 122.117 285.657 121.962 284.87C121.807 284.084 121.888 283.269 122.196 282.528C122.504 281.788 123.025 281.156 123.693 280.712C124.36 280.268 125.145 280.031 125.946 280.033C126.478 280.033 127.005 280.138 127.496 280.342C127.987 280.546 128.433 280.844 128.808 281.221C129.184 281.597 129.482 282.044 129.684 282.535C129.887 283.027 129.991 283.554 129.989 284.085Z" fill="#DBDBDB"/>
<path d="M125.911 288.586C125.024 288.586 124.157 288.323 123.42 287.83C122.683 287.338 122.109 286.638 121.769 285.819C121.43 285 121.341 284.098 121.514 283.229C121.687 282.359 122.114 281.561 122.741 280.934C123.368 280.307 124.167 279.88 125.036 279.707C125.906 279.534 126.807 279.623 127.626 279.962C128.445 280.301 129.145 280.876 129.638 281.613C130.13 282.35 130.393 283.217 130.393 284.103C130.393 285.292 129.921 286.432 129.08 287.273C128.24 288.113 127.099 288.586 125.911 288.586ZM125.911 280.517C125.201 280.517 124.508 280.728 123.918 281.122C123.329 281.516 122.869 282.076 122.598 282.731C122.326 283.386 122.255 284.107 122.394 284.803C122.532 285.498 122.874 286.137 123.375 286.639C123.877 287.14 124.515 287.482 125.211 287.62C125.907 287.759 126.628 287.688 127.283 287.416C127.938 287.145 128.498 286.685 128.892 286.095C129.286 285.506 129.497 284.813 129.497 284.103C129.501 283.629 129.412 283.159 129.234 282.72C129.056 282.281 128.793 281.881 128.459 281.544C128.126 281.208 127.729 280.94 127.291 280.758C126.854 280.575 126.385 280.481 125.911 280.481V280.517Z" fill="white"/>
<path d="M163.85 298.949C166.088 298.949 167.902 297.135 167.902 294.897C167.902 292.659 166.088 290.845 163.85 290.845C161.612 290.845 159.798 292.659 159.798 294.897C159.798 297.135 161.612 298.949 163.85 298.949Z" fill="#DBDBDB"/>
<path d="M163.849 299.397C162.963 299.397 162.096 299.134 161.359 298.642C160.622 298.149 160.047 297.449 159.708 296.63C159.369 295.811 159.28 294.91 159.453 294.04C159.626 293.171 160.053 292.372 160.68 291.745C161.306 291.118 162.105 290.691 162.975 290.519C163.844 290.346 164.745 290.434 165.564 290.774C166.384 291.113 167.084 291.687 167.576 292.424C168.069 293.162 168.332 294.028 168.332 294.915C168.332 296.104 167.859 297.244 167.019 298.084C166.178 298.925 165.038 299.397 163.849 299.397ZM163.849 291.329C163.14 291.329 162.447 291.539 161.857 291.933C161.267 292.327 160.808 292.887 160.536 293.543C160.265 294.198 160.194 294.919 160.332 295.614C160.47 296.31 160.812 296.949 161.313 297.45C161.815 297.952 162.454 298.293 163.15 298.432C163.845 298.57 164.566 298.499 165.221 298.228C165.877 297.956 166.437 297.497 166.831 296.907C167.225 296.317 167.435 295.624 167.435 294.915C167.44 294.441 167.351 293.971 167.172 293.532C166.994 293.092 166.731 292.693 166.398 292.356C166.064 292.019 165.667 291.752 165.23 291.569C164.792 291.387 164.323 291.293 163.849 291.293V291.329Z" fill="white"/>
<path d="M201.323 266.407C201.323 267.208 201.085 267.992 200.64 268.658C200.195 269.324 199.562 269.844 198.822 270.15C198.081 270.457 197.266 270.537 196.48 270.381C195.694 270.225 194.972 269.839 194.406 269.272C193.839 268.705 193.453 267.983 193.297 267.197C193.14 266.411 193.221 265.596 193.527 264.856C193.834 264.116 194.353 263.483 195.02 263.038C195.686 262.592 196.469 262.355 197.271 262.355C198.346 262.355 199.376 262.782 200.136 263.541C200.896 264.301 201.323 265.332 201.323 266.407Z" fill="#DBDBDB"/>
<path d="M197.27 270.907C196.384 270.907 195.517 270.644 194.78 270.152C194.043 269.659 193.469 268.959 193.129 268.14C192.79 267.321 192.701 266.42 192.874 265.55C193.047 264.681 193.474 263.882 194.101 263.255C194.728 262.628 195.527 262.201 196.396 262.028C197.266 261.855 198.167 261.944 198.986 262.283C199.805 262.623 200.505 263.197 200.997 263.934C201.49 264.671 201.753 265.538 201.753 266.425C201.753 267.613 201.281 268.753 200.44 269.594C199.599 270.435 198.459 270.907 197.27 270.907ZM197.27 262.839C196.561 262.839 195.868 263.049 195.278 263.443C194.689 263.837 194.229 264.397 193.958 265.052C193.686 265.708 193.615 266.429 193.753 267.124C193.892 267.82 194.233 268.459 194.735 268.96C195.236 269.462 195.875 269.803 196.571 269.942C197.267 270.08 197.988 270.009 198.643 269.738C199.298 269.466 199.858 269.006 200.252 268.417C200.646 267.827 200.856 267.134 200.856 266.425C200.861 265.951 200.772 265.48 200.594 265.041C200.416 264.602 200.152 264.202 199.819 263.866C199.485 263.529 199.089 263.262 198.651 263.079C198.214 262.897 197.744 262.803 197.27 262.803V262.839Z" fill="white"/>
<path d="M247.886 258.912C247.883 259.713 247.642 260.495 247.194 261.159C246.746 261.824 246.112 262.34 245.37 262.644C244.629 262.947 243.815 263.025 243.03 262.866C242.244 262.706 241.524 262.318 240.96 261.75C240.395 261.182 240.012 260.459 239.858 259.673C239.704 258.886 239.786 258.072 240.095 257.333C240.404 256.594 240.924 255.963 241.591 255.519C242.259 255.076 243.042 254.84 243.843 254.842C244.376 254.843 244.904 254.95 245.395 255.155C245.887 255.36 246.334 255.66 246.709 256.038C247.085 256.416 247.382 256.865 247.584 257.358C247.786 257.851 247.889 258.379 247.886 258.912Z" fill="#DBDBDB"/>
<path d="M243.843 263.412C242.956 263.412 242.09 263.15 241.352 262.657C240.615 262.164 240.041 261.464 239.702 260.645C239.362 259.826 239.274 258.925 239.446 258.056C239.619 257.186 240.046 256.387 240.673 255.76C241.3 255.134 242.099 254.707 242.968 254.534C243.838 254.361 244.739 254.45 245.558 254.789C246.377 255.128 247.077 255.703 247.57 256.44C248.062 257.177 248.325 258.043 248.325 258.93C248.325 260.119 247.853 261.259 247.012 262.1C246.172 262.94 245.032 263.412 243.843 263.412ZM243.843 255.344C243.134 255.344 242.44 255.554 241.851 255.948C241.261 256.342 240.801 256.902 240.53 257.558C240.258 258.213 240.187 258.934 240.326 259.63C240.464 260.325 240.806 260.964 241.307 261.466C241.809 261.967 242.448 262.309 243.143 262.447C243.839 262.585 244.56 262.514 245.215 262.243C245.87 261.972 246.43 261.512 246.824 260.922C247.218 260.333 247.429 259.639 247.429 258.93C247.432 258.457 247.342 257.988 247.163 257.549C246.985 257.111 246.721 256.713 246.388 256.377C246.055 256.041 245.658 255.775 245.221 255.593C244.784 255.411 244.316 255.317 243.843 255.317V255.344Z" fill="white"/>
<path d="M282.723 235.944C282.723 236.746 282.485 237.53 282.04 238.196C281.594 238.863 280.961 239.382 280.22 239.689C279.479 239.995 278.664 240.075 277.877 239.918C277.091 239.761 276.369 239.374 275.803 238.806C275.236 238.239 274.851 237.516 274.696 236.729C274.541 235.943 274.622 235.128 274.93 234.387C275.238 233.647 275.759 233.015 276.427 232.571C277.094 232.126 277.878 231.89 278.68 231.892C279.212 231.892 279.738 231.997 280.23 232.201C280.721 232.404 281.167 232.703 281.542 233.079C281.918 233.456 282.215 233.903 282.418 234.394C282.621 234.886 282.725 235.413 282.723 235.944Z" fill="#DBDBDB"/>
<path d="M278.68 240.444C277.794 240.444 276.927 240.182 276.19 239.689C275.453 239.197 274.878 238.496 274.539 237.677C274.2 236.858 274.111 235.957 274.284 235.088C274.457 234.218 274.884 233.419 275.511 232.793C276.137 232.166 276.936 231.739 277.806 231.566C278.675 231.393 279.576 231.482 280.396 231.821C281.215 232.16 281.915 232.735 282.407 233.472C282.9 234.209 283.163 235.076 283.163 235.962C283.163 237.151 282.69 238.291 281.85 239.132C281.009 239.972 279.869 240.444 278.68 240.444ZM278.68 232.376C277.971 232.376 277.278 232.586 276.688 232.98C276.098 233.374 275.639 233.935 275.367 234.59C275.096 235.245 275.025 235.966 275.163 236.662C275.301 237.357 275.643 237.996 276.145 238.498C276.646 238.999 277.285 239.341 277.981 239.479C278.676 239.617 279.397 239.546 280.052 239.275C280.708 239.004 281.268 238.544 281.662 237.954C282.056 237.365 282.266 236.671 282.266 235.962C282.271 235.488 282.182 235.018 282.004 234.579C281.825 234.14 281.562 233.74 281.229 233.403C280.895 233.066 280.498 232.799 280.061 232.617C279.623 232.434 279.154 232.34 278.68 232.34V232.376Z" fill="white"/>
<path d="M298.986 199.126C298.986 199.927 298.748 200.71 298.303 201.377C297.857 202.043 297.225 202.563 296.484 202.869C295.744 203.176 294.929 203.256 294.143 203.1C293.357 202.943 292.635 202.558 292.068 201.991C291.501 201.424 291.116 200.702 290.959 199.916C290.803 199.13 290.883 198.315 291.19 197.575C291.496 196.834 292.016 196.202 292.682 195.756C293.349 195.311 294.132 195.073 294.933 195.073C295.466 195.072 295.993 195.176 296.486 195.38C296.978 195.583 297.425 195.881 297.801 196.258C298.178 196.634 298.476 197.081 298.68 197.574C298.883 198.066 298.987 198.593 298.986 199.126Z" fill="#DBDBDB"/>
<path d="M294.942 203.617C294.056 203.617 293.189 203.354 292.452 202.862C291.715 202.369 291.14 201.669 290.801 200.85C290.462 200.031 290.373 199.13 290.546 198.26C290.719 197.391 291.146 196.592 291.773 195.965C292.4 195.338 293.198 194.911 294.068 194.738C294.937 194.565 295.839 194.654 296.658 194.993C297.477 195.333 298.177 195.907 298.669 196.644C299.162 197.381 299.425 198.248 299.425 199.135C299.425 200.323 298.953 201.463 298.112 202.304C297.271 203.145 296.131 203.617 294.942 203.617ZM294.942 195.549C294.233 195.549 293.54 195.759 292.95 196.153C292.36 196.547 291.901 197.107 291.629 197.762C291.358 198.417 291.287 199.138 291.425 199.834C291.564 200.53 291.905 201.169 292.407 201.67C292.908 202.172 293.547 202.513 294.243 202.652C294.938 202.79 295.659 202.719 296.315 202.447C296.97 202.176 297.53 201.716 297.924 201.127C298.318 200.537 298.528 199.844 298.528 199.135C298.532 198.661 298.442 198.192 298.263 197.754C298.084 197.316 297.821 196.917 297.488 196.581C297.154 196.246 296.758 195.979 296.321 195.797C295.884 195.615 295.416 195.522 294.942 195.522V195.549Z" fill="white"/>
<path d="M128.932 391C198.411 391 254.736 385.939 254.736 379.695C254.736 373.452 198.411 368.391 128.932 368.391C59.4526 368.391 3.12842 373.452 3.12842 379.695C3.12842 385.939 59.4526 391 128.932 391Z" fill="#EBEBEB"/>
<path d="M251.751 246.98H210.647V362.285H251.751V246.98Z" fill="#437BFA"/>
<g opacity="0.1">
<path d="M251.751 246.98H242.338V362.285H251.751V246.98Z" fill="black"/>
</g>
<path d="M305.907 203.401H264.804V362.285H305.907V203.401Z" fill="#437BFA"/>
<g opacity="0.1">
<path d="M305.898 203.402H296.485V362.286H305.898V203.402Z" fill="black"/>
</g>
<path d="M197.72 272.942H156.616V362.276H197.72V272.942Z" fill="#437BFA"/>
<g opacity="0.1">
<path d="M197.72 272.942H188.307V362.276H197.72V272.942Z" fill="black"/>
</g>
<path d="M360.055 145.363H318.951V362.276H360.055V145.363Z" fill="#437BFA"/>
<g opacity="0.1">
<path d="M360.056 145.363H350.643V362.276H360.056V145.363Z" fill="black"/>
</g>
<path d="M142.057 327.645V305.412C142.057 305.412 291.77 292.673 352.247 126.824L358.262 128.375C358.262 128.375 318.091 298.366 142.057 327.645Z" fill="#37474F"/>
<path d="M363.874 133.951L344.958 127.693L360.629 112.068L363.874 133.951Z" fill="#37474F"/>
<path d="M0 362.286L47.2895 362.062L94.579 361.99L189.158 361.837L283.737 361.981L331.027 362.062L378.316 362.286L331.027 362.501L283.737 362.581L189.158 362.734L94.579 362.581L47.2895 362.501L0 362.286Z" fill="#263238"/>
<path d="M230.765 55.8226C233.454 71.0628 224.489 87.6299 204.91 93.7708C187.115 99.3559 166.98 90.0952 162.551 78.3692C157.863 65.9439 165.85 54.0296 175.864 52.9987C185.51 51.9677 193.184 57.2839 200.32 54.3972C203.736 53.0076 207.564 48.1218 212.521 45.8268C218.052 43.2718 229.052 46.0509 230.765 55.8226Z" fill="#263238"/>
<path d="M169.839 88.8042C174.864 92.7301 180.807 95.3096 187.106 96.2989C193.408 97.2675 199.849 96.7768 205.932 94.8645C212.077 93.0516 217.622 89.621 221.988 84.9314C226.26 80.1892 229.167 74.3768 230.397 68.1134C228.911 74.2373 225.887 79.8808 221.611 84.5101C219.453 86.778 216.998 88.7441 214.314 90.3552C211.625 91.9506 208.749 93.2092 205.753 94.1025C202.757 95.0156 199.674 95.6164 196.555 95.8954C190.285 96.4491 183.973 95.528 178.123 93.206C175.181 92.107 172.396 90.6272 169.839 88.8042Z" fill="#263238"/>
<path d="M173.184 52.7298C175.049 52.1464 176.994 51.862 178.948 51.8871C180.887 51.8923 182.818 52.1239 184.703 52.5774C186.604 53.0435 188.522 53.4738 190.459 53.8145C192.411 54.1864 194.399 54.3308 196.385 54.2448C197.387 54.1924 198.383 54.0514 199.361 53.8235C200.335 53.5473 201.269 53.1465 202.14 52.6311C203.808 51.5834 205.41 50.4337 206.936 49.1886C208.459 47.988 210.128 46.985 211.903 46.2034C213.703 45.4481 215.626 45.0259 217.577 44.9572C215.601 44.8783 213.629 45.1828 211.768 45.8537C209.93 46.5836 208.191 47.5446 206.596 48.7135C204.982 49.8341 203.458 51.0713 201.79 52.0215C200.972 52.5084 200.091 52.8824 199.173 53.1332C198.242 53.3432 197.293 53.4662 196.34 53.5007C192.494 53.7428 188.657 52.7656 184.829 52.0215C182.892 51.6248 180.915 51.4593 178.939 51.5285C176.967 51.602 175.021 52.0081 173.184 52.7298Z" fill="#263238"/>
<path d="M34.6945 84.1067C36.586 79.7229 95.2609 77.5713 145.141 76.9348H145.231C167.742 76.6569 189.365 74.5861 202.991 75.2943C211.651 75.7515 216.286 78.8802 217.335 80.1174C220.679 84.1336 226.802 97.0161 203.744 113.287C186.299 125.596 166.28 136.596 151.408 155.422C136.535 174.248 128.189 197.978 129.247 214.151C130.304 230.323 142.048 245.761 140.901 244.084C140.542 243.564 136.176 243.824 130.08 240.292C122.595 235.953 113.899 226.773 108.018 224.075C95.996 218.57 79.7428 219.503 67.0486 206.629C53.5923 193.11 50.3202 169.219 43.9282 150.303C36.1826 127.326 18.3336 121.965 34.6945 84.1067Z" fill="#437BFA"/>
<g opacity="0.2">
<path d="M34.6954 84.107C36.587 79.7232 95.2619 77.5716 145.142 76.9351H145.232C167.743 76.6572 189.366 74.5863 202.992 75.2946C211.652 75.7518 216.287 78.8805 217.336 80.1176C220.68 84.1339 226.803 97.0164 203.745 113.288C186.3 125.596 166.281 136.596 151.409 155.422C136.536 174.248 128.19 197.978 129.248 214.151C130.305 230.324 142.049 245.761 140.902 244.085C140.543 243.565 136.177 243.825 130.081 240.292C122.596 235.953 113.9 226.773 108.019 224.075C95.997 218.571 79.7438 219.503 67.0495 206.629C53.5933 193.11 50.3211 169.219 43.9292 150.303C36.1836 127.326 18.3346 121.966 34.6954 84.107Z" fill="black"/>
</g>
<path opacity="0.1" d="M46.6177 158.864C45.7661 155.942 44.9054 153.064 43.9283 150.303C42.0304 144.979 39.5753 139.871 36.604 135.063C36.604 135.063 89.2007 121.974 104.54 128.348C112.958 131.827 88.3132 134.023 46.6177 158.864Z" fill="black"/>
<path opacity="0.1" d="M117.252 230.691C113.818 227.867 110.582 225.312 107.937 224.12C104.849 222.78 101.652 221.706 98.3809 220.91C101.761 199.063 105.553 183.975 115.011 173.97C121.026 167.551 105.84 204.388 117.252 230.691Z" fill="black"/>
<path opacity="0.1" d="M51.1719 175.181C50.392 172.545 49.6479 169.882 48.9038 167.22C65.8742 160.371 80.2807 150.473 80.3973 152.786C80.5766 155.332 62.2973 167.883 51.1719 175.181Z" fill="black"/>
<path d="M19.087 132.024C19.087 132.024 14.237 110.508 29.02 84.5101C30.4544 81.982 55.4842 71.296 72.2126 69.8885C88.941 68.481 101.662 73.4744 121.519 76.3521C141.376 79.2298 194.233 72.8379 207.017 75.5632C215.802 77.4369 217.219 80.1622 217.219 80.1622C217.219 80.1622 206.954 76.9169 200.786 77.0155C176.375 77.41 133.039 90.3462 121.672 90.1759C107.794 89.9697 92.3387 88.7146 81.0788 91.422C68.4922 94.3715 26.4561 124.09 19.087 132.024Z" fill="#437BFA"/>
<path d="M156.455 293.983C155.119 292.503 133.514 242.883 133.9 240.454C134.025 239.557 180.329 225.312 180.329 225.312L193.023 257.532L163.735 263.861C163.735 263.861 163.502 286.56 162.838 289.168C162.175 291.777 157.782 295.462 156.455 293.983Z" fill="#FFBDA7"/>
<path d="M156.455 293.983C155.872 293.328 151.372 283.386 146.54 272.234C146.226 271.499 145.903 270.755 145.59 270.011C144.756 268.11 143.94 266.183 143.124 264.273C142.811 263.529 142.506 262.785 142.228 262.05C141.923 261.315 141.609 260.571 141.331 259.853C140.856 258.742 140.435 257.648 139.969 256.581C139.682 255.882 139.404 255.192 139.126 254.528L138.328 252.556C137.934 251.588 137.566 250.664 137.217 249.777C136.975 249.185 136.741 248.594 136.526 248.029C136.096 246.935 135.71 245.931 135.388 245.035C135.208 244.586 135.056 244.138 134.922 243.77C134.572 242.784 134.312 241.978 134.169 241.44C134.067 241.152 134.016 240.848 134.016 240.543C134.016 240.22 139.476 238.006 146.567 235.218C147.571 240.489 149.696 250.001 153.739 264.219C160.337 287.591 163.34 278.42 163.681 273.794C163.681 273.749 163.681 273.704 163.681 273.659C163.681 273.937 163.681 274.224 163.681 274.502V274.565C163.681 275.076 163.681 275.596 163.636 276.107C163.591 276.618 163.636 277.236 163.636 277.801C163.636 278.697 163.591 279.666 163.546 280.571C163.501 281.477 163.493 282.364 163.448 283.162C163.448 283.655 163.448 284.13 163.385 284.578C163.385 284.812 163.385 285.027 163.385 285.251C163.385 285.475 163.385 285.834 163.331 286.147C163.331 286.757 163.259 287.304 163.206 287.77C163.214 287.877 163.214 287.985 163.206 288.093C163.17 288.469 163.113 288.843 163.035 289.213C162.112 291.759 157.782 295.453 156.455 293.983Z" fill="#263238"/>
<path d="M173.793 266.622L161.179 229.229C161.179 229.229 209.016 210.699 209.831 207.553C210.154 206.324 178.822 160.487 172.995 142.791C169.122 131.011 178.697 117.994 178.697 117.994L213.184 127.245C213.184 127.245 211.391 137.107 212.548 139.07C223.458 157.17 254.019 207.14 251.15 224.505C248.407 241.126 173.793 266.622 173.793 266.622Z" fill="#263238"/>
<path d="M181.26 261.79C179.898 257.451 174.089 239.907 172.448 235.568C171.982 234.313 171.552 233.058 171.032 231.82C170.592 230.565 170.084 229.335 169.508 228.136C169.5 228.121 169.487 228.109 169.471 228.102C169.455 228.096 169.437 228.095 169.421 228.101C169.405 228.106 169.391 228.117 169.382 228.132C169.373 228.146 169.37 228.164 169.373 228.181C169.631 229.336 169.951 230.476 170.332 231.596C170.664 232.735 171.023 233.864 171.381 234.994C172.08 237.226 172.807 239.476 173.533 241.673C174.967 246.012 179.701 259.602 180.893 261.924C180.992 262.113 181.332 262.014 181.26 261.79Z" fill="#37474F"/>
<path d="M215.157 208.512C211.033 203.536 181.691 152.033 180.194 149.021C178.643 146.278 177.462 143.342 176.68 140.289C175.263 133.575 177.379 126.582 180.266 120.567C180.277 120.531 180.276 120.492 180.262 120.457C180.248 120.423 180.223 120.394 180.19 120.376C180.157 120.358 180.119 120.352 180.082 120.359C180.045 120.366 180.012 120.385 179.988 120.414C177.101 125.65 175.084 131.602 175.505 137.645C175.762 140.723 176.605 143.723 177.989 146.484C179.405 149.505 180.974 152.464 182.471 155.449C185.573 161.599 212.199 205.876 214.395 208.682C209.258 211.443 204.112 214.195 198.886 216.75C193.507 219.44 188.02 221.941 182.525 224.406C179.423 225.793 176.303 227.15 173.166 228.476C173.031 228.53 173.094 228.745 173.228 228.692C184.497 224.466 195.492 219.54 206.147 213.944C209.159 212.367 212.172 210.762 215.112 209.059C215.153 209.027 215.188 208.988 215.213 208.942C215.238 208.897 215.253 208.847 215.257 208.795C215.261 208.744 215.255 208.692 215.237 208.643C215.22 208.594 215.193 208.549 215.157 208.512Z" fill="#37474F"/>
<path d="M205.197 199.672C196.322 185.535 177.406 156.148 172.996 142.791C169.123 131.011 178.697 117.994 178.697 117.994L191.974 121.58L205.197 199.672Z" fill="#37474F"/>
<path d="M120.129 327.269C118.256 326.57 76.2017 292.467 75.4487 290.146C75.1349 289.249 79.7518 282.857 85.5431 275.264L85.7314 275.031C86.9237 273.462 109.936 248.836 109.936 248.836L136.992 271.75L113.092 296.735L112.707 297.183C112.707 297.183 122.953 317.435 123.536 320.07C124.119 322.706 121.922 327.968 120.129 327.269Z" fill="#FFBDA7"/>
<path d="M82.6389 279.047C78.2641 284.901 75.1443 289.419 75.4043 290.155C76.2022 292.494 118.211 326.561 120.13 327.269C122.048 327.977 124.128 322.697 123.545 320.097C123.196 318.492 119.251 310.343 116.221 304.22C118.14 308.532 119.619 317.273 102.774 300.491C92.2761 290.11 86.0635 283.108 82.6389 279.047Z" fill="#263238"/>
<path d="M213.184 127.245C213.184 127.245 205.17 145.857 198.635 150.07C198.635 150.07 174.86 208.512 167.311 223.869C157.351 244.147 122.819 290.827 122.819 290.827L89.918 265.824C89.918 265.824 133.209 212.214 133.765 210.87C136.912 203.223 161.807 146.914 161.717 145.426C160.821 130.186 171.579 116.093 171.579 116.093L213.184 127.245Z" fill="#263238"/>
<path d="M198.456 150.106C198.124 150.521 197.874 150.996 197.721 151.504C197.514 151.971 197.317 152.401 197.12 152.912C196.726 153.808 196.322 154.794 195.937 155.745C195.139 157.708 194.323 159.662 193.507 161.626C192.691 163.589 191.876 165.552 191.096 167.525C190.316 169.497 189.545 171.37 188.935 173.343C188.935 173.414 189.025 173.459 189.061 173.343C190.118 171.55 191.015 169.586 191.893 167.668C192.772 165.749 193.624 163.795 194.431 161.841C195.237 159.886 196.035 157.905 196.815 155.933C197.183 155.036 197.523 154.086 197.873 153.163C198.052 152.688 198.223 152.204 198.393 151.72C198.63 151.244 198.77 150.726 198.805 150.195C198.796 150.16 198.777 150.127 198.751 150.101C198.725 150.075 198.693 150.057 198.657 150.048C198.621 150.038 198.584 150.039 198.548 150.049C198.513 150.059 198.481 150.079 198.456 150.106Z" fill="#37474F"/>
<path d="M212.844 130.025C210.199 134.364 207.671 138.765 204.775 142.952C204.166 143.848 203.529 145.103 202.552 145.641C202.354 145.758 202.128 145.82 201.898 145.82C201.667 145.82 201.442 145.758 201.243 145.641C200.687 145.256 200.965 144.485 201.198 144.001C201.754 142.844 202.453 141.742 203.072 140.612C203.691 139.483 204.372 138.218 205.026 137.026C206.479 134.337 207.77 131.647 209.231 128.958C209.276 128.877 209.159 128.805 209.114 128.886C207.599 131.504 205.932 134.032 204.408 136.65L202.059 140.657L200.965 142.575C200.61 143.116 200.326 143.701 200.123 144.315C200.038 144.541 200.002 144.782 200.016 145.023C200.031 145.263 200.095 145.499 200.206 145.713C200.316 145.928 200.47 146.116 200.658 146.268C200.846 146.419 201.064 146.529 201.297 146.592C201.791 146.676 202.298 146.621 202.762 146.432C203.226 146.244 203.629 145.93 203.924 145.525C204.747 144.486 205.505 143.396 206.192 142.262C206.972 141.069 207.743 139.868 208.469 138.676C210.148 135.907 211.628 133.022 212.897 130.043C212.924 130.016 212.871 129.98 212.844 130.025Z" fill="#37474F"/>
<path d="M201.1 146.045C200.445 146.592 197.953 149.864 197.801 150.043C197.648 150.222 198.159 150.447 198.231 150.375C199.386 149.034 200.449 147.618 201.414 146.134C201.431 146.081 201.154 145.991 201.1 146.045Z" fill="#37474F"/>
<path d="M203.789 148.922C201.551 149.085 199.332 149.442 197.155 149.989C196.071 150.222 194.995 150.464 193.919 150.742C192.765 150.978 191.63 151.296 190.521 151.693C190.508 151.698 190.496 151.707 190.487 151.719C190.479 151.731 190.475 151.745 190.475 151.76C190.475 151.774 190.479 151.789 190.487 151.801C190.496 151.813 190.508 151.822 190.521 151.827C191.69 151.761 192.852 151.614 194 151.388C195.058 151.235 196.106 151.056 197.155 150.85C199.415 150.51 201.641 149.973 203.807 149.245C203.85 149.243 203.89 149.224 203.919 149.192C203.947 149.16 203.962 149.118 203.96 149.075C203.957 149.032 203.938 148.992 203.906 148.963C203.874 148.935 203.832 148.92 203.789 148.922Z" fill="#37474F"/>
<path d="M125.509 282.561C121.923 279.755 107.194 268.603 103.375 265.958C102.281 265.196 101.187 264.417 100.085 263.672C99.0101 262.889 97.8938 262.165 96.7407 261.503C96.7253 261.495 96.7078 261.494 96.6912 261.498C96.6746 261.502 96.6602 261.513 96.6505 261.527C96.6407 261.541 96.6363 261.558 96.6381 261.575C96.6398 261.592 96.6476 261.608 96.6601 261.619C97.5134 262.425 98.4113 263.182 99.3495 263.888C100.246 264.632 101.214 265.358 102.147 266.093C103.94 267.536 105.849 268.953 107.705 270.369C111.353 273.13 122.945 281.674 125.249 282.875C125.509 282.974 125.715 282.705 125.509 282.561Z" fill="#37474F"/>
<path d="M175.828 119.24C173.053 122.931 170.972 127.096 169.687 131.531C169.064 133.715 168.632 135.95 168.396 138.209C168.127 140.747 168.297 143.355 167.499 145.812C166.587 148.322 165.549 150.784 164.388 153.19L161.098 160.72L154.617 175.674L141.564 205.697C140.524 208.108 139.502 210.529 138.292 212.869C137.107 215.131 135.74 217.292 134.204 219.332C131.003 223.662 127.579 227.831 124.28 232.08C117.619 240.624 110.922 249.114 104.414 257.791L101.957 261.073C101.904 261.144 101.957 261.243 102.056 261.171C108.932 252.762 115.647 244.228 122.37 235.684C125.735 231.417 129.085 227.138 132.42 222.847C133.926 220.91 135.423 218.956 136.759 216.894C138.152 214.71 139.378 212.423 140.425 210.054C144.908 200.192 149.103 190.143 153.433 180.192C157.763 170.241 162.138 160.173 166.459 150.151C167.568 147.962 168.333 145.616 168.727 143.194C168.987 140.711 168.996 138.227 169.427 135.753C170.256 131.074 171.865 126.568 174.187 122.422C174.761 121.391 175.388 120.387 176.043 119.41C176.15 119.267 175.926 119.105 175.828 119.24Z" fill="#37474F"/>
<path d="M100.486 150.081L86.2881 189.865L151.96 213.302L166.158 173.517L100.486 150.081Z" fill="#455A64"/>
<path d="M100.488 150.074L93.8022 168.81L159.474 192.246L166.16 173.511L100.488 150.074Z" fill="#37474F"/>
<path d="M94.3997 162.227L163.179 186.773L169.805 168.206L101.026 143.661L94.3997 162.227Z" fill="#455A64"/>
<path d="M124.71 140.182L120.927 150.769L125.912 152.544L128.063 146.52L147.06 153.306L144.908 159.331L149.893 161.106L153.667 150.509L124.71 140.182Z" fill="#263238"/>
<path d="M147.681 186.234L152.164 187.834L155.328 178.968L150.844 177.368L147.681 186.234Z" fill="#263238"/>
<path d="M102.252 170.039L106.735 171.639L109.899 162.774L105.416 161.174L102.252 170.039Z" fill="#263238"/>
<path d="M211.643 90.158C222.965 108.563 237.309 125.426 243.916 125.551C252.809 125.721 271.707 116.586 281.102 110.885C283.855 109.226 270.47 88.0423 267.521 89.8173C263.935 91.9599 245.709 103.363 245.297 103.462C244.4 103.677 223.889 89.6739 219.066 86.2045C211.006 80.4222 206.622 81.991 211.643 90.158Z" fill="#FFBDA7"/>
<path d="M294.738 101.669C291.34 105.802 281.067 111.53 278.063 111.96C275.06 112.391 264.733 95.2679 265.853 92.3543C266.974 89.4408 279.516 76.4238 284.859 75.3211C290.202 74.2185 298.261 97.3836 294.738 101.669Z" fill="#FFBDA7"/>
<path d="M277.014 78.674C276.602 81.48 280.143 80.3594 280.143 80.3594C280.143 80.3594 275.437 83.2102 276.136 86.2673C276.835 89.3243 281.049 87.7016 281.353 87.5941C281.102 87.7465 276.871 90.4807 277.857 93.475C278.843 96.4692 282.904 94.3715 283.164 94.2011C282.976 94.4163 280.529 97.3388 281.82 99.4456C284.043 103.032 290.497 95.761 293.931 95.6983C293.931 95.6983 294.711 101.499 294.765 101.669C294.765 101.669 301.04 94.8466 300.708 90.2207C300.669 89.5475 300.401 88.9079 299.947 88.4088C299.494 87.9096 298.883 87.5809 298.216 87.4775C298.216 87.4775 300.484 85.4963 299.758 83.1116C299.382 81.8924 297.069 81.3993 297.069 81.3993C297.558 80.9251 297.907 80.3254 298.077 79.666C298.248 79.0066 298.234 78.313 298.037 77.661C297.418 75.9935 295.222 75.7694 295.222 75.7694C295.222 75.7694 296.163 73.3937 294.98 71.8966C292.604 68.8755 277.911 72.6676 277.014 78.674Z" fill="#FFBDA7"/>
<path d="M294.872 75.6797C294.926 75.6797 294.926 75.5991 294.872 75.5991C289.517 75.6463 284.302 77.3189 279.919 80.3953C279.784 80.5028 279.919 80.7628 280.062 80.6821C284.729 78.3024 289.718 76.6172 294.872 75.6797Z" fill="#263238"/>
<path d="M297.131 81.3545C297.185 81.3545 297.176 81.2469 297.131 81.2469C291.225 81.3611 285.554 83.5873 281.147 87.5223C280.995 87.6657 281.004 87.9436 281.147 87.7912C284.285 85.2452 292.255 82.1613 297.131 81.3545Z" fill="#263238"/>
<path d="M282.931 94.5956C287.279 90.8035 292.407 88.7774 297.974 87.4237C298.046 87.4237 297.974 87.3072 297.974 87.3072C295.078 87.2085 291.618 88.4188 289.009 89.5932C286.564 90.6292 284.434 92.2893 282.832 94.4073C282.734 94.5328 282.841 94.6763 282.931 94.5956Z" fill="#263238"/>
<path d="M280.116 80.3594C279.266 80.9893 278.474 81.6944 277.749 82.4661C277.018 83.1883 276.493 84.0917 276.225 85.0838C276.123 85.545 276.197 86.0276 276.432 86.4375C276.676 86.8469 277.022 87.1865 277.436 87.4237C277.865 87.6285 278.334 87.74 278.809 87.7508C279.285 87.7616 279.758 87.6715 280.197 87.4864L282.384 86.6796L280.591 88.1946C279.798 88.8626 279.12 89.6561 278.583 90.5434C278.312 90.9385 278.128 91.3864 278.043 91.8577C277.958 92.329 277.974 92.813 278.09 93.2777C278.202 93.71 278.459 94.0907 278.818 94.3566C279.177 94.6225 279.616 94.7574 280.062 94.739C281.055 94.6773 282.016 94.3692 282.859 93.8425L285.226 92.435L283.433 94.5328C282.936 95.1154 282.517 95.7603 282.187 96.4513C281.85 97.0894 281.709 97.8132 281.784 98.5311C281.834 98.8523 281.971 99.1538 282.179 99.4033C282.387 99.6528 282.66 99.8409 282.967 99.9475C283.693 100.072 284.439 99.9881 285.118 99.7055C286.599 99.1079 288.032 98.3976 289.404 97.5808C290.103 97.1953 290.82 96.8009 291.546 96.4423C292.254 96.0421 293.04 95.7976 293.85 95.7251C293.063 95.8761 292.314 96.1807 291.645 96.6216C290.955 97.025 290.282 97.4732 289.61 97.9125C288.27 98.8441 286.844 99.6457 285.352 100.306C284.549 100.679 283.655 100.81 282.779 100.683C282.318 100.554 281.903 100.295 281.585 99.9378C281.268 99.5801 281.059 99.1384 280.986 98.6656C280.868 97.7745 281.021 96.8687 281.425 96.0658C281.779 95.2913 282.231 94.5652 282.77 93.9052L283.37 94.5955C282.389 95.254 281.251 95.6407 280.071 95.7161C279.426 95.732 278.794 95.5299 278.278 95.1424C277.785 94.7333 277.423 94.1875 277.238 93.5735C277.09 92.9839 277.07 92.3694 277.178 91.7712C277.286 91.1729 277.521 90.6046 277.866 90.1042C278.465 89.1356 279.222 88.2748 280.107 87.5581L280.519 88.2664C279.966 88.4728 279.374 88.5573 278.784 88.514C278.195 88.4707 277.622 88.3006 277.104 88.0153C276.61 87.6903 276.207 87.2464 275.929 86.7244C275.656 86.1906 275.586 85.5758 275.732 84.9942C276.073 83.9505 276.693 83.0202 277.525 82.3047C278.313 81.5605 279.182 80.9079 280.116 80.3594Z" fill="#263238"/>
<path d="M267.602 89.7635C267.602 89.7635 273.967 67.961 281.273 74.6219C283.442 76.6031 289.987 87.3251 287.862 88.6788C285.11 90.4717 281.542 86.4734 279.695 83.6226C279.695 83.6226 278.575 91.3503 272.971 92.1661C271.942 92.3007 270.895 92.1475 269.947 91.7234C268.999 91.2993 268.187 90.6209 267.602 89.7635Z" fill="#FFBDA7"/>
<path d="M280.6 74.1109C281.543 74.7865 282.383 75.5958 283.092 76.5135C283.819 77.4159 284.49 78.362 285.101 79.3464C286.341 81.3155 287.409 83.3881 288.292 85.5411C288.525 86.1146 288.676 86.7182 288.74 87.334C288.776 87.6886 288.734 88.0469 288.615 88.3829C288.488 88.7565 288.234 89.0737 287.898 89.2794C287.305 89.643 286.603 89.7829 285.916 89.6739C285.286 89.5632 284.68 89.3448 284.123 89.0284C283.1 88.4036 282.191 87.6094 281.434 86.6796C280.671 85.7919 279.975 84.8479 279.354 83.8557L280.089 83.6853C279.926 84.5605 279.683 85.4188 279.363 86.2493C279.05 87.0765 278.654 87.8695 278.18 88.616C277.698 89.3567 277.113 90.024 276.44 90.5972C275.772 91.1609 275.002 91.5929 274.172 91.8703C274.941 91.4973 275.641 90.9972 276.243 90.391C276.833 89.7812 277.337 89.0935 277.74 88.3471C278.15 87.6107 278.486 86.8361 278.744 86.0341C279 85.2364 279.183 84.4173 279.291 83.5867L279.408 82.5558L280.026 83.4523C280.661 84.3948 281.359 85.2934 282.115 86.1417C282.829 86.978 283.673 87.6925 284.616 88.2574C285.017 88.5381 285.482 88.7118 285.969 88.762C286.455 88.8122 286.946 88.7373 287.396 88.5443C288.086 88.1767 287.808 86.9396 287.449 85.9266C287.063 84.8621 286.623 83.8179 286.131 82.7978C285.638 81.7669 285.145 80.7359 284.598 79.7319C283.565 77.6623 282.216 75.766 280.6 74.1109Z" fill="#263238"/>
<path d="M254.342 97.4464L265.001 121.338C265.001 121.338 247.735 127.425 242.105 125.435C236.475 123.444 220.59 106.662 213.014 93.6542C205.439 80.6463 209.904 78.9429 222.409 87.7374C234.915 96.532 244.822 102.709 245.189 102.547C245.557 102.386 254.342 97.4464 254.342 97.4464Z" fill="#EBEBEB"/>
<path d="M250.845 100.97C250.845 100.898 250.693 100.97 250.711 101.023C252.965 108.106 255.601 115.061 258.609 121.858C258.609 121.929 258.77 121.858 258.743 121.804C256.493 114.72 253.857 107.765 250.845 100.97Z" fill="#263238"/>
<path d="M232.566 118.074C225.843 111.53 217.774 101.839 213.014 93.6542C206.891 83.1295 208.648 80.0008 216.179 83.8646L232.566 118.074Z" fill="#C7C7C7"/>
<path d="M214.879 120.916L213.086 134.91C213.086 134.91 183.789 131.988 168.692 119.087C168.692 119.087 184.829 86.7513 201.189 79.8125C209.383 76.3342 215.632 79.7049 217.846 85.7383C218.411 87.2623 224.704 104.349 223.171 111.207C221.844 117.25 214.879 120.916 214.879 120.916Z" fill="#EBEBEB"/>
<path d="M214.26 88.6429L214.206 88.3919V88.2933C214.206 88.2933 214.26 88.2484 214.269 88.2933L214.332 88.4098C214.395 88.5712 214.457 88.7325 214.511 88.8939C214.619 89.2166 214.708 89.5483 214.798 89.88C214.977 90.5345 215.139 91.2068 215.291 91.8702C215.596 93.206 215.802 94.5597 215.99 95.9134C216.359 98.6341 216.482 101.382 216.358 104.125C216.26 106.889 215.765 109.624 214.888 112.247C214.043 114.909 212.527 117.307 210.486 119.213L210.549 119.114C209.724 121.58 208.863 124.027 207.994 126.475L206.667 130.132C206.21 131.342 205.771 132.571 205.197 133.718C205.717 132.526 206.093 131.289 206.524 130.06L207.743 126.367L210.092 118.953V118.899L210.136 118.854C211.978 116.903 213.338 114.549 214.108 111.978C214.882 109.404 215.346 106.747 215.488 104.062C215.629 101.373 215.587 98.6776 215.363 95.9941C215.255 94.6493 215.076 93.3046 214.897 91.9599C214.807 91.2786 214.699 90.6152 214.583 89.9428L214.377 88.9477C214.377 88.7774 214.305 88.616 214.26 88.4546C214.263 88.4158 214.263 88.3769 214.26 88.3381C214.26 88.3381 214.26 88.4008 214.26 88.4277V88.6429Z" fill="#263238"/>
<path d="M222.696 100.817L222.588 100.378C222.609 99.8061 222.585 99.2336 222.517 98.6656C222.422 97.9759 222.26 97.2973 222.033 96.6395C222.033 96.5947 221.961 96.6395 221.97 96.6395C222.186 97.5926 222.33 98.5605 222.4 99.5352C221.937 97.5487 221.323 95.6007 220.562 93.708C220.562 93.6961 220.558 93.6847 220.549 93.6763C220.541 93.6679 220.529 93.6632 220.517 93.6632C220.506 93.6632 220.494 93.6679 220.486 93.6763C220.477 93.6847 220.473 93.6961 220.473 93.708C221.064 96.0747 221.692 98.4325 222.194 100.817C222.696 103.202 223.09 105.595 223.503 107.989C223.503 108.079 223.664 108.052 223.655 107.989C223.55 105.575 223.229 103.174 222.696 100.817Z" fill="#263238"/>
<path d="M214.045 95.4652C214.054 95.6441 214.009 95.8216 213.916 95.9748C213.823 96.128 213.686 96.2499 213.524 96.3246C213.361 96.3994 213.179 96.4237 213.003 96.3943C212.826 96.365 212.662 96.2833 212.532 96.1599C212.402 96.0365 212.312 95.877 212.274 95.702C212.235 95.527 212.25 95.3445 212.317 95.1781C212.383 95.0116 212.498 94.8689 212.646 94.7682C212.794 94.6676 212.969 94.6137 213.148 94.6135C213.379 94.6132 213.6 94.7015 213.767 94.86C213.934 95.0186 214.033 95.2352 214.045 95.4652Z" fill="#263238"/>
<path d="M213.39 104.52C213.866 104.52 214.251 104.134 214.251 103.659C214.251 103.184 213.866 102.798 213.39 102.798C212.915 102.798 212.53 103.184 212.53 103.659C212.53 104.134 212.915 104.52 213.39 104.52Z" fill="#263238"/>
<path d="M208.604 118.854C209.079 118.854 209.464 118.469 209.464 117.994C209.464 117.518 209.079 117.133 208.604 117.133C208.128 117.133 207.743 117.518 207.743 117.994C207.743 118.469 208.128 118.854 208.604 118.854Z" fill="#263238"/>
<path d="M206.057 126.412C206.533 126.412 206.918 126.026 206.918 125.551C206.918 125.076 206.533 124.691 206.057 124.691C205.582 124.691 205.197 125.076 205.197 125.551C205.197 126.026 205.582 126.412 206.057 126.412Z" fill="#263238"/>
<path d="M212.324 111.862C212.799 111.862 213.185 111.477 213.185 111.001C213.185 110.526 212.799 110.141 212.324 110.141C211.849 110.141 211.463 110.526 211.463 111.001C211.463 111.477 211.849 111.862 212.324 111.862Z" fill="#263238"/>
<path d="M197.03 78.2347C175.721 78.3154 159.019 82.8426 155.146 87.6926C151.946 91.6909 142.031 109.208 137.844 119.876C136.67 122.871 160.57 133.584 161.422 130.249C162.748 125.085 173.632 100.082 173.748 99.6786C173.981 98.7821 195.38 90.0055 200.849 88.0243C210.881 84.2501 208.326 78.163 197.03 78.2347Z" fill="#FFBDA7"/>
<path d="M145.859 158.219C145.084 158.11 144.361 157.767 143.787 157.235C143.213 156.703 142.816 156.007 142.649 155.243C141.456 155.827 140.094 155.973 138.804 155.655C136.562 155.001 136.607 151.173 136.607 151.173C135.243 151.518 133.806 151.447 132.483 150.966C130.395 150.115 129.901 146.26 129.901 146.26C128.472 145.888 127.224 145.012 126.387 143.795C124.281 140.46 126.907 135.027 128.539 131.558C130.17 128.088 138.051 119.769 139.386 118.039L161.798 128.321C161.798 128.321 158.903 145.964 156.419 149.774C154.25 152.984 148.817 158.515 145.859 158.219Z" fill="#FFBDA7"/>
<path d="M143.08 155.252C146.137 152.383 148.181 148.761 150.422 145.265C150.467 145.184 150.35 145.103 150.296 145.184C148.109 148.689 145.249 151.72 142.927 155.126C142.911 155.146 142.903 155.172 142.905 155.198C142.908 155.224 142.921 155.248 142.941 155.265C142.961 155.282 142.987 155.29 143.013 155.287C143.039 155.285 143.063 155.272 143.08 155.252Z" fill="#263238"/>
<path d="M136.939 151.244C137.57 150.526 138.103 149.727 138.525 148.869C139.027 147.972 139.512 147.076 139.987 146.179C140.937 144.386 141.851 142.593 142.676 140.729C142.676 140.648 142.595 140.576 142.551 140.657C141.6 142.45 140.632 144.243 139.601 145.955C139.09 146.852 138.57 147.694 138.05 148.564C137.497 149.346 137.033 150.188 136.67 151.074C136.647 151.11 136.64 151.153 136.649 151.194C136.658 151.235 136.683 151.271 136.719 151.294C136.755 151.316 136.798 151.324 136.839 151.314C136.88 151.305 136.916 151.28 136.939 151.244Z" fill="#263238"/>
<path d="M129.937 146.197C130.5 145.54 130.946 144.791 131.255 143.983C131.676 143.158 132.089 142.333 132.519 141.509C133.415 139.868 134.213 138.227 135.128 136.614C135.137 136.597 135.14 136.577 135.135 136.559C135.13 136.54 135.118 136.525 135.101 136.515C135.084 136.506 135.064 136.503 135.046 136.508C135.028 136.513 135.012 136.525 135.002 136.542C134.106 138.174 133.12 139.787 132.205 141.437C131.757 142.235 131.309 143.051 130.869 143.857C130.402 144.561 130.059 145.341 129.856 146.161C129.856 146.161 129.91 146.224 129.937 146.197Z" fill="#263238"/>
<path d="M166.998 118.478L142.918 106.599C142.918 106.599 150.906 88.5891 155.756 85.0838C160.606 81.5786 181.252 77.912 196.286 78.0554C211.571 78.2078 212.198 84.2411 197.837 89.4676C183.475 94.6941 174.241 99.4545 174.16 99.8579C174.08 100.261 166.998 118.478 166.998 118.478Z" fill="#EBEBEB"/>
<path d="M168.334 115.699C169.383 113.189 174.286 100.001 174.448 99.8938C174.788 99.6786 180.284 97.0071 181.915 96.2092C183.296 95.5369 184.695 94.8914 186.093 94.2459C187.276 93.9949 188.469 93.7439 189.625 93.3494C189.639 93.3443 189.651 93.3352 189.659 93.3231C189.668 93.3111 189.672 93.2968 189.672 93.2822C189.672 93.2676 189.668 93.2533 189.659 93.2412C189.651 93.2292 189.639 93.2201 189.625 93.215C188.802 93.3249 187.988 93.4896 187.187 93.708L191.786 91.6013C191.786 91.6013 191.786 91.5385 191.786 91.5475C188.316 92.7578 174.098 99.069 174.071 99.2842C174.044 99.4993 168.244 115.107 168.208 115.421C168.145 115.591 168.307 115.77 168.334 115.699Z" fill="#263238"/>
<path d="M166.998 111.952C167.079 111.952 167.132 111.853 167.061 111.817C160.522 108.284 153.794 105.111 146.908 102.314C146.827 102.314 146.773 102.404 146.845 102.449C153.387 105.977 160.114 109.149 166.998 111.952Z" fill="#263238"/>
<path d="M208.316 79.6242C208.316 80.5207 211.006 87.1637 214.968 87.9795C216.268 88.2394 218.016 81.2289 218.016 81.2289L218.267 80.7448L221.728 73.9047L214.601 66.2846L213.552 65.2536C213.552 65.2536 212.736 67.181 211.759 69.6016C211.714 69.7091 211.66 69.8167 211.615 69.9422C211.571 70.0677 211.499 70.2022 211.445 70.3367C211.293 70.6953 211.131 71.0539 210.988 71.4304C210.845 71.8069 210.764 71.9772 210.656 72.3269L210.316 73.2233C209.51 75.311 208.842 77.4492 208.316 79.6242Z" fill="#FFBDA7"/>
<path d="M211.732 69.6016C211.948 71.822 212.644 73.969 213.772 75.8934C214.901 77.8177 216.435 79.4732 218.268 80.7448L221.728 73.9047L214.601 66.2846L213.552 65.2536C213.552 65.2536 212.736 67.181 211.732 69.6016Z" fill="#263238"/>
<path d="M233.929 60.4843C236.619 73.6537 229.035 76.7555 226.202 77.3293C223.62 77.8582 214.772 79.3195 210.728 66.4908C206.685 53.6621 211.966 48.2563 217.802 46.7681C223.638 45.28 231.24 47.315 233.929 60.4843Z" fill="#FFBDA7"/>
<path d="M229.501 67.8266C229.245 68.4412 228.838 68.9809 228.317 69.3954C228.022 69.6093 227.669 69.7281 227.304 69.7361C226.515 69.7361 226.309 69.0637 226.291 68.4451C226.283 68.117 226.313 67.7891 226.381 67.468C227.356 67.9162 228.449 68.0418 229.501 67.8266Z" fill="#263238"/>
<path d="M228.326 69.3954C228.031 69.6093 227.678 69.7281 227.313 69.7361C226.524 69.7361 226.318 69.0637 226.3 68.4451C226.696 68.3503 227.112 68.3927 227.48 68.5654C227.848 68.738 228.146 69.0307 228.326 69.3954Z" fill="#FF9BBC"/>
<path d="M230.765 57.2659C230.466 57.2826 230.167 57.2826 229.868 57.2659C229.542 57.3096 229.211 57.2433 228.927 57.0777C228.845 57.0098 228.788 56.9158 228.767 56.8114C228.746 56.707 228.761 56.5985 228.81 56.5039C228.929 56.3301 229.092 56.1917 229.283 56.1033C229.474 56.0149 229.686 55.9798 229.895 56.0019C230.329 55.9806 230.756 56.1176 231.096 56.3874C231.164 56.4582 231.211 56.547 231.231 56.6433C231.251 56.7396 231.243 56.8395 231.208 56.9314C231.173 57.0234 231.113 57.1036 231.035 57.1628C230.956 57.222 230.862 57.2578 230.765 57.2659Z" fill="#263238"/>
<path d="M222.329 60.2513C222.63 60.2372 222.929 60.2012 223.225 60.1437C223.547 60.1463 223.861 60.0458 224.122 59.8568C224.193 59.7789 224.237 59.6797 224.246 59.5745C224.256 59.4693 224.231 59.3638 224.175 59.2741C224.036 59.1155 223.858 58.9964 223.658 58.9287C223.458 58.861 223.244 58.8472 223.037 58.8886C222.604 58.9174 222.196 59.1022 221.889 59.4086C221.822 59.486 221.78 59.5819 221.768 59.6836C221.756 59.7854 221.775 59.8884 221.823 59.9792C221.87 60.0701 221.943 60.1446 222.034 60.1931C222.124 60.2416 222.227 60.2619 222.329 60.2513Z" fill="#263238"/>
<path d="M224.848 62.8062C224.848 62.8062 224.794 62.869 224.803 62.9048C225.036 63.8013 225.153 64.8412 224.409 65.3253C224.409 65.3253 224.409 65.3791 224.409 65.3702C225.386 65.0026 225.216 63.613 224.848 62.8062Z" fill="#263238"/>
<path d="M223.844 62.098C222.382 62.3131 222.947 65.2177 224.283 65.0115C225.619 64.8054 225.063 61.8738 223.844 62.098Z" fill="#263238"/>
<path d="M223.297 62.3221C223.072 62.5283 222.884 62.869 222.579 62.9586C222.275 63.0483 221.907 62.8062 221.62 62.5552C221.71 63.111 222.032 63.64 222.651 63.6131C223.27 63.5862 223.503 63.0214 223.548 62.4297C223.503 62.3669 223.386 62.2325 223.297 62.3221Z" fill="#263238"/>
<path d="M229.733 61.5602C229.733 61.5602 229.814 61.5601 229.814 61.6229C229.949 62.5194 230.262 63.5503 231.123 63.7027C230.11 63.7924 229.716 62.4387 229.733 61.5602Z" fill="#263238"/>
<path d="M230.397 60.4754C231.823 60.0988 232.459 62.9855 231.142 63.3262C229.824 63.6668 229.169 60.7802 230.397 60.4754Z" fill="#263238"/>
<path d="M231.016 60.5292C231.276 60.6278 231.563 60.8609 231.841 60.816C232.119 60.7712 232.325 60.4037 232.459 60.063C232.459 60.063 232.459 60.063 232.513 60.063C232.648 60.6098 232.594 61.2284 232.083 61.4525C231.572 61.6767 231.186 61.2553 230.908 60.7354C230.864 60.6636 230.908 60.4843 231.016 60.5292Z" fill="#263238"/>
<path d="M229.331 65.9081C229.331 65.9081 229.788 67.208 229.913 67.8445C229.913 67.9072 229.779 67.961 229.564 68.0148C229.04 68.2228 228.47 68.2826 227.915 68.1877C227.36 68.0928 226.841 67.8469 226.417 67.4769C226.403 67.4674 226.393 67.4526 226.389 67.4358C226.386 67.419 226.39 67.4015 226.399 67.3873C226.409 67.373 226.423 67.3631 226.44 67.3597C226.457 67.3564 226.474 67.3598 226.489 67.3693C227.405 67.7624 228.426 67.8443 229.393 67.6024C229.393 67.4231 228.542 65.3971 228.64 65.3702C229.137 65.304 229.641 65.304 230.137 65.3702C229.241 62.6807 227.968 60.054 227.143 57.3018C227.143 57.2032 227.26 57.1405 227.304 57.2212C228.78 59.9464 229.981 62.8113 230.89 65.7736C231.007 66.177 229.608 65.9619 229.331 65.9081Z" fill="#263238"/>
<path d="M211.902 68.1134C214.126 67.701 213.409 63.0214 213.409 63.0214C213.409 63.0214 217.828 61.856 217.604 55.1234C217.979 57.059 217.783 59.0617 217.039 60.8878C217.039 60.8878 224.606 58.0011 226.148 50.6141C226.148 50.6141 225.726 54.2807 224.812 55.7868C226.627 54.66 228.005 52.9498 228.72 50.9368C228.72 50.9368 231.087 54.3345 232.405 55.0875C232.405 55.0875 231.975 48.0232 228.218 45.3786C220.294 39.8114 212.62 48.9107 212.62 48.9107C212.62 48.9107 207.528 51.2685 206.793 55.8137C205.663 62.8242 211.902 68.1134 211.902 68.1134Z" fill="#263238"/>
<path d="M213.445 66.8494C213.445 66.8494 210.235 62.86 208.406 64.0254C206.578 65.1909 209.186 71.1256 211.472 71.798C211.759 71.9064 212.065 71.9557 212.371 71.9427C212.678 71.9297 212.978 71.8547 213.254 71.7223C213.531 71.5899 213.778 71.4029 213.98 71.1724C214.182 70.9419 214.336 70.6729 214.431 70.3815L213.445 66.8494Z" fill="#FFBDA7"/>
<path d="M209.195 65.6839V65.7377C210.809 66.2666 211.723 67.6652 212.405 69.1264C212.302 68.9767 212.169 68.8507 212.013 68.7571C211.858 68.6636 211.684 68.6046 211.504 68.5842C211.323 68.5637 211.141 68.5824 210.968 68.6388C210.796 68.6953 210.638 68.7882 210.504 68.9113C210.499 68.92 210.496 68.93 210.497 68.9401C210.497 68.9502 210.5 68.9601 210.506 68.9685C210.511 68.977 210.519 68.9836 210.528 68.9878C210.538 68.9919 210.548 68.9934 210.558 68.992C210.827 68.8874 211.123 68.8682 211.403 68.9372C211.684 69.0062 211.937 69.1599 212.127 69.3774C212.437 69.7472 212.71 70.1466 212.943 70.5698C213.023 70.7042 213.274 70.5698 213.212 70.4532C213.086 68.4541 211.347 65.7646 209.195 65.6839Z" fill="#263238"/>
<path d="M217.999 81.3634L214.261 86.572L208.882 77.5085L206.273 79.3553C206.273 79.3553 210.468 92.695 210.639 92.184L214.225 87.7822L216.825 92.0854L218.671 83.3088L217.999 81.3634Z" fill="#EBEBEB"/>
<path d="M217.972 87.8002C218.223 86.3389 218.527 84.8777 218.716 83.4074C218.716 83.4074 218.644 83.3178 218.617 83.4074C217.99 84.7253 217.039 90.3104 216.717 91.6282C216.609 91.4399 214.269 87.7912 214.224 87.8361C213.516 88.4995 210.88 91.6999 210.683 92.0047C210.02 89.88 207.402 82.1434 206.515 80.0635C206.515 80.0098 206.398 80.0635 206.416 80.0635C206.918 82.2599 210.351 92.6681 210.441 92.6681C211.782 91.1803 213.044 89.6243 214.224 88.0064C215.016 89.5899 215.914 91.1175 216.914 92.5785C217.348 91.0048 217.701 89.41 217.972 87.8002Z" fill="#263238"/>
<path d="M209.267 77.5355C208.622 76.0114 206.882 79.2209 208.263 81.1214C210.307 83.8826 214.171 87.1547 215.023 87.1727C215.874 87.1906 218.608 83.775 218.958 83.0309C219.308 82.2868 218.537 80.6194 218.268 80.7807C217.999 80.9421 215.632 84.5729 215.3 84.7432C214.969 84.9135 210.675 80.8076 209.267 77.5355Z" fill="#437BFA"/>
<path d="M80.2986 365.97H39.7417V374.935H80.2986V365.97Z" fill="#437BFA"/>
<g opacity="0.1">
<path d="M41.4171 366.786C42.0147 369.14 42.0147 371.605 41.4171 373.958C41.0955 372.791 40.9445 371.583 40.9688 370.372C40.9503 369.162 41.1012 367.955 41.4171 366.786Z" fill="black"/>
<path d="M44.4385 366.786C45.0361 369.14 45.0361 371.605 44.4385 373.958C43.8408 371.605 43.8408 369.14 44.4385 366.786Z" fill="black"/>
<path d="M45.9092 366.786C46.5068 369.14 46.5068 371.605 45.9092 373.958C45.3115 371.605 45.3115 369.14 45.9092 366.786Z" fill="black"/>
<path d="M54.0127 366.786C54.6104 369.14 54.6104 371.605 54.0127 373.958C53.415 371.605 53.415 369.14 54.0127 366.786Z" fill="black"/>
<path d="M56.2002 366.786C56.5161 367.955 56.667 369.162 56.6484 370.372C56.6728 371.583 56.5218 372.791 56.2002 373.958C55.6025 371.605 55.6025 369.14 56.2002 366.786Z" fill="black"/>
<path d="M65.2638 366.786C65.5753 367.956 65.7261 369.162 65.712 370.372C65.7316 371.583 65.5807 372.79 65.2638 373.958C64.9421 372.791 64.7912 371.583 64.8155 370.372C64.797 369.162 64.9479 367.955 65.2638 366.786Z" fill="black"/>
<path d="M67.3521 366.786C67.9497 369.14 67.9497 371.605 67.3521 373.958C66.7544 371.605 66.7544 369.14 67.3521 366.786Z" fill="black"/>
<path d="M71.1985 366.786C71.5143 367.955 71.6652 369.162 71.6467 370.372C71.6711 371.583 71.5201 372.791 71.1985 373.958C70.8815 372.79 70.7306 371.583 70.7502 370.372C70.7362 369.162 70.887 367.956 71.1985 366.786Z" fill="black"/>
<path d="M63.5156 366.786C64.1133 369.14 64.1133 371.605 63.5156 373.958C62.918 371.605 62.918 369.14 63.5156 366.786Z" fill="black"/>
<path d="M48.5895 366.786C48.9009 367.956 49.0517 369.162 49.0377 370.372C49.0573 371.583 48.9064 372.79 48.5895 373.958C48.2678 372.791 48.1169 371.583 48.1412 370.372C48.1227 369.162 48.2736 367.955 48.5895 366.786Z" fill="black"/>
<path d="M59.0869 366.786C59.6846 369.14 59.6846 371.605 59.0869 373.958C58.4893 371.605 58.4893 369.14 59.0869 366.786Z" fill="black"/>
<path d="M60.5933 366.786C60.9091 367.955 61.06 369.162 61.0415 370.372C61.0659 371.583 60.9149 372.791 60.5933 373.958C59.9956 371.605 59.9956 369.14 60.5933 366.786Z" fill="black"/>
<path d="M76.2009 366.786C76.5124 367.956 76.6632 369.162 76.6491 370.372C76.6735 371.583 76.5225 372.791 76.2009 373.958C75.884 372.79 75.7331 371.583 75.7527 370.372C75.7386 369.162 75.8894 367.956 76.2009 366.786Z" fill="black"/>
<path d="M78.4785 366.786C79.0762 369.14 79.0762 371.605 78.4785 373.958C77.8809 371.605 77.8809 369.14 78.4785 366.786Z" fill="black"/>
<path d="M72.9824 366.786C73.2983 367.955 73.4492 369.162 73.4307 370.372C73.455 371.583 73.304 372.791 72.9824 373.958C72.3848 371.605 72.3848 369.14 72.9824 366.786Z" fill="black"/>
<path d="M52.2646 366.786C52.8623 369.14 52.8623 371.605 52.2646 373.958C51.667 371.605 51.667 369.14 52.2646 366.786Z" fill="black"/>
</g>
<path opacity="0.1" d="M80.2986 365.97V367.871L39.7417 369.153V365.97H80.2986Z" fill="black"/>
<path d="M77.5281 357.006H36.9712V365.97H77.5281V357.006Z" fill="#437BFA"/>
<g opacity="0.1">
<path d="M38.6387 357.83C39.2363 360.184 39.2363 362.649 38.6387 365.002C38.041 362.649 38.041 360.184 38.6387 357.83Z" fill="black"/>
<path d="M41.6606 357.831C42.2583 360.184 42.2583 362.649 41.6606 365.002C41.063 362.649 41.063 360.184 41.6606 357.831Z" fill="black"/>
<path d="M43.14 357.831C43.452 359 43.6028 360.206 43.5882 361.417C43.6067 362.627 43.4559 363.834 43.14 365.002C42.8197 363.835 42.6687 362.627 42.6917 361.417C42.6726 360.206 42.8235 358.999 43.14 357.831Z" fill="black"/>
<path d="M51.2349 357.831C51.8325 360.184 51.8325 362.649 51.2349 365.002C50.6372 362.649 50.6372 360.184 51.2349 357.831Z" fill="black"/>
<path d="M53.431 357.831C54.0286 360.184 54.0286 362.649 53.431 365.002C53.1107 363.835 52.9598 362.627 52.9827 361.417C52.9636 360.206 53.1145 358.999 53.431 357.831Z" fill="black"/>
<path d="M62.4858 357.831C63.0835 360.184 63.0835 362.649 62.4858 365.002C61.8882 362.649 61.8882 360.184 62.4858 357.831Z" fill="black"/>
<path d="M64.5472 357.831C64.8592 359 65.0101 360.206 64.9954 361.417C65.0184 362.627 64.8675 363.835 64.5472 365.002C64.2269 363.835 64.076 362.627 64.099 361.417C64.0844 360.206 64.2352 359 64.5472 357.831Z" fill="black"/>
<path d="M68.4292 357.831C69.0269 360.184 69.0269 362.649 68.4292 365.002C67.8315 362.649 67.8315 360.184 68.4292 357.831Z" fill="black"/>
<path d="M60.7378 357.831C61.3354 360.184 61.3354 362.649 60.7378 365.002C60.1401 362.649 60.1401 360.184 60.7378 357.831Z" fill="black"/>
<path d="M45.8198 357.831C46.4175 360.184 46.4175 362.649 45.8198 365.002C45.2222 362.649 45.2222 360.184 45.8198 357.831Z" fill="black"/>
<path d="M56.3091 357.831C56.9067 360.184 56.9067 362.649 56.3091 365.002C55.7114 362.649 55.7114 360.184 56.3091 357.831Z" fill="black"/>
<path d="M57.8241 357.831C58.4217 360.184 58.4217 362.649 57.8241 365.002C57.5038 363.835 57.3528 362.627 57.3758 361.417C57.3567 360.206 57.5076 358.999 57.8241 357.831Z" fill="black"/>
<path d="M73.4404 357.831C74.0381 360.184 74.0381 362.649 73.4404 365.002C72.8428 362.649 72.8428 360.184 73.4404 357.831Z" fill="black"/>
<path d="M75.6997 357.831C76.2974 360.184 76.2974 362.649 75.6997 365.002C75.1021 362.649 75.1021 360.184 75.6997 357.831Z" fill="black"/>
<path d="M70.2132 357.831C70.8109 360.184 70.8109 362.649 70.2132 365.002C69.8929 363.835 69.742 362.627 69.765 361.417C69.7459 360.206 69.8968 358.999 70.2132 357.831Z" fill="black"/>
<path d="M49.4864 357.831C49.8028 358.999 49.9537 360.206 49.9346 361.417C49.9576 362.627 49.8067 363.835 49.4864 365.002C49.1705 363.834 49.0196 362.627 49.0381 361.417C49.0235 360.206 49.1743 359 49.4864 357.831Z" fill="black"/>
</g>
<path opacity="0.1" d="M77.5192 357.006V358.915L36.9712 360.188V357.006H77.5192Z" fill="black"/>
<path d="M83.7947 339.157H43.2378V348.121H83.7947V339.157Z" fill="#437BFA"/>
<g opacity="0.1">
<path d="M44.9048 340.009C45.5024 342.362 45.5024 344.827 44.9048 347.18C44.3071 344.827 44.3071 342.362 44.9048 340.009Z" fill="black"/>
<path d="M47.9258 340.009C48.2422 341.177 48.3931 342.384 48.374 343.594C48.397 344.805 48.2461 346.013 47.9258 347.18C47.3281 344.827 47.3281 342.362 47.9258 340.009Z" fill="black"/>
<path d="M49.4051 340.009C50.0028 342.362 50.0028 344.827 49.4051 347.18C49.0848 346.013 48.9339 344.805 48.9569 343.594C48.9378 342.384 49.0887 341.177 49.4051 340.009Z" fill="black"/>
<path d="M57.5005 340.009C58.0981 342.362 58.0981 344.827 57.5005 347.18C56.9028 344.827 56.9028 342.362 57.5005 340.009Z" fill="black"/>
<path d="M59.6973 340.009C60.2949 342.362 60.2949 344.827 59.6973 347.18C59.0996 344.827 59.0996 342.362 59.6973 340.009Z" fill="black"/>
<path d="M68.751 340.009C69.3486 342.362 69.3486 344.827 68.751 347.18C68.1533 344.827 68.1533 342.362 68.751 340.009Z" fill="black"/>
<path d="M70.8221 340.009C71.4198 342.362 71.4198 344.827 70.8221 347.18C70.5018 346.013 70.3509 344.805 70.3739 343.594C70.3548 342.384 70.5056 341.177 70.8221 340.009Z" fill="black"/>
<path d="M74.6948 340.009C75.2925 342.362 75.2925 344.827 74.6948 347.18C74.0972 344.827 74.0972 342.362 74.6948 340.009Z" fill="black"/>
<path d="M67.003 340.009C67.3194 341.177 67.4703 342.384 67.4512 343.594C67.4742 344.805 67.3233 346.013 67.003 347.18C66.6871 346.012 66.5362 344.805 66.5547 343.594C66.5401 342.384 66.6909 341.178 67.003 340.009Z" fill="black"/>
<path d="M52.0771 340.009C52.6748 342.362 52.6748 344.827 52.0771 347.18C51.4795 344.827 51.4795 342.362 52.0771 340.009Z" fill="black"/>
<path d="M62.5742 340.009C63.1719 342.362 63.1719 344.827 62.5742 347.18C61.9766 344.827 61.9766 342.362 62.5742 340.009Z" fill="black"/>
<path d="M64.0894 340.009C64.687 342.362 64.687 344.827 64.0894 347.18C63.4917 344.827 63.4917 342.362 64.0894 340.009Z" fill="black"/>
<path d="M79.7061 340.009C80.2918 342.363 80.2918 344.826 79.7061 347.18C79.1084 344.827 79.1084 342.362 79.7061 340.009Z" fill="black"/>
<path d="M81.9653 340.009C82.2818 341.177 82.4327 342.384 82.4136 343.594C82.4366 344.805 82.2856 346.013 81.9653 347.18C81.3677 344.827 81.3677 342.362 81.9653 340.009Z" fill="black"/>
<path d="M76.479 340.009C77.0767 342.362 77.0767 344.827 76.479 347.18C75.8813 344.827 75.8813 342.362 76.479 340.009Z" fill="black"/>
<path d="M55.7525 340.009C56.0645 341.178 56.2153 342.384 56.2007 343.594C56.2237 344.805 56.0728 346.013 55.7525 347.18C55.4366 346.012 55.2857 344.805 55.3043 343.594C55.2896 342.384 55.4405 341.178 55.7525 340.009Z" fill="black"/>
</g>
<path opacity="0.1" d="M83.7858 339.166V341.066L43.2378 342.348V339.166H83.7858Z" fill="black"/>
<path d="M82.7728 330.201H42.2158V339.166H82.7728V330.201Z" fill="#437BFA"/>
<g opacity="0.1">
<path d="M80.9437 338.216C80.6311 337.046 80.4803 335.84 80.4954 334.63C80.4725 333.419 80.6234 332.211 80.9437 331.044C81.264 332.211 81.4149 333.419 81.3919 334.63C81.4071 335.84 81.2563 337.046 80.9437 338.216Z" fill="black"/>
<path d="M77.9224 338.216C77.6098 337.046 77.459 335.84 77.4742 334.63C77.4557 333.419 77.6065 332.212 77.9224 331.044C78.2427 332.211 78.3936 333.419 78.3707 334.63C78.3902 335.84 78.2393 337.047 77.9224 338.216Z" fill="black"/>
<path d="M76.4432 338.216C75.8575 335.861 75.8575 333.398 76.4432 331.044C77.0409 333.397 77.0409 335.862 76.4432 338.216Z" fill="black"/>
<path d="M68.3477 338.216C68.0351 337.046 67.8843 335.84 67.8995 334.63C67.881 333.419 68.0318 332.212 68.3477 331.044C68.668 332.211 68.8189 333.419 68.796 334.63C68.8111 335.84 68.6603 337.046 68.3477 338.216Z" fill="black"/>
<path d="M66.1602 338.216C65.5625 335.862 65.5625 333.397 66.1602 331.044C66.7578 333.397 66.7578 335.862 66.1602 338.216Z" fill="black"/>
<path d="M57.097 338.216C56.7844 337.046 56.6336 335.84 56.6488 334.63C56.6258 333.419 56.7767 332.211 57.097 331.044C57.4129 332.212 57.5638 333.419 57.5452 334.63C57.5604 335.84 57.4096 337.046 57.097 338.216Z" fill="black"/>
<path d="M54.999 338.216C54.4014 335.862 54.4014 333.397 54.999 331.044C55.5967 333.397 55.5967 335.862 54.999 338.216Z" fill="black"/>
<path d="M51.1626 338.216C50.5649 335.862 50.5649 333.397 51.1626 331.044C51.7603 333.397 51.7603 335.862 51.1626 338.216Z" fill="black"/>
<path d="M58.8447 338.216C58.2471 335.862 58.2471 333.397 58.8447 331.044C59.165 332.211 59.316 333.419 59.293 334.63C59.3125 335.84 59.1617 337.047 58.8447 338.216Z" fill="black"/>
<path d="M73.7713 338.216C73.4544 337.047 73.3035 335.84 73.3231 334.63C73.3001 333.419 73.4511 332.211 73.7713 331.044C74.0872 332.212 74.2381 333.419 74.2196 334.63C74.2347 335.84 74.0839 337.046 73.7713 338.216Z" fill="black"/>
<path d="M63.274 338.216C62.9614 337.046 62.8106 335.84 62.8257 334.63C62.8072 333.419 62.9581 332.212 63.274 331.044C63.5942 332.211 63.7452 333.419 63.7222 334.63C63.7374 335.84 63.5866 337.046 63.274 338.216Z" fill="black"/>
<path d="M61.7671 338.216C61.1694 335.862 61.1694 333.397 61.7671 331.044C62.3647 333.397 62.3647 335.862 61.7671 338.216Z" fill="black"/>
<path d="M46.1509 338.216C45.5532 335.862 45.5532 333.397 46.1509 331.044C46.7485 333.397 46.7485 335.862 46.1509 338.216Z" fill="black"/>
<path d="M43.9273 338.216C43.6147 337.046 43.4639 335.84 43.4791 334.63C43.4605 333.419 43.6114 332.212 43.9273 331.044C44.2476 332.211 44.3985 333.419 44.3755 334.63C44.3951 335.84 44.2442 337.047 43.9273 338.216Z" fill="black"/>
<path d="M49.3779 338.216C48.7803 335.862 48.7803 333.397 49.3779 331.044C49.9756 333.397 49.9756 335.862 49.3779 338.216Z" fill="black"/>
<path d="M70.0957 338.216C69.498 335.862 69.498 333.397 70.0957 331.044C70.6934 333.397 70.6934 335.862 70.0957 338.216Z" fill="black"/>
</g>
<path opacity="0.1" d="M82.7638 330.201V332.101L42.2158 333.383V330.201H82.7638Z" fill="black"/>
<path d="M80.2986 321.236H39.7417V330.201H80.2986V321.236Z" fill="#437BFA"/>
<g opacity="0.1">
<path d="M41.4178 322.079C41.7304 323.248 41.8812 324.454 41.866 325.664C41.8846 326.875 41.7337 328.082 41.4178 329.25C41.0975 328.083 40.9466 326.875 40.9696 325.664C40.95 324.454 41.1009 323.247 41.4178 322.079Z" fill="black"/>
<path d="M44.4388 322.078C45.0365 324.431 45.0365 326.897 44.4388 329.25C44.1185 328.082 43.9676 326.875 43.9906 325.664C43.971 324.454 44.1219 323.247 44.4388 322.078Z" fill="black"/>
<path d="M45.9092 322.078C46.5068 324.431 46.5068 326.897 45.9092 329.25C45.3115 326.897 45.3115 324.431 45.9092 322.078Z" fill="black"/>
<path d="M54.013 322.078C54.6107 324.431 54.6107 326.897 54.013 329.25C53.6928 328.082 53.5418 326.875 53.5648 325.664C53.5452 324.454 53.6961 323.247 54.013 322.078Z" fill="black"/>
<path d="M56.2007 322.078C56.7983 324.431 56.7983 326.897 56.2007 329.25C55.603 326.897 55.603 324.431 56.2007 322.078Z" fill="black"/>
<path d="M65.264 322.078C65.5766 323.247 65.7274 324.454 65.7122 325.664C65.7308 326.874 65.5799 328.081 65.264 329.25C64.9437 328.082 64.7928 326.875 64.8158 325.664C64.8006 324.454 64.9514 323.247 65.264 322.078Z" fill="black"/>
<path d="M67.3529 322.078C67.9505 324.431 67.9505 326.897 67.3529 329.25C66.7671 326.895 66.7671 324.433 67.3529 322.078Z" fill="black"/>
<path d="M71.1987 322.078C71.7964 324.431 71.7964 326.897 71.1987 329.25C70.6011 326.897 70.6011 324.431 71.1987 322.078Z" fill="black"/>
<path d="M63.5161 322.078C64.1138 324.431 64.1138 326.897 63.5161 329.25C62.9185 326.897 62.9185 324.431 63.5161 322.078Z" fill="black"/>
<path d="M48.5899 322.078C48.9025 323.247 49.0533 324.454 49.0381 325.664C49.0611 326.875 48.9102 328.082 48.5899 329.25C48.274 328.081 48.1231 326.874 48.1417 325.664C48.1265 324.454 48.2773 323.247 48.5899 322.078Z" fill="black"/>
<path d="M59.0872 322.078C59.3998 323.247 59.5507 324.454 59.5355 325.664C59.554 326.874 59.4031 328.081 59.0872 329.25C58.767 328.082 58.616 326.875 58.639 325.664C58.6194 324.454 58.7703 323.247 59.0872 322.078Z" fill="black"/>
<path d="M60.5933 322.078C61.1909 324.431 61.1909 326.897 60.5933 329.25C59.9956 326.897 59.9956 324.431 60.5933 322.078Z" fill="black"/>
<path d="M76.2012 322.078C76.5181 323.247 76.669 324.454 76.6494 325.664C76.6724 326.875 76.5214 328.082 76.2012 329.25C75.6035 326.897 75.6035 324.431 76.2012 322.078Z" fill="black"/>
<path d="M78.4779 322.078C79.0755 324.431 79.0755 326.897 78.4779 329.25C78.1576 328.082 78.0066 326.875 78.0296 325.664C78.01 324.454 78.1609 323.247 78.4779 322.078Z" fill="black"/>
<path d="M72.9824 322.078C73.5801 324.431 73.5801 326.897 72.9824 329.25C72.3848 326.897 72.3848 324.431 72.9824 322.078Z" fill="black"/>
<path d="M52.2651 322.078C52.8628 324.431 52.8628 326.897 52.2651 329.25C51.6675 326.897 51.6675 324.431 52.2651 322.078Z" fill="black"/>
</g>
<path opacity="0.1" d="M80.2986 321.236V323.145L39.7417 324.418V321.236H80.2986Z" fill="black"/>
<path d="M80.2986 348.121H39.7417V357.086H80.2986V348.121Z" fill="#437BFA"/>
<g opacity="0.1">
<path d="M78.4782 356.145C77.879 353.792 77.879 351.326 78.4782 348.973C79.0774 351.326 79.0774 353.792 78.4782 356.145Z" fill="black"/>
<path d="M75.4566 356.145C75.1397 354.977 74.9888 353.77 75.0084 352.559C74.984 351.349 75.135 350.141 75.4566 348.973C75.7739 350.142 75.9248 351.349 75.9049 352.559C75.9201 353.769 75.7692 354.976 75.4566 356.145Z" fill="black"/>
<path d="M73.9777 356.145C73.3785 353.792 73.3785 351.326 73.9777 348.973C74.5769 351.326 74.5769 353.792 73.9777 356.145Z" fill="black"/>
<path d="M65.8824 356.145C65.5655 354.977 65.4146 353.77 65.4342 352.559C65.4098 351.349 65.5608 350.141 65.8824 348.973C66.4816 351.326 66.4816 353.792 65.8824 356.145Z" fill="black"/>
<path d="M63.6501 356.145C63.0509 353.792 63.0509 351.326 63.6501 348.973C64.2492 351.326 64.2492 353.792 63.6501 356.145Z" fill="black"/>
<path d="M54.631 356.145C54.0318 353.792 54.0318 351.326 54.631 348.973C55.2302 351.326 55.2302 353.792 54.631 356.145Z" fill="black"/>
<path d="M52.5339 356.145C51.9347 353.792 51.9347 351.326 52.5339 348.973C52.8555 350.141 53.0065 351.349 52.9821 352.559C53.0017 353.77 52.8508 354.977 52.5339 356.145Z" fill="black"/>
<path d="M48.6882 356.145C48.089 353.792 48.089 351.326 48.6882 348.973C49.2873 351.326 49.2873 353.792 48.6882 356.145Z" fill="black"/>
<path d="M56.3795 356.145C56.0669 354.976 55.9161 353.769 55.9313 352.559C55.9069 351.349 56.0579 350.141 56.3795 348.973C56.6968 350.142 56.8477 351.349 56.8277 352.559C56.8429 353.769 56.6921 354.976 56.3795 356.145Z" fill="black"/>
<path d="M71.3058 356.145C70.7067 353.792 70.7067 351.326 71.3058 348.973C71.905 351.326 71.905 353.792 71.3058 356.145Z" fill="black"/>
<path d="M60.8082 356.145C60.4913 354.977 60.3404 353.77 60.36 352.559C60.3356 351.349 60.4866 350.141 60.8082 348.973C61.4074 351.326 61.4074 353.792 60.8082 356.145Z" fill="black"/>
<path d="M59.2936 356.145C58.6944 353.792 58.6944 351.326 59.2936 348.973C59.8928 351.326 59.8928 353.792 59.2936 356.145Z" fill="black"/>
<path d="M43.6852 356.145C43.086 353.792 43.086 351.326 43.6852 348.973C44.2844 351.326 44.2844 353.792 43.6852 356.145Z" fill="black"/>
<path d="M41.4171 356.145C41.1002 354.977 40.9493 353.77 40.9688 352.559C40.9445 351.349 41.0955 350.141 41.4171 348.973C41.7344 350.142 41.8853 351.349 41.8653 352.559C41.8805 353.769 41.7297 354.976 41.4171 356.145Z" fill="black"/>
<path d="M46.9035 356.145C46.3043 353.792 46.3043 351.326 46.9035 348.973C47.5027 351.326 47.5027 353.792 46.9035 356.145Z" fill="black"/>
<path d="M67.6302 356.145C67.3176 354.976 67.1668 353.769 67.1819 352.559C67.162 351.349 67.3129 350.142 67.6302 348.973C67.9518 350.141 68.1028 351.349 68.0784 352.559C68.0936 353.769 67.9428 354.976 67.6302 356.145Z" fill="black"/>
</g>
<path opacity="0.1" d="M80.2986 348.121V350.022L39.7417 351.304V348.121H80.2986Z" fill="black"/>
<path d="M120.855 375.715H80.2983V384.68H120.855V375.715Z" fill="#437BFA"/>
<g opacity="0.1">
<path d="M81.9753 376.54C82.5744 378.893 82.5744 381.359 81.9753 383.712C81.3761 381.359 81.3761 378.893 81.9753 376.54Z" fill="black"/>
<path d="M84.9963 376.54C85.5954 378.893 85.5954 381.359 84.9963 383.712C84.3971 381.359 84.3971 378.893 84.9963 376.54Z" fill="black"/>
<path d="M86.467 376.54C86.7842 377.708 86.9351 378.915 86.9152 380.126C86.9396 381.336 86.7886 382.544 86.467 383.712C85.8678 381.359 85.8678 378.893 86.467 376.54Z" fill="black"/>
<path d="M94.5705 376.54C95.1697 378.893 95.1697 381.359 94.5705 383.712C93.9713 381.359 93.9713 378.893 94.5705 376.54Z" fill="black"/>
<path d="M96.758 376.54C97.0753 377.708 97.2262 378.915 97.2063 380.126C97.2306 381.336 97.0797 382.544 96.758 383.712C96.4411 382.543 96.2902 381.336 96.3098 380.126C96.2944 378.916 96.4452 377.709 96.758 376.54Z" fill="black"/>
<path d="M105.786 376.54C106.385 378.893 106.385 381.359 105.786 383.712C105.187 381.359 105.187 378.893 105.786 376.54Z" fill="black"/>
<path d="M107.911 376.54C108.51 378.893 108.51 381.359 107.911 383.712C107.312 381.359 107.312 378.893 107.911 376.54Z" fill="black"/>
<path d="M111.757 376.54C112.069 377.709 112.22 378.916 112.205 380.126C112.229 381.336 112.078 382.544 111.757 383.712C111.44 382.543 111.289 381.336 111.308 380.126C111.293 378.916 111.444 377.709 111.757 376.54Z" fill="black"/>
<path d="M104.073 376.54C104.661 378.894 104.661 381.357 104.073 383.712C103.474 381.359 103.474 378.893 104.073 376.54Z" fill="black"/>
<path d="M89.1466 376.54C89.7458 378.893 89.7458 381.359 89.1466 383.712C88.825 382.544 88.674 381.336 88.6983 380.126C88.6784 378.915 88.8293 377.708 89.1466 376.54Z" fill="black"/>
<path d="M99.6447 376.54C100.244 378.893 100.244 381.359 99.6447 383.712C99.0455 381.359 99.0455 378.893 99.6447 376.54Z" fill="black"/>
<path d="M101.151 376.54C101.468 377.708 101.619 378.915 101.599 380.126C101.624 381.336 101.473 382.544 101.151 383.712C100.834 382.543 100.683 381.336 100.703 380.126C100.687 378.916 100.838 377.709 101.151 376.54Z" fill="black"/>
<path d="M116.768 376.54C117.08 377.709 117.231 378.916 117.216 380.126C117.235 381.336 117.085 382.543 116.768 383.712C116.446 382.544 116.295 381.336 116.319 380.126C116.299 378.915 116.45 377.708 116.768 376.54Z" fill="black"/>
<path d="M119.035 376.54C119.634 378.893 119.634 381.359 119.035 383.712C118.436 381.359 118.436 378.893 119.035 376.54Z" fill="black"/>
<path d="M113.54 376.54C113.858 377.708 114.008 378.915 113.989 380.126C114.013 381.336 113.862 382.544 113.54 383.712C113.223 382.543 113.072 381.336 113.092 380.126C113.077 378.916 113.227 377.709 113.54 376.54Z" fill="black"/>
<path d="M92.8136 376.54C93.4128 378.893 93.4128 381.359 92.8136 383.712C92.2145 381.359 92.2145 378.893 92.8136 376.54Z" fill="black"/>
</g>
<path opacity="0.1" d="M120.855 375.715V377.616L80.2983 378.898V375.715H120.855Z" fill="black"/>
<path d="M127.651 366.75H87.0938V375.715H127.651V366.75Z" fill="#437BFA"/>
<g opacity="0.1">
<path d="M88.7524 367.575C89.3501 369.928 89.3501 372.394 88.7524 374.747C88.1548 372.394 88.1548 369.928 88.7524 367.575Z" fill="black"/>
<path d="M91.7822 367.575C92.3799 369.928 92.3799 372.394 91.7822 374.747C91.1846 372.394 91.1846 369.928 91.7822 367.575Z" fill="black"/>
<path d="M93.2348 367.575C93.8324 369.928 93.8324 372.394 93.2348 374.747C92.914 373.579 92.7631 372.372 92.7866 371.161C92.7674 369.951 92.9183 368.743 93.2348 367.575Z" fill="black"/>
<path d="M101.356 367.575C101.954 369.928 101.954 372.394 101.356 374.747C100.759 372.394 100.759 369.928 101.356 367.575Z" fill="black"/>
<path d="M103.554 367.575C104.151 369.928 104.151 372.394 103.554 374.747C102.956 372.394 102.956 369.928 103.554 367.575Z" fill="black"/>
<path d="M112.607 367.575C113.205 369.928 113.205 372.394 112.607 374.747C112.01 372.394 112.01 369.928 112.607 367.575Z" fill="black"/>
<path d="M114.75 367.575C115.062 368.744 115.213 369.951 115.198 371.161C115.217 372.371 115.066 373.578 114.75 374.747C114.429 373.579 114.278 372.372 114.302 371.161C114.283 369.951 114.433 368.743 114.75 367.575Z" fill="black"/>
<path d="M118.551 367.575C119.149 369.928 119.149 372.394 118.551 374.747C117.954 372.394 117.954 369.928 118.551 367.575Z" fill="black"/>
<path d="M110.859 367.575C111.176 368.743 111.327 369.951 111.308 371.161C111.331 372.372 111.18 373.579 110.859 374.747C110.262 372.394 110.262 369.928 110.859 367.575Z" fill="black"/>
<path d="M95.9243 367.575C96.522 369.928 96.522 372.394 95.9243 374.747C95.3267 372.394 95.3267 369.928 95.9243 367.575Z" fill="black"/>
<path d="M106.431 367.575C107.028 369.928 107.028 372.394 106.431 374.747C105.833 372.394 105.833 369.928 106.431 367.575Z" fill="black"/>
<path d="M107.946 367.575C108.543 369.928 108.543 372.394 107.946 374.747C107.348 372.394 107.348 369.928 107.946 367.575Z" fill="black"/>
<path d="M123.563 367.575C124.161 369.928 124.161 372.394 123.563 374.747C122.965 372.394 122.965 369.928 123.563 367.575Z" fill="black"/>
<path d="M125.821 367.575C126.419 369.928 126.419 372.394 125.821 374.747C125.224 372.394 125.224 369.928 125.821 367.575Z" fill="black"/>
<path d="M120.335 367.575C120.933 369.928 120.933 372.394 120.335 374.747C119.737 372.394 119.737 369.928 120.335 367.575Z" fill="black"/>
<path d="M99.609 367.575C99.9255 368.743 100.076 369.951 100.057 371.161C100.081 372.372 99.9298 373.579 99.609 374.747C99.2926 373.578 99.1417 372.371 99.1608 371.161C99.1462 369.951 99.297 368.744 99.609 367.575Z" fill="black"/>
</g>
<path opacity="0.1" d="M127.642 366.75V368.66L87.0938 369.942V366.75H127.642Z" fill="black"/>
<path d="M124.253 357.866H83.6958V366.831H124.253V357.866Z" fill="#437BFA"/>
<g opacity="0.1">
<path d="M122.433 365.854C121.834 363.5 121.834 361.035 122.433 358.682C123.032 361.035 123.032 363.5 122.433 365.854Z" fill="black"/>
<path d="M119.412 365.854C119.094 364.685 118.944 363.478 118.963 362.268C118.939 361.057 119.09 359.849 119.412 358.682C120.011 361.035 120.011 363.5 119.412 365.854Z" fill="black"/>
<path d="M117.933 365.854C117.334 363.5 117.334 361.035 117.933 358.682C118.254 359.849 118.405 361.057 118.381 362.268C118.401 363.478 118.25 364.685 117.933 365.854Z" fill="black"/>
<path d="M109.837 365.854C109.238 363.5 109.238 361.035 109.837 358.682C110.436 361.035 110.436 363.5 109.837 365.854Z" fill="black"/>
<path d="M107.641 365.854C107.042 363.5 107.042 361.035 107.641 358.682C108.24 361.035 108.24 363.5 107.641 365.854Z" fill="black"/>
<path d="M98.613 365.854C98.0138 363.5 98.0138 361.035 98.613 358.682C99.2121 361.035 99.2121 363.5 98.613 365.854Z" fill="black"/>
<path d="M96.4885 365.854C96.1757 364.684 96.0249 363.478 96.0403 362.268C96.0207 361.057 96.1716 359.85 96.4885 358.682C96.8101 359.849 96.9611 361.057 96.9367 362.268C96.9567 363.478 96.8058 364.685 96.4885 365.854Z" fill="black"/>
<path d="M92.6423 365.854C92.0431 363.5 92.0431 361.035 92.6423 358.682C93.2414 361.035 93.2414 363.5 92.6423 365.854Z" fill="black"/>
<path d="M100.335 365.854C100.017 364.685 99.8664 363.478 99.8863 362.268C99.862 361.057 100.013 359.849 100.335 358.682C100.651 359.85 100.802 361.057 100.783 362.268C100.798 363.478 100.647 364.684 100.335 365.854Z" fill="black"/>
<path d="M115.261 365.854C114.662 363.5 114.662 361.035 115.261 358.682C115.86 361.035 115.86 363.5 115.261 365.854Z" fill="black"/>
<path d="M104.763 365.854C104.164 363.5 104.164 361.035 104.763 358.682C105.363 361.035 105.363 363.5 104.763 365.854Z" fill="black"/>
<path d="M103.248 365.854C102.649 363.5 102.649 361.035 103.248 358.682C103.847 361.035 103.847 363.5 103.248 365.854Z" fill="black"/>
<path d="M87.6315 365.854C87.0323 363.5 87.0323 361.035 87.6315 358.682C88.2307 361.035 88.2307 363.5 87.6315 365.854Z" fill="black"/>
<path d="M85.3722 365.854C85.0549 364.686 84.904 363.478 84.9239 362.268C84.8996 361.057 85.0505 359.849 85.3722 358.682C85.9713 361.035 85.9713 363.501 85.3722 365.854Z" fill="black"/>
<path d="M90.8586 365.854C90.2594 363.5 90.2594 361.035 90.8586 358.682C91.4577 361.035 91.4577 363.5 90.8586 365.854Z" fill="black"/>
<path d="M111.586 365.854C111.273 364.684 111.122 363.478 111.137 362.268C111.113 361.057 111.264 359.849 111.586 358.682C111.902 359.85 112.053 361.057 112.034 362.268C112.049 363.478 111.898 364.684 111.586 365.854Z" fill="black"/>
</g>
<path opacity="0.1" d="M124.253 357.866V359.776L83.6958 361.049V357.866H124.253Z" fill="black"/>
<path d="M36.3615 343.666C63.0588 348.453 56.0035 387.997 29.2703 383.201C2.5372 378.405 9.61942 338.87 36.3615 343.666Z" fill="#437BFA"/>
<path opacity="0.1" d="M36.3615 343.666C63.0588 348.453 56.0035 387.997 29.2703 383.201C2.5372 378.405 9.61942 338.87 36.3615 343.666Z" fill="black"/>
<path d="M33.8514 343.218C59.2936 347.781 52.2473 387.325 26.7602 382.753C1.27321 378.181 8.37337 338.646 33.8514 343.218Z" fill="#437BFA"/>
<path opacity="0.1" d="M14.1738 363.917C14.3083 370.955 18.4142 377.786 27.3701 379.391C48.5092 383.183 54.3722 350.363 33.251 346.579L32.8386 346.508C52.6419 350.47 46.9672 381.533 26.8053 377.885C18.5756 376.441 14.6131 370.354 14.1738 363.917Z" fill="black"/>
<g opacity="0.1">
<path d="M32.5068 350.676C32.6781 350.723 32.825 350.834 32.9168 350.985C33.0086 351.137 33.0384 351.319 32.9999 351.492L32.722 352.559C34.454 353.13 35.9728 354.211 37.0789 355.661C37.175 355.751 37.2462 355.864 37.2855 355.99C37.3248 356.116 37.3308 356.249 37.303 356.378C37.2805 356.472 37.2389 356.56 37.1806 356.637C37.1224 356.714 37.0489 356.778 36.9646 356.825C36.8804 356.872 36.7874 356.902 36.6913 356.911C36.5953 356.92 36.4983 356.91 36.4065 356.88C36.3136 356.863 36.2254 356.826 36.148 356.772C36.0707 356.718 36.0059 356.648 35.9583 356.566C35.0581 355.314 33.8118 354.351 32.3723 353.796L30.4808 361.407C34.3894 363.299 35.7431 365.28 35.0797 367.943C34.3625 370.82 31.44 372.255 28.0154 371.529L27.4865 373.644C27.444 373.816 27.3355 373.964 27.1844 374.057C27.0334 374.149 26.852 374.178 26.6797 374.137C26.5071 374.093 26.3589 373.983 26.2667 373.83C26.1746 373.678 26.1458 373.495 26.1866 373.322L26.7245 371.179C24.4952 370.443 22.5765 368.981 21.2739 367.028C21.1756 366.916 21.1154 366.775 21.102 366.626C21.0886 366.477 21.1226 366.328 21.1992 366.199C21.2758 366.071 21.3911 365.97 21.5285 365.911C21.6659 365.853 21.8184 365.839 21.9642 365.872C22.0551 365.891 22.1411 365.929 22.2167 365.983C22.2923 366.037 22.3559 366.106 22.4034 366.186C23.4886 367.941 25.1389 369.276 27.0831 369.969L29.0105 362.241C25.1646 360.332 23.8558 358.413 24.5281 355.706C25.2005 352.998 28.114 351.465 31.4579 352.218L31.709 351.178C31.7516 351.008 31.8584 350.861 32.0071 350.767C32.1557 350.674 32.3348 350.641 32.5068 350.676ZM29.3422 360.834L31.189 353.455C28.4995 352.855 26.4107 353.993 25.9266 355.948C25.4425 357.902 26.0521 359.121 29.3422 360.834ZM30.1222 362.788L28.2485 370.282C30.938 370.901 33.1344 369.771 33.6274 367.71C34.1115 365.836 33.4481 364.455 30.1222 362.788Z" fill="black"/>
</g>
</svg>
