<svg width="462" height="391" viewBox="0 0 462 391" fill="none" xmlns="http://www.w3.org/2000/svg">
<path d="M394.269 352.139C304.072 403.954 157.84 403.954 67.6436 352.139C-22.553 300.324 -22.5427 216.328 67.6436 164.523C157.83 112.718 304.082 112.718 394.269 164.523C484.455 216.328 484.465 300.334 394.269 352.139Z" fill="#FAFAFA"/>
<path d="M257.302 258.331C238.349 247.394 207.623 247.394 188.669 258.331C172.605 267.617 170.17 281.762 181.334 292.534C180.703 292.699 180.096 292.945 179.528 293.266L119.686 327.83C117.148 329.295 117.148 331.679 119.686 333.144L123.441 335.311C124.851 336.027 126.418 336.379 127.999 336.334C129.579 336.289 131.123 335.848 132.49 335.053L188.205 298.559C188.433 298.41 188.647 298.241 188.845 298.054C207.809 308.898 238.369 308.867 257.292 297.961C276.214 287.055 276.307 269.278 257.302 258.331Z" fill="#E6E6E6"/>
<path d="M390.524 218.536L314.256 262.664C313.305 263.147 312.253 263.399 311.186 263.399C310.119 263.399 309.068 263.147 308.117 262.664L175.442 186.056C173.75 185.086 173.75 183.497 175.442 182.517L251.71 138.388C252.661 137.905 253.713 137.654 254.78 137.654C255.846 137.654 256.898 137.905 257.849 138.388L390.524 214.997C392.216 215.967 392.216 217.556 390.524 218.536Z" fill="#E6E6E6"/>
<path d="M50.8983 301.995L30.5003 290.212C28.0344 288.788 28.0344 286.477 30.5003 285.053L172.44 203.101C173.824 202.398 175.355 202.032 176.907 202.032C178.46 202.032 179.99 202.398 181.375 203.101L201.783 214.883C204.249 216.307 204.249 218.618 201.783 220.042L59.8333 301.995C58.4488 302.697 56.9183 303.064 55.3658 303.064C53.8133 303.064 52.2827 302.697 50.8983 301.995Z" fill="#E6E6E6"/>
<path d="M390.73 325.416C411.546 325.416 428.42 316.196 428.42 304.822C428.42 293.448 411.546 284.228 390.73 284.228C369.914 284.228 353.04 293.448 353.04 304.822C353.04 316.196 369.914 325.416 390.73 325.416Z" fill="#E6E6E6"/>
<path d="M407.226 284.373C407.587 279.802 411.652 270.609 416.873 265.058C422.094 259.507 429.884 255.772 435.032 258.011C439.83 260.075 438.777 266.523 432.442 270.32C426.107 274.117 416.698 278.791 413.468 285.982L407.226 294.629V284.373Z" fill="#437BFA"/>
<path opacity="0.1" d="M407.226 284.373C407.587 279.802 411.652 270.609 416.873 265.058C422.094 259.507 429.884 255.772 435.032 258.011C439.83 260.075 438.777 266.523 432.442 270.32C426.107 274.117 416.698 278.791 413.468 285.982L407.226 294.629V284.373Z" fill="black"/>
<path d="M406.38 290.594C406.454 290.595 406.527 290.571 406.587 290.526C406.646 290.482 406.69 290.418 406.71 290.347C411.023 275.004 424.652 263.345 432.422 261.158C432.498 261.126 432.56 261.067 432.596 260.992C432.632 260.916 432.64 260.831 432.617 260.751C432.594 260.671 432.542 260.602 432.472 260.557C432.402 260.513 432.318 260.495 432.236 260.508C424.322 262.747 410.435 274.592 406.06 290.171C406.048 290.214 406.044 290.259 406.049 290.303C406.055 290.347 406.069 290.39 406.091 290.428C406.113 290.467 406.143 290.5 406.178 290.527C406.214 290.554 406.254 290.573 406.297 290.584L406.38 290.594Z" fill="white"/>
<path d="M407.907 300.716C408.846 298.209 412.323 294.226 417.678 291.131C423.6 287.716 430.843 286.509 432.721 283.62C434.98 280.163 432.205 276.5 426.376 276.748C420.546 276.996 409.795 284.043 407.226 295.753L407.907 300.716Z" fill="#437BFA"/>
<path d="M407.009 297.971C407.073 297.972 407.136 297.954 407.189 297.919C407.242 297.884 407.284 297.834 407.309 297.775C413.169 284.806 423.734 280.937 428.501 280.7C428.589 280.7 428.673 280.665 428.735 280.603C428.796 280.541 428.831 280.457 428.831 280.37C428.831 280.282 428.796 280.198 428.735 280.136C428.673 280.074 428.589 280.039 428.501 280.039C423.229 280.297 412.715 284.259 406.731 297.497C406.712 297.537 406.702 297.581 406.701 297.626C406.7 297.67 406.707 297.715 406.724 297.756C406.74 297.798 406.765 297.835 406.796 297.867C406.828 297.899 406.865 297.924 406.906 297.941C406.938 297.957 406.973 297.968 407.009 297.971Z" fill="white"/>
<path d="M32.1809 258.899C32.1809 258.899 31.1492 249.417 26.3824 242.05C21.6157 234.683 15.1775 230.102 9.13135 229.617C3.08522 229.132 -1.79501 234.704 4.67414 238.532C11.1433 242.36 22.6371 246.249 27.9301 260.539L32.1809 258.899Z" fill="#437BFA"/>
<path opacity="0.1" d="M32.1809 258.899C32.1809 258.899 31.1492 249.417 26.3824 242.05C21.6157 234.683 15.1775 230.102 9.13135 229.617C3.08522 229.132 -1.79501 234.704 4.67414 238.532C11.1433 242.36 22.6371 246.249 27.9301 260.539L32.1809 258.899Z" fill="black"/>
<path d="M30.4064 256.433H30.4683C30.5079 256.417 30.544 256.393 30.5744 256.363C30.6047 256.333 30.6288 256.298 30.6451 256.258C30.6615 256.219 30.6698 256.176 30.6695 256.134C30.6693 256.091 30.6605 256.049 30.6437 256.01C24.2674 240.286 12.072 233.724 6.58299 232.444C6.50256 232.436 6.42181 232.457 6.35608 232.504C6.29034 232.551 6.24419 232.621 6.22637 232.7C6.20856 232.779 6.22032 232.861 6.25943 232.932C6.29854 233.003 6.36228 233.057 6.43855 233.084C11.8553 234.322 23.7618 240.781 30.0453 256.247C30.0762 256.314 30.1285 256.368 30.1939 256.402C30.2593 256.436 30.3341 256.446 30.4064 256.433Z" fill="white"/>
<path d="M1.39309 256.35C1.98119 257.671 3.45661 258.352 4.74631 258.888C6.13983 259.265 7.3696 260.092 8.24399 261.241C9.69877 263.748 7.3154 267.277 8.87336 269.712C9.23881 270.205 9.7025 270.617 10.2352 270.923C10.7679 271.228 11.3581 271.42 11.9686 271.486C12.9674 271.631 13.973 271.724 14.9814 271.765C15.4612 271.753 15.9399 271.715 16.4155 271.651C17.8025 271.339 19.2536 271.495 20.5426 272.095C22.5339 273.209 23.1426 275.727 24.3498 277.666C25.1004 278.81 26.089 279.778 27.2483 280.505C28.4075 281.232 29.71 281.699 31.0666 281.876C32.2218 282.11 33.4184 282.031 34.5333 281.649L34.7293 281.525C34.855 281.392 34.9722 281.25 35.0801 281.102V281.04C35.4309 279.74 34.8531 278.389 34.8325 277.047V276.8C34.8325 275.242 34.9357 273.704 34.9666 272.136C35.0354 269.268 35.0629 266.4 35.0492 263.531C35.0492 261.674 35.2555 259.631 34.4714 257.877C33.5944 255.948 31.4277 255.907 30.6126 254.008C30.2824 253.255 30.107 252.45 29.7872 251.687C29.2956 250.569 28.5063 249.609 27.5054 248.91C26.5045 248.211 25.3308 247.801 24.1125 247.725C20.3156 247.529 16.8902 250.593 13.1345 250.314C12.1592 250.183 11.1915 250 10.2353 249.768C7.14 249.19 3.62169 250.067 1.89865 252.656C1.5186 253.184 1.27377 253.796 1.18562 254.44C1.09747 255.084 1.16871 255.74 1.39309 256.35Z" fill="#437BFA"/>
<path d="M35.4311 275.087C35.4726 275.077 35.5116 275.06 35.5458 275.034C35.58 275.009 35.6086 274.977 35.6299 274.94C35.6512 274.904 35.6647 274.863 35.6696 274.821C35.6744 274.778 35.6705 274.736 35.6581 274.695C30.4477 255.05 9.76088 252.223 4.95287 252.564C4.91083 252.566 4.86973 252.577 4.83192 252.596C4.79411 252.614 4.76034 252.64 4.73254 252.672C4.70474 252.703 4.68346 252.74 4.66992 252.78C4.65638 252.82 4.65086 252.862 4.65365 252.904C4.64784 252.947 4.65118 252.991 4.66346 253.033C4.67574 253.075 4.69667 253.113 4.72491 253.146C4.75314 253.179 4.78804 253.206 4.82731 253.225C4.86659 253.244 4.90937 253.254 4.95287 253.255C9.68865 252.914 29.9318 255.69 35.0494 274.922C35.0829 274.99 35.1397 275.045 35.2097 275.075C35.2797 275.105 35.3583 275.109 35.4311 275.087Z" fill="white"/>
<path d="M12.4428 265.141C12.5094 265.129 12.5707 265.096 12.6182 265.048C14.5282 263.393 16.7797 262.18 19.2123 261.495C21.6449 260.81 24.1987 260.671 26.6915 261.086C26.7772 261.095 26.8631 261.072 26.932 261.02C27.001 260.968 27.0477 260.892 27.0629 260.807C27.0687 260.765 27.0661 260.723 27.0551 260.682C27.0442 260.641 27.0252 260.602 26.9993 260.568C26.9734 260.535 26.941 260.507 26.9041 260.486C26.8672 260.465 26.8265 260.451 26.7843 260.446C24.1932 260.021 21.5402 260.174 19.0148 260.893C16.4893 261.611 14.1537 262.879 12.1746 264.604C12.1446 264.634 12.1209 264.669 12.1046 264.708C12.0884 264.747 12.0801 264.789 12.0801 264.831C12.0801 264.873 12.0884 264.915 12.1046 264.954C12.1209 264.993 12.1446 265.029 12.1746 265.058C12.2109 265.09 12.2536 265.114 12.2998 265.128C12.3461 265.143 12.3948 265.147 12.4428 265.141Z" fill="white"/>
<path d="M387.738 204.246L314.049 246.889C313.129 247.351 312.113 247.592 311.083 247.592C310.053 247.592 309.037 247.351 308.117 246.889L179.869 172.86C178.228 171.921 178.228 170.383 179.869 169.444L253.609 126.791C254.527 126.329 255.541 126.088 256.57 126.088C257.598 126.088 258.612 126.329 259.531 126.791L387.738 200.82C389.327 201.77 389.327 203.297 387.738 204.246Z" fill="#37474F"/>
<path d="M348.314 223.798C347.035 224.448 345.621 224.786 344.187 224.786C342.753 224.786 341.339 224.448 340.06 223.798C337.79 222.487 337.79 220.362 340.06 219.052C341.337 218.397 342.752 218.056 344.187 218.056C345.622 218.056 347.037 218.397 348.314 219.052C350.594 220.362 350.594 222.487 348.314 223.798Z" fill="#263238"/>
<path d="M313.997 246.889L387.738 204.246C389.203 203.4 389.357 202.079 388.202 201.151C388.935 201.73 389.537 202.458 389.969 203.287C390.401 204.115 390.653 205.026 390.709 205.959V208.744C390.656 209.778 390.36 210.784 389.843 211.681C389.327 212.577 388.605 213.339 387.738 213.903L314.049 256.546C313.138 257.031 312.119 257.276 311.088 257.258V247.631C312.105 247.631 313.105 247.376 313.997 246.889Z" fill="#455A64"/>
<path d="M179.868 182.496C179.003 181.931 178.283 181.169 177.769 180.272C177.254 179.376 176.959 178.37 176.907 177.337V174.552C176.962 173.617 177.213 172.705 177.645 171.874C178.077 171.044 178.68 170.314 179.414 169.733C178.259 170.683 178.383 171.993 179.868 172.829L308.065 246.858C308.979 247.344 310.001 247.589 311.036 247.57V257.196C310.001 257.215 308.979 256.97 308.065 256.484L179.868 182.496Z" fill="#263238"/>
<path d="M301.688 237.954L371.198 197.715C371.417 197.645 371.608 197.507 371.743 197.322C371.878 197.136 371.951 196.913 371.951 196.683C371.951 196.453 371.878 196.23 371.743 196.044C371.608 195.859 371.417 195.721 371.198 195.651L268.455 136.222C267.906 135.942 267.298 135.796 266.681 135.796C266.064 135.796 265.456 135.942 264.906 136.222L195.365 176.46C195.147 176.53 194.956 176.668 194.821 176.854C194.685 177.039 194.612 177.263 194.612 177.492C194.612 177.722 194.685 177.945 194.821 178.131C194.956 178.316 195.147 178.454 195.365 178.524L298.129 237.954C298.68 238.234 299.29 238.379 299.909 238.379C300.527 238.379 301.137 238.234 301.688 237.954Z" fill="#FAFAFA"/>
<path d="M206.147 178.287L239.349 197.539C240.041 197.89 240.807 198.073 241.583 198.073C242.359 198.073 243.124 197.89 243.817 197.539L302.214 163.832C302.484 163.74 302.718 163.567 302.884 163.335C303.049 163.104 303.139 162.827 303.139 162.542C303.139 162.257 303.049 161.98 302.884 161.749C302.718 161.517 302.484 161.344 302.214 161.252L268.971 142.041C268.279 141.69 267.513 141.507 266.737 141.507C265.961 141.507 265.196 141.69 264.503 142.041L206.147 175.707C205.877 175.799 205.643 175.972 205.478 176.204C205.312 176.435 205.223 176.712 205.223 176.997C205.223 177.282 205.312 177.559 205.478 177.79C205.643 178.022 205.877 178.195 206.147 178.287Z" fill="#EBEBEB"/>
<path d="M230.528 169.114L239.051 170.775C239.583 170.886 240.136 170.836 240.64 170.631L247.862 167.536C249.007 167.04 250.637 167.536 250.617 168.351L250.503 173.51C250.503 173.84 250.771 174.149 251.236 174.345L258.582 177.348C259.748 177.822 259.469 178.864 258.097 179.112L249.482 180.67C249.256 180.692 249.038 180.762 248.842 180.876C248.646 180.99 248.477 181.145 248.347 181.33L245.675 186.293C245.241 187.077 243.436 187.242 242.579 186.572L237.42 182.331C237.007 182.033 236.505 181.884 235.997 181.908L226.989 181.97C225.555 181.97 224.73 181.041 225.586 180.381L230.972 176.254C231.049 176.21 231.116 176.152 231.17 176.082C231.224 176.012 231.264 175.932 231.287 175.846C231.31 175.761 231.316 175.672 231.304 175.584C231.293 175.497 231.264 175.412 231.22 175.336L228.331 170.414C227.877 169.589 229.166 168.846 230.528 169.114Z" fill="#FAFAFA"/>
<path d="M249.481 158.24L267.764 147.685C268.123 147.473 268.526 147.348 268.941 147.319C269.357 147.291 269.773 147.359 270.158 147.52C270.736 147.86 270.601 148.479 269.869 148.902L251.596 159.457C251.236 159.665 250.834 159.789 250.419 159.817C250.004 159.846 249.588 159.779 249.203 159.622C248.625 159.282 248.759 158.663 249.481 158.24Z" fill="#FAFAFA"/>
<path d="M254.103 160.901L272.376 150.347C272.735 150.135 273.138 150.01 273.553 149.981C273.969 149.953 274.385 150.021 274.77 150.181C275.347 150.522 275.224 151.141 274.481 151.564L256.208 162.119C255.848 162.327 255.445 162.451 255.03 162.479C254.616 162.508 254.2 162.441 253.814 162.284C253.226 161.944 253.361 161.325 254.103 160.901Z" fill="#FAFAFA"/>
<path d="M258.705 163.563L276.978 153.008C277.336 152.795 277.739 152.668 278.155 152.64C278.571 152.611 278.988 152.681 279.372 152.843C279.96 153.184 279.826 153.803 279.083 154.226L260.831 164.781C260.471 164.989 260.068 165.113 259.653 165.141C259.238 165.17 258.822 165.103 258.437 164.946C257.839 164.605 257.963 163.986 258.705 163.563Z" fill="#FAFAFA"/>
<path d="M263.307 166.215L281.59 155.67C281.946 155.457 282.348 155.331 282.762 155.302C283.176 155.273 283.591 155.343 283.973 155.505C284.562 155.836 284.427 156.455 283.695 156.888L265.412 167.433C265.054 167.646 264.651 167.773 264.235 167.801C263.819 167.83 263.402 167.76 263.018 167.598C262.441 167.267 262.575 166.648 263.307 166.215Z" fill="#FAFAFA"/>
<path d="M267.919 168.877L286.191 158.332C286.549 158.119 286.952 157.992 287.368 157.964C287.784 157.935 288.201 158.005 288.585 158.167C289.163 158.497 289.039 159.117 288.296 159.55L270.024 170.094C269.666 170.308 269.262 170.435 268.846 170.463C268.431 170.492 268.014 170.422 267.63 170.26C267.021 169.929 267.176 169.31 267.919 168.877Z" fill="#FAFAFA"/>
<path d="M272.521 171.539L290.752 160.994C291.11 160.781 291.513 160.654 291.929 160.626C292.345 160.597 292.762 160.667 293.146 160.829C293.724 161.159 293.6 161.778 292.857 162.212L274.626 172.777C274.268 172.991 273.864 173.117 273.449 173.146C273.033 173.175 272.616 173.105 272.232 172.942C271.654 172.591 271.778 171.972 272.521 171.539Z" fill="#FAFAFA"/>
<path d="M247.118 201.976L248.625 202.853C249.041 203.062 249.5 203.17 249.966 203.17C250.432 203.17 250.891 203.062 251.307 202.853L286.387 182.62C287.13 182.187 287.13 181.495 286.387 181.072L284.871 180.195C284.454 179.987 283.995 179.878 283.529 179.878C283.064 179.878 282.604 179.987 282.188 180.195L247.108 200.428C246.946 200.483 246.805 200.588 246.705 200.728C246.606 200.867 246.553 201.035 246.554 201.206C246.555 201.377 246.61 201.544 246.712 201.682C246.813 201.82 246.955 201.923 247.118 201.976Z" fill="#E0E0E0"/>
<path d="M309.984 165.679L311.49 166.556C312.233 166.979 312.233 167.67 311.49 168.103L297.407 176.234C296.99 176.442 296.531 176.551 296.065 176.551C295.6 176.551 295.14 176.442 294.724 176.234L293.218 175.357C292.475 174.933 292.475 174.242 293.218 173.809L307.26 165.679C307.682 165.463 308.148 165.351 308.622 165.351C309.096 165.351 309.562 165.463 309.984 165.679Z" fill="#E0E0E0"/>
<path d="M256.435 207.331L289.72 226.532C290.412 226.883 291.178 227.065 291.954 227.065C292.73 227.065 293.495 226.883 294.187 226.532L352.585 192.824C352.855 192.733 353.089 192.559 353.255 192.328C353.42 192.097 353.509 191.819 353.509 191.534C353.509 191.25 353.42 190.972 353.255 190.741C353.089 190.51 352.855 190.336 352.585 190.245L319.342 171.033C318.649 170.683 317.884 170.5 317.108 170.5C316.332 170.5 315.567 170.683 314.874 171.033L256.435 204.762C256.169 204.855 255.939 205.029 255.776 205.259C255.613 205.489 255.526 205.764 255.526 206.046C255.526 206.328 255.613 206.603 255.776 206.833C255.939 207.063 256.169 207.237 256.435 207.331Z" fill="#EBEBEB"/>
<path d="M280.847 198.148L289.38 199.82C289.912 199.93 290.465 199.88 290.969 199.675L298.191 196.58C299.347 196.085 300.977 196.58 300.956 197.385L300.843 202.543C300.843 202.874 301.101 203.183 301.565 203.369L308.921 206.371C310.087 206.856 309.798 207.898 308.437 208.146L299.832 209.683C299.607 209.707 299.389 209.779 299.194 209.892C298.998 210.006 298.829 210.16 298.697 210.344L296.024 215.306C295.601 216.09 293.796 216.256 292.929 215.585L287.77 211.344C287.353 211.046 286.848 210.897 286.336 210.921L277.329 210.983C275.905 210.983 275.069 210.055 275.926 209.394L281.311 205.267C281.464 205.177 281.576 205.031 281.624 204.86C281.672 204.689 281.653 204.506 281.569 204.349L278.67 199.427C278.206 198.633 279.496 197.89 280.847 198.148Z" fill="#FAFAFA"/>
<path d="M299.821 187.284L318.094 176.729C318.453 176.517 318.856 176.392 319.271 176.364C319.687 176.335 320.103 176.403 320.488 176.564C321.076 176.904 320.942 177.523 320.199 177.946L301.926 188.501C301.566 188.71 301.163 188.833 300.749 188.861C300.334 188.89 299.918 188.823 299.533 188.666C299.006 188.326 299.079 187.707 299.821 187.284Z" fill="#FAFAFA"/>
<path d="M304.422 189.946L322.736 179.391C323.095 179.179 323.498 179.054 323.914 179.026C324.329 178.997 324.745 179.065 325.13 179.226C325.708 179.566 325.574 180.185 324.841 180.608L306.558 191.163C306.201 191.377 305.799 191.505 305.383 191.537C304.968 191.57 304.551 191.505 304.164 191.349C303.556 190.988 303.69 190.369 304.422 189.946Z" fill="#FAFAFA"/>
<path d="M309.035 192.597L327.307 182.063C327.665 181.849 328.068 181.723 328.484 181.694C328.9 181.665 329.317 181.735 329.701 181.898C330.279 182.228 330.155 182.847 329.412 183.28L311.139 193.825C310.779 194.033 310.377 194.157 309.962 194.185C309.547 194.214 309.131 194.147 308.746 193.99C308.158 193.65 308.292 193.031 309.035 192.597Z" fill="#FAFAFA"/>
<path d="M313.636 195.259L331.909 184.715C332.267 184.501 332.67 184.375 333.086 184.346C333.502 184.317 333.918 184.387 334.302 184.55C334.89 184.88 334.756 185.499 334.013 185.932L315.741 196.508C315.383 196.721 314.98 196.848 314.564 196.876C314.148 196.905 313.731 196.835 313.347 196.673C312.769 196.312 312.893 195.693 313.636 195.259Z" fill="#FAFAFA"/>
<path d="M318.238 197.921L336.521 187.376C336.877 187.163 337.278 187.037 337.693 187.008C338.107 186.979 338.522 187.049 338.904 187.211C339.492 187.542 339.358 188.161 338.626 188.594L320.343 199.139C319.985 199.352 319.582 199.479 319.166 199.507C318.75 199.536 318.333 199.466 317.949 199.304C317.371 198.973 317.505 198.354 318.238 197.921Z" fill="#FAFAFA"/>
<path d="M322.85 200.635L341.122 190.09C341.48 189.876 341.884 189.75 342.3 189.721C342.715 189.693 343.132 189.762 343.516 189.925C344.094 190.255 343.97 190.874 343.227 191.308L324.955 201.852C324.597 202.066 324.194 202.192 323.778 202.221C323.362 202.25 322.945 202.18 322.561 202.017C321.973 201.666 322.107 201.016 322.85 200.635Z" fill="#FAFAFA"/>
<path d="M297.438 231.02L298.955 231.897C299.371 232.106 299.83 232.215 300.296 232.215C300.762 232.215 301.221 232.106 301.637 231.897L336.717 211.664C336.88 211.61 337.021 211.507 337.122 211.368C337.222 211.229 337.276 211.062 337.276 210.89C337.276 210.719 337.222 210.552 337.122 210.413C337.021 210.274 336.88 210.17 336.717 210.117L335.2 209.24C334.784 209.031 334.325 208.922 333.859 208.922C333.393 208.922 332.934 209.031 332.518 209.24L297.438 229.472C297.275 229.526 297.134 229.63 297.033 229.769C296.933 229.908 296.879 230.075 296.879 230.246C296.879 230.418 296.933 230.585 297.033 230.724C297.134 230.863 297.275 230.966 297.438 231.02Z" fill="#E0E0E0"/>
<path d="M360.303 194.723L361.819 195.6C362.562 196.023 362.562 196.714 361.819 197.147L347.736 205.278C347.32 205.486 346.86 205.595 346.395 205.595C345.929 205.595 345.47 205.486 345.053 205.278L343.537 204.401C343.374 204.347 343.232 204.243 343.132 204.104C343.032 203.965 342.978 203.798 342.978 203.627C342.978 203.455 343.032 203.288 343.132 203.149C343.232 203.011 343.374 202.907 343.537 202.853L357.63 194.723C358.045 194.514 358.503 194.405 358.967 194.405C359.431 194.405 359.888 194.514 360.303 194.723Z" fill="#E0E0E0"/>
<path d="M222.944 151.306C222.661 151.445 222.351 151.517 222.036 151.517C221.721 151.517 221.411 151.445 221.128 151.306C221.021 151.269 220.929 151.199 220.863 151.106C220.798 151.014 220.763 150.903 220.763 150.79C220.763 150.677 220.798 150.567 220.863 150.474C220.929 150.382 221.021 150.312 221.128 150.274C221.411 150.136 221.721 150.064 222.036 150.064C222.351 150.064 222.661 150.136 222.944 150.274C223.45 150.553 223.45 151.017 222.944 151.306Z" fill="#263238"/>
<path d="M220.045 159.55C219.482 159.835 218.86 159.983 218.23 159.983C217.599 159.983 216.977 159.835 216.414 159.55C216.209 159.466 216.033 159.323 215.91 159.14C215.786 158.956 215.72 158.739 215.72 158.518C215.72 158.297 215.786 158.08 215.91 157.897C216.033 157.713 216.209 157.57 216.414 157.486C216.977 157.202 217.599 157.053 218.23 157.053C218.86 157.053 219.482 157.202 220.045 157.486C220.25 157.57 220.426 157.713 220.549 157.897C220.673 158.08 220.739 158.297 220.739 158.518C220.739 158.739 220.673 158.956 220.549 159.14C220.426 159.323 220.25 159.466 220.045 159.55Z" fill="#263238"/>
<path d="M222.656 155.897C221.985 155.505 222.027 154.866 222.739 154.453L234.686 147.551C235.074 147.352 235.504 147.249 235.94 147.249C236.376 147.249 236.805 147.352 237.193 147.551C237.854 147.932 237.823 148.582 237.111 148.995L225.163 155.887C224.775 156.085 224.346 156.189 223.911 156.19C223.475 156.192 223.046 156.092 222.656 155.897Z" fill="#263238"/>
<path d="M193.674 54.96V57.3846L185.297 62.2236L172.73 69.4459L61.7946 133.57C61.1373 133.982 60.5944 134.554 60.216 135.231C59.8083 135.897 59.5808 136.658 59.5557 137.439V284.878C59.5557 292.895 53.9222 296.145 46.9888 292.1C40.0554 288.056 34.4116 278.347 34.4116 270.33V122.881C34.4545 122.105 34.6796 121.351 35.0686 120.679C35.4576 120.006 35.9996 119.435 36.6505 119.012L160.142 47.7067L172.1 40.8145C172.5 41.487 172.72 42.2508 172.74 43.0328V45.282L40.8395 121.632C40.2205 122.017 39.7065 122.548 39.3434 123.18C38.8925 123.873 38.6392 124.675 38.6109 125.502V272.744C38.6109 278.089 42.3665 284.579 46.9991 287.251C51.6317 289.923 55.377 287.756 55.377 282.412V134.973C55.4129 134.201 55.6306 133.448 56.0125 132.775C56.3944 132.103 56.9297 131.53 57.5747 131.104L193.024 52.8964C193.414 53.5175 193.638 54.2279 193.674 54.96Z" fill="#E0E0E0"/>
<path d="M181.097 47.8615V54.96L53.4476 128.69C52.7917 129.107 52.2433 129.673 51.8472 130.341C51.451 131.01 51.2181 131.763 51.1674 132.538V279.977C51.1674 282.649 49.2999 283.733 46.9888 282.391C45.7718 281.602 44.7582 280.536 44.0303 279.281C43.3025 278.026 42.8809 276.617 42.7998 275.169V127.72C42.8264 126.941 43.05 126.181 43.4498 125.512C43.8344 124.839 44.376 124.269 45.0284 123.851L180.468 45.6535C180.86 46.3248 181.076 47.0843 181.097 47.8615Z" fill="#E0E0E0"/>
<path d="M64.3951 137.614C63.9941 138.279 63.7703 139.036 63.7451 139.812V285.982C63.7472 287.045 63.6783 288.106 63.5387 289.16C63.4975 289.435 63.4562 289.703 63.4149 289.964C63.4149 290.212 63.3221 290.449 63.2705 290.697C63.2189 290.945 63.1673 291.13 63.1054 291.337C63.0435 291.543 63.0022 291.739 62.9403 291.935C62.2568 294.446 60.65 296.605 58.4418 297.981C55.4394 299.704 51.4155 299.498 46.9893 296.949C37.7034 291.605 30.2231 278.027 30.2231 266.636V120.456C30.2483 119.68 30.4721 118.923 30.8732 118.259L35.0724 120.673C34.6648 121.339 34.4372 122.1 34.4121 122.881V270.32C34.4121 278.336 40.0455 288.087 46.9893 292.09C53.933 296.093 59.5561 292.853 59.5561 284.868V137.398C59.5813 136.617 59.8088 135.856 60.2165 135.19L64.3951 137.614Z" fill="#EBEBEB"/>
<path d="M56.0172 132.775C55.6174 133.441 55.3937 134.197 55.3672 134.973V282.412C55.3672 287.756 51.6116 289.923 46.9893 287.251C42.367 284.579 38.6011 278.089 38.6011 272.744V125.46C38.6294 124.634 38.8827 123.832 39.3336 123.139L43.4607 125.512C43.0609 126.181 42.8373 126.941 42.8107 127.72V275.159C42.8918 276.607 43.3133 278.016 44.0412 279.271C44.769 280.526 45.7826 281.591 46.9996 282.381C49.3108 283.722 51.1783 282.639 51.1783 279.967V132.538C51.2034 131.757 51.4309 130.997 51.8386 130.33L56.0172 132.775Z" fill="#EBEBEB"/>
<path d="M172.1 40.8145L160.163 47.7067L36.6504 119.012C35.9908 119.421 35.4473 119.993 35.0718 120.673L30.8726 118.259C31.2477 117.576 31.7911 117.001 32.4512 116.587L155.953 45.2821L158.336 43.8995L160.751 42.5376L162.814 41.3407L164.042 40.6288L166.322 39.3185C166.987 38.9649 167.726 38.7731 168.479 38.7587C169.232 38.7444 169.978 38.9079 170.656 39.2359C171.266 39.6279 171.764 40.1719 172.1 40.8145Z" fill="#FAFAFA"/>
<path d="M201.413 57.7457L189.475 64.6379L168.52 76.7301L65.9835 135.943C65.3229 136.359 64.7767 136.934 64.3946 137.614L60.2676 135.19C60.637 134.534 61.1612 133.977 61.7946 133.57L172.719 69.4872L185.286 62.2648L193.664 57.4259L195.614 56.3013L195.831 56.1878C196.475 55.8792 197.18 55.7191 197.894 55.7191C198.609 55.7191 199.314 55.8792 199.958 56.1878L200.175 56.3219C200.685 56.7015 201.108 57.1873 201.413 57.7457Z" fill="#FAFAFA"/>
<path d="M180.468 45.6535L45.0284 123.851C44.376 124.269 43.8344 124.839 43.4498 125.512L39.3228 123.139C39.6858 122.507 40.1998 121.975 40.8188 121.591L172.719 45.2408L174.659 44.1162C175.324 43.7626 176.063 43.5708 176.816 43.5565C177.569 43.5421 178.315 43.7056 178.992 44.0337C179.617 44.4358 180.126 44.9942 180.468 45.6535Z" fill="#FAFAFA"/>
<path d="M193.056 52.8965L57.5752 131.104C56.9123 131.517 56.3655 132.092 55.9863 132.775L51.7974 130.351C52.1929 129.662 52.7621 129.09 53.4482 128.69L181.139 54.96L187.33 51.4107C187.995 51.0587 188.735 50.8687 189.488 50.8562C190.241 50.8436 190.986 51.0089 191.663 51.3385C192.253 51.7297 192.733 52.2662 193.056 52.8965Z" fill="#FAFAFA"/>
<path d="M202.022 59.9641V206.134C202.022 212.128 199.959 216.328 196.626 218.185L58.2461 298.084C59.4712 297.348 60.5337 296.37 61.3691 295.21C62.2045 294.05 62.7954 292.732 63.1057 291.337C63.1676 291.13 63.2192 290.914 63.2708 290.697C63.3224 290.48 63.3636 290.212 63.4152 289.964C63.4668 289.717 63.4978 289.438 63.539 289.16C63.6786 288.106 63.7475 287.045 63.7454 285.982V139.812C63.7705 139.036 63.9943 138.279 64.3954 137.614C64.7775 136.934 65.3237 136.359 65.9843 135.943L168.521 76.7405L189.476 64.6482L201.413 57.7561C201.802 58.4278 202.012 59.1881 202.022 59.9641Z" fill="#F5F5F5"/>
<path d="M78.5607 138.368L99.1959 126.43C100.434 125.718 101.425 126.286 101.425 127.72V156.434C101.384 157.209 101.162 157.963 100.774 158.636C100.387 159.308 99.8461 159.879 99.1959 160.303L78.5607 172.24C77.3226 172.952 76.3218 172.375 76.3218 170.951V142.237C76.3639 141.461 76.5886 140.706 76.9777 140.034C77.3668 139.362 77.9092 138.791 78.5607 138.368Z" fill="#455A64"/>
<path d="M76.3218 183.208L189.485 117.877V122.716L76.3218 188.047V183.208Z" fill="#437BFA"/>
<path opacity="0.4" d="M76.3218 183.208L189.485 117.877V122.716L76.3218 188.047V183.208Z" fill="white"/>
<path d="M77.6631 196.951L100.135 183.982C100.867 183.549 101.466 183.899 101.466 184.756V230.05C101.442 230.514 101.309 230.966 101.078 231.37C100.846 231.773 100.523 232.116 100.135 232.372L77.6631 245.341C76.9202 245.774 76.3218 245.423 76.3218 244.567V199.273C76.3462 198.807 76.4804 198.354 76.7135 197.951C76.9467 197.547 77.2721 197.205 77.6631 196.951Z" fill="#F0F0F0"/>
<path d="M77.6631 250.159L100.135 237.18C100.867 236.757 101.466 237.107 101.466 237.953V273.405L76.3218 287.953V252.512C76.3413 252.041 76.4733 251.582 76.7066 251.172C76.94 250.763 77.2679 250.416 77.6631 250.159Z" fill="#F0F0F0"/>
<path d="M107.007 179.999L129.468 167.03C130.211 166.607 130.81 166.947 130.81 167.804V227.646C130.784 228.111 130.65 228.564 130.417 228.967C130.184 229.371 129.859 229.713 129.468 229.967L107.007 242.937C106.264 243.36 105.666 243.019 105.666 242.163V182.321C105.692 181.856 105.828 181.404 106.061 181.001C106.293 180.598 106.618 180.255 107.007 179.999Z" fill="#F0F0F0"/>
<path d="M136.339 163.078L158.801 150.078C159.544 149.645 160.142 149.996 160.142 150.852V196.146C160.118 196.612 159.983 197.065 159.75 197.468C159.517 197.872 159.192 198.214 158.801 198.468L136.339 211.468C135.596 211.901 134.998 211.55 134.998 210.694V165.4C135.022 164.934 135.157 164.481 135.39 164.078C135.623 163.674 135.948 163.332 136.339 163.078Z" fill="#F0F0F0"/>
<path d="M165.683 146.137L188.145 133.168C188.887 132.734 189.486 133.085 189.486 133.941V193.784C189.459 194.248 189.324 194.7 189.091 195.104C188.858 195.507 188.534 195.85 188.145 196.105L165.683 209.074C164.94 209.497 164.342 209.157 164.342 208.3V148.458C164.366 147.993 164.5 147.54 164.734 147.136C164.967 146.733 165.292 146.39 165.683 146.137Z" fill="#F0F0F0"/>
<path d="M107.007 247.765L129.468 234.796C130.211 234.363 130.81 234.714 130.81 235.57V256.494L105.666 271.021V250.087C105.69 249.621 105.824 249.168 106.057 248.765C106.29 248.361 106.616 248.019 107.007 247.765Z" fill="#F0F0F0"/>
<path d="M134.958 218.628V254.08L160.102 239.563V204.112C160.102 203.255 159.503 202.915 158.76 203.338L136.299 216.307C135.908 216.561 135.583 216.904 135.35 217.307C135.117 217.711 134.983 218.163 134.958 218.628Z" fill="#F0F0F0"/>
<path d="M165.673 213.893L188.145 200.923C188.887 200.49 189.486 200.841 189.486 201.697V222.621L164.342 237.138V216.214C164.366 215.75 164.499 215.298 164.73 214.894C164.961 214.491 165.284 214.148 165.673 213.893Z" fill="#F0F0F0"/>
<path d="M111.227 250.159L125.31 242.029C126.053 241.595 126.651 241.946 126.651 242.803V254.286C126.627 254.751 126.493 255.204 126.26 255.608C126.026 256.011 125.701 256.354 125.31 256.608L111.227 264.717C110.484 265.14 109.885 264.8 109.885 263.943V252.522C109.903 252.049 110.034 251.588 110.268 251.177C110.501 250.766 110.83 250.417 111.227 250.159Z" fill="#E0E0E0"/>
<path d="M169.872 216.328L183.956 208.197C184.688 207.764 185.297 208.115 185.297 208.971V220.393C185.269 220.857 185.134 221.309 184.901 221.712C184.668 222.115 184.344 222.458 183.956 222.714L169.872 230.845C169.129 231.268 168.531 230.927 168.531 230.071V218.649C168.555 218.184 168.689 217.731 168.923 217.327C169.156 216.924 169.481 216.581 169.872 216.328Z" fill="#E0E0E0"/>
<path d="M81.852 199.376L95.9356 191.235C96.6785 190.812 97.2769 191.163 97.2769 192.009V203.441C97.2501 203.906 97.1148 204.358 96.8819 204.761C96.6489 205.164 96.3249 205.507 95.9356 205.762L81.852 213.893C81.1195 214.316 80.5107 213.975 80.5107 213.119V201.666C80.5407 201.206 80.6775 200.76 80.9104 200.362C81.1432 199.965 81.4657 199.627 81.852 199.376Z" fill="#E0E0E0"/>
<path d="M81.4084 216.565L96.3896 207.919C96.8848 207.64 97.2769 207.867 97.2769 208.435V208.796C97.2611 209.105 97.1725 209.407 97.0184 209.676C96.8642 209.945 96.6488 210.173 96.3896 210.343L81.4084 218.99C80.9131 219.278 80.5107 218.99 80.5107 218.474V218.113C80.5285 217.802 80.6189 217.5 80.7749 217.232C80.9308 216.963 81.1478 216.734 81.4084 216.565Z" fill="#E0E0E0"/>
<path d="M81.4084 221.404L96.3896 212.758C96.8848 212.479 97.2769 212.706 97.2769 213.274V213.635C97.2611 213.944 97.1725 214.246 97.0184 214.515C96.8642 214.784 96.6488 215.012 96.3896 215.182L81.4084 223.828C80.9131 224.117 80.5107 223.828 80.5107 223.313V222.951C80.5285 222.641 80.6189 222.339 80.7749 222.071C80.9308 221.802 81.1478 221.573 81.4084 221.404Z" fill="#E0E0E0"/>
<path d="M81.4084 226.243L96.3896 217.597C96.8848 217.318 97.2769 217.545 97.2769 218.112V218.474C97.2611 218.783 97.1725 219.085 97.0184 219.354C96.8642 219.622 96.6488 219.851 96.3896 220.021L81.4084 228.667C80.9131 228.956 80.5107 228.719 80.5107 228.152V227.79C80.5285 227.48 80.6189 227.178 80.7749 226.909C80.9308 226.641 81.1478 226.412 81.4084 226.243Z" fill="#E0E0E0"/>
<path d="M81.4084 231.082L96.3896 222.436C96.8848 222.157 97.2769 222.384 97.2769 222.952V223.333C97.2611 223.643 97.1725 223.944 97.0184 224.213C96.8642 224.482 96.6488 224.711 96.3896 224.881L81.4084 233.527C80.9131 233.816 80.5107 233.579 80.5107 233.011V232.619C80.53 232.311 80.6213 232.011 80.7771 231.744C80.933 231.477 81.1492 231.25 81.4084 231.082Z" fill="#E0E0E0"/>
<path d="M81.4084 235.921L96.3896 227.275C96.8848 226.996 97.2769 227.223 97.2769 227.79V228.152C97.2611 228.461 97.1725 228.763 97.0184 229.032C96.8642 229.3 96.6488 229.529 96.3896 229.699L81.4084 238.345C80.9131 238.634 80.5107 238.397 80.5107 237.829V237.468C80.5285 237.158 80.6189 236.856 80.7749 236.587C80.9308 236.319 81.1478 236.09 81.4084 235.921Z" fill="#E0E0E0"/>
<path d="M111.227 182.434L125.31 174.304C126.053 173.871 126.651 174.221 126.651 175.078V186.499C126.626 186.965 126.492 187.417 126.259 187.821C126.025 188.224 125.701 188.567 125.31 188.821L111.227 196.951C110.484 197.374 109.885 197.034 109.885 196.177V184.756C109.91 184.29 110.044 183.837 110.277 183.434C110.51 183.03 110.836 182.688 111.227 182.434Z" fill="#E0E0E0"/>
<path d="M110.741 199.603L125.723 190.957C126.218 190.668 126.62 190.895 126.62 191.472V191.823C126.603 192.134 126.513 192.436 126.357 192.705C126.201 192.974 125.984 193.202 125.723 193.371L110.741 202.017C110.256 202.306 109.854 202.017 109.854 201.501V201.15C109.87 200.841 109.958 200.539 110.113 200.27C110.267 200.002 110.482 199.773 110.741 199.603Z" fill="#E0E0E0"/>
<path d="M110.741 204.473L125.723 195.826C126.218 195.538 126.62 195.765 126.62 196.342V196.693C126.603 197.004 126.513 197.306 126.357 197.575C126.201 197.844 125.984 198.072 125.723 198.241L110.741 206.887C110.256 207.176 109.854 206.939 109.854 206.371V206.02C109.87 205.711 109.958 205.409 110.113 205.14C110.267 204.871 110.482 204.643 110.741 204.473Z" fill="#E0E0E0"/>
<path d="M110.741 209.312L125.723 200.634C126.218 200.346 126.62 200.573 126.62 201.15V201.501C126.603 201.812 126.513 202.114 126.357 202.383C126.201 202.652 125.984 202.88 125.723 203.049L110.741 211.695C110.256 211.984 109.854 211.747 109.854 211.179V210.828C109.874 210.524 109.965 210.229 110.119 209.966C110.273 209.702 110.486 209.479 110.741 209.312Z" fill="#E0E0E0"/>
<path d="M110.741 214.151L125.723 205.504C126.218 205.216 126.62 205.443 126.62 206.02V206.371C126.603 206.682 126.513 206.984 126.357 207.253C126.201 207.522 125.984 207.75 125.723 207.919L110.741 216.565C110.256 216.854 109.854 216.617 109.854 216.049V215.698C109.87 215.389 109.958 215.087 110.113 214.818C110.267 214.549 110.482 214.321 110.741 214.151Z" fill="#E0E0E0"/>
<path d="M110.741 218.99L125.723 210.343C126.218 210.054 126.62 210.281 126.62 210.859V211.21C126.603 211.521 126.513 211.823 126.357 212.092C126.201 212.361 125.984 212.589 125.723 212.758L110.741 221.404C110.256 221.693 109.854 221.455 109.854 220.888V220.537C109.87 220.228 109.958 219.926 110.113 219.657C110.267 219.388 110.482 219.16 110.741 218.99Z" fill="#E0E0E0"/>
<path d="M110.741 223.828L125.723 215.182C126.218 214.893 126.62 215.131 126.62 215.698V216.049C126.605 216.36 126.515 216.663 126.359 216.932C126.203 217.201 125.985 217.429 125.723 217.597L110.741 226.243C110.256 226.532 109.854 226.305 109.854 225.727V225.397C109.869 225.084 109.957 224.779 110.111 224.507C110.265 224.235 110.481 224.002 110.741 223.828Z" fill="#E0E0E0"/>
<path d="M110.741 228.667L125.723 220.021C126.218 219.732 126.62 219.97 126.62 220.537V220.888C126.605 221.199 126.515 221.502 126.359 221.771C126.203 222.04 125.985 222.268 125.723 222.436L110.741 231.082C110.256 231.371 109.854 231.144 109.854 230.566V230.215C109.872 229.906 109.962 229.605 110.116 229.337C110.27 229.068 110.484 228.839 110.741 228.667Z" fill="#E0E0E0"/>
<path d="M110.741 233.506L125.723 224.86C126.218 224.571 126.62 224.809 126.62 225.376V225.727C126.605 226.038 126.515 226.34 126.359 226.61C126.203 226.879 125.985 227.107 125.723 227.275L110.741 235.921C110.256 236.21 109.854 235.983 109.854 235.405V235.054C109.872 234.745 109.962 234.444 110.116 234.176C110.27 233.907 110.484 233.678 110.741 233.506Z" fill="#E0E0E0"/>
<path d="M81.852 252.615L95.9356 244.474C96.6785 244.051 97.2769 244.402 97.2769 245.248V256.68C97.2517 257.145 97.1171 257.598 96.884 258.001C96.651 258.404 96.326 258.747 95.9356 259.001L81.852 267.132C81.1195 267.555 80.5107 267.214 80.5107 266.358V254.936C80.5359 254.471 80.6705 254.018 80.9036 253.615C81.1367 253.212 81.4616 252.869 81.852 252.615Z" fill="#E0E0E0"/>
<path d="M81.4084 269.763L96.3896 261.116C96.8848 260.838 97.2769 261.065 97.2769 261.632V261.993C97.2611 262.303 97.1725 262.604 97.0184 262.873C96.8642 263.142 96.6488 263.371 96.3896 263.541L81.4084 272.187C80.9131 272.476 80.5107 272.239 80.5107 271.671V271.31C80.5285 271 80.6189 270.698 80.7749 270.429C80.9308 270.16 81.1478 269.932 81.4084 269.763Z" fill="#E0E0E0"/>
<path d="M81.4084 274.643L96.3896 265.997C96.8848 265.718 97.2769 265.945 97.2769 266.513V266.874C97.2611 267.183 97.1725 267.485 97.0184 267.754C96.8642 268.023 96.6488 268.251 96.3896 268.421L81.4084 277.067C80.9131 277.356 80.5107 277.119 80.5107 276.552V276.19C80.5285 275.88 80.6189 275.578 80.7749 275.31C80.9308 275.041 81.1478 274.812 81.4084 274.643Z" fill="#E0E0E0"/>
<path d="M81.4084 279.492L96.3896 270.794C96.8848 270.516 97.2769 270.743 97.2769 271.31V271.671C97.2611 271.981 97.1725 272.282 97.0184 272.551C96.8642 272.82 96.6488 273.049 96.3896 273.219L81.4084 281.865C80.9131 282.154 80.5107 281.917 80.5107 281.349V280.998C80.5324 280.695 80.6248 280.4 80.7807 280.139C80.9366 279.877 81.1515 279.656 81.4084 279.492Z" fill="#E0E0E0"/>
<path d="M140.529 165.493L154.612 157.362C155.355 156.939 155.954 157.28 155.954 158.136V169.558C155.929 170.023 155.795 170.476 155.562 170.88C155.329 171.283 155.003 171.626 154.612 171.879L140.529 179.999C139.796 180.422 139.188 180.071 139.188 179.225V167.814C139.216 167.35 139.352 166.898 139.585 166.495C139.817 166.092 140.141 165.749 140.529 165.493Z" fill="#E0E0E0"/>
<path d="M140.115 182.692L155.097 174.046C155.582 173.767 155.984 174.046 155.984 174.562V174.923C155.966 175.232 155.876 175.533 155.722 175.801C155.568 176.07 155.354 176.299 155.097 176.471L140.115 185.158C139.62 185.437 139.218 185.158 139.218 184.642V184.281C139.229 183.964 139.317 183.654 139.473 183.377C139.629 183.101 139.849 182.866 140.115 182.692Z" fill="#E0E0E0"/>
<path d="M140.115 187.531L155.097 178.885C155.582 178.606 155.984 178.885 155.984 179.401V179.762C155.966 180.071 155.876 180.372 155.722 180.64C155.568 180.909 155.354 181.138 155.097 181.31L140.115 189.956C139.62 190.234 139.218 189.956 139.218 189.44V189.079C139.235 188.768 139.326 188.467 139.482 188.198C139.638 187.929 139.855 187.701 140.115 187.531Z" fill="#E0E0E0"/>
<path d="M140.115 192.38L155.097 183.734C155.582 183.456 155.984 183.683 155.984 184.25V184.611C155.966 184.92 155.876 185.221 155.722 185.489C155.568 185.758 155.354 185.987 155.097 186.159L140.115 194.795C139.62 195.073 139.218 194.795 139.218 194.279V193.918C139.237 193.609 139.328 193.309 139.484 193.043C139.64 192.776 139.856 192.549 140.115 192.38Z" fill="#E0E0E0"/>
<path d="M140.115 197.209L155.097 188.563C155.582 188.284 155.984 188.511 155.984 189.079V189.44C155.966 189.749 155.876 190.05 155.722 190.318C155.568 190.587 155.354 190.816 155.097 190.988L140.115 199.603C139.62 199.881 139.218 199.654 139.218 199.087V198.726C139.24 198.421 139.333 198.125 139.489 197.862C139.644 197.599 139.859 197.375 140.115 197.209Z" fill="#E0E0E0"/>
<path d="M140.115 202.048L155.066 193.412C155.551 193.134 155.953 193.361 155.953 193.928V194.289C155.935 194.598 155.845 194.899 155.691 195.167C155.537 195.436 155.323 195.665 155.066 195.837L140.115 204.473C139.62 204.751 139.218 204.524 139.218 203.957V203.596C139.235 203.285 139.326 202.984 139.482 202.715C139.638 202.446 139.855 202.217 140.115 202.048Z" fill="#E0E0E0"/>
<path d="M169.872 148.561L183.956 140.431C184.688 139.998 185.297 140.349 185.297 141.205V152.627C185.269 153.091 185.134 153.543 184.901 153.946C184.668 154.349 184.344 154.692 183.956 154.948L169.872 163.078C169.129 163.501 168.531 163.161 168.531 162.305V150.883C168.555 150.418 168.689 149.965 168.923 149.561C169.156 149.158 169.481 148.815 169.872 148.561Z" fill="#E0E0E0"/>
<path d="M169.418 165.751L184.399 157.104C184.895 156.826 185.297 157.053 185.297 157.62V157.981C185.279 158.292 185.189 158.594 185.033 158.862C184.877 159.131 184.66 159.36 184.399 159.529L169.418 168.175C168.933 168.464 168.531 168.227 168.531 167.659V167.298C168.549 166.989 168.639 166.689 168.792 166.42C168.946 166.152 169.161 165.922 169.418 165.751Z" fill="#E0E0E0"/>
<path d="M169.418 170.6L184.399 161.943C184.895 161.665 185.297 161.892 185.297 162.459V162.82C185.279 163.131 185.189 163.432 185.033 163.701C184.877 163.97 184.66 164.199 184.399 164.368L169.418 173.014C168.933 173.303 168.531 173.066 168.531 172.498V172.148C168.547 171.838 168.635 171.536 168.789 171.268C168.943 170.999 169.159 170.77 169.418 170.6Z" fill="#E0E0E0"/>
<path d="M169.418 175.439L184.399 166.782C184.895 166.504 185.297 166.731 185.297 167.298V167.618C185.279 167.928 185.189 168.23 185.033 168.499C184.877 168.768 184.66 168.996 184.399 169.166L169.418 177.812C168.933 178.101 168.531 177.863 168.531 177.296V176.945C168.553 176.643 168.644 176.35 168.798 176.088C168.952 175.827 169.164 175.605 169.418 175.439Z" fill="#E0E0E0"/>
<path d="M169.418 180.278L184.399 171.621C184.895 171.343 185.297 171.621 185.297 172.137V172.498C185.279 172.809 185.189 173.11 185.033 173.379C184.877 173.648 184.66 173.876 184.399 174.046L169.418 182.692C168.933 182.981 168.531 182.692 168.531 182.176V181.825C168.547 181.516 168.635 181.214 168.789 180.945C168.943 180.677 169.159 180.448 169.418 180.278Z" fill="#E0E0E0"/>
<path d="M169.418 185.158L184.399 176.502C184.895 176.223 185.297 176.502 185.297 177.017V177.379C185.279 177.689 185.189 177.991 185.033 178.26C184.877 178.528 184.66 178.757 184.399 178.926L169.418 187.531C168.933 187.82 168.531 187.531 168.531 187.015V186.664C168.553 186.362 168.644 186.069 168.798 185.807C168.952 185.546 169.164 185.324 169.418 185.158Z" fill="#E0E0E0"/>
<path d="M169.418 189.956L184.399 181.31C184.895 181.021 185.297 181.248 185.297 181.825V182.176C185.28 182.487 185.19 182.789 185.034 183.058C184.878 183.327 184.66 183.555 184.399 183.724L169.418 192.38C168.933 192.669 168.531 192.38 168.531 191.865V191.514C168.546 191.203 168.634 190.899 168.788 190.629C168.942 190.358 169.158 190.127 169.418 189.956Z" fill="#E0E0E0"/>
<path d="M169.418 194.795L184.399 186.19C184.895 185.901 185.297 186.128 185.297 186.706V187.056C185.28 187.367 185.19 187.669 185.034 187.938C184.878 188.207 184.66 188.435 184.399 188.604L169.418 197.25C168.933 197.539 168.531 197.25 168.531 196.734V196.384C168.541 196.067 168.627 195.758 168.781 195.481C168.936 195.205 169.154 194.969 169.418 194.795Z" fill="#E0E0E0"/>
<path d="M169.418 199.603L184.399 190.957C184.895 190.668 185.297 190.895 185.297 191.472V191.823C185.28 192.134 185.19 192.436 185.034 192.705C184.878 192.974 184.66 193.202 184.399 193.371L169.418 202.017C168.933 202.306 168.531 202.079 168.531 201.501V201.15C168.547 200.841 168.636 200.54 168.79 200.271C168.944 200.002 169.159 199.773 169.418 199.603Z" fill="#E0E0E0"/>
<path d="M140.529 218.732L154.612 210.601C155.355 210.178 155.954 210.519 155.954 211.375V222.797C155.929 223.262 155.795 223.715 155.562 224.119C155.329 224.522 155.003 224.865 154.612 225.118L140.529 233.259C139.796 233.682 139.188 233.331 139.188 232.485V221.053C139.216 220.589 139.352 220.137 139.585 219.734C139.817 219.331 140.141 218.988 140.529 218.732Z" fill="#E0E0E0"/>
<path d="M140.115 235.931L155.097 227.285C155.582 227.006 155.984 227.233 155.984 227.801V228.162C155.966 228.471 155.876 228.771 155.722 229.04C155.568 229.309 155.354 229.538 155.097 229.709L140.115 238.356C139.62 238.634 139.218 238.407 139.218 237.84V237.479C139.235 237.168 139.326 236.867 139.482 236.598C139.638 236.329 139.855 236.1 140.115 235.931Z" fill="#E0E0E0"/>
<path d="M140.115 240.77L155.097 232.124C155.582 231.845 155.984 232.124 155.984 232.64V233.001C155.966 233.31 155.876 233.61 155.722 233.879C155.568 234.148 155.354 234.377 155.097 234.549L140.115 243.195C139.62 243.473 139.218 243.246 139.218 242.679V242.318C139.235 242.007 139.326 241.706 139.482 241.437C139.638 241.168 139.855 240.94 140.115 240.77Z" fill="#E0E0E0"/>
<path d="M140.115 245.609L155.097 236.963C155.582 236.684 155.984 236.963 155.984 237.479V237.84C155.966 238.149 155.876 238.449 155.722 238.718C155.568 238.986 155.354 239.216 155.097 239.387L140.115 248.034C139.62 248.312 139.218 248.085 139.218 247.518V247.157C139.235 246.846 139.326 246.544 139.482 246.276C139.638 246.007 139.855 245.778 140.115 245.609Z" fill="#E0E0E0"/>
<path d="M110.504 151.172C110.298 151.103 110.195 150.907 110.195 150.584C110.207 150.27 110.27 149.96 110.381 149.665L111.495 146.116C111.566 145.796 111.727 145.502 111.959 145.27C112.035 145.229 112.12 145.207 112.207 145.207C112.293 145.207 112.378 145.229 112.454 145.27C113.028 145.51 113.653 145.602 114.271 145.537C114.89 145.472 115.482 145.253 115.993 144.899C116.916 144.361 117.639 143.539 118.057 142.557C118.539 141.351 118.768 140.058 118.728 138.76V117.949C118.708 117.348 118.817 116.75 119.047 116.195C119.295 115.683 119.7 115.263 120.203 114.998L122.493 113.678C123.009 113.378 123.381 113.337 123.597 113.564C123.87 113.974 123.987 114.468 123.928 114.957V135.84C123.965 138.77 123.344 141.672 122.112 144.331C120.989 146.779 119.132 148.816 116.798 150.161C114.315 151.598 112.217 151.935 110.504 151.172Z" fill="#455A64"/>
<path d="M129.087 138.636C127.236 136.737 126.311 133.102 126.311 127.73C126.206 122.883 127.153 118.071 129.087 113.626C130.735 109.824 133.55 106.644 137.124 104.546C140.622 102.483 143.315 102.483 145.141 104.361C146.967 106.239 147.916 109.881 147.916 115.256C148.022 120.103 147.075 124.915 145.141 129.36C143.496 133.156 140.689 136.332 137.124 138.43C133.616 140.452 130.937 140.521 129.087 138.636ZM141.385 127.452C142.435 124.472 142.925 121.324 142.83 118.166C142.83 114.445 142.348 111.913 141.385 110.572C140.426 109.231 139.012 109.107 137.124 110.19C135.122 111.417 133.606 113.298 132.832 115.514C131.784 118.494 131.298 121.643 131.398 124.8C131.398 128.514 131.872 131.052 132.832 132.383C133.791 133.714 135.226 133.849 137.124 132.745C139.117 131.53 140.624 129.658 141.385 127.452Z" fill="#455A64"/>
<path d="M150.784 129.329C150.512 128.931 150.395 128.447 150.454 127.967V99.6662C150.437 99.0613 150.55 98.4597 150.784 97.9019C150.998 97.4231 151.36 97.0254 151.816 96.767L160.896 91.5153C163.179 90.2015 164.899 90.0227 166.054 90.9788C167.21 91.9349 167.777 93.8265 167.757 96.6535C167.757 98.1491 167.524 99.6356 167.065 101.059C166.664 102.379 166.017 103.612 165.157 104.691C167.282 104.546 168.345 106.335 168.345 110.056C168.344 111.882 168.069 113.698 167.53 115.442C166.987 117.202 166.146 118.856 165.043 120.332C163.937 121.819 162.531 123.056 160.916 123.964L151.837 129.216C151.352 129.494 151.001 129.536 150.784 129.329ZM160.07 105.145C160.898 104.66 161.566 103.943 161.989 103.081C162.472 102.097 162.709 101.01 162.68 99.9139C162.68 98.6138 162.464 97.8503 162.041 97.4892C161.618 97.1281 160.957 97.2829 160.07 97.7884L155.592 100.388V107.776L160.07 105.145ZM160.565 118.413C161.487 117.894 162.212 117.085 162.629 116.113C163.084 115.065 163.313 113.933 163.3 112.79C163.3 111.428 163.042 110.551 162.526 110.17C162.01 109.788 161.277 109.86 160.349 110.397L155.592 113.131V121.292L160.565 118.413Z" fill="#455A64"/>
<path d="M172.936 116.959C171.759 117.304 170.501 117.253 169.356 116.814C169.221 116.755 169.105 116.659 169.023 116.536C168.941 116.414 168.895 116.27 168.892 116.123C168.905 115.865 168.957 115.611 169.046 115.37L170.326 111.532C170.378 111.256 170.519 111.006 170.728 110.82C170.8 110.782 170.879 110.762 170.96 110.762C171.041 110.762 171.121 110.782 171.192 110.82C172.051 111.049 172.95 111.084 173.823 110.923C174.882 110.733 175.899 110.355 176.826 109.808C177.9 109.229 178.818 108.397 179.498 107.384C180.095 106.392 180.396 105.25 180.365 104.092C180.417 103.445 180.269 102.797 179.942 102.235C179.64 101.841 179.195 101.582 178.704 101.513C177.866 101.401 177.021 101.346 176.176 101.348C175.042 101.375 173.91 101.243 172.812 100.956C171.864 100.667 171.058 100.034 170.553 99.1813C169.877 97.9158 169.569 96.4859 169.665 95.0543C169.628 92.1863 170.369 89.362 171.811 86.8827C173.155 84.529 175.099 82.5743 177.445 81.2183C180.54 79.4334 182.882 78.9691 184.512 79.8048C184.642 79.871 184.753 79.9693 184.834 80.0902C184.916 80.2112 184.965 80.3509 184.977 80.4961C184.964 80.7535 184.911 81.0075 184.822 81.2493L183.553 85.0874C183.502 85.36 183.36 85.6073 183.151 85.789C183.08 85.8298 183 85.8512 182.918 85.8512C182.837 85.8512 182.757 85.8298 182.686 85.789C181.428 85.2456 179.901 85.4898 178.105 86.5216C177.07 87.0548 176.207 87.8692 175.613 88.8712C175.02 89.8731 174.722 91.022 174.752 92.186C174.706 92.8098 174.842 93.4336 175.144 93.9812C175.381 94.3465 175.751 94.6054 176.176 94.7035C176.884 94.8315 177.603 94.8903 178.322 94.8789H179.189C180.396 94.8835 181.595 95.0678 182.748 95.4257C183.63 95.7468 184.349 96.4031 184.75 97.2519C185.287 98.5584 185.523 99.9689 185.441 101.379C185.443 104.108 184.732 106.789 183.378 109.158C181.995 111.614 179.959 113.639 177.496 115.009C176.088 115.893 174.549 116.551 172.936 116.959Z" fill="#455A64"/>
<path d="M301.863 17.6728L297.674 15.2482C297.37 15.1067 297.034 15.0494 296.7 15.082C296.366 15.1147 296.047 15.2362 295.776 15.4339L242.465 46.2836C241.686 46.7937 241.037 47.4795 240.571 48.2859C240.105 49.0923 239.835 49.9967 239.782 50.9265V160.809C239.747 161.142 239.801 161.478 239.938 161.783C240.076 162.087 240.293 162.35 240.566 162.543L244.693 164.957H244.755C245.052 165.077 245.374 165.119 245.691 165.082C246.008 165.044 246.311 164.926 246.571 164.74L260.655 156.61V165.081C260.655 166.577 260.892 167.443 261.284 167.681L265.411 170.085C265.886 170.343 266.577 169.682 267.351 168.021L277.338 146.87L299.8 133.829C300.579 133.318 301.227 132.633 301.693 131.826C302.159 131.02 302.429 130.115 302.482 129.186V19.3958C302.534 19.0797 302.504 18.7557 302.396 18.4543C302.287 18.1528 302.104 17.8839 301.863 17.6728Z" fill="#437BFA"/>
<path opacity="0.4" d="M301.76 17.6109C301.463 17.5049 301.145 17.4711 300.833 17.5124C300.521 17.5537 300.223 17.6688 299.964 17.8482L246.643 48.7082C245.868 49.1901 245.229 49.8612 244.786 50.6582L240.597 48.2336C241.037 47.4343 241.677 46.7626 242.454 46.2835L295.765 15.4235C296.123 15.2036 296.532 15.0793 296.952 15.0624C297.2 15.0577 297.446 15.1182 297.663 15.2378L301.76 17.6109Z" fill="white"/>
<path opacity="0.2" d="M261.356 167.722C260.975 167.485 260.737 166.618 260.737 165.122V156.661L264.957 154.206V167.516C264.957 168.939 265.174 169.806 265.514 170.095L261.356 167.722Z" fill="black"/>
<path opacity="0.1" d="M244.776 164.967L240.587 162.553C240.319 162.357 240.107 162.096 239.972 161.794C239.836 161.492 239.781 161.159 239.813 160.83V50.9265C239.851 49.9725 240.135 49.0447 240.638 48.2336L244.827 50.6582C244.327 51.47 244.046 52.398 244.012 53.3511V163.234C243.973 163.565 244.024 163.9 244.158 164.204C244.292 164.509 244.505 164.773 244.776 164.967Z" fill="black"/>
<path d="M254.578 53.7948L292.02 32.1278C293.259 31.4158 294.259 31.9936 294.259 33.4175V57.2202C294.217 57.9973 293.992 58.7535 293.603 59.4275C293.214 60.1015 292.672 60.6744 292.02 61.0996L254.578 82.7666C253.35 83.4786 252.349 82.9008 252.349 81.4769V57.6639C252.392 56.8895 252.616 56.1359 253.003 55.4639C253.39 54.7919 253.929 54.2201 254.578 53.7948Z" fill="#455A64"/>
<path d="M294.259 67.1148C294.205 67.8664 293.974 68.5946 293.585 69.24C293.196 69.8855 292.66 70.4299 292.02 70.8291L254.578 92.4446C253.35 93.1565 252.349 92.6509 252.349 91.3096C252.405 90.5609 252.636 89.8357 253.023 89.1924C253.41 88.5491 253.942 88.0055 254.578 87.6056L292.02 65.9902C293.259 65.2783 294.259 65.7838 294.259 67.1148Z" fill="#455A64"/>
<path d="M294.259 76.8237C294.205 77.5754 293.974 78.3035 293.585 78.949C293.196 79.5944 292.66 80.1389 292.02 80.5381L254.578 102.205C253.35 102.917 252.349 102.411 252.349 101.07C252.405 100.321 252.636 99.5962 253.023 98.9529C253.41 98.3096 253.942 97.7661 254.578 97.3661L292.02 75.6991C293.259 74.9562 294.259 75.4618 294.259 76.8237Z" fill="#455A64"/>
<path d="M294.259 86.4707C294.205 87.2223 293.974 87.9505 293.585 88.5959C293.196 89.2414 292.66 89.7858 292.02 90.185L254.578 111.852C253.35 112.564 252.349 112.058 252.349 110.717C252.405 109.968 252.636 109.243 253.023 108.6C253.41 107.957 253.942 107.413 254.578 107.013L292.02 85.3461C293.259 84.6341 294.259 85.1397 294.259 86.4707Z" fill="#455A64"/>
<path d="M294.259 96.1486C294.205 96.9002 293.974 97.6284 293.585 98.2738C293.196 98.9193 292.66 99.4637 292.02 99.8629L254.578 121.478C253.35 122.19 252.349 121.685 252.349 120.343C252.405 119.595 252.636 118.87 253.023 118.226C253.41 117.583 253.942 117.039 254.578 116.639L292.02 94.9724C293.259 94.3636 294.259 94.8176 294.259 96.1486Z" fill="#455A64"/>
<path d="M252.349 130.032C252.349 131.363 253.381 131.868 254.578 131.156L258.498 128.897C259.134 128.497 259.666 127.953 260.054 127.31C260.441 126.667 260.671 125.941 260.727 125.193C260.727 123.851 259.695 123.346 258.498 124.058L254.578 126.317C253.941 126.718 253.408 127.263 253.02 127.909C252.633 128.554 252.403 129.281 252.349 130.032Z" fill="#455A64"/>
<path d="M266.401 121.932C266.401 123.263 267.433 123.769 268.64 123.057L292.02 109.541C292.659 109.142 293.195 108.597 293.584 107.952C293.973 107.306 294.204 106.578 294.259 105.827C294.259 104.496 293.227 103.99 292.02 104.702L268.64 118.218C268.001 118.617 267.465 119.162 267.076 119.807C266.687 120.453 266.456 121.181 266.401 121.932Z" fill="#455A64"/>
<path d="M252.349 139.761C252.349 141.092 253.381 141.598 254.578 140.886L258.498 138.626C259.134 138.226 259.666 137.683 260.054 137.039C260.441 136.396 260.671 135.671 260.727 134.922C260.727 133.581 259.695 133.075 258.498 133.787L254.578 136.047C253.941 136.448 253.408 136.993 253.02 137.638C252.633 138.283 252.403 139.011 252.349 139.761Z" fill="#455A64"/>
<path d="M266.401 131.61C266.401 132.941 267.433 133.447 268.64 132.735L292.02 119.219C292.659 118.82 293.195 118.275 293.584 117.63C293.973 116.984 294.204 116.256 294.259 115.504C294.259 114.174 293.227 113.668 292.02 114.38L268.64 127.896C268.001 128.295 267.465 128.84 267.076 129.485C266.687 130.13 266.456 130.859 266.401 131.61Z" fill="#455A64"/>
<path d="M252.349 149.388C252.349 150.718 253.381 151.224 254.578 150.512L258.498 148.253C259.134 147.853 259.666 147.309 260.054 146.666C260.441 146.022 260.671 145.297 260.727 144.549C260.727 143.207 259.695 142.702 258.498 143.414L254.578 145.673C253.941 146.074 253.408 146.619 253.02 147.265C252.633 147.91 252.403 148.637 252.349 149.388Z" fill="#455A64"/>
<path d="M266.401 141.288C266.401 142.619 267.433 143.125 268.64 142.413L292.02 128.897C292.658 128.499 293.193 127.956 293.582 127.312C293.971 126.669 294.203 125.943 294.259 125.193C294.259 123.851 293.227 123.346 292.02 124.058L268.64 137.574C268.001 137.973 267.465 138.518 267.076 139.163C266.687 139.808 266.456 140.537 266.401 141.288Z" fill="#455A64"/>
<path d="M352.183 46.6442L348.056 44.2196C347.752 44.0781 347.416 44.0208 347.082 44.0534C346.748 44.0861 346.429 44.2076 346.158 44.4053L292.816 75.2447C292.037 75.7548 291.388 76.4406 290.922 77.247C290.456 78.0534 290.186 78.9578 290.133 79.8876V189.77C290.098 190.103 290.152 190.439 290.289 190.744C290.427 191.048 290.644 191.311 290.917 191.504L295.096 193.918H295.148C295.446 194.039 295.769 194.082 296.088 194.044C296.408 194.006 296.712 193.888 296.974 193.701L311.057 185.571V194.042C311.057 195.538 311.295 196.404 311.676 196.642L315.803 199.046H315.855C316.33 199.304 317.021 198.643 317.784 196.982L327.782 175.831L350.244 162.79C351.023 162.28 351.671 161.594 352.137 160.787C352.603 159.981 352.873 159.077 352.926 158.147V48.3672C352.963 48.0402 352.914 47.7092 352.784 47.4069C352.654 47.1047 352.447 46.8417 352.183 46.6442Z" fill="#437BFA"/>
<path opacity="0.4" d="M352.07 46.5823C351.773 46.4763 351.456 46.4425 351.143 46.4838C350.831 46.5251 350.533 46.6402 350.274 46.8196L296.943 77.6796C296.168 78.1615 295.529 78.8326 295.085 79.6297L290.896 77.205C291.34 76.4079 291.979 75.7369 292.754 75.255L346.075 44.395C346.432 44.1729 346.841 44.0484 347.262 44.0339C347.507 44.0305 347.749 44.0909 347.963 44.2093L352.07 46.5823Z" fill="white"/>
<path opacity="0.2" d="M311.666 196.693C311.285 196.456 311.047 195.589 311.047 194.093V185.633L315.236 183.208V196.508C315.236 197.931 315.453 198.798 315.804 199.087L311.666 196.693Z" fill="black"/>
<path opacity="0.1" d="M295.086 193.939L290.907 191.524C290.638 191.33 290.425 191.069 290.289 190.766C290.153 190.464 290.1 190.131 290.133 189.801V79.9185C290.167 78.9654 290.448 78.0374 290.948 77.2256L295.137 79.6503C294.637 80.4621 294.356 81.3901 294.322 82.3432V192.226C294.287 192.553 294.339 192.884 294.473 193.185C294.608 193.486 294.819 193.746 295.086 193.939Z" fill="black"/>
<path d="M304.898 82.7662L342.341 61.0992C343.569 60.3873 344.569 60.9651 344.569 62.3889V86.2536C344.528 87.0295 344.304 87.7848 343.917 88.4587C343.53 89.1325 342.99 89.706 342.341 90.133L304.898 111.8C303.66 112.512 302.659 111.934 302.659 110.51V86.6353C302.701 85.8596 302.926 85.1049 303.315 84.4325C303.704 83.7602 304.247 83.1892 304.898 82.7662Z" fill="#455A64"/>
<path d="M344.569 96.0862C344.515 96.8367 344.285 97.564 343.898 98.2092C343.511 98.8545 342.977 99.3996 342.341 99.8006L304.898 121.416C303.66 122.128 302.659 121.622 302.659 120.281C302.715 119.531 302.947 118.805 303.336 118.162C303.725 117.518 304.26 116.975 304.898 116.577L342.341 94.9616C343.569 94.2497 344.569 94.7553 344.569 96.0862Z" fill="#455A64"/>
<path d="M344.569 105.764C344.515 106.515 344.285 107.242 343.898 107.887C343.511 108.532 342.977 109.078 342.341 109.479L304.898 131.094C303.66 131.806 302.659 131.3 302.659 129.959C302.715 129.209 302.947 128.483 303.336 127.84C303.725 127.196 304.26 126.653 304.898 126.255L342.341 104.681C343.569 103.928 344.569 104.433 344.569 105.764Z" fill="#455A64"/>
<path d="M344.569 115.442C344.51 116.187 344.278 116.908 343.891 117.548C343.504 118.187 342.973 118.728 342.341 119.125L304.898 140.792C303.66 141.504 302.659 140.999 302.659 139.658C302.715 138.908 302.947 138.182 303.336 137.538C303.725 136.895 304.26 136.352 304.898 135.954L342.341 114.317C343.569 113.606 344.569 114.111 344.569 115.442Z" fill="#455A64"/>
<path d="M344.569 125.12C344.515 125.871 344.285 126.598 343.898 127.243C343.511 127.888 342.977 128.433 342.341 128.834L304.898 150.501C303.66 151.213 302.659 150.708 302.659 149.366C302.715 148.617 302.947 147.89 303.336 147.247C303.725 146.603 304.26 146.061 304.898 145.662L342.341 123.995C343.569 123.253 344.569 123.789 344.569 125.12Z" fill="#455A64"/>
<path d="M302.659 159.003C302.659 160.334 303.691 160.84 304.898 160.128L308.808 157.868C309.446 157.47 309.981 156.927 310.37 156.284C310.759 155.64 310.991 154.914 311.047 154.164C311.047 152.823 310.016 152.317 308.808 153.029L304.898 155.289C304.259 155.688 303.723 156.232 303.334 156.878C302.945 157.523 302.714 158.251 302.659 159.003Z" fill="#455A64"/>
<path d="M316.722 150.904C316.722 152.235 317.754 152.74 318.961 152.028L342.341 138.512C342.978 138.111 343.511 137.566 343.898 136.921C344.285 136.276 344.515 135.548 344.569 134.798C344.569 133.467 343.538 132.961 342.341 133.673L318.951 147.189C318.314 147.59 317.781 148.136 317.393 148.781C317.006 149.426 316.776 150.153 316.722 150.904Z" fill="#455A64"/>
<path d="M302.659 168.65C302.659 169.981 303.691 170.487 304.898 169.775L308.808 167.515C309.446 167.117 309.981 166.574 310.37 165.931C310.759 165.287 310.991 164.561 311.047 163.811C311.047 162.47 310.016 161.964 308.808 162.676L304.898 164.936C304.259 165.335 303.723 165.879 303.334 166.525C302.945 167.17 302.714 167.898 302.659 168.65Z" fill="#455A64"/>
<path d="M316.722 160.582C316.722 161.913 317.754 162.418 318.961 161.706L342.341 148.19C342.978 147.789 343.511 147.244 343.898 146.599C344.285 145.954 344.515 145.226 344.569 144.476C344.569 143.145 343.538 142.639 342.341 143.351L318.951 156.867C318.314 157.268 317.781 157.813 317.393 158.459C317.006 159.104 316.776 159.831 316.722 160.582Z" fill="#455A64"/>
<path d="M302.659 178.359C302.659 179.69 303.691 180.196 304.898 179.484L308.808 177.224C309.446 176.826 309.981 176.283 310.37 175.639C310.759 174.996 310.991 174.27 311.047 173.52C311.047 172.179 310.016 171.673 308.808 172.385L304.898 174.645C304.259 175.044 303.723 175.588 303.334 176.234C302.945 176.879 302.714 177.607 302.659 178.359Z" fill="#455A64"/>
<path d="M316.722 170.26C316.722 171.591 317.754 172.096 318.961 171.384L342.341 157.868C342.976 157.468 343.509 156.925 343.896 156.281C344.283 155.638 344.514 154.913 344.569 154.164C344.569 152.823 343.538 152.317 342.341 153.029L318.951 166.587C318.319 166.983 317.789 167.522 317.402 168.16C317.015 168.797 316.783 169.516 316.722 170.26Z" fill="#455A64"/>
<path d="M406.703 4.05309L401.152 0.875257H401.1C398.655 -0.496987 395.302 -0.290632 391.588 1.84512C384.107 6.1682 378.051 16.6715 378.051 25.3074C378.051 29.6098 379.557 32.6432 382.002 34.0567L387.017 36.925L388.214 34.8615C389.58 34.5619 390.892 34.0539 392.103 33.3551C399.573 29.0424 405.64 18.539 405.64 9.90318C405.636 8.73838 405.494 7.57815 405.217 6.44677L406.703 4.05309Z" fill="#437BFA"/>
<path d="M378.082 25.2352C378.082 29.5479 379.588 32.5813 382.034 33.9948L387.048 36.8631L388.245 34.8615C389.61 34.5533 390.921 34.0421 392.135 33.3448C396.409 30.6543 399.881 26.8622 402.184 22.3669L382.58 11.0175C379.827 15.2645 378.272 20.1771 378.082 25.2352Z" fill="#263238"/>
<path d="M406.713 4.0531L401.203 0.875268H401.152C398.707 -0.507293 395.353 -0.300938 391.639 1.84513C387.922 4.13341 384.813 7.28756 382.58 11.0381L402.184 22.3875C404.317 18.5989 405.506 14.352 405.65 10.0064C405.646 8.84156 405.504 7.68134 405.227 6.54996L406.713 4.0531Z" fill="#455A64"/>
<path d="M396.849 4.82695C389.379 9.13972 383.312 19.6431 383.312 28.3305C383.312 37.0179 389.379 40.464 396.849 36.1409C404.319 31.8179 410.438 21.2732 410.438 12.6374C410.438 4.00154 404.329 0.472917 396.849 4.82695Z" fill="#37474F"/>
<path d="M397.84 11.977C398.241 11.8373 398.671 11.8053 399.088 11.8841C399.428 11.963 399.742 12.1303 399.996 12.3691C400.242 12.6086 400.429 12.9017 400.543 13.2254C400.673 13.555 400.75 13.9034 400.77 14.2572C400.777 14.4294 400.738 14.6004 400.657 14.7524C400.594 14.8881 400.494 15.0027 400.368 15.0826L399.336 15.6707C399.171 15.7739 399.047 15.7945 398.964 15.7429C398.864 15.6783 398.785 15.5848 398.737 15.4747C398.666 15.3415 398.569 15.2237 398.453 15.1281C398.336 15.0325 398.201 14.9609 398.057 14.9175C397.826 14.8843 397.591 14.8983 397.365 14.9586C397.14 15.0189 396.93 15.1242 396.746 15.2683C396.484 15.4157 396.241 15.596 396.024 15.8048C395.797 16.0139 395.596 16.2494 395.426 16.5064C395.255 16.7548 395.119 17.0257 395.023 17.3112C394.929 17.5835 394.881 17.8693 394.879 18.1573C394.857 18.4192 394.914 18.6816 395.044 18.9105C395.104 18.9902 395.182 19.055 395.272 19.0998C395.361 19.1445 395.46 19.168 395.56 19.1684C395.869 19.1821 396.178 19.1509 396.478 19.0755L397.84 18.7557C398.321 18.6285 398.818 18.5729 399.315 18.5906C399.691 18.5972 400.053 18.7278 400.347 18.962C400.625 19.214 400.82 19.5453 400.904 19.9113C401.021 20.4152 401.076 20.9314 401.069 21.4486C401.062 22.0299 400.986 22.6082 400.842 23.1716C400.692 23.7707 400.478 24.3519 400.203 24.905C399.918 25.4742 399.572 26.0105 399.171 26.5042C398.773 27.0016 398.32 27.4516 397.819 27.8455V29.3622C397.816 29.5312 397.774 29.6972 397.695 29.8471C397.643 29.9854 397.549 30.1043 397.427 30.1876L396.241 30.8686C396.203 30.9034 396.153 30.9227 396.101 30.9227C396.05 30.9227 396 30.9034 395.962 30.8686C395.921 30.8206 395.889 30.7649 395.87 30.7046C395.85 30.6444 395.843 30.5809 395.849 30.5178V28.9908C395.455 29.129 395.038 29.192 394.621 29.1765C394.254 29.1603 393.897 29.0463 393.589 28.8463C393.288 28.6297 393.05 28.338 392.898 28.0003C392.709 27.56 392.611 27.0863 392.609 26.6074C392.599 26.4349 392.639 26.2633 392.722 26.1121C392.781 25.9747 392.878 25.8567 393.001 25.7717L394.033 25.1836C394.198 25.0907 394.322 25.0598 394.414 25.101C394.517 25.1662 394.593 25.2646 394.631 25.3796C394.703 25.5329 394.786 25.6812 394.879 25.8233C394.976 25.9577 395.113 26.0587 395.271 26.1121C395.474 26.1597 395.686 26.1597 395.89 26.1121C396.22 26.0357 396.534 25.9031 396.818 25.7201C397.116 25.5477 397.399 25.351 397.664 25.132C397.928 24.9104 398.166 24.6614 398.376 24.3891C398.579 24.1194 398.745 23.8246 398.872 23.5121C398.997 23.2044 399.061 22.8747 399.057 22.5423C399.072 22.419 399.061 22.2941 399.026 22.1752C398.99 22.0563 398.931 21.946 398.851 21.851C398.764 21.7823 398.665 21.7314 398.559 21.7013C398.453 21.6712 398.342 21.6625 398.232 21.6756C397.883 21.6947 397.537 21.75 397.2 21.8407C396.787 21.9438 396.323 22.0367 395.787 22.1399C395.368 22.2387 394.936 22.27 394.507 22.2327C394.174 22.2101 393.857 22.0756 393.61 21.851C393.351 21.5831 393.166 21.2524 393.073 20.8914C392.945 20.3543 392.886 19.803 392.898 19.2509C392.897 18.6623 392.973 18.0761 393.125 17.5073C393.268 16.9284 393.469 16.3651 393.723 15.8255C393.976 15.2872 394.287 14.7786 394.652 14.3088C395.001 13.8508 395.395 13.4291 395.828 13.05V11.5334C395.832 11.3657 395.871 11.2006 395.941 11.0484C396 10.911 396.097 10.7929 396.22 10.7079L397.407 10.027C397.443 9.99288 397.491 9.97391 397.541 9.97391C397.59 9.97391 397.638 9.99288 397.675 10.027C397.72 10.073 397.754 10.1282 397.775 10.1888C397.797 10.2493 397.805 10.3138 397.799 10.3778L397.84 11.977Z" fill="#FAFAFA"/>
<path d="M406.703 105.011L401.152 101.833H401.1C398.655 100.451 395.302 100.657 391.588 102.803C384.107 107.116 378.051 117.619 378.051 126.255C378.051 130.568 379.557 133.591 382.002 135.015L387.017 137.873L388.214 135.871C389.578 135.567 390.89 135.059 392.103 134.365C399.573 130.042 405.64 119.538 405.64 110.902C405.635 109.738 405.493 108.577 405.217 107.446L406.703 105.011Z" fill="#437BFA"/>
<path d="M378.082 126.234C378.082 130.547 379.588 133.57 382.034 134.994L387.048 137.852L388.245 135.85C389.61 135.542 390.921 135.031 392.135 134.334C396.413 131.639 399.885 127.839 402.184 123.335L382.58 111.986C379.824 116.243 378.27 121.166 378.082 126.234Z" fill="#263238"/>
<path d="M406.713 105.011L401.204 101.833H401.152C398.707 100.451 395.354 100.657 391.639 102.803C387.927 105.1 384.826 108.261 382.601 112.017L402.205 123.366C404.356 119.543 405.55 115.256 405.682 110.871C405.677 109.707 405.535 108.547 405.259 107.415L406.713 105.011Z" fill="#455A64"/>
<path d="M396.849 105.785C389.379 110.098 383.312 120.601 383.312 129.237C383.312 137.873 389.379 141.37 396.849 137.058C404.319 132.745 410.438 122.221 410.438 113.606C410.438 104.99 404.329 101.472 396.849 105.785Z" fill="#37474F"/>
<path d="M403.741 124.501L389.967 132.456C389.802 132.549 389.679 132.456 389.679 132.177V119.961C389.675 119.843 389.7 119.725 389.75 119.618C389.8 119.51 389.874 119.416 389.967 119.342L403.741 111.387C403.896 111.294 404.03 111.387 404.03 111.666V123.892C404.032 124.009 404.007 124.125 403.957 124.23C403.907 124.336 403.833 124.428 403.741 124.501Z" fill="#FAFAFA"/>
<path d="M399.563 114.606C399.408 114.699 399.274 114.606 399.274 114.328V112.471L394.435 115.267V117.124C394.437 117.243 394.411 117.362 394.359 117.469C394.307 117.577 394.231 117.67 394.136 117.743C393.981 117.836 393.847 117.743 393.847 117.464V115.153C393.846 115.036 393.871 114.921 393.921 114.815C393.971 114.71 394.045 114.617 394.136 114.545L399.563 111.449C399.728 111.356 399.852 111.449 399.852 111.728V113.967C399.86 114.089 399.838 114.211 399.788 114.323C399.738 114.434 399.66 114.532 399.563 114.606Z" fill="#FAFAFA"/>
<path d="M399.563 112.306L394.136 115.401C393.981 115.494 393.847 115.401 393.847 115.122V114.091C393.846 113.972 393.872 113.855 393.922 113.748C393.972 113.641 394.045 113.547 394.136 113.471L399.563 110.376C399.728 110.283 399.852 110.376 399.852 110.655V111.687C399.855 111.805 399.831 111.923 399.781 112.03C399.731 112.138 399.656 112.232 399.563 112.306Z" fill="#FAFAFA"/>
<path d="M398.821 119.93L394.879 122.2C394.766 122.272 394.673 122.2 394.673 121.994V121.251C394.671 121.166 394.689 121.082 394.725 121.005C394.761 120.928 394.813 120.861 394.879 120.807L398.821 118.537C398.944 118.465 399.037 118.537 399.037 118.733V119.476C399.039 119.564 399.021 119.65 398.983 119.729C398.945 119.808 398.89 119.877 398.821 119.93Z" fill="#37474F"/>
<path d="M406.703 54.5372L401.152 51.3491H401.1C398.655 49.9665 395.302 50.1729 391.588 52.3189C384.107 56.642 378.051 67.135 378.051 75.7709C378.051 80.0837 379.557 83.117 382.002 84.5306L387.017 87.3885L388.214 85.3869C389.58 85.0874 390.892 84.5793 392.103 83.8805C399.573 79.5575 405.64 69.0644 405.64 60.4286C405.636 59.2604 405.494 58.0968 405.217 56.9619L406.703 54.5372Z" fill="#437BFA"/>
<path d="M378.082 75.7916C378.082 80.1043 379.588 83.1377 382.034 84.5512L387.048 87.4092L388.245 85.4076C389.611 85.108 390.923 84.5999 392.135 83.9012C396.419 81.1909 399.891 77.3728 402.184 72.851L382.58 61.5016C379.817 65.7709 378.263 70.7092 378.082 75.7916Z" fill="#263238"/>
<path d="M406.713 54.5372L401.204 51.3491H401.152C398.707 49.9768 395.354 50.1729 391.639 52.3189C387.927 54.6157 384.826 57.7769 382.601 61.5326L402.205 72.882C404.344 69.077 405.533 64.812 405.671 60.4492C405.667 59.281 405.525 58.1174 405.248 56.9825L406.713 54.5372Z" fill="#455A64"/>
<path d="M396.849 55.3007C389.379 59.6238 383.312 70.1168 383.312 78.7527C383.312 87.3885 389.379 90.8965 396.849 86.5734C404.319 82.2503 410.438 71.7573 410.438 63.1215C410.438 54.4856 404.329 51.0292 396.849 55.3007Z" fill="#37474F"/>
<path d="M391.866 69.0438C391.866 67.0834 392.898 64.9167 394.177 64.1532C395.457 63.3897 396.489 64.4112 396.489 66.3818C396.489 68.3525 395.457 70.5089 394.177 71.2724C392.898 72.0359 391.866 71.0145 391.866 69.0438Z" fill="white"/>
<path d="M398.304 78.9487L389.802 83.8599L390.256 78.2058C390.452 75.8018 391.721 73.3359 393.228 72.4692L394.868 71.52C396.375 70.6533 397.644 71.6438 397.84 73.8312L398.304 78.9487Z" fill="white"/>
<path d="M397.479 63.1524C397.479 61.1921 398.51 59.0254 399.79 58.2619C401.069 57.4984 402.101 58.5198 402.101 60.4905C402.101 62.4612 401.069 64.6175 399.79 65.381C398.51 66.1446 397.479 65.1231 397.479 63.1524Z" fill="white"/>
<path d="M403.897 73.0574L398.686 76.0701L398.449 73.3669C398.274 71.4684 397.417 70.2716 396.282 70.2716C396.682 68.7923 397.583 67.4977 398.831 66.6088L400.471 65.6699C401.978 64.7929 403.247 65.7834 403.443 67.9708L403.897 73.0574Z" fill="white"/>
<path d="M265.473 265.45C265.473 259.053 261.243 252.656 252.783 247.776C235.872 238.005 208.417 238.005 191.537 247.776C183.077 252.656 178.847 259.053 178.847 265.45V277.243C178.847 283.64 183.077 290.037 191.537 294.928C208.448 304.688 235.903 304.688 252.783 294.928C261.243 290.037 265.473 283.64 265.473 277.243V265.45ZM193.632 251.397C201.184 247.033 211.316 244.639 222.16 244.639C233.004 244.639 243.136 247.033 250.688 251.397C257.519 255.339 261.284 260.333 261.284 265.45C261.284 270.568 257.519 275.561 250.688 279.503C243.136 283.867 232.973 286.271 222.16 286.271C211.347 286.271 201.184 283.867 193.632 279.503C186.802 275.561 183.036 270.568 183.036 265.45C183.036 260.333 186.802 255.318 193.632 251.397Z" fill="#437BFA"/>
<path opacity="0.3" d="M191.527 283.176C208.448 292.936 235.893 292.936 252.783 283.176C269.673 273.415 269.694 257.578 252.783 247.817C235.872 238.057 208.417 238.046 191.527 247.817C174.637 257.588 174.617 273.374 191.527 283.176ZM183.036 265.491C183.036 260.333 186.791 255.38 193.622 251.439C201.174 247.074 211.316 244.681 222.16 244.681C233.004 244.681 243.136 247.074 250.689 251.439C257.519 255.38 261.274 260.374 261.274 265.491C261.274 270.609 257.519 275.603 250.689 279.544C243.136 283.867 232.973 286.271 222.16 286.271C211.347 286.271 201.174 283.867 193.622 279.503C186.791 275.561 183.036 270.568 183.036 265.45V265.491Z" fill="white"/>
<path d="M183.036 265.45C183.061 267.533 183.645 269.572 184.728 271.352C186.44 268.38 189.464 265.584 193.632 263.19C201.174 258.826 211.316 256.422 222.16 256.422C233.004 256.422 243.136 258.826 250.688 263.19C254.312 265.099 257.383 267.91 259.603 271.352C260.678 269.569 261.258 267.532 261.284 265.45C261.284 260.291 257.519 255.339 250.688 251.397C243.136 247.043 233.004 244.639 222.16 244.639C211.316 244.639 201.174 247.043 193.632 251.397C186.791 255.318 183.036 260.333 183.036 265.45Z" fill="#437BFA"/>
<path opacity="0.1" d="M183.036 265.45C183.061 267.533 183.645 269.572 184.728 271.352C186.44 268.38 189.464 265.584 193.632 263.19C201.174 258.826 211.316 256.422 222.16 256.422C233.004 256.422 243.136 258.826 250.688 263.19C254.312 265.099 257.383 267.91 259.603 271.352C260.678 269.569 261.258 267.532 261.284 265.45C261.284 260.291 257.519 255.339 250.688 251.397C243.136 247.043 233.004 244.639 222.16 244.639C211.316 244.639 201.174 247.043 193.632 251.397C186.791 255.318 183.036 260.333 183.036 265.45Z" fill="black"/>
<path opacity="0.4" d="M193.622 256.732C201.174 252.378 211.317 249.974 222.16 249.974C233.004 249.974 243.136 252.378 250.689 256.732C256.322 259.992 259.861 263.954 260.934 268.081C259.902 272.208 256.322 276.211 250.689 279.43C243.136 283.867 232.973 286.271 222.16 286.271C211.347 286.271 201.174 283.867 193.622 279.503C187.988 276.253 184.449 272.28 183.387 268.153C184.48 263.954 187.988 259.992 193.622 256.732Z" fill="white"/>
<path opacity="0.1" d="M211.956 289.758V301.541C204.792 300.653 197.862 298.409 191.538 294.928C183.077 290.037 178.847 283.64 178.847 277.243V265.45C178.85 264.147 179.024 262.85 179.363 261.591C177.3 269.206 181.365 277.264 191.528 283.134C197.854 286.62 204.788 288.868 211.956 289.758Z" fill="black"/>
<path d="M192.817 290.635C192.764 289.583 192.464 288.558 191.94 287.644C191.417 286.73 190.685 285.952 189.804 285.373C189.5 285.15 189.142 285.012 188.767 284.972C188.392 284.932 188.013 284.992 187.668 285.146L173.131 293.493C172.819 293.706 172.571 294 172.414 294.344C172.258 294.688 172.199 295.068 172.244 295.443C172.289 296.492 172.579 297.515 173.092 298.431C173.604 299.346 174.324 300.129 175.194 300.716C175.5 300.94 175.861 301.078 176.238 301.117C176.615 301.155 176.996 301.091 177.34 300.932L191.919 292.616C192.232 292.396 192.48 292.096 192.638 291.748C192.795 291.4 192.857 291.016 192.817 290.635Z" fill="#37474F"/>
<path d="M191.919 292.606C192.23 292.387 192.477 292.089 192.635 291.742C192.793 291.396 192.856 291.014 192.817 290.635C192.804 289.852 192.632 289.08 192.311 288.366L173.502 299.117C173.954 299.757 174.529 300.301 175.195 300.716C175.5 300.94 175.861 301.078 176.238 301.117C176.615 301.155 176.996 301.091 177.341 300.932L191.919 292.616V292.606Z" fill="#263238"/>
<path d="M177.65 300.716C177.583 299.344 177.193 298.008 176.512 296.815C175.83 295.623 174.877 294.609 173.729 293.855C173.338 293.57 172.878 293.392 172.397 293.339C171.915 293.287 171.428 293.361 170.985 293.555L122.626 319.349L129.848 332.102L176.525 303.213C176.914 302.931 177.222 302.552 177.42 302.114C177.617 301.676 177.696 301.194 177.65 300.716Z" fill="#437BFA"/>
<path opacity="0.1" d="M129.797 332.092L176.474 303.202C176.879 302.921 177.2 302.536 177.406 302.087C177.611 301.639 177.692 301.144 177.64 300.654C177.581 299.186 177.129 297.76 176.33 296.527L126.083 325.478L129.797 332.092Z" fill="black"/>
<path d="M126.155 331.669C124.648 330.681 123.395 329.351 122.499 327.788C121.602 326.224 121.087 324.471 120.996 322.672C120.996 319.37 123.328 318.039 126.155 319.7C127.662 320.686 128.914 322.014 129.811 323.575C130.707 325.137 131.222 326.888 131.314 328.687C131.334 332.04 129.013 333.371 126.155 331.669Z" fill="#437BFA"/>
<g opacity="0.2">
<path d="M126.155 331.669C124.648 330.681 123.395 329.351 122.499 327.788C121.602 326.224 121.087 324.471 120.996 322.672C120.996 319.37 123.328 318.039 126.155 319.7C127.662 320.686 128.914 322.014 129.811 323.575C130.707 325.137 131.222 326.888 131.314 328.687C131.334 332.04 129.013 333.371 126.155 331.669Z" fill="black"/>
</g>
<path d="M411.188 217.72C411.715 198.117 410.157 193.402 404.926 189.801L402.862 201.15C402.862 201.15 405.245 214.563 404.987 219.01C404.771 222.931 404.389 227.842 403.46 231.009C403.29 231.567 402.924 232.043 402.429 232.351C401.347 233.121 400.381 234.041 399.56 235.085C398.776 235.91 398.106 236.116 398.209 236.374C398.359 236.662 398.613 236.883 398.919 236.992C399.225 237.101 399.561 237.09 399.86 236.962C400.529 236.697 401.163 236.35 401.748 235.931C401.285 237.134 400.634 238.255 399.818 239.253C397.951 241.533 397.868 242.936 401.634 242.978C403.997 242.978 405.885 241.544 407.66 236.343C408.346 234.437 408.901 232.486 409.321 230.504C410.204 226.285 410.828 222.015 411.188 217.72Z" fill="#FFBDA7"/>
<path d="M400.531 188.315C402.136 188.028 403.79 188.27 405.245 189.005C406.701 189.74 407.878 190.928 408.599 192.39C410.786 196.301 411.323 203.038 411.571 209.734C411.571 209.734 407.227 213.376 402.006 211.591L400.531 188.315Z" fill="#437BFA"/>
<path d="M407.866 296.237C408.259 296.392 408.362 297.145 408.424 298.641C408.424 299.776 408.702 301.737 407.392 302.16C406.081 302.583 404.111 302.345 403.265 301.283C402.233 299.941 401.48 298.775 399.963 297.155C398.642 295.742 397.219 294.421 396.692 292.44C396.208 290.645 396.61 289.871 397.827 289.345C399.509 288.633 402.15 290.975 403.471 291.336C404.585 291.646 407.464 296.093 407.866 296.237Z" fill="#263238"/>
<path d="M407.866 294.855V296.691C407.176 297.134 406.377 297.38 405.557 297.402C404.737 297.424 403.926 297.221 403.213 296.815C403.13 296.64 402.728 294.184 402.728 294.184L407.866 294.855Z" fill="#FFA8A7"/>
<path d="M392.947 306.906C393.273 307.891 393.545 308.893 393.762 309.908C393.989 311.022 394.319 312.88 393.927 313.715C393.535 314.551 392.019 315.098 389.656 315.077C387.696 315.317 385.81 315.975 384.126 317.007C381.929 317.939 379.538 318.318 377.161 318.111C375.098 317.873 372.89 316.656 372.549 315.789C372.209 314.923 372.663 314.015 377.605 311.91C377.605 311.91 384.476 309.671 386.891 307.03L392.947 306.906Z" fill="#263238"/>
<path d="M392.947 304.842V306.988C392.947 307.772 392.039 308.938 389.645 308.845C387.974 308.784 386.798 308.34 386.87 306.957V304.966L392.947 304.842Z" fill="#FFA8A7"/>
<path d="M409.063 270.423C408.654 267.16 407.925 263.946 406.886 260.827C406.886 260.827 407.546 252.573 407.856 244.711C408.196 236.24 407.856 225.582 408 223.467C408 223.467 380.659 217.937 380.143 227.739C379.627 237.54 381.175 262.468 381.546 266.77C381.917 271.073 382.578 274.869 383.496 281.844C384.414 288.819 386.839 304.987 386.839 304.987C387.784 305.468 388.833 305.709 389.893 305.687C390.953 305.665 391.992 305.382 392.916 304.863C392.916 304.863 394.845 285.259 394.639 280.317C394.484 276.637 393.853 272.992 392.761 269.473C392.761 269.473 393.277 261.395 393.731 254.368C394.185 247.342 394.68 243.968 394.763 240.955L395.351 240.666C395.351 240.666 395.949 252.79 396.28 257.092C396.61 261.395 397.311 265.522 398.529 273.508C399.612 280.441 402.821 295.113 402.821 295.113C405.916 296.805 407.815 294.896 407.815 294.896C407.815 294.896 409.899 276.438 409.063 270.423Z" fill="#37474F"/>
<path d="M394.814 240.873C394.814 240.873 401.449 237.602 404.771 234.682C404.771 234.682 401.676 239.026 397.642 240.945C397.642 240.945 396.197 256.009 396.207 255.71L395.372 240.873H394.814Z" fill="#263238"/>
<path d="M388.913 185.209L390.532 194.113L398.57 193.525L396.888 183.435L388.913 185.209Z" fill="#FFBDA7"/>
<path d="M407.072 192.875C406.267 190.451 403.203 187.82 400.128 188.387C395.575 189.168 391.088 190.292 386.705 191.751C383.888 192.782 381.329 195.186 381.092 204.441C381.092 204.441 380.153 226.026 380.132 230.235C386.005 232.54 392.401 233.172 398.611 232.062C407.072 230.215 408.093 226.707 408.093 226.707C408.093 226.707 408.196 211.23 407.949 204.483C407.691 198.756 407.618 194.536 407.072 192.875Z" fill="#F5F5F5"/>
<path d="M382.702 174.376C382.702 174.376 380.638 177.626 380.917 177.935C381.196 178.245 382.723 178.493 382.723 178.493L382.702 174.376Z" fill="#FFBDA7"/>
<path d="M388.366 165.379C384.115 166.411 382.929 168.288 382.671 175.077C382.413 182.186 383.187 184.363 384.146 185.333C384.786 185.963 388.273 186.004 390.038 185.478C392.235 184.817 397.177 182.939 399.437 179.287C402.089 175.026 402.687 169.32 399.685 167.05C395.475 163.893 390.099 164.976 388.366 165.379Z" fill="#FFBDA7"/>
<path d="M382.722 167.154C383.699 168.577 385.079 169.676 386.684 170.311C387.499 171.239 387.045 174.861 388.479 175.47C388.479 175.47 389.099 172.828 391.317 173.107C393.535 173.385 393.907 176.202 392.545 177.977C391.183 179.751 389.862 179.101 389.862 179.101C389.862 179.101 390.017 182.847 391.73 184.931C393.509 185.277 395.345 185.192 397.084 184.683C399.21 184.178 402.171 181.433 403.378 178.575C405.937 172.539 405.999 167.154 402.14 165.627C401.665 162.872 399.468 161.685 396.981 161.18C391.626 160.076 388.18 163.419 384.064 163.119C381.701 162.923 381.257 164.646 382.722 167.154Z" fill="#263238"/>
<path d="M402.233 166.514L404.75 164.946C404.653 164.767 404.522 164.611 404.362 164.485C404.203 164.36 404.02 164.269 403.824 164.217C403.628 164.165 403.423 164.154 403.223 164.184C403.022 164.214 402.83 164.285 402.658 164.392C402.486 164.499 402.338 164.641 402.222 164.807C402.107 164.974 402.027 165.162 401.987 165.361C401.947 165.56 401.948 165.765 401.991 165.963C402.033 166.161 402.115 166.349 402.233 166.514Z" fill="#263238"/>
<path d="M352.657 207.784C353.977 208.372 369.557 219.887 371.992 218.546C374.427 217.204 386.88 202.636 386.88 202.636C387.933 201.008 388.493 199.111 388.493 197.173C388.493 195.234 387.933 193.337 386.88 191.709C384.446 192.235 382.284 193.624 380.793 195.62C378.729 198.777 369.671 210.064 369.671 210.064C367.442 208.95 365.213 207.815 363.005 206.67C361.179 205.721 359.343 204.782 357.558 203.76C357.054 203.534 356.583 203.242 356.154 202.894C355.267 202.027 355.422 199.912 355.443 198.767C355.435 198.233 355.46 197.699 355.515 197.167C355.597 196.507 355.721 194.908 354.535 195.413C354.313 195.525 354.122 195.687 353.977 195.888C353.79 196.13 353.647 196.402 353.554 196.693C353.327 197.384 353.4 198.148 353.204 198.839C353.179 198.944 353.126 199.041 353.049 199.117C352.998 199.162 352.939 199.194 352.875 199.214C352.811 199.234 352.744 199.239 352.677 199.231C350.965 199.179 349.335 196.775 348.55 195.496C348.265 194.889 347.814 194.374 347.25 194.01C346.754 193.86 346.221 193.881 345.737 194.067C345.253 194.254 344.845 194.597 344.578 195.042C343.836 196.156 343.532 197.504 343.722 198.829C343.875 200.628 344.67 202.312 345.961 203.575C347.933 205.354 350.199 206.778 352.657 207.784Z" fill="#FFBDA7"/>
<path d="M388.273 191.245C386.56 191.441 384.146 191.121 380.782 194.743C378.067 197.842 375.535 201.098 373.199 204.493C373.643 206.275 374.59 207.891 375.927 209.15C377.264 210.409 378.935 211.256 380.741 211.591C380.741 211.591 386.632 205.545 388.273 202.223C389.913 198.901 390.305 193.494 388.273 191.245Z" fill="#437BFA"/>
</svg>
