<svg width="525" height="391" viewBox="0 0 525 391" fill="none" xmlns="http://www.w3.org/2000/svg">
<path d="M524.748 343.605H0V343.867H524.748V343.605Z" fill="#EBEBEB"/>
<path d="M89.8154 353.596H55.0562V353.858H89.8154V353.596Z" fill="#EBEBEB"/>
<path d="M236.136 353.732H179.61V353.995H236.136V353.732Z" fill="#EBEBEB"/>
<path d="M131.145 359.011H111.005V359.274H131.145V359.011Z" fill="#EBEBEB"/>
<path d="M468.075 358.885H447.893V359.148H468.075V358.885Z" fill="#EBEBEB"/>
<path d="M438.542 358.885H406.752V359.148H438.542V358.885Z" fill="#EBEBEB"/>
<path d="M389.248 357.154H344.581V357.416H389.248V357.154Z" fill="#EBEBEB"/>
<path d="M248.73 296.797H46.0832C44.4957 296.794 42.9741 296.162 41.8526 295.038C40.731 293.915 40.1011 292.392 40.1011 290.805V5.94014C40.1149 4.36173 40.7509 2.85251 41.871 1.74029C42.9911 0.628079 44.5047 0.00270391 46.0832 0H248.73C250.32 0 251.844 0.631364 252.968 1.7552C254.092 2.87903 254.723 4.40328 254.723 5.99262V290.805C254.723 292.394 254.092 293.918 252.968 295.042C251.844 296.166 250.32 296.797 248.73 296.797ZM46.0832 0.2099C44.5653 0.21268 43.1104 0.817625 42.0381 1.89195C40.9657 2.96628 40.3634 4.4222 40.3634 5.94014V290.805C40.3634 292.323 40.9657 293.779 42.0381 294.853C43.1104 295.927 44.5653 296.532 46.0832 296.535H248.73C250.249 296.532 251.705 295.928 252.779 294.853C253.853 293.779 254.458 292.324 254.461 290.805V5.94014C254.458 4.42124 253.853 2.96534 252.779 1.89131C251.705 0.817284 250.249 0.212674 248.73 0.2099H46.0832Z" fill="#EBEBEB"/>
<path d="M475.747 296.797H273.089C271.501 296.794 269.978 296.162 268.855 295.039C267.732 293.916 267.099 292.393 267.097 290.805V5.94014C267.113 4.36077 267.752 2.85156 268.873 1.73964C269.995 0.627712 271.51 0.00267442 273.089 0H475.747C477.324 0.00546209 478.835 0.632058 479.952 1.74398C481.07 2.85589 481.705 4.36354 481.719 5.94014V290.805C481.719 292.39 481.09 293.911 479.971 295.035C478.851 296.158 477.333 296.792 475.747 296.797ZM273.089 0.2099C271.57 0.212674 270.114 0.817284 269.04 1.89131C267.966 2.96534 267.362 4.42124 267.359 5.94014V290.805C267.362 292.324 267.966 293.779 269.04 294.853C270.114 295.928 271.57 296.532 273.089 296.535H475.747C477.266 296.532 478.722 295.928 479.796 294.853C480.87 293.779 481.474 292.324 481.477 290.805V5.94014C481.474 4.42124 480.87 2.96534 479.796 1.89131C478.722 0.817284 477.266 0.212674 475.747 0.2099H273.089Z" fill="#EBEBEB"/>
<path d="M317.179 343.605H346.9V195.731H317.179V343.605Z" fill="#E6E6E6"/>
<path d="M322.814 343.605H317.168V327.547H328.733L322.814 343.605Z" fill="#F0F0F0"/>
<path d="M428.257 343.605H457.979V195.731H428.257V343.605Z" fill="#E6E6E6"/>
<path d="M317.178 333.75H433.189V195.731H317.178V333.75Z" fill="#F0F0F0"/>
<path d="M321.555 286.838V313.673H373.284V286.838H321.555Z" fill="#E6E6E6"/>
<path d="M377.073 286.838V313.673H428.803V286.838H377.073Z" fill="#E6E6E6"/>
<path d="M397.822 291.329H408.054C410.255 291.331 412.432 290.883 414.453 290.013C416.475 289.143 418.297 287.87 419.809 286.271H386.067C387.579 287.87 389.401 289.143 391.423 290.013C393.444 290.883 395.621 291.331 397.822 291.329Z" fill="#F0F0F0"/>
<path d="M341.779 291.329H352.011C354.212 291.331 356.389 290.883 358.41 290.013C360.432 289.143 362.254 287.87 363.766 286.271H330.024C331.536 287.87 333.358 289.143 335.38 290.013C337.401 290.883 339.578 291.331 341.779 291.329Z" fill="#F0F0F0"/>
<path d="M321.545 245.12V271.956H373.275V245.12H321.545Z" fill="#E6E6E6"/>
<path d="M377.073 245.131V271.966H428.803V245.131H377.073Z" fill="#E6E6E6"/>
<path d="M397.822 249.612H408.054C410.254 249.607 412.43 249.155 414.449 248.281C416.468 247.408 418.288 246.132 419.798 244.532H386.067C387.578 246.134 389.4 247.41 391.421 248.283C393.442 249.157 395.62 249.609 397.822 249.612Z" fill="#F0F0F0"/>
<path d="M341.779 249.612H352.011C354.211 249.613 356.387 249.166 358.408 248.298C360.429 247.43 362.252 246.16 363.766 244.564H330.024C331.538 246.16 333.361 247.43 335.382 248.298C337.403 249.166 339.579 249.613 341.779 249.612Z" fill="#F0F0F0"/>
<path d="M321.555 203.413V230.249H373.284V203.413H321.555Z" fill="#E6E6E6"/>
<path d="M377.073 203.413V230.249H428.803V203.413H377.073Z" fill="#E6E6E6"/>
<path d="M397.822 207.905H408.054C410.255 207.906 412.432 207.458 414.453 206.589C416.475 205.719 418.297 204.445 419.809 202.846H386.067C387.579 204.445 389.401 205.719 391.423 206.589C393.444 207.458 395.621 207.906 397.822 207.905Z" fill="#F0F0F0"/>
<path d="M341.779 207.905H352.011C354.212 207.906 356.389 207.458 358.41 206.589C360.432 205.719 362.254 204.445 363.766 202.846H330.024C331.536 204.445 333.358 205.719 335.38 206.589C337.401 207.458 339.578 207.906 341.779 207.905Z" fill="#F0F0F0"/>
<path d="M427.544 343.605H433.19V327.547H421.625L427.544 343.605Z" fill="#F0F0F0"/>
<path d="M432.434 94.2133L436.978 106.639H432.434L404.549 94.2133H432.434Z" fill="#F5F5F5"/>
<path d="M436.979 94.2133V106.639L409.104 94.2133H436.979Z" fill="#E6E6E6"/>
<path d="M323.108 94.2133L327.652 106.639H323.108L295.233 94.2133H323.108Z" fill="#F5F5F5"/>
<path d="M327.653 94.2133V106.639L299.778 94.2133H327.653Z" fill="#E6E6E6"/>
<path d="M457.443 85.3345H427.124V94.7904H457.443V85.3345Z" fill="#E6E6E6"/>
<path d="M276.385 94.8009L427.124 94.8009V85.3449L276.385 85.3449V94.8009Z" fill="#F5F5F5"/>
<path d="M396.51 52.4748C396.51 52.4748 396.814 85.345 408.159 85.345C419.504 85.345 419.798 52.4748 419.798 52.4748H396.51Z" fill="#F0F0F0"/>
<path d="M326.162 74.6191C326.162 74.6191 326.96 85.3344 357.479 85.3344C387.998 85.3344 388.796 74.6191 388.796 74.6191H326.162Z" fill="#F0F0F0"/>
<path d="M235.465 343.605H237.49L243.294 315.006L244.344 309.989L250.641 278.819H274.968L288.118 343.605H290.154L276.752 277.633C276.708 277.408 276.586 277.204 276.408 277.058C276.23 276.913 276.006 276.834 275.776 276.836H249.832C249.604 276.834 249.381 276.914 249.205 277.059C249.028 277.205 248.909 277.408 248.867 277.633L243.305 305.004L242.255 310.01L235.465 343.605Z" fill="#F0F0F0"/>
<path d="M196.497 343.605H198.523L211.683 278.819H235.948L242.245 310.01L243.294 315.006L249.108 343.605H251.134L244.312 310.021L243.263 305.036L237.7 277.665C237.646 277.444 237.521 277.247 237.345 277.103C237.169 276.959 236.951 276.877 236.724 276.867H210.875C210.645 276.866 210.421 276.944 210.243 277.09C210.065 277.236 209.943 277.439 209.899 277.665L196.497 343.605Z" fill="#F0F0F0"/>
<path d="M278.599 269.279H207.999C206.38 269.282 204.828 269.927 203.683 271.072C202.538 272.216 201.894 273.768 201.891 275.387V275.597C201.891 276.19 202.127 276.759 202.546 277.178C202.965 277.597 203.534 277.833 204.127 277.833H282.471C283.064 277.833 283.633 277.597 284.052 277.178C284.471 276.759 284.707 276.19 284.707 275.597V275.387C284.704 273.768 284.06 272.216 282.915 271.072C281.77 269.927 280.218 269.282 278.599 269.279Z" fill="#F0F0F0"/>
<path d="M164.613 343.605H166.639L172.443 315.006L173.492 309.989L179.789 278.819H204.053L217.245 343.605H219.281L205.879 277.633C205.835 277.408 205.714 277.204 205.535 277.058C205.357 276.913 205.134 276.834 204.903 276.836H178.981C178.752 276.834 178.53 276.914 178.353 277.059C178.177 277.205 178.057 277.408 178.015 277.633L172.453 305.004L171.404 310.01L164.613 343.605Z" fill="#F0F0F0"/>
<path d="M125.646 343.605H127.682L140.832 278.819H165.107L171.404 310.01L172.453 315.006L178.267 343.605H180.293L173.471 310.021L172.422 305.036L166.87 277.633C166.815 277.413 166.691 277.216 166.515 277.072C166.339 276.928 166.121 276.845 165.894 276.836H140.024C139.793 276.834 139.57 276.913 139.392 277.058C139.213 277.204 139.092 277.408 139.048 277.633L125.646 343.605Z" fill="#F0F0F0"/>
<path d="M207.8 269.279H137.148C135.528 269.282 133.977 269.927 132.832 271.072C131.687 272.216 131.042 273.768 131.04 275.387V275.597C131.04 276.19 131.275 276.759 131.694 277.178C132.114 277.597 132.682 277.833 133.275 277.833H211.63C211.923 277.833 212.214 277.775 212.484 277.662C212.755 277.55 213.001 277.385 213.207 277.177C213.414 276.97 213.578 276.723 213.689 276.452C213.8 276.181 213.857 275.89 213.855 275.597V275.387C213.853 273.777 213.215 272.233 212.082 271.09C210.948 269.947 209.41 269.296 207.8 269.279Z" fill="#F0F0F0"/>
<path d="M88.5043 186.39H189.938L189.938 23.897H88.5043L88.5043 186.39Z" fill="#E6E6E6"/>
<path d="M81.8818 186.39H186.842L186.842 23.897H81.8818L81.8818 186.39Z" fill="#F0F0F0"/>
<path d="M88.5043 198.701H189.938V186.38H88.5043V198.701Z" fill="#E6E6E6"/>
<path d="M70.8412 198.701H175.801V186.38H70.8412V198.701Z" fill="#F0F0F0"/>
<path d="M177.554 177.113V33.1745L91.1487 33.1745L91.1487 177.113H177.554Z" fill="#FAFAFA"/>
<path d="M178.298 177.102L147.905 33.1745H122.192L152.586 177.102H178.298Z" fill="white"/>
<path d="M171.298 159.912C171.474 159.912 171.642 159.842 171.766 159.718C171.89 159.594 171.96 159.426 171.96 159.25V39.2092C171.96 39.0338 171.89 38.8656 171.766 38.7416C171.642 38.6176 171.474 38.548 171.298 38.548C171.123 38.548 170.955 38.6176 170.831 38.7416C170.707 38.8656 170.637 39.0338 170.637 39.2092V159.25C170.637 159.426 170.707 159.594 170.831 159.718C170.955 159.842 171.123 159.912 171.298 159.912Z" fill="#F0F0F0"/>
<path d="M147.066 177.102L116.673 33.1745H106.65L137.033 177.102H147.066Z" fill="white"/>
<path d="M92.335 177.113L92.335 33.1745H91.1595L91.1595 177.113H92.335Z" fill="#E6E6E6"/>
<path opacity="0.6" d="M79.6777 40.3006H181.111L181.972 36.7743H80.5383L79.6777 40.3006Z" fill="#F0F0F0"/>
<path opacity="0.6" d="M79.6777 48.4972H181.111L181.972 44.9814H80.5383L79.6777 48.4972Z" fill="#F0F0F0"/>
<path opacity="0.6" d="M79.6777 56.7042H181.111L181.972 53.1779H80.5383L79.6777 56.7042Z" fill="#F0F0F0"/>
<path opacity="0.6" d="M79.6777 64.9008H181.111L181.972 61.385H80.5383L79.6777 64.9008Z" fill="#F0F0F0"/>
<path opacity="0.6" d="M79.6777 73.1079H181.111L181.972 69.592H80.5383L79.6777 73.1079Z" fill="#F0F0F0"/>
<path opacity="0.6" d="M79.6777 81.3149H181.111L181.972 77.7886H80.5383L79.6777 81.3149Z" fill="#F0F0F0"/>
<path d="M262.374 391C374.756 391 465.861 385.681 465.861 379.12C465.861 372.558 374.756 367.239 262.374 367.239C149.991 367.239 58.8872 372.558 58.8872 379.12C58.8872 385.681 149.991 391 262.374 391Z" fill="#F5F5F5"/>
<path d="M255.153 218.012H191.039C190.135 218.012 189.402 218.745 189.402 219.649V246.39C189.402 247.294 190.135 248.027 191.039 248.027H255.153C256.057 248.027 256.79 247.294 256.79 246.39V219.649C256.79 218.745 256.057 218.012 255.153 218.012Z" fill="#437BFA"/>
<path opacity="0.6" d="M255.153 218.012H191.039C190.135 218.012 189.402 218.745 189.402 219.649V246.39C189.402 247.294 190.135 248.027 191.039 248.027H255.153C256.057 248.027 256.79 247.294 256.79 246.39V219.649C256.79 218.745 256.057 218.012 255.153 218.012Z" fill="white"/>
<path opacity="0.1" d="M255.142 218.012H191.007C190.573 218.012 190.157 218.184 189.85 218.491C189.543 218.798 189.37 219.215 189.37 219.649V228.223L222.744 234.793C222.948 234.835 223.159 234.835 223.363 234.793L256.748 228.223V219.649C256.748 219.22 256.58 218.808 256.279 218.502C255.979 218.196 255.571 218.02 255.142 218.012Z" fill="black"/>
<path d="M256.549 207.034H236.965V203.749C236.962 202.392 236.422 201.091 235.462 200.131C234.502 199.171 233.201 198.63 231.844 198.628H214.348C212.991 198.63 211.69 199.171 210.73 200.131C209.77 201.091 209.23 202.392 209.227 203.749V207.034H189.654C189.225 207.034 188.814 207.204 188.511 207.508C188.208 207.811 188.038 208.222 188.038 208.65V224.823C188.04 225.196 188.17 225.558 188.407 225.846C188.644 226.135 188.973 226.333 189.339 226.408L222.786 232.988C222.992 233.02 223.2 233.02 223.406 232.988L256.853 226.408C257.22 226.333 257.55 226.136 257.789 225.847C258.028 225.559 258.16 225.197 258.165 224.823V208.65C258.165 208.222 257.995 207.811 257.691 207.508C257.388 207.204 256.977 207.034 256.549 207.034ZM213.121 203.749C213.123 203.423 213.253 203.112 213.483 202.88C213.712 202.649 214.023 202.516 214.348 202.511H231.844C232.169 202.516 232.48 202.649 232.709 202.88C232.939 203.112 233.069 203.423 233.071 203.749V207.034H213.131L213.121 203.749Z" fill="#437BFA"/>
<path opacity="0.6" d="M256.549 207.034H236.965V203.749C236.962 202.392 236.422 201.091 235.462 200.131C234.502 199.171 233.201 198.63 231.844 198.628H214.348C212.991 198.63 211.69 199.171 210.73 200.131C209.77 201.091 209.23 202.392 209.227 203.749V207.034H189.654C189.225 207.034 188.814 207.204 188.511 207.508C188.208 207.811 188.038 208.222 188.038 208.65V224.823C188.04 225.196 188.17 225.558 188.407 225.846C188.644 226.135 188.973 226.333 189.339 226.408L222.786 232.988C222.992 233.02 223.2 233.02 223.406 232.988L256.853 226.408C257.22 226.333 257.55 226.136 257.789 225.847C258.028 225.559 258.16 225.197 258.165 224.823V208.65C258.165 208.222 257.995 207.811 257.691 207.508C257.388 207.204 256.977 207.034 256.549 207.034ZM213.121 203.749C213.123 203.423 213.253 203.112 213.483 202.88C213.712 202.649 214.023 202.516 214.348 202.511H231.844C232.169 202.516 232.48 202.649 232.709 202.88C232.939 203.112 233.069 203.423 233.071 203.749V207.034H213.131L213.121 203.749Z" fill="white"/>
<path d="M226.554 228.57H219.648C218.791 228.57 218.095 229.265 218.095 230.123V234.489C218.095 235.347 218.791 236.042 219.648 236.042H226.554C227.412 236.042 228.107 235.347 228.107 234.489V230.123C228.107 229.265 227.412 228.57 226.554 228.57Z" fill="#437BFA"/>
<path opacity="0.3" d="M226.554 228.57H219.648C218.791 228.57 218.095 229.265 218.095 230.123V234.489C218.095 235.347 218.791 236.042 219.648 236.042H226.554C227.412 236.042 228.107 235.347 228.107 234.489V230.123C228.107 229.265 227.412 228.57 226.554 228.57Z" fill="white"/>
<path d="M255.153 24.9467H191.039C190.135 24.9467 189.402 25.6797 189.402 26.5839V53.325C189.402 54.2292 190.135 54.9623 191.039 54.9623H255.153C256.057 54.9623 256.79 54.2292 256.79 53.325V26.5839C256.79 25.6797 256.057 24.9467 255.153 24.9467Z" fill="#437BFA"/>
<path opacity="0.6" d="M255.153 24.9467H191.039C190.135 24.9467 189.402 25.6797 189.402 26.5839V53.325C189.402 54.2292 190.135 54.9623 191.039 54.9623H255.153C256.057 54.9623 256.79 54.2292 256.79 53.325V26.5839C256.79 25.6797 256.057 24.9467 255.153 24.9467Z" fill="white"/>
<path opacity="0.1" d="M255.142 24.9467H191.007C190.573 24.9467 190.157 25.1192 189.85 25.4262C189.543 25.7333 189.37 26.1497 189.37 26.5839V35.1583L222.744 41.7281C222.948 41.77 223.159 41.77 223.363 41.7281L256.748 35.1583V26.5839C256.748 26.1551 256.58 25.7434 256.279 25.4372C255.979 25.1311 255.571 24.9549 255.142 24.9467Z" fill="black"/>
<path d="M256.549 13.9689H236.965V10.684C236.962 9.32654 236.422 8.02547 235.462 7.0656C234.502 6.10572 233.201 5.56524 231.844 5.56247H214.348C212.991 5.56524 211.69 6.10572 210.73 7.0656C209.77 8.02547 209.23 9.32654 209.227 10.684V13.9689H189.654C189.225 13.9689 188.814 14.1392 188.511 14.4423C188.208 14.7454 188.038 15.1565 188.038 15.5852V31.7579C188.038 32.1318 188.167 32.4941 188.405 32.7831C188.642 33.072 188.972 33.2698 189.339 33.3426L222.786 39.881C222.991 39.9228 223.201 39.9228 223.406 39.881L256.853 33.3006C257.216 33.2318 257.544 33.0415 257.785 32.7611C258.025 32.4807 258.163 32.1269 258.175 31.7579V15.5852C258.175 15.372 258.133 15.161 258.051 14.9642C257.969 14.7674 257.849 14.5888 257.698 14.4386C257.547 14.2884 257.368 14.1695 257.17 14.0889C256.973 14.0083 256.762 13.9675 256.549 13.9689ZM213.121 10.684C213.121 10.3574 213.25 10.044 213.48 9.81201C213.71 9.58007 214.022 9.44837 214.348 9.4456H231.844C232.168 9.44834 232.479 9.5786 232.709 9.80828C232.938 10.038 233.069 10.3487 233.071 10.6735V13.9584H213.131L213.121 10.684Z" fill="#437BFA"/>
<path opacity="0.6" d="M256.549 13.9689H236.965V10.684C236.962 9.32654 236.422 8.02547 235.462 7.0656C234.502 6.10572 233.201 5.56524 231.844 5.56247H214.348C212.991 5.56524 211.69 6.10572 210.73 7.0656C209.77 8.02547 209.23 9.32654 209.227 10.684V13.9689H189.654C189.225 13.9689 188.814 14.1392 188.511 14.4423C188.208 14.7454 188.038 15.1565 188.038 15.5852V31.7579C188.038 32.1318 188.167 32.4941 188.405 32.7831C188.642 33.072 188.972 33.2698 189.339 33.3426L222.786 39.881C222.991 39.9228 223.201 39.9228 223.406 39.881L256.853 33.3006C257.216 33.2318 257.544 33.0415 257.785 32.7611C258.025 32.4807 258.163 32.1269 258.175 31.7579V15.5852C258.175 15.372 258.133 15.161 258.051 14.9642C257.969 14.7674 257.849 14.5888 257.698 14.4386C257.547 14.2884 257.368 14.1695 257.17 14.0889C256.973 14.0083 256.762 13.9675 256.549 13.9689ZM213.121 10.684C213.121 10.3574 213.25 10.044 213.48 9.81201C213.71 9.58007 214.022 9.44837 214.348 9.4456H231.844C232.168 9.44834 232.479 9.5786 232.709 9.80828C232.938 10.038 233.069 10.3487 233.071 10.6735V13.9584H213.131L213.121 10.684Z" fill="white"/>
<path d="M226.554 35.5151H219.648C218.791 35.5151 218.095 36.2105 218.095 37.0683V41.4342C218.095 42.2921 218.791 42.9875 219.648 42.9875H226.554C227.412 42.9875 228.107 42.2921 228.107 41.4342V37.0683C228.107 36.2105 227.412 35.5151 226.554 35.5151Z" fill="#437BFA"/>
<path opacity="0.3" d="M226.554 35.5151H219.648C218.791 35.5151 218.095 36.2105 218.095 37.0683V41.4342C218.095 42.2921 218.791 42.9875 219.648 42.9875H226.554C227.412 42.9875 228.107 42.2921 228.107 41.4342V37.0683C228.107 36.2105 227.412 35.5151 226.554 35.5151Z" fill="white"/>
<path d="M155.283 218.012H91.169C90.2647 218.012 89.5317 218.745 89.5317 219.649V246.39C89.5317 247.294 90.2647 248.027 91.169 248.027H155.283C156.187 248.027 156.92 247.294 156.92 246.39V219.649C156.92 218.745 156.187 218.012 155.283 218.012Z" fill="#437BFA"/>
<path opacity="0.6" d="M155.283 218.012H91.169C90.2647 218.012 89.5317 218.745 89.5317 219.649V246.39C89.5317 247.294 90.2647 248.027 91.169 248.027H155.283C156.187 248.027 156.92 247.294 156.92 246.39V219.649C156.92 218.745 156.187 218.012 155.283 218.012Z" fill="white"/>
<path opacity="0.1" d="M155.325 218.012H91.169C90.7347 218.012 90.3183 218.184 90.0113 218.491C89.7042 218.798 89.5317 219.215 89.5317 219.649V228.223L122.906 234.793C123.114 234.835 123.328 234.835 123.535 234.793L156.92 228.223V219.649C156.92 219.222 156.753 218.812 156.455 218.506C156.157 218.2 155.752 218.023 155.325 218.012Z" fill="black"/>
<path d="M156.668 207.034H137.085V203.749C137.082 202.392 136.541 201.091 135.582 200.131C134.622 199.171 133.321 198.63 131.963 198.628H114.479C113.121 198.63 111.82 199.171 110.86 200.131C109.9 201.091 109.36 202.392 109.357 203.749V207.034H89.7735C89.3448 207.034 88.9337 207.204 88.6306 207.508C88.3275 207.811 88.1572 208.222 88.1572 208.65V224.823C88.1593 225.196 88.2898 225.558 88.5268 225.846C88.7637 226.135 89.0928 226.333 89.4586 226.408L122.906 232.988C123.115 233.02 123.327 233.02 123.536 232.988L156.983 226.408C157.349 226.333 157.678 226.135 157.915 225.846C158.152 225.558 158.282 225.196 158.285 224.823V208.65C158.285 208.222 158.114 207.811 157.811 207.508C157.508 207.204 157.097 207.034 156.668 207.034ZM113.24 203.749C113.246 203.422 113.378 203.111 113.609 202.88C113.84 202.648 114.152 202.516 114.479 202.511H131.963C132.29 202.516 132.602 202.648 132.833 202.88C133.064 203.111 133.196 203.422 133.202 203.749V207.034H113.261L113.24 203.749Z" fill="#437BFA"/>
<path opacity="0.6" d="M156.668 207.034H137.085V203.749C137.082 202.392 136.541 201.091 135.582 200.131C134.622 199.171 133.321 198.63 131.963 198.628H114.479C113.121 198.63 111.82 199.171 110.86 200.131C109.9 201.091 109.36 202.392 109.357 203.749V207.034H89.7735C89.3448 207.034 88.9337 207.204 88.6306 207.508C88.3275 207.811 88.1572 208.222 88.1572 208.65V224.823C88.1593 225.196 88.2898 225.558 88.5268 225.846C88.7637 226.135 89.0928 226.333 89.4586 226.408L122.906 232.988C123.115 233.02 123.327 233.02 123.536 232.988L156.983 226.408C157.349 226.333 157.678 226.135 157.915 225.846C158.152 225.558 158.282 225.196 158.285 224.823V208.65C158.285 208.222 158.114 207.811 157.811 207.508C157.508 207.204 157.097 207.034 156.668 207.034ZM113.24 203.749C113.246 203.422 113.378 203.111 113.609 202.88C113.84 202.648 114.152 202.516 114.479 202.511H131.963C132.29 202.516 132.602 202.648 132.833 202.88C133.064 203.111 133.196 203.422 133.202 203.749V207.034H113.261L113.24 203.749Z" fill="white"/>
<path d="M126.673 228.57H119.768C118.91 228.57 118.214 229.265 118.214 230.123V234.489C118.214 235.347 118.91 236.042 119.768 236.042H126.673C127.531 236.042 128.227 235.347 128.227 234.489V230.123C128.227 229.265 127.531 228.57 126.673 228.57Z" fill="#437BFA"/>
<path opacity="0.3" d="M126.673 228.57H119.768C118.91 228.57 118.214 229.265 118.214 230.123V234.489C118.214 235.347 118.91 236.042 119.768 236.042H126.673C127.531 236.042 128.227 235.347 128.227 234.489V230.123C128.227 229.265 127.531 228.57 126.673 228.57Z" fill="white"/>
<path d="M155.283 24.9467H91.169C90.2647 24.9467 89.5317 25.6797 89.5317 26.5839V53.325C89.5317 54.2292 90.2647 54.9623 91.169 54.9623H155.283C156.187 54.9623 156.92 54.2292 156.92 53.325V26.5839C156.92 25.6797 156.187 24.9467 155.283 24.9467Z" fill="#437BFA"/>
<path opacity="0.6" d="M155.283 24.9467H91.169C90.2647 24.9467 89.5317 25.6797 89.5317 26.5839V53.325C89.5317 54.2292 90.2647 54.9623 91.169 54.9623H155.283C156.187 54.9623 156.92 54.2292 156.92 53.325V26.5839C156.92 25.6797 156.187 24.9467 155.283 24.9467Z" fill="white"/>
<path opacity="0.1" d="M155.325 24.9467H91.169C90.7347 24.9467 90.3183 25.1192 90.0113 25.4262C89.7042 25.7333 89.5317 26.1497 89.5317 26.5839V35.1583L122.906 41.7281C123.113 41.7702 123.328 41.7702 123.535 41.7281L156.92 35.1583V26.5839C156.92 26.1569 156.753 25.7467 156.455 25.4408C156.157 25.135 155.752 24.9576 155.325 24.9467Z" fill="black"/>
<path d="M156.668 13.9689H137.085V10.684C137.082 9.32654 136.541 8.02547 135.582 7.0656C134.622 6.10572 133.321 5.56524 131.963 5.56247H114.479C113.121 5.56524 111.82 6.10572 110.86 7.0656C109.9 8.02547 109.36 9.32654 109.357 10.684V13.9689H89.7735C89.3448 13.9689 88.9337 14.1392 88.6306 14.4423C88.3275 14.7454 88.1572 15.1565 88.1572 15.5852V31.7579C88.1573 32.1318 88.2871 32.4941 88.5244 32.7831C88.7617 33.072 89.0918 33.2698 89.4586 33.3426L122.906 39.881C123.114 39.9231 123.328 39.9231 123.536 39.881L156.983 33.3006C157.35 33.2278 157.68 33.03 157.917 32.7411C158.155 32.4521 158.284 32.0898 158.285 31.7159V15.5852C158.285 15.1565 158.114 14.7454 157.811 14.4423C157.508 14.1392 157.097 13.9689 156.668 13.9689ZM113.24 10.684C113.243 10.3564 113.374 10.043 113.606 9.81136C113.838 9.5797 114.151 9.44834 114.479 9.4456H131.963C132.289 9.4483 132.601 9.57821 132.832 9.80761C133.064 10.037 133.196 10.3477 133.202 10.6735V13.9584H113.261L113.24 10.684Z" fill="#437BFA"/>
<path opacity="0.6" d="M156.668 13.9689H137.085V10.684C137.082 9.32654 136.541 8.02547 135.582 7.0656C134.622 6.10572 133.321 5.56524 131.963 5.56247H114.479C113.121 5.56524 111.82 6.10572 110.86 7.0656C109.9 8.02547 109.36 9.32654 109.357 10.684V13.9689H89.7735C89.3448 13.9689 88.9337 14.1392 88.6306 14.4423C88.3275 14.7454 88.1572 15.1565 88.1572 15.5852V31.7579C88.1573 32.1318 88.2871 32.4941 88.5244 32.7831C88.7617 33.072 89.0918 33.2698 89.4586 33.3426L122.906 39.881C123.114 39.9231 123.328 39.9231 123.536 39.881L156.983 33.3006C157.35 33.2278 157.68 33.03 157.917 32.7411C158.155 32.4521 158.284 32.0898 158.285 31.7159V15.5852C158.285 15.1565 158.114 14.7454 157.811 14.4423C157.508 14.1392 157.097 13.9689 156.668 13.9689ZM113.24 10.684C113.243 10.3564 113.374 10.043 113.606 9.81136C113.838 9.5797 114.151 9.44834 114.479 9.4456H131.963C132.289 9.4483 132.601 9.57821 132.832 9.80761C133.064 10.037 133.196 10.3477 133.202 10.6735V13.9584H113.261L113.24 10.684Z" fill="white"/>
<path d="M126.673 35.5151H119.768C118.91 35.5151 118.214 36.2105 118.214 37.0683V41.4342C118.214 42.2921 118.91 42.9875 119.768 42.9875H126.673C127.531 42.9875 128.227 42.2921 128.227 41.4342V37.0683C128.227 36.2105 127.531 35.5151 126.673 35.5151Z" fill="#437BFA"/>
<path opacity="0.3" d="M126.673 35.5151H119.768C118.91 35.5151 118.214 36.2105 118.214 37.0683V41.4342C118.214 42.2921 118.91 42.9875 119.768 42.9875H126.673C127.531 42.9875 128.227 42.2921 128.227 41.4342V37.0683C128.227 36.2105 127.531 35.5151 126.673 35.5151Z" fill="white"/>
<path d="M146.929 151.495H91.1692C90.7322 151.495 90.3131 151.321 90.0041 151.012C89.6951 150.703 89.5215 150.284 89.5215 149.847V123.116C89.5231 122.896 89.5695 122.678 89.6579 122.476C89.7006 122.382 89.7497 122.291 89.8048 122.203C89.8633 122.114 89.9339 122.032 90.0147 121.962C90.3205 121.655 90.7356 121.481 91.1692 121.479H143.948C143.509 125.142 143.365 128.834 143.518 132.52C143.518 133.118 143.518 133.716 143.612 134.304C143.686 135.406 143.77 136.519 143.896 137.621C144.436 142.336 145.452 146.984 146.929 151.495Z" fill="#437BFA"/>
<path opacity="0.6" d="M146.929 151.495H91.1692C90.7322 151.495 90.3131 151.321 90.0041 151.012C89.6951 150.703 89.5215 150.284 89.5215 149.847V123.116C89.5231 122.896 89.5695 122.678 89.6579 122.476C89.7006 122.382 89.7497 122.291 89.8048 122.203C89.8633 122.114 89.9339 122.032 90.0147 121.962C90.3205 121.655 90.7356 121.481 91.1692 121.479H143.948C143.509 125.142 143.365 128.834 143.518 132.52C143.518 133.118 143.518 133.716 143.612 134.304C143.686 135.406 143.77 136.519 143.896 137.621C144.436 142.336 145.452 146.984 146.929 151.495Z" fill="white"/>
<path opacity="0.1" d="M143.948 121.479C143.509 125.142 143.365 128.834 143.518 132.52C143.518 133.118 143.518 133.716 143.612 134.304L128.227 137.327L123.525 138.25C123.322 138.303 123.109 138.303 122.906 138.25L118.214 137.337L89.5317 131.691V123.106C89.5351 122.89 89.5777 122.677 89.6577 122.476C89.7003 122.382 89.7494 122.291 89.8046 122.203C89.863 122.114 89.9337 122.032 90.0145 121.962C90.3202 121.655 90.7354 121.481 91.169 121.479H143.948Z" fill="black"/>
<path d="M146.142 110.502H137.095V107.217C137.09 105.858 136.547 104.557 135.585 103.598C134.624 102.638 133.322 102.098 131.963 102.095H114.479C113.12 102.095 111.818 102.635 110.857 103.595C109.897 104.556 109.357 105.858 109.357 107.217V110.502H89.7735C89.5612 110.502 89.351 110.543 89.1549 110.625C88.9589 110.706 88.7807 110.825 88.6306 110.975C88.4805 111.125 88.3615 111.303 88.2803 111.499C88.199 111.695 88.1572 111.906 88.1572 112.118V128.28C88.1574 128.657 88.2883 129.022 88.5275 129.313C88.7668 129.603 89.0996 129.802 89.4691 129.875H89.5321L118.215 135.532L122.906 136.445C123.11 136.487 123.321 136.487 123.525 136.445L128.227 135.522L143.518 132.509C143.365 128.824 143.509 125.132 143.948 121.469C144.384 117.76 145.118 114.093 146.142 110.502ZM113.24 107.217C113.246 106.891 113.378 106.58 113.61 106.351C113.841 106.121 114.153 105.991 114.479 105.989H131.963C132.288 105.991 132.599 106.122 132.828 106.351C133.058 106.581 133.188 106.892 133.191 107.217V110.502H113.251L113.24 107.217Z" fill="#437BFA"/>
<path opacity="0.6" d="M146.142 110.502H137.095V107.217C137.09 105.858 136.547 104.557 135.585 103.598C134.624 102.638 133.322 102.098 131.963 102.095H114.479C113.12 102.095 111.818 102.635 110.857 103.595C109.897 104.556 109.357 105.858 109.357 107.217V110.502H89.7735C89.5612 110.502 89.351 110.543 89.1549 110.625C88.9589 110.706 88.7807 110.825 88.6306 110.975C88.4805 111.125 88.3615 111.303 88.2803 111.499C88.199 111.695 88.1572 111.906 88.1572 112.118V128.28C88.1574 128.657 88.2883 129.022 88.5275 129.313C88.7668 129.603 89.0996 129.802 89.4691 129.875H89.5321L118.215 135.532L122.906 136.445C123.11 136.487 123.321 136.487 123.525 136.445L128.227 135.522L143.518 132.509C143.365 128.824 143.509 125.132 143.948 121.469C144.384 117.76 145.118 114.093 146.142 110.502ZM113.24 107.217C113.246 106.891 113.378 106.58 113.61 106.351C113.841 106.121 114.153 105.991 114.479 105.989H131.963C132.288 105.991 132.599 106.122 132.828 106.351C133.058 106.581 133.188 106.892 133.191 107.217V110.502H113.251L113.24 107.217Z" fill="white"/>
<path d="M126.673 132.037H119.768C118.91 132.037 118.214 132.733 118.214 133.59V137.956C118.214 138.814 118.91 139.51 119.768 139.51H126.673C127.531 139.51 128.227 138.814 128.227 137.956V133.59C128.227 132.733 127.531 132.037 126.673 132.037Z" fill="#437BFA"/>
<path opacity="0.3" d="M126.673 132.037H119.768C118.91 132.037 118.214 132.733 118.214 133.59V137.956C118.214 138.814 118.91 139.51 119.768 139.51H126.673C127.531 139.51 128.227 138.814 128.227 137.956V133.59C128.227 132.733 127.531 132.037 126.673 132.037Z" fill="white"/>
<path d="M290.909 248.017H355.023C355.927 248.017 356.66 247.284 356.66 246.38V219.639C356.66 218.734 355.927 218.001 355.023 218.001H290.909C290.005 218.001 289.272 218.734 289.272 219.639V246.38C289.272 247.284 290.005 248.017 290.909 248.017Z" fill="#437BFA"/>
<path opacity="0.6" d="M290.909 248.017H355.023C355.927 248.017 356.66 247.284 356.66 246.38V219.639C356.66 218.734 355.927 218.001 355.023 218.001H290.909C290.005 218.001 289.272 218.734 289.272 219.639V246.38C289.272 247.284 290.005 248.017 290.909 248.017Z" fill="white"/>
<path opacity="0.1" d="M290.919 218.012H355.023C355.457 218.012 355.873 218.184 356.18 218.491C356.487 218.798 356.66 219.215 356.66 219.649V228.223L323.244 234.793C323.04 234.835 322.829 234.835 322.625 234.793L289.24 228.223V219.649C289.24 219.431 289.284 219.214 289.369 219.013C289.454 218.811 289.578 218.629 289.734 218.476C289.891 218.324 290.076 218.204 290.28 218.124C290.483 218.044 290.701 218.006 290.919 218.012Z" fill="black"/>
<path d="M289.523 207.034H309.107V203.749C309.11 202.392 309.65 201.091 310.61 200.131C311.57 199.171 312.871 198.63 314.229 198.628H331.724C333.081 198.63 334.382 199.171 335.342 200.131C336.302 201.091 336.842 202.392 336.845 203.749V207.034H356.418C356.63 207.034 356.841 207.076 357.037 207.157C357.233 207.238 357.411 207.357 357.561 207.508C357.711 207.658 357.83 207.836 357.911 208.032C357.993 208.228 358.034 208.438 358.034 208.65V224.823C358.032 225.196 357.902 225.558 357.665 225.846C357.428 226.135 357.099 226.333 356.733 226.408L323.244 232.988C323.035 233.02 322.823 233.02 322.614 232.988L289.167 226.408C288.801 226.333 288.472 226.135 288.235 225.846C287.998 225.558 287.867 225.196 287.865 224.823V208.65C287.865 208.435 287.908 208.221 287.992 208.022C288.076 207.823 288.199 207.643 288.353 207.492C288.508 207.342 288.691 207.224 288.892 207.145C289.093 207.066 289.308 207.029 289.523 207.034ZM332.952 203.749C332.949 203.423 332.819 203.112 332.59 202.88C332.36 202.649 332.049 202.516 331.724 202.511H314.229C313.902 202.516 313.59 202.648 313.359 202.88C313.128 203.111 312.996 203.422 312.99 203.749V207.034H332.931L332.952 203.749Z" fill="#437BFA"/>
<path opacity="0.6" d="M289.523 207.034H309.107V203.749C309.11 202.392 309.65 201.091 310.61 200.131C311.57 199.171 312.871 198.63 314.229 198.628H331.724C333.081 198.63 334.382 199.171 335.342 200.131C336.302 201.091 336.842 202.392 336.845 203.749V207.034H356.418C356.63 207.034 356.841 207.076 357.037 207.157C357.233 207.238 357.411 207.357 357.561 207.508C357.711 207.658 357.83 207.836 357.911 208.032C357.993 208.228 358.034 208.438 358.034 208.65V224.823C358.032 225.196 357.902 225.558 357.665 225.846C357.428 226.135 357.099 226.333 356.733 226.408L323.244 232.988C323.035 233.02 322.823 233.02 322.614 232.988L289.167 226.408C288.801 226.333 288.472 226.135 288.235 225.846C287.998 225.558 287.867 225.196 287.865 224.823V208.65C287.865 208.435 287.908 208.221 287.992 208.022C288.076 207.823 288.199 207.643 288.353 207.492C288.508 207.342 288.691 207.224 288.892 207.145C289.093 207.066 289.308 207.029 289.523 207.034ZM332.952 203.749C332.949 203.423 332.819 203.112 332.59 202.88C332.36 202.649 332.049 202.516 331.724 202.511H314.229C313.902 202.516 313.59 202.648 313.359 202.88C313.128 203.111 312.996 203.422 312.99 203.749V207.034H332.931L332.952 203.749Z" fill="white"/>
<path d="M319.519 236.042H326.424C327.282 236.042 327.978 235.347 327.978 234.489V230.123C327.978 229.265 327.282 228.57 326.424 228.57H319.519C318.661 228.57 317.965 229.265 317.965 230.123V234.489C317.965 235.347 318.661 236.042 319.519 236.042Z" fill="#437BFA"/>
<path opacity="0.3" d="M319.519 236.042H326.424C327.282 236.042 327.978 235.347 327.978 234.489V230.123C327.978 229.265 327.282 228.57 326.424 228.57H319.519C318.661 228.57 317.965 229.265 317.965 230.123V234.489C317.965 235.347 318.661 236.042 319.519 236.042Z" fill="white"/>
<path d="M290.909 54.9517L355.023 54.9517C355.927 54.9517 356.66 54.2187 356.66 53.3145V26.5734C356.66 25.6692 355.927 24.9361 355.023 24.9361L290.909 24.9361C290.005 24.9361 289.272 25.6692 289.272 26.5734V53.3145C289.272 54.2187 290.005 54.9517 290.909 54.9517Z" fill="#437BFA"/>
<path opacity="0.6" d="M290.909 54.9517L355.023 54.9517C355.927 54.9517 356.66 54.2187 356.66 53.3145V26.5734C356.66 25.6692 355.927 24.9361 355.023 24.9361L290.909 24.9361C290.005 24.9361 289.272 25.6692 289.272 26.5734V53.3145C289.272 54.2187 290.005 54.9517 290.909 54.9517Z" fill="white"/>
<path opacity="0.1" d="M290.919 24.9467H355.023C355.457 24.9467 355.873 25.1192 356.18 25.4262C356.487 25.7333 356.66 26.1497 356.66 26.5839V35.1583L323.244 41.7281C323.04 41.77 322.829 41.77 322.625 41.7281L289.282 35.1583V26.5839C289.282 26.1497 289.455 25.7333 289.762 25.4262C290.069 25.1192 290.485 24.9467 290.919 24.9467Z" fill="black"/>
<path d="M289.523 13.969H309.107V10.684C309.11 9.32658 309.65 8.02551 310.61 7.06563C311.57 6.10576 312.871 5.56528 314.229 5.56251H331.724C332.399 5.55836 333.069 5.6877 333.695 5.94309C334.32 6.19849 334.889 6.57491 335.369 7.05077C335.849 7.52662 336.23 8.09253 336.49 8.71603C336.751 9.33952 336.886 10.0083 336.887 10.684V13.969H356.46C356.889 13.969 357.3 14.1392 357.603 14.4423C357.906 14.7454 358.076 15.1565 358.076 15.5852V31.7579C358.076 32.1318 357.947 32.4941 357.709 32.7831C357.472 33.0721 357.142 33.2698 356.775 33.3426L323.244 39.881C323.036 39.9231 322.822 39.9231 322.614 39.881L289.167 33.3007C288.8 33.2278 288.47 33.0301 288.232 32.7411C287.995 32.4521 287.865 32.0898 287.865 31.7159V15.5852C287.865 15.3694 287.908 15.1557 287.992 14.9568C288.076 14.758 288.199 14.5779 288.353 14.4272C288.508 14.2766 288.691 14.1584 288.892 14.0797C289.093 14.001 289.308 13.9634 289.523 13.969ZM332.952 10.684C332.952 10.3574 332.823 10.044 332.593 9.81205C332.363 9.5801 332.05 9.44841 331.724 9.44564H314.229C313.903 9.44833 313.591 9.57824 313.36 9.80764C313.128 10.037 312.996 10.3478 312.99 10.6735V13.9585H332.931L332.952 10.684Z" fill="#437BFA"/>
<path opacity="0.6" d="M289.523 13.969H309.107V10.684C309.11 9.32658 309.65 8.02551 310.61 7.06563C311.57 6.10576 312.871 5.56528 314.229 5.56251H331.724C332.399 5.55836 333.069 5.6877 333.695 5.94309C334.32 6.19849 334.889 6.57491 335.369 7.05077C335.849 7.52662 336.23 8.09253 336.49 8.71603C336.751 9.33952 336.886 10.0083 336.887 10.684V13.969H356.46C356.889 13.969 357.3 14.1392 357.603 14.4423C357.906 14.7454 358.076 15.1565 358.076 15.5852V31.7579C358.076 32.1318 357.947 32.4941 357.709 32.7831C357.472 33.0721 357.142 33.2698 356.775 33.3426L323.244 39.881C323.036 39.9231 322.822 39.9231 322.614 39.881L289.167 33.3007C288.8 33.2278 288.47 33.0301 288.232 32.7411C287.995 32.4521 287.865 32.0898 287.865 31.7159V15.5852C287.865 15.3694 287.908 15.1557 287.992 14.9568C288.076 14.758 288.199 14.5779 288.353 14.4272C288.508 14.2766 288.691 14.1584 288.892 14.0797C289.093 14.001 289.308 13.9634 289.523 13.969ZM332.952 10.684C332.952 10.3574 332.823 10.044 332.593 9.81205C332.363 9.5801 332.05 9.44841 331.724 9.44564H314.229C313.903 9.44833 313.591 9.57824 313.36 9.80764C313.128 10.037 312.996 10.3478 312.99 10.6735V13.9585H332.931L332.952 10.684Z" fill="white"/>
<path d="M319.519 42.977H326.424C327.282 42.977 327.978 42.2816 327.978 41.4237V37.0578C327.978 36.2 327.282 35.5046 326.424 35.5046H319.519C318.661 35.5046 317.965 36.2 317.965 37.0578V41.4237C317.965 42.2816 318.661 42.977 319.519 42.977Z" fill="#437BFA"/>
<path opacity="0.3" d="M319.519 42.977H326.424C327.282 42.977 327.978 42.2816 327.978 41.4237V37.0578C327.978 36.2 327.282 35.5046 326.424 35.5046H319.519C318.661 35.5046 317.965 36.2 317.965 37.0578V41.4237C317.965 42.2816 318.661 42.977 319.519 42.977Z" fill="white"/>
<path d="M299.305 151.495H355.033C355.469 151.492 355.885 151.317 356.192 151.009C356.498 150.7 356.671 150.282 356.671 149.847V123.116C356.669 122.896 356.623 122.678 356.534 122.476C356.496 122.38 356.446 122.289 356.387 122.203C356.329 122.114 356.258 122.032 356.177 121.962C356.027 121.809 355.847 121.687 355.649 121.604C355.45 121.522 355.238 121.479 355.023 121.479H302.254C302.693 125.142 302.837 128.834 302.685 132.52C302.685 133.118 302.685 133.716 302.59 134.304C302.527 135.406 302.433 136.519 302.307 137.621C301.777 142.335 300.771 146.983 299.305 151.495Z" fill="#437BFA"/>
<path opacity="0.6" d="M299.305 151.495H355.033C355.469 151.492 355.885 151.317 356.192 151.009C356.498 150.7 356.671 150.282 356.671 149.847V123.116C356.669 122.896 356.623 122.678 356.534 122.476C356.496 122.38 356.446 122.289 356.387 122.203C356.329 122.114 356.258 122.032 356.177 121.962C356.027 121.809 355.847 121.687 355.649 121.604C355.45 121.522 355.238 121.479 355.023 121.479H302.254C302.693 125.142 302.837 128.834 302.685 132.52C302.685 133.118 302.685 133.716 302.59 134.304C302.527 135.406 302.433 136.519 302.307 137.621C301.777 142.335 300.771 146.983 299.305 151.495Z" fill="white"/>
<path opacity="0.1" d="M302.254 121.479C302.693 125.142 302.837 128.834 302.684 132.52C302.684 133.118 302.684 133.716 302.59 134.304L317.996 137.327L322.698 138.25C322.901 138.303 323.114 138.303 323.317 138.25L328.009 137.337L356.691 131.691V123.106C356.688 122.89 356.645 122.677 356.565 122.476C356.527 122.38 356.478 122.289 356.418 122.203C356.36 122.114 356.289 122.032 356.208 121.962C356.058 121.809 355.878 121.687 355.68 121.604C355.482 121.522 355.269 121.479 355.054 121.479H302.254Z" fill="black"/>
<path d="M300.05 110.502H309.107V107.217C309.11 105.859 309.651 104.558 310.611 103.598C311.57 102.638 312.872 102.098 314.229 102.095H331.714C333.073 102.095 334.377 102.634 335.339 103.595C336.301 104.555 336.843 105.857 336.846 107.217V110.502H356.419C356.847 110.502 357.258 110.672 357.562 110.975C357.865 111.278 358.035 111.689 358.035 112.118V128.28C358.035 128.655 357.906 129.019 357.669 129.31C357.432 129.6 357.101 129.8 356.734 129.875H356.66L327.977 135.532L323.244 136.435C323.04 136.476 322.829 136.476 322.625 136.435L317.923 135.511L302.632 132.499C302.93 125.06 302.044 117.621 300.008 110.46L300.05 110.502ZM332.952 107.217C332.947 106.891 332.814 106.58 332.583 106.351C332.351 106.121 332.039 105.991 331.714 105.989H314.229C313.904 105.991 313.593 106.122 313.364 106.351C313.134 106.581 313.004 106.892 313.001 107.217V110.502H332.941L332.952 107.217Z" fill="#437BFA"/>
<path opacity="0.6" d="M300.05 110.502H309.107V107.217C309.11 105.859 309.651 104.558 310.611 103.598C311.57 102.638 312.872 102.098 314.229 102.095H331.714C333.073 102.095 334.377 102.634 335.339 103.595C336.301 104.555 336.843 105.857 336.846 107.217V110.502H356.419C356.847 110.502 357.258 110.672 357.562 110.975C357.865 111.278 358.035 111.689 358.035 112.118V128.28C358.035 128.655 357.906 129.019 357.669 129.31C357.432 129.6 357.101 129.8 356.734 129.875H356.66L327.977 135.532L323.244 136.435C323.04 136.476 322.829 136.476 322.625 136.435L317.923 135.511L302.632 132.499C302.93 125.06 302.044 117.621 300.008 110.46L300.05 110.502ZM332.952 107.217C332.947 106.891 332.814 106.58 332.583 106.351C332.351 106.121 332.039 105.991 331.714 105.989H314.229C313.904 105.991 313.593 106.122 313.364 106.351C313.134 106.581 313.004 106.892 313.001 107.217V110.502H332.941L332.952 107.217Z" fill="white"/>
<path d="M319.519 139.52H326.424C327.282 139.52 327.978 138.825 327.978 137.967V133.601C327.978 132.743 327.282 132.048 326.424 132.048H319.519C318.661 132.048 317.965 132.743 317.965 133.601V137.967C317.965 138.825 318.661 139.52 319.519 139.52Z" fill="#437BFA"/>
<path opacity="0.3" d="M319.519 139.52H326.424C327.282 139.52 327.978 138.825 327.978 137.967V133.601C327.978 132.743 327.282 132.048 326.424 132.048H319.519C318.661 132.048 317.965 132.743 317.965 133.601V137.967C317.965 138.825 318.661 139.52 319.519 139.52Z" fill="white"/>
<path d="M272.553 114.962H180.429C179.13 114.962 178.078 116.014 178.078 117.313V155.735C178.078 157.033 179.13 158.086 180.429 158.086H272.553C273.852 158.086 274.904 157.033 274.904 155.735V117.313C274.904 116.014 273.852 114.962 272.553 114.962Z" fill="#437BFA"/>
<path d="M239.053 108.098H213.918C212.012 108.095 210.185 107.337 208.838 105.989C207.49 104.642 206.732 102.815 206.729 100.909V94.4547C206.732 92.5489 207.49 90.722 208.838 89.3744C210.185 88.0268 212.012 87.2685 213.918 87.2657H239.053C240.96 87.2657 242.789 88.0231 244.137 89.3713C245.485 90.7195 246.243 92.5481 246.243 94.4547V100.878C246.247 101.824 246.064 102.763 245.704 103.638C245.345 104.514 244.816 105.311 244.148 105.981C243.48 106.652 242.686 107.185 241.812 107.548C240.938 107.911 240 108.098 239.053 108.098ZM213.918 92.5446C213.412 92.5501 212.928 92.7527 212.57 93.1095C212.211 93.4662 212.006 93.9489 211.997 94.4547V100.878C211.997 101.393 212.202 101.886 212.566 102.251C212.93 102.615 213.424 102.819 213.939 102.819H239.074C239.589 102.819 240.083 102.615 240.447 102.251C240.811 101.886 241.016 101.393 241.016 100.878V94.4547C241.016 93.9398 240.811 93.446 240.447 93.0818C240.083 92.7177 239.589 92.5132 239.074 92.5132L213.918 92.5446Z" fill="#437BFA"/>
<path opacity="0.2" d="M272.543 114.962H180.439C180.129 114.96 179.823 115.02 179.536 115.138C179.25 115.255 178.989 115.428 178.77 115.647C178.55 115.865 178.376 116.125 178.258 116.411C178.139 116.697 178.078 117.003 178.078 117.313V129.644L226.04 139.09C226.334 139.154 226.638 139.154 226.932 139.09L274.904 129.644V117.313C274.904 117.003 274.843 116.697 274.724 116.411C274.605 116.125 274.431 115.865 274.212 115.647C273.992 115.428 273.732 115.255 273.446 115.138C273.159 115.02 272.852 114.96 272.543 114.962Z" fill="black"/>
<path d="M274.967 126.989L226.911 136.435C226.612 136.487 226.307 136.487 226.008 136.435L177.952 126.989C177.424 126.885 176.948 126.601 176.606 126.186C176.263 125.771 176.075 125.25 176.073 124.712V101.518C176.073 101.213 176.133 100.912 176.25 100.63C176.366 100.349 176.537 100.093 176.753 99.8778C176.968 99.6625 177.224 99.4916 177.505 99.3751C177.786 99.2585 178.088 99.1985 178.393 99.1985H274.547C274.852 99.1985 275.154 99.2585 275.435 99.3751C275.716 99.4916 275.972 99.6625 276.187 99.8778C276.403 100.093 276.574 100.349 276.69 100.63C276.807 100.912 276.867 101.213 276.867 101.518V124.754C276.856 125.288 276.661 125.803 276.315 126.21C275.969 126.617 275.493 126.893 274.967 126.989Z" fill="#437BFA"/>
<path d="M231.465 130.148H221.527C220.298 130.148 219.302 131.144 219.302 132.373V138.659C219.302 139.888 220.298 140.884 221.527 140.884H231.465C232.694 140.884 233.69 139.888 233.69 138.659V132.373C233.69 131.144 232.694 130.148 231.465 130.148Z" fill="#437BFA"/>
<path opacity="0.4" d="M231.465 130.148H221.527C220.298 130.148 219.302 131.144 219.302 132.373V138.659C219.302 139.888 220.298 140.884 221.527 140.884H231.465C232.694 140.884 233.69 139.888 233.69 138.659V132.373C233.69 131.144 232.694 130.148 231.465 130.148Z" fill="black"/>
<path d="M399.753 138.754C400.96 141.241 401.852 143.592 402.901 146.048C403.951 148.504 404.717 150.949 405.536 153.457C407.195 158.543 408.42 163.76 409.198 169.053C409.303 169.714 409.356 170.428 409.429 171.152L409.534 172.201C409.534 172.39 409.534 172.527 409.534 172.747V173.429C409.57 175.021 409.432 176.611 409.125 178.173C408.605 180.887 407.864 183.555 406.911 186.149C405.118 191.081 402.884 195.84 400.236 200.37L394.904 198.113C396.09 193.328 397.287 188.447 398.189 183.735C398.631 181.477 398.942 179.196 399.123 176.903C399.185 175.965 399.164 175.024 399.06 174.09L398.945 173.429L398.798 172.59C398.682 172.033 398.609 171.477 398.473 170.91C397.426 166.278 396.073 161.72 394.422 157.267C393.624 154.99 392.742 152.723 391.861 150.445C390.979 148.168 390.003 145.88 389.101 143.781L399.753 138.754Z" fill="#FFBDA7"/>
<path d="M395.135 196.717L391.042 200.705L399.973 204.903C399.973 204.903 402.135 201.125 400.645 197.704L395.135 196.717Z" fill="#FFBDA7"/>
<path d="M387.747 206.656L395.282 209.742L399.973 204.861L391.042 200.706L387.747 206.656Z" fill="#7F3E3B"/>
<path opacity="0.2" d="M234.887 202.353C249.738 200.69 263.762 194.661 275.187 185.028C286.611 175.395 294.923 162.59 299.071 148.234C303.219 133.878 303.017 118.613 298.491 104.372C293.965 90.1301 285.317 77.5502 273.642 68.2226C261.967 58.8951 247.788 53.2387 232.899 51.9688C218.009 50.6988 203.077 53.8722 189.991 61.0877C176.905 68.3033 166.252 79.237 159.379 92.5064C152.506 105.776 149.722 120.785 151.379 135.637C152.479 145.502 155.513 155.053 160.305 163.745C165.098 172.437 171.557 180.1 179.311 186.295C187.066 192.491 195.966 197.098 205.502 199.853C215.038 202.609 225.023 203.458 234.887 202.353Z" fill="#437BFA"/>
<path opacity="0.1" d="M179.904 67.7344L294.824 159.523C295.317 158.474 295.779 157.424 296.23 156.375C299.11 149.522 300.95 142.278 301.688 134.881L202.426 55.6233C194.281 58.3399 186.662 62.4366 179.904 67.7344Z" fill="white"/>
<path opacity="0.1" d="M153.395 107.962L261.43 194.283C271.695 188.929 280.593 181.288 287.436 171.949L169.452 77.6627C161.848 86.3983 156.354 96.7649 153.395 107.962Z" fill="white"/>
<path d="M412.63 212.124C412.492 210.214 411.867 208.371 410.814 206.772C410.05 205.595 408.979 204.648 407.718 204.032L400.55 200.517C395.786 198.155 390.989 195.857 386.193 193.558C381.397 191.26 376.569 189.004 371.763 186.726C366.956 184.449 362.107 182.234 357.248 180.062C347.551 175.668 337.79 171.393 327.967 167.237C323.056 165.138 318.133 163.123 313.169 161.15C311.72 160.579 310.542 159.479 309.873 158.072C309.205 156.665 309.096 155.057 309.57 153.573C316.214 132.623 314.701 109.936 305.333 90.0544C295.965 70.1725 279.433 54.5626 259.047 46.3494C238.661 38.1362 215.925 37.9258 195.39 45.7604C174.856 53.595 158.038 68.8964 148.304 88.6015C138.569 108.307 136.637 130.961 142.893 152.031C149.149 173.1 163.132 191.029 182.042 202.228C200.953 213.428 223.396 217.072 244.879 212.43C266.362 207.789 285.299 195.205 297.899 177.197C298.791 175.917 300.136 175.024 301.662 174.698C303.188 174.373 304.78 174.64 306.117 175.444C310.706 178.173 315.317 180.856 319.949 183.494C329.206 188.769 338.532 193.912 347.929 198.921C352.62 201.461 357.374 203.906 362.044 206.394C366.715 208.881 371.49 211.305 376.244 213.74C380.998 216.175 385.689 218.557 390.507 220.908L397.654 224.456C398.909 225.087 400.314 225.363 401.715 225.253C403.622 225.118 405.462 224.493 407.057 223.438C408.959 222.27 410.491 220.587 411.477 218.585C412.463 216.584 412.863 214.343 412.63 212.124ZM196.046 188.909C183.845 182.889 173.704 173.386 166.905 161.602C160.106 149.818 156.954 136.283 157.848 122.707C158.742 109.132 163.641 96.1264 171.926 85.3356C180.212 74.5449 191.511 66.4536 204.396 62.0849C217.28 57.7163 231.17 57.2666 244.31 60.7926C257.45 64.3187 269.249 71.6621 278.216 81.8943C287.182 92.1265 292.912 104.788 294.682 118.277C296.452 131.766 294.183 145.477 288.16 157.676C284.163 165.776 278.609 173.008 271.817 178.961C265.024 184.914 257.125 189.471 248.572 192.371C240.018 195.272 230.977 196.459 221.964 195.865C212.952 195.271 204.145 192.907 196.046 188.909Z" fill="#437BFA"/>
<path d="M360.176 106.314C360.176 106.933 359.851 107.437 359.442 107.437C359.032 107.437 358.707 106.933 358.707 106.314C358.707 105.695 359.032 105.18 359.442 105.18C359.851 105.18 360.176 105.684 360.176 106.314Z" fill="#263238"/>
<path d="M359.903 107.437C359.166 109.338 358.17 111.128 356.944 112.758C357.368 113.061 357.854 113.269 358.367 113.365C358.88 113.461 359.408 113.444 359.914 113.314L359.903 107.437Z" fill="#FFBDA7"/>
<path d="M362.38 102.851C362.457 102.848 362.53 102.823 362.591 102.777C362.652 102.731 362.697 102.667 362.72 102.594C362.743 102.522 362.743 102.444 362.72 102.371C362.697 102.299 362.651 102.235 362.59 102.189C362.127 101.842 361.587 101.609 361.016 101.511C360.445 101.412 359.859 101.45 359.305 101.623C359.256 101.636 359.21 101.66 359.17 101.692C359.13 101.725 359.098 101.765 359.074 101.811C359.051 101.857 359.038 101.907 359.035 101.958C359.033 102.01 359.041 102.061 359.059 102.109C359.078 102.157 359.106 102.2 359.142 102.237C359.179 102.273 359.222 102.301 359.27 102.32C359.318 102.338 359.369 102.346 359.421 102.344C359.472 102.341 359.522 102.328 359.568 102.305C360.008 102.174 360.473 102.148 360.926 102.23C361.378 102.312 361.804 102.5 362.171 102.777C362.23 102.825 362.304 102.851 362.38 102.851Z" fill="#263238"/>
<path d="M381.408 110.995C380.295 116.641 379.193 126.978 383.139 130.736C383.139 130.736 381.596 136.455 371.122 136.455C359.578 136.455 365.613 130.736 365.613 130.736C371.91 129.235 371.742 124.565 370.64 120.241L381.408 110.995Z" fill="#FFBDA7"/>
<path d="M385.165 127.199C386.036 127.482 384.902 132.667 384.902 132.667C384.902 132.667 383.465 136.287 365.602 135.028C364.227 134.923 364.752 129.949 366.064 129.224C370.293 126.915 382.352 126.275 385.165 127.199Z" fill="#263238"/>
<path d="M421.446 344.035C422.412 343.941 423.818 342.167 424.217 341.516C424.234 341.488 424.244 341.455 424.244 341.422C424.244 341.388 424.234 341.356 424.217 341.327C424.2 341.296 424.173 341.271 424.141 341.256C424.109 341.241 424.073 341.237 424.038 341.243C423.933 341.243 421.394 341.726 420.774 342.713C420.709 342.816 420.666 342.932 420.648 343.053C420.63 343.174 420.637 343.298 420.669 343.416C420.806 343.878 421.068 344.004 421.278 344.035H421.446ZM423.66 341.695C422.978 342.639 421.855 343.741 421.32 343.668C421.268 343.668 421.11 343.668 421.016 343.311C420.995 343.242 420.99 343.17 421.001 343.099C421.012 343.028 421.038 342.961 421.079 342.902C421.802 342.255 422.7 341.835 423.66 341.695Z" fill="#437BFA"/>
<path d="M423.555 341.695C423.743 341.679 423.929 341.647 424.111 341.6C424.142 341.59 424.17 341.572 424.192 341.549C424.214 341.525 424.23 341.495 424.237 341.464C424.243 341.431 424.241 341.397 424.23 341.366C424.219 341.335 424.199 341.307 424.174 341.285C424.111 341.222 422.411 339.774 421.257 339.89C421.118 339.899 420.982 339.937 420.859 340.002C420.736 340.067 420.629 340.158 420.543 340.267C420.444 340.363 420.382 340.49 420.369 340.626C420.356 340.763 420.391 340.9 420.469 341.013C420.847 341.611 422.505 341.8 423.555 341.695ZM423.639 341.327C422.589 341.453 421.057 341.243 420.763 340.813C420.763 340.813 420.679 340.677 420.826 340.488C420.885 340.418 420.957 340.362 421.038 340.32C421.119 340.279 421.208 340.254 421.299 340.246C422.169 340.367 422.983 340.743 423.639 341.327Z" fill="#437BFA"/>
<path d="M349.293 371.637C350.088 371.634 350.882 371.564 351.665 371.427C351.7 371.417 351.732 371.399 351.758 371.373C351.784 371.347 351.802 371.315 351.812 371.28C351.818 371.242 351.813 371.204 351.796 371.17C351.779 371.136 351.751 371.108 351.717 371.091C351.602 371.018 348.915 369.485 347.624 369.832C347.383 369.893 347.175 370.048 347.047 370.262C346.965 370.379 346.921 370.518 346.921 370.661C346.921 370.804 346.965 370.943 347.047 371.06C347.383 371.521 348.307 371.637 349.293 371.637ZM351.077 371.154C349.639 371.353 347.687 371.343 347.331 370.85C347.278 370.787 347.236 370.671 347.331 370.44C347.369 370.376 347.421 370.32 347.482 370.276C347.544 370.233 347.614 370.203 347.687 370.188C348.517 369.968 350.133 370.671 351.077 371.154Z" fill="#437BFA"/>
<path d="M351.581 371.427C351.619 371.438 351.659 371.438 351.696 371.427C351.72 371.406 351.74 371.38 351.752 371.351C351.765 371.322 351.771 371.291 351.77 371.259C351.77 371.175 351.549 369.097 350.573 368.289C350.429 368.168 350.261 368.078 350.081 368.024C349.9 367.97 349.711 367.953 349.524 367.974C349.02 368.027 348.884 368.278 348.842 368.488C348.705 369.359 350.552 371.028 351.476 371.448L351.581 371.427ZM349.702 368.278C349.937 368.285 350.162 368.37 350.342 368.52C350.925 369.186 351.291 370.013 351.392 370.892C350.437 370.325 349.188 369.013 349.293 368.488C349.293 368.488 349.293 368.32 349.65 368.289L349.702 368.278Z" fill="#437BFA"/>
<path d="M360.103 371.248H352.4L351.623 353.386H359.337L360.103 371.248Z" fill="#FFBDA7"/>
<path d="M430.954 335.87L424.941 340.687L409.639 330.066L415.663 325.249L430.954 335.87Z" fill="#FFBDA7"/>
<path d="M423.838 340.383L429.988 334.285C430.099 334.179 430.241 334.113 430.394 334.098C430.546 334.083 430.699 334.119 430.828 334.201L436.737 338C436.88 338.093 437 338.217 437.088 338.363C437.177 338.509 437.23 338.674 437.245 338.844C437.261 339.014 437.237 339.185 437.176 339.344C437.115 339.504 437.019 339.647 436.894 339.764C434.711 341.863 433.546 342.765 430.838 345.441C429.18 347.1 425.119 352.032 422.82 354.31C420.522 356.587 417.961 354.614 418.706 353.47C422.012 348.369 423.135 344.161 423.282 341.6C423.314 341.14 423.511 340.708 423.838 340.383Z" fill="#263238"/>
<path d="M352.441 370.356H360.837C360.99 370.356 361.137 370.407 361.256 370.503C361.375 370.599 361.457 370.732 361.488 370.881L363.01 377.734C363.048 377.899 363.048 378.07 363.01 378.235C362.973 378.4 362.898 378.554 362.792 378.685C362.685 378.817 362.551 378.923 362.397 378.994C362.244 379.066 362.077 379.102 361.908 379.099C358.864 379.099 354.477 378.878 350.657 378.878C346.197 378.878 342.345 379.12 337.108 379.12C333.96 379.12 333.068 375.919 334.39 375.625C340.425 374.313 345.347 374.166 350.552 370.955C351.114 370.583 351.768 370.376 352.441 370.356Z" fill="#263238"/>
<path d="M398.336 133.044C405.021 136.193 407.781 157.771 407.781 157.771L392.406 163.805C390.02 157.963 388.086 151.945 386.623 145.806C384.472 136.067 391.462 129.77 398.336 133.044Z" fill="#437BFA"/>
<path opacity="0.3" d="M398.336 133.044C405.021 136.193 407.781 157.771 407.781 157.771L392.406 163.805C390.02 157.963 388.086 151.945 386.623 145.806C384.472 136.067 391.462 129.77 398.336 133.044Z" fill="white"/>
<path opacity="0.2" d="M388.376 139.373C387.852 139.119 387.304 138.918 386.739 138.775C386.126 141.076 386.104 143.495 386.676 145.806C388.133 151.946 390.063 157.964 392.449 163.805L397.518 161.822C396.584 156.186 393.718 141.934 388.376 139.373Z" fill="black"/>
<path d="M353.754 132.877C353.754 132.877 345.547 142.144 353.292 199.52H394.537C394.82 193.223 390.843 162.304 396.951 132.478C392.389 131.601 387.776 131.019 383.14 130.736C377.302 130.4 371.45 130.4 365.613 130.736C361.61 131.139 357.645 131.855 353.754 132.877Z" fill="#437BFA"/>
<path opacity="0.3" d="M353.754 132.877C353.754 132.877 345.547 142.144 353.292 199.52H394.537C394.82 193.223 390.843 162.304 396.951 132.478C392.389 131.601 387.776 131.019 383.14 130.736C377.302 130.4 371.45 130.4 365.613 130.736C361.61 131.139 357.645 131.855 353.754 132.877Z" fill="white"/>
<path opacity="0.2" d="M362.076 145.177C360.208 139.572 355.716 137.778 351.14 141.105C350.216 146.541 349.566 155.304 350.311 169.2L358.361 169.126C358.361 169.126 364.836 153.52 362.076 145.177Z" fill="black"/>
<path d="M360.565 142.878C360.229 145.691 359.767 148.241 359.253 150.896C358.739 153.552 358.14 156.144 357.458 158.757C356.111 164.098 354.278 169.305 351.98 174.311C351.382 175.602 350.689 176.871 349.954 178.141C349.577 178.782 349.199 179.422 348.768 180.051C348.211 180.927 347.552 181.733 346.806 182.455C345.358 183.798 343.641 184.817 341.768 185.446C340.248 185.978 338.675 186.348 337.077 186.548C334.225 186.901 331.342 186.937 328.482 186.653C327.082 186.541 325.718 186.362 324.389 186.118C323.024 185.876 321.733 185.624 320.327 185.257L321.009 179.506C325.799 179.305 330.555 178.601 335.199 177.407C336.143 177.127 337.06 176.762 337.938 176.315C338.514 176.051 339.018 175.651 339.407 175.15C339.323 175.224 340.089 173.954 340.54 173.051C340.992 172.149 341.495 170.952 341.926 169.903C342.807 167.741 343.563 165.453 344.256 163.113C344.948 160.772 345.557 158.39 346.124 155.976C346.69 153.562 347.173 151.127 347.698 148.63C348.223 146.132 348.601 143.655 348.978 141.336L360.565 142.878Z" fill="#FFBDA7"/>
<path d="M364.059 138.533C366.232 145.576 357.416 166.565 357.416 166.565L338.851 161.895C339.987 155.261 341.9 148.783 344.549 142.595C350.531 129.497 361.446 130.043 364.059 138.533Z" fill="#437BFA"/>
<path opacity="0.3" d="M364.059 138.533C366.232 145.576 357.416 166.565 357.416 166.565L338.851 161.895C339.987 155.261 341.9 148.783 344.549 142.595C350.531 129.497 361.446 130.043 364.059 138.533Z" fill="white"/>
<path d="M321.271 179.537L312.54 179.317L316.738 188.395C316.738 188.395 320.285 188.867 323.202 184.071L326.277 180.408L322.741 179.695C322.256 179.6 321.765 179.548 321.271 179.537Z" fill="#FFBDA7"/>
<path d="M307.03 181.006L312.036 188.531L316.748 188.395L312.54 179.317L307.03 181.006Z" fill="#F7A9A0"/>
<path opacity="0.2" d="M351.633 353.397L352.022 362.601H359.735L359.337 353.397H351.633Z" fill="black"/>
<path opacity="0.2" d="M415.663 325.249L409.639 330.066L417.531 335.545L423.555 330.728L415.663 325.249Z" fill="black"/>
<path d="M380.967 104.95C380.506 112.59 380.631 117.082 376.769 121.007C370.976 126.905 361.541 123.421 359.715 115.759C358.067 108.896 359.106 97.5611 366.579 94.5071C368.226 93.8255 370.021 93.5776 371.792 93.7872C373.563 93.9967 375.25 94.6567 376.694 95.704C378.137 96.7514 379.287 98.1512 380.036 99.7697C380.784 101.388 381.104 103.172 380.967 104.95Z" fill="#FFBDA7"/>
<path d="M387.138 97.855C387.138 97.855 391.158 99.0514 389.898 103.638C387.999 110.606 383.528 118.624 377.756 119.128C370.567 119.768 367.324 112.348 366.379 104.677C362.076 101.728 358.886 98.9674 359.914 95.9029C361.489 91.1802 367.198 87.1081 376.286 88.1576C385.375 89.2071 389.898 95.0843 387.138 97.855Z" fill="#263238"/>
<path d="M370.755 106.251C370.616 108.146 369.856 109.942 368.593 111.362C366.914 113.209 365.151 112.055 364.857 109.809C364.595 107.773 365.14 104.362 367.197 103.344C369.254 102.326 370.892 103.963 370.755 106.251Z" fill="#FFBDA7"/>
<path d="M367.921 199.52C367.921 199.52 365.319 251.491 370.388 273.509C378.416 308.373 413.711 336.311 413.711 336.311L425.046 327.233C425.046 327.233 396.006 305.624 393.393 276.595C391.052 250.525 394.516 220.583 394.516 199.52H367.921Z" fill="#437BFA"/>
<path opacity="0.2" d="M367.921 199.52C367.921 199.52 365.319 251.491 370.388 273.509C378.416 308.373 413.711 336.311 413.711 336.311L425.046 327.233C425.046 327.233 396.006 305.624 393.393 276.595C391.052 250.525 394.516 220.583 394.516 199.52H367.921Z" fill="black"/>
<path opacity="0.2" d="M371.794 214.916C370.745 212.89 368.698 218.925 367.271 226.67C367.271 237.354 367.46 249.507 368.394 259.803C375.52 246.631 374.009 219.114 371.794 214.916Z" fill="black"/>
<path d="M408.569 334.075L412.872 337.413L425.959 326.802L422.034 323.245L408.569 334.075Z" fill="#2C6BDB"/>
<path opacity="0.4" d="M408.569 334.075L412.872 337.413L425.959 326.802L422.034 323.245L408.569 334.075Z" fill="#FAFAFA"/>
<path d="M353.292 199.52C353.292 199.52 341.684 248.741 340.866 272.25C339.952 298.623 349.146 360.817 349.146 360.817H362.212C362.212 360.817 363.818 298.141 364.406 274.118C365.035 247.933 380.4 199.52 380.4 199.52H353.292Z" fill="#437BFA"/>
<path opacity="0.2" d="M353.292 199.52C353.292 199.52 341.684 248.741 340.866 272.25C339.952 298.623 349.146 360.817 349.146 360.817H362.212C362.212 360.817 363.818 298.141 364.406 274.118C365.035 247.933 380.4 199.52 380.4 199.52H353.292Z" fill="black"/>
<path d="M346.638 355.611C346.575 355.611 347.372 361.037 347.372 361.037H363.262L363.692 356.199L346.638 355.611Z" fill="#2C6BDB"/>
<path opacity="0.4" d="M346.638 355.611C346.575 355.611 347.372 361.037 347.372 361.037H363.262L363.692 356.199L346.638 355.611Z" fill="#FAFAFA"/>
</svg>
