<svg width="347" height="418" viewBox="0 0 347 418" fill="none" xmlns="http://www.w3.org/2000/svg">
<path d="M205.766 418C236.255 418 260.971 406.221 260.971 391.691C260.971 377.16 236.255 365.381 205.766 365.381C175.277 365.381 150.562 377.16 150.562 391.691C150.562 406.221 175.277 418 205.766 418Z" fill="#66BCE8" fill-opacity="0.42"/>
<path d="M303.563 357.998C327.085 357.998 346.154 348.91 346.154 337.7C346.154 326.49 327.085 317.403 303.563 317.403C280.04 317.403 260.972 326.49 260.972 337.7C260.972 348.91 280.04 357.998 303.563 357.998Z" fill="#66BCE8" fill-opacity="0.42"/>
<path d="M2.44397 401.105C1.72653 400.608 1.13537 399.951 0.717773 399.184C0.300173 398.418 0.067727 397.564 0.0390625 396.692V109.414C0.0881372 108.51 0.350075 107.63 0.803513 106.847C1.25695 106.063 1.88906 105.398 2.64839 104.905L183.016 0.74823C183.77 0.275363 184.639 0.016953 185.528 0.000806034C186.418 -0.0153409 187.295 0.211382 188.066 0.656586C188.836 1.10179 189.471 1.74863 189.901 2.52751C190.331 3.3064 190.541 4.18785 190.508 5.07706L7.49429 401.009C6.71938 401.421 5.85816 401.645 4.98063 401.661C4.10311 401.678 3.23401 401.488 2.44397 401.105Z" fill="#E0E0E0"/>
<path d="M4.88587 114.873L78.1514 66.9312L73.2694 64.1055L2.61323 104.905C1.85391 105.398 1.2218 106.063 0.768357 106.847C0.314919 107.63 0.0529809 108.51 0.00390625 109.414V112.047L4.88587 114.873Z" fill="#37474F"/>
<path opacity="0.2" d="M4.88587 114.873L78.1514 66.9312L73.2694 64.1055L2.61323 104.905C1.85391 105.398 1.2218 106.063 0.768357 106.847C0.314919 107.63 0.0529809 108.51 0.00390625 109.414V112.047L4.88587 114.873Z" fill="#37474F"/>
<path d="M29.3549 123.327L0.760533 106.877C0.294607 107.653 0.033891 108.534 0.00298083 109.438V396.668C-0.0280306 397.557 0.183416 398.436 0.614611 399.214C1.04581 399.991 1.68047 400.636 2.45051 401.079C3.22055 401.523 4.0969 401.749 4.98549 401.732C5.87407 401.716 6.74137 401.457 7.49428 400.985L29.3549 388.42V123.327Z" fill="#263238"/>
<path opacity="0.4" d="M29.3549 123.327L0.760533 106.877C0.294607 107.653 0.033891 108.534 0.00298083 109.438V396.668C-0.0280306 397.557 0.183416 398.436 0.614611 399.214C1.04581 399.991 1.68047 400.636 2.45051 401.079C3.22055 401.523 4.0969 401.749 4.98549 401.732C5.87407 401.716 6.74137 401.457 7.49428 400.985L29.3549 388.42V123.327Z" fill="#263238"/>
<path d="M7.49508 401.009L187.863 296.853C188.622 296.36 189.255 295.695 189.708 294.911C190.161 294.127 190.423 293.248 190.472 292.344V5.07753C190.472 3.41814 189.27 2.74477 187.863 3.57446L7.49508 107.731C6.73576 108.224 6.10363 108.889 5.65019 109.673C5.19675 110.457 4.93482 111.336 4.88574 112.24V399.506C4.88574 401.166 6.05214 401.839 7.49508 401.009Z" fill="#455A64"/>
<path opacity="0.1" d="M7.49508 401.009L187.863 296.853C188.622 296.36 189.255 295.695 189.708 294.911C190.161 294.127 190.423 293.248 190.472 292.344V5.07753C190.472 3.41814 189.27 2.74477 187.863 3.57446L7.49508 107.731C6.73576 108.224 6.10363 108.889 5.65019 109.673C5.19675 110.457 4.93482 111.336 4.88574 112.24V399.506C4.88574 401.166 6.05214 401.839 7.49508 401.009Z" fill="#455A64"/>
<path d="M19.8678 178.592L63.1561 153.581C66.03 151.921 68.3627 153.1 68.3627 156.214C68.2342 157.963 67.696 159.656 66.7914 161.158C65.8869 162.66 64.6416 163.928 63.1561 164.86L19.8678 189.871C16.9819 191.53 14.6611 190.352 14.6611 187.237C14.7868 185.488 15.3239 183.793 16.2287 182.291C17.1335 180.788 18.3803 179.521 19.8678 178.592Z" fill="#437BFA"/>
<path d="M19.8678 196.339L48.5222 179.793C51.3961 178.134 53.7289 179.312 53.7289 182.426C53.6004 184.175 53.0621 185.869 52.1576 187.371C51.2531 188.873 50.0077 190.141 48.5222 191.072L19.8678 207.618C16.9819 209.277 14.6611 208.099 14.6611 204.984C14.7868 203.235 15.3239 201.54 16.2287 200.038C17.1335 198.535 18.3803 197.268 19.8678 196.339Z" fill="#437BFA"/>
<path d="M16.7415 226.714L22.3452 223.479C23.5477 222.818 24.4255 223.359 24.4255 224.682V231.151C24.3865 231.874 24.1778 232.577 23.8164 233.203C23.4549 233.83 22.9509 234.363 22.3452 234.759L16.7415 237.945C15.539 238.619 14.6611 238.078 14.6611 236.743V230.273C14.7084 229.559 14.921 228.866 15.282 228.248C15.643 227.631 16.1427 227.105 16.7415 226.714Z" fill="#437BFA"/>
<path opacity="0.2" d="M16.7415 226.714L22.3452 223.479C23.5477 222.818 24.4255 223.359 24.4255 224.682V231.151C24.3865 231.874 24.1778 232.577 23.8164 233.203C23.4549 233.83 22.9509 234.363 22.3452 234.759L16.7415 237.945C15.539 238.619 14.6611 238.078 14.6611 236.743V230.273C14.7084 229.559 14.921 228.866 15.282 228.248C15.643 227.631 16.1427 227.105 16.7415 226.714Z" fill="black"/>
<path d="M16.7415 249.283L22.3452 246.049C23.5477 245.375 24.4255 245.916 24.4255 247.251V253.721C24.3837 254.442 24.1738 255.144 23.8126 255.771C23.4514 256.397 22.9489 256.93 22.3452 257.328L16.7415 260.563C15.539 261.224 14.6611 260.683 14.6611 259.36V252.891C14.6983 252.168 14.9061 251.464 15.2677 250.837C15.6294 250.21 16.1344 249.677 16.7415 249.283Z" fill="#437BFA"/>
<g opacity="0.2">
<path d="M16.7424 249.283L22.3461 246.049C23.5487 245.375 24.4265 245.916 24.4265 247.251V253.721C24.3846 254.442 24.1748 255.144 23.8136 255.771C23.4524 256.397 22.9499 256.93 22.3461 257.328L16.7424 260.563C15.5399 261.224 14.6621 260.683 14.6621 259.36V252.891C14.6992 252.168 14.9071 251.464 15.2687 250.837C15.6303 250.21 16.1354 249.677 16.7424 249.283Z" fill="black"/>
</g>
<path d="M31.916 243.344L65.777 223.78C67.22 222.95 68.3864 223.539 68.3864 225.102C68.321 225.976 68.0507 226.822 67.5974 227.572C67.1441 228.322 66.5204 228.955 65.777 229.419L31.916 248.983C30.473 249.813 29.3066 249.224 29.3066 247.66C29.372 246.786 29.6423 245.94 30.0956 245.19C30.5489 244.44 31.1726 243.808 31.916 243.344Z" fill="#437BFA"/>
<path opacity="0.2" d="M31.916 243.344L65.777 223.78C67.22 222.95 68.3864 223.539 68.3864 225.102C68.321 225.976 68.0507 226.822 67.5974 227.572C67.1441 228.322 66.5204 228.955 65.777 229.419L31.916 248.983C30.473 249.813 29.3066 249.224 29.3066 247.66C29.372 246.786 29.6423 245.94 30.0956 245.19C30.5489 244.44 31.1726 243.808 31.916 243.344Z" fill="black"/>
<path d="M16.7415 271.841L22.3452 268.607C23.5477 267.933 24.4255 268.474 24.4255 269.809V276.279C24.3846 277.001 24.1751 277.703 23.8139 278.33C23.4526 278.956 22.9496 279.489 22.3452 279.886L16.7415 283.121C15.539 283.782 14.6611 283.241 14.6611 281.918V275.449C14.6983 274.726 14.9061 274.022 15.2677 273.395C15.6294 272.768 16.1344 272.236 16.7415 271.841Z" fill="#E0E0E0"/>
<path d="M31.916 265.902L65.777 246.362C67.22 245.532 68.3864 246.121 68.3864 247.684C68.3229 248.559 68.0534 249.406 67.5999 250.156C67.1464 250.906 66.5217 251.539 65.777 252.001L31.916 271.565C30.473 272.395 29.3066 271.806 29.3066 270.242C29.3683 269.364 29.6369 268.513 30.0904 267.759C30.5439 267.004 31.1694 266.368 31.916 265.902Z" fill="#F0F0F0"/>
<path d="M16.7415 294.46L22.3452 291.225C23.5477 290.551 24.4255 291.092 24.4255 292.427V298.897C24.3846 299.619 24.1751 300.321 23.8139 300.948C23.4526 301.574 22.9496 302.107 22.3452 302.504L16.7415 305.739C15.539 306.4 14.6611 305.859 14.6611 304.537V298.067C14.6983 297.344 14.9061 296.64 15.2677 296.013C15.6294 295.386 16.1344 294.854 16.7415 294.46Z" fill="#E0E0E0"/>
<path d="M31.916 288.519L65.777 268.967C67.22 268.126 68.3864 268.727 68.3864 270.278C68.3229 271.154 68.0534 272.003 67.6 272.755C67.1466 273.507 66.522 274.142 65.777 274.607L31.916 294.159C30.473 294.989 29.3066 294.399 29.3066 292.836C29.372 291.962 29.6423 291.116 30.0956 290.366C30.5489 289.616 31.1726 288.983 31.916 288.519Z" fill="#F0F0F0"/>
<path d="M16.7415 317.018L22.3452 313.783C23.5477 313.109 24.4255 313.651 24.4255 314.985V321.455C24.3846 322.177 24.1751 322.879 23.8139 323.506C23.4526 324.132 22.9496 324.665 22.3452 325.062L16.7415 328.297C15.539 328.959 14.6611 328.417 14.6611 327.095V320.625C14.6983 319.902 14.9061 319.198 15.2677 318.571C15.6294 317.944 16.1344 317.412 16.7415 317.018Z" fill="#E0E0E0"/>
<path d="M31.916 311.077L65.777 291.526C67.22 290.684 68.3864 291.285 68.3864 292.836C68.3229 293.712 68.0534 294.561 67.6 295.313C67.1466 296.065 66.522 296.7 65.777 297.165L31.916 316.717C30.473 317.547 29.3066 316.957 29.3066 315.394C29.372 314.52 29.6423 313.674 30.0956 312.924C30.5489 312.174 31.1726 311.542 31.916 311.077Z" fill="#F0F0F0"/>
<path d="M17.2584 339.215L41.3075 325.302C42.7505 324.472 43.9168 325.062 43.9168 326.625C43.8515 327.499 43.5812 328.345 43.1279 329.095C42.6745 329.845 42.0509 330.478 41.3075 330.942L17.2584 344.854C15.8275 345.684 14.6611 345.095 14.6611 343.543C14.7243 342.669 14.9922 341.821 15.4434 341.069C15.8946 340.317 16.5164 339.682 17.2584 339.215Z" fill="#437BFA"/>
<path d="M17.2584 350.494L65.7774 322.489C67.2204 321.659 68.3868 322.248 68.3868 323.8C68.3233 324.676 68.0538 325.524 67.6004 326.276C67.147 327.029 66.5224 327.663 65.7774 328.128L17.2584 356.134C15.8275 356.963 14.6611 356.374 14.6611 354.823C14.7243 353.948 14.9922 353.101 15.4434 352.349C15.8946 351.597 16.5164 350.961 17.2584 350.494Z" fill="#437BFA"/>
<path opacity="0.8" d="M17.2584 350.494L65.7774 322.489C67.2204 321.659 68.3868 322.248 68.3868 323.8C68.3233 324.676 68.0538 325.524 67.6004 326.276C67.147 327.029 66.5224 327.663 65.7774 328.128L17.2584 356.134C15.8275 356.963 14.6611 356.374 14.6611 354.823C14.7243 353.948 14.9922 353.101 15.4434 352.349C15.8946 351.597 16.5164 350.961 17.2584 350.494Z" fill="white"/>
<path d="M17.2584 350.494L51.1316 330.942C52.5625 330.113 53.7289 330.702 53.7289 332.265C53.6639 333.138 53.395 333.983 52.9439 334.732C52.4928 335.482 51.8721 336.116 51.1316 336.582L17.2584 356.134C15.8275 356.963 14.6611 356.374 14.6611 354.823C14.7243 353.948 14.9922 353.101 15.4434 352.349C15.8946 351.597 16.5164 350.961 17.2584 350.494Z" fill="#437BFA"/>
<path d="M17.2584 361.797L41.3075 347.885C42.7505 347.055 43.9168 347.644 43.9168 349.207C43.8515 350.081 43.5812 350.927 43.1279 351.677C42.6745 352.427 42.0509 353.06 41.3075 353.524L17.2584 367.437C15.8275 368.266 14.6611 367.677 14.6611 366.126C14.7243 365.251 14.9922 364.404 15.4434 363.652C15.8946 362.9 16.5164 362.264 17.2584 361.797Z" fill="#437BFA"/>
<path d="M31.916 220.773L65.777 201.221C67.22 200.391 68.3864 200.981 68.3864 202.544C68.321 203.418 68.0507 204.264 67.5974 205.014C67.1441 205.764 66.5204 206.396 65.777 206.861L31.916 226.412C30.473 227.242 29.3066 226.653 29.3066 225.102C29.3702 224.226 29.6396 223.377 30.093 222.625C30.5464 221.873 31.171 221.238 31.916 220.773Z" fill="#437BFA"/>
<path opacity="0.2" d="M31.916 220.773L65.777 201.221C67.22 200.391 68.3864 200.981 68.3864 202.544C68.321 203.418 68.0507 204.264 67.5974 205.014C67.1441 205.764 66.5204 206.396 65.777 206.861L31.916 226.412C30.473 227.242 29.3066 226.653 29.3066 225.102C29.3702 224.226 29.6396 223.377 30.093 222.625C30.5464 221.873 31.171 221.238 31.916 220.773Z" fill="black"/>
<path d="M17.2584 361.797L41.3075 347.885C42.7505 347.055 43.9168 347.644 43.9168 349.207C43.8515 350.081 43.5812 350.927 43.1279 351.677C42.6745 352.427 42.0509 353.06 41.3075 353.524L17.2584 367.437C15.8275 368.266 14.6611 367.677 14.6611 366.126C14.7243 365.251 14.9922 364.404 15.4434 363.652C15.8946 362.9 16.5164 362.264 17.2584 361.797Z" fill="#437BFA"/>
<path d="M17.2584 373.04L65.7774 345.035C67.2204 344.205 68.3868 344.794 68.3868 346.346C68.3233 347.222 68.0538 348.07 67.6004 348.822C67.147 349.575 66.5224 350.209 65.7774 350.674L17.2584 378.631C15.8275 379.473 14.6611 378.872 14.6611 377.321C14.7316 376.454 15.003 375.616 15.4538 374.873C15.9047 374.13 16.5226 373.503 17.2584 373.04Z" fill="#437BFA"/>
<path opacity="0.8" d="M17.2584 373.04L65.7774 345.035C67.2204 344.205 68.3868 344.794 68.3868 346.346C68.3233 347.222 68.0538 348.07 67.6004 348.822C67.147 349.575 66.5224 350.209 65.7774 350.674L17.2584 378.631C15.8275 379.473 14.6611 378.872 14.6611 377.321C14.7316 376.454 15.003 375.616 15.4538 374.873C15.9047 374.13 16.5226 373.503 17.2584 373.04Z" fill="white"/>
<path d="M17.2584 373.039L60.8955 347.788C62.3384 346.958 63.5048 347.547 63.5048 349.111C63.4394 349.985 63.1692 350.831 62.7158 351.581C62.2625 352.331 61.6389 352.963 60.8955 353.427L17.2584 378.679C15.8275 379.521 14.6611 378.919 14.6611 377.368C14.7243 376.494 14.9922 375.646 15.4434 374.894C15.8946 374.142 16.5164 373.507 17.2584 373.039Z" fill="#437BFA"/>
<path d="M187.886 3.57426L78.1504 66.9315V360.21L187.886 296.865C188.646 296.372 189.278 295.706 189.731 294.923C190.185 294.139 190.447 293.26 190.496 292.356V5.07732C190.484 3.46604 189.281 2.74456 187.886 3.57426Z" fill="#EBEBEB"/>
<path opacity="0.6" d="M187.886 3.57426L78.1504 66.9315V360.21L187.886 296.865C188.646 296.372 189.278 295.706 189.731 294.923C190.185 294.139 190.447 293.26 190.496 292.356V5.07732C190.484 3.46604 189.281 2.74456 187.886 3.57426Z" fill="#FAFAFA"/>
<path d="M78.1506 78.2101V100.768L68.3867 112.047H78.1506V134.605L180.72 75.3843V18.9893L78.1506 78.2101Z" fill="#437BFA"/>
<g opacity="0.6">
<path d="M91.5703 78.9921L133.127 54.943C135.135 53.7406 136.734 54.7266 136.734 57.0473C136.668 58.3083 136.307 59.5361 135.681 60.6324C135.054 61.7287 134.18 62.663 133.127 63.3602L91.5703 87.3492C89.5501 88.5516 87.9629 87.5656 87.9629 85.2449C88.0355 83.9937 88.3995 82.7767 89.0258 81.6911C89.6521 80.6055 90.5234 79.6813 91.5703 78.9921Z" fill="white"/>
</g>
<path d="M89.2244 97.2573L169.657 50.8186C170.378 50.4097 170.955 50.6983 170.955 51.4799C170.924 51.9174 170.79 52.3413 170.565 52.7174C170.339 53.0935 170.028 53.411 169.657 53.6443L89.2244 100.023C88.5029 100.432 87.9258 100.143 87.9258 99.3616C87.9659 98.9346 88.104 98.5227 88.3292 98.1577C88.5544 97.7928 88.8608 97.4847 89.2244 97.2573Z" fill="#437BFA"/>
<path d="M89.2244 97.2573L169.657 50.8186C170.378 50.4097 170.955 50.6983 170.955 51.4799C170.924 51.9174 170.79 52.3413 170.565 52.7174C170.339 53.0935 170.028 53.411 169.657 53.6443L89.2244 100.023C88.5029 100.432 87.9258 100.143 87.9258 99.3616C87.9659 98.9346 88.104 98.5227 88.3292 98.1577C88.5544 97.7928 88.8608 97.4847 89.2244 97.2573Z" fill="#437BFA"/>
<path opacity="0.6" d="M89.2244 97.2573L169.657 50.8186C170.378 50.4097 170.955 50.6983 170.955 51.4799C170.924 51.9174 170.79 52.3413 170.565 52.7174C170.339 53.0935 170.028 53.411 169.657 53.6443L89.2244 100.023C88.5029 100.432 87.9258 100.143 87.9258 99.3616C87.9659 98.9346 88.104 98.5227 88.3292 98.1577C88.5544 97.7928 88.8608 97.4847 89.2244 97.2573Z" fill="white"/>
<path d="M89.2244 105.674L169.657 59.2355C170.378 58.8146 170.955 59.1153 170.955 59.8969C170.924 60.3327 170.79 60.755 170.565 61.1291C170.339 61.5032 170.028 61.8186 169.657 62.0492L89.2244 108.488C88.5029 108.909 87.9258 108.608 87.9258 107.827C87.9568 107.391 88.0907 106.969 88.3164 106.594C88.5421 106.22 88.8533 105.905 89.2244 105.674Z" fill="#437BFA"/>
<path opacity="0.6" d="M89.2244 105.674L169.657 59.2355C170.378 58.8146 170.955 59.1153 170.955 59.8969C170.924 60.3327 170.79 60.755 170.565 61.1291C170.339 61.5032 170.028 61.8186 169.657 62.0492L89.2244 108.488C88.5029 108.909 87.9258 108.608 87.9258 107.827C87.9568 107.391 88.0907 106.969 88.3164 106.594C88.5421 106.22 88.8533 105.905 89.2244 105.674Z" fill="white"/>
<path opacity="0.6" d="M89.2244 114.092L169.657 67.653C170.378 67.2442 170.955 67.5328 170.955 68.3144C170.924 68.7518 170.79 69.1758 170.565 69.5519C170.339 69.9279 170.028 70.2455 169.657 70.4788L89.2244 116.918C88.5029 117.326 87.9258 117.038 87.9258 116.256C87.9569 115.819 88.0907 115.395 88.3163 115.019C88.5419 114.643 88.8531 114.325 89.2244 114.092Z" fill="white"/>
<path d="M92.2562 137.78L97.8959 134.533C99.0985 133.86 99.9763 134.401 99.9763 135.736V142.205C99.9363 142.928 99.7272 143.63 99.3659 144.257C99.0045 144.884 98.501 145.417 97.8959 145.813L92.2922 149.048C91.0897 149.709 90.2119 149.168 90.2119 147.845V141.388C90.245 140.668 90.4474 139.966 90.8026 139.339C91.1578 138.713 91.6558 138.178 92.2562 137.78Z" fill="#437BFA"/>
<path opacity="0.2" d="M92.2562 137.78L97.8959 134.533C99.0985 133.86 99.9763 134.401 99.9763 135.736V142.205C99.9363 142.928 99.7272 143.63 99.3659 144.257C99.0045 144.884 98.501 145.417 97.8959 145.813L92.2922 149.048C91.0897 149.709 90.2119 149.168 90.2119 147.845V141.388C90.245 140.668 90.4474 139.966 90.8026 139.339C91.1578 138.713 91.6558 138.178 92.2562 137.78Z" fill="white"/>
<path d="M107.43 131.839L141.291 112.275C142.734 111.446 143.9 112.035 143.9 113.598C143.835 114.472 143.564 115.318 143.111 116.068C142.658 116.818 142.034 117.451 141.291 117.915L107.43 137.479C105.987 138.308 104.82 137.719 104.82 136.156C104.886 135.282 105.156 134.436 105.609 133.686C106.063 132.936 106.686 132.303 107.43 131.839Z" fill="#437BFA"/>
<path opacity="0.8" d="M107.43 131.839L141.291 112.275C142.734 111.446 143.9 112.035 143.9 113.598C143.835 114.472 143.564 115.318 143.111 116.068C142.658 116.818 142.034 117.451 141.291 117.915L107.43 137.479C105.987 138.308 104.82 137.719 104.82 136.156C104.886 135.282 105.156 134.436 105.609 133.686C106.063 132.936 106.686 132.303 107.43 131.839Z" fill="white"/>
<path d="M91.4735 157.981L176.848 108.681C177.569 108.26 178.146 108.56 178.146 109.33C178.116 109.768 177.983 110.192 177.757 110.568C177.531 110.944 177.22 111.262 176.848 111.494L91.4735 160.795C90.752 161.216 90.1748 160.915 90.1748 160.134C90.2058 159.698 90.3397 159.276 90.5655 158.901C90.7912 158.527 91.1024 158.212 91.4735 157.981Z" fill="#437BFA"/>
<path d="M91.4735 166.434L176.848 117.133C177.569 116.725 178.146 117.013 178.146 117.795C178.115 118.232 177.981 118.656 177.756 119.032C177.53 119.408 177.219 119.726 176.848 119.959L91.4735 169.26C90.752 169.669 90.1748 169.38 90.1748 168.599C90.2059 168.161 90.3397 167.737 90.5653 167.361C90.791 166.985 91.1021 166.667 91.4735 166.434Z" fill="#437BFA"/>
<path d="M91.4735 174.899L176.848 125.599C177.569 125.178 178.146 125.478 178.146 126.248C178.116 126.686 177.983 127.11 177.757 127.486C177.531 127.862 177.22 128.18 176.848 128.412L91.4735 177.713C90.752 178.134 90.1748 177.833 90.1748 177.064C90.205 176.626 90.3383 176.202 90.5641 175.825C90.7898 175.449 91.1014 175.132 91.4735 174.899Z" fill="#437BFA"/>
<path d="M91.4735 183.376L176.848 134.076C177.569 133.667 178.146 133.956 178.146 134.737C178.115 135.175 177.981 135.599 177.756 135.975C177.53 136.351 177.219 136.668 176.848 136.902L91.4735 186.202C90.752 186.611 90.1748 186.323 90.1748 185.541C90.2059 185.103 90.3397 184.679 90.5653 184.303C90.791 183.927 91.1021 183.61 91.4735 183.376Z" fill="#437BFA"/>
<path d="M91.4735 157.981L176.848 108.681C177.569 108.26 178.146 108.56 178.146 109.33C178.116 109.768 177.983 110.192 177.757 110.568C177.531 110.944 177.22 111.262 176.848 111.494L91.4735 160.795C90.752 161.216 90.1748 160.915 90.1748 160.134C90.2058 159.698 90.3397 159.276 90.5655 158.901C90.7912 158.527 91.1024 158.212 91.4735 157.981Z" fill="#E0E0E0"/>
<path d="M91.4735 166.434L176.848 117.133C177.569 116.725 178.146 117.013 178.146 117.795C178.115 118.232 177.981 118.656 177.756 119.032C177.53 119.408 177.219 119.726 176.848 119.959L91.4735 169.26C90.752 169.669 90.1748 169.38 90.1748 168.599C90.2059 168.161 90.3397 167.737 90.5653 167.361C90.791 166.985 91.1021 166.667 91.4735 166.434Z" fill="#E0E0E0"/>
<path d="M91.4735 174.899L176.848 125.599C177.569 125.178 178.146 125.478 178.146 126.248C178.116 126.686 177.983 127.11 177.757 127.486C177.531 127.862 177.22 128.18 176.848 128.412L91.4735 177.713C90.752 178.134 90.1748 177.833 90.1748 177.064C90.205 176.626 90.3383 176.202 90.5641 175.825C90.7898 175.449 91.1014 175.132 91.4735 174.899Z" fill="#E0E0E0"/>
<path d="M91.4735 183.376L176.848 134.076C177.569 133.667 178.146 133.956 178.146 134.737C178.115 135.175 177.981 135.599 177.756 135.975C177.53 136.351 177.219 136.668 176.848 136.902L91.4735 186.202C90.752 186.611 90.1748 186.323 90.1748 185.541C90.2059 185.103 90.3397 184.679 90.5653 184.303C90.791 183.927 91.1021 183.61 91.4735 183.376Z" fill="#E0E0E0"/>
<path opacity="0.8" d="M91.4735 157.981L176.848 108.681C177.569 108.26 178.146 108.56 178.146 109.33C178.116 109.768 177.983 110.192 177.757 110.568C177.531 110.944 177.22 111.262 176.848 111.494L91.4735 160.795C90.752 161.216 90.1748 160.915 90.1748 160.134C90.2058 159.698 90.3397 159.276 90.5655 158.901C90.7912 158.527 91.1024 158.212 91.4735 157.981Z" fill="#E0E0E0"/>
<path opacity="0.8" d="M91.4735 166.434L176.848 117.133C177.569 116.725 178.146 117.013 178.146 117.795C178.115 118.232 177.981 118.656 177.756 119.032C177.53 119.408 177.219 119.726 176.848 119.959L91.4735 169.26C90.752 169.669 90.1748 169.38 90.1748 168.599C90.2059 168.161 90.3397 167.737 90.5653 167.361C90.791 166.985 91.1021 166.667 91.4735 166.434Z" fill="#E0E0E0"/>
<path opacity="0.8" d="M91.4735 174.899L176.848 125.599C177.569 125.178 178.146 125.478 178.146 126.248C178.116 126.686 177.983 127.11 177.757 127.486C177.531 127.862 177.22 128.18 176.848 128.412L91.4735 177.713C90.752 178.134 90.1748 177.833 90.1748 177.064C90.205 176.626 90.3383 176.202 90.5641 175.825C90.7898 175.449 91.1014 175.132 91.4735 174.899Z" fill="#E0E0E0"/>
<path opacity="0.8" d="M91.4735 183.376L176.848 134.076C177.569 133.667 178.146 133.956 178.146 134.737C178.115 135.175 177.981 135.599 177.756 135.975C177.53 136.351 177.219 136.668 176.848 136.902L91.4735 186.202C90.752 186.611 90.1748 186.323 90.1748 185.541C90.2059 185.103 90.3397 184.679 90.5653 184.303C90.791 183.927 91.1021 183.61 91.4735 183.376Z" fill="#E0E0E0"/>
<path d="M91.4735 219.306L176.848 170.006C177.569 169.585 178.146 169.886 178.146 170.655C178.116 171.093 177.983 171.517 177.757 171.893C177.531 172.27 177.22 172.587 176.848 172.82L91.4735 222.12C90.752 222.541 90.1748 222.24 90.1748 221.459C90.2058 221.023 90.3397 220.601 90.5655 220.227C90.7912 219.852 91.1024 219.537 91.4735 219.306Z" fill="#E0E0E0"/>
<path d="M91.4735 227.759L176.848 178.459C177.569 178.05 178.146 178.338 178.146 179.12C178.115 179.558 177.981 179.981 177.756 180.358C177.53 180.734 177.219 181.051 176.848 181.284L91.4735 230.585C90.752 230.994 90.1748 230.705 90.1748 229.924C90.2059 229.486 90.3397 229.062 90.5653 228.686C90.791 228.31 91.1021 227.993 91.4735 227.759Z" fill="#E0E0E0"/>
<path d="M91.4735 236.224L176.848 186.924C177.569 186.503 178.146 186.804 178.146 187.573C178.116 188.011 177.983 188.435 177.757 188.811C177.531 189.188 177.22 189.505 176.848 189.738L91.4735 239.038C90.752 239.459 90.1748 239.158 90.1748 238.389C90.205 237.951 90.3383 237.527 90.5641 237.151C90.7898 236.774 91.1014 236.457 91.4735 236.224Z" fill="#E0E0E0"/>
<path d="M91.4735 244.702L176.848 195.402C177.569 194.993 178.146 195.281 178.146 196.063C178.115 196.5 177.981 196.924 177.756 197.3C177.53 197.676 177.219 197.994 176.848 198.227L91.4735 247.528C90.752 247.937 90.1748 247.648 90.1748 246.867C90.2059 246.429 90.3397 246.005 90.5653 245.629C90.791 245.253 91.1021 244.935 91.4735 244.702Z" fill="#E0E0E0"/>
<path opacity="0.8" d="M91.4735 219.306L176.848 170.006C177.569 169.585 178.146 169.886 178.146 170.655C178.116 171.093 177.983 171.517 177.757 171.893C177.531 172.27 177.22 172.587 176.848 172.82L91.4735 222.12C90.752 222.541 90.1748 222.24 90.1748 221.459C90.2058 221.023 90.3397 220.601 90.5655 220.227C90.7912 219.852 91.1024 219.537 91.4735 219.306Z" fill="#E0E0E0"/>
<path opacity="0.8" d="M91.4735 227.759L176.848 178.459C177.569 178.05 178.146 178.338 178.146 179.12C178.115 179.558 177.981 179.981 177.756 180.358C177.53 180.734 177.219 181.051 176.848 181.284L91.4735 230.585C90.752 230.994 90.1748 230.705 90.1748 229.924C90.2059 229.486 90.3397 229.062 90.5653 228.686C90.791 228.31 91.1021 227.993 91.4735 227.759Z" fill="#E0E0E0"/>
<path opacity="0.8" d="M91.4735 236.224L176.848 186.924C177.569 186.503 178.146 186.804 178.146 187.573C178.116 188.011 177.983 188.435 177.757 188.811C177.531 189.188 177.22 189.505 176.848 189.738L91.4735 239.038C90.752 239.459 90.1748 239.158 90.1748 238.389C90.205 237.951 90.3383 237.527 90.5641 237.151C90.7898 236.774 91.1014 236.457 91.4735 236.224Z" fill="#E0E0E0"/>
<path opacity="0.8" d="M91.4735 244.702L176.848 195.402C177.569 194.993 178.146 195.281 178.146 196.063C178.115 196.5 177.981 196.924 177.756 197.3C177.53 197.676 177.219 197.994 176.848 198.227L91.4735 247.528C90.752 247.937 90.1748 247.648 90.1748 246.867C90.2059 246.429 90.3397 246.005 90.5653 245.629C90.791 245.253 91.1021 244.935 91.4735 244.702Z" fill="#E0E0E0"/>
<path d="M91.4735 281.834L176.848 232.533C177.569 232.112 178.146 232.413 178.146 233.183C178.116 233.62 177.983 234.045 177.757 234.421C177.531 234.797 177.22 235.114 176.848 235.347L91.4735 284.648C90.752 285.068 90.1748 284.768 90.1748 283.986C90.2058 283.55 90.3397 283.128 90.5655 282.754C90.7912 282.38 91.1024 282.064 91.4735 281.834Z" fill="#E0E0E0"/>
<path d="M91.4735 290.287L176.848 240.987C177.569 240.578 178.146 240.866 178.146 241.648C178.115 242.085 177.981 242.509 177.756 242.885C177.53 243.261 177.219 243.579 176.848 243.812L91.4735 293.113C90.752 293.522 90.1748 293.233 90.1748 292.452C90.2059 292.014 90.3397 291.59 90.5653 291.214C90.791 290.838 91.1021 290.52 91.4735 290.287Z" fill="#E0E0E0"/>
<path d="M91.4735 298.752L176.848 249.452C177.569 249.031 178.146 249.331 178.146 250.101C178.116 250.539 177.983 250.963 177.757 251.339C177.531 251.715 177.22 252.033 176.848 252.265L91.4735 301.566C90.752 301.987 90.1748 301.686 90.1748 300.917C90.205 300.479 90.3383 300.055 90.5641 299.678C90.7898 299.302 91.1014 298.985 91.4735 298.752Z" fill="#E0E0E0"/>
<path d="M91.4735 307.23L176.848 257.929C177.569 257.52 178.146 257.809 178.146 258.59C178.115 259.028 177.981 259.452 177.756 259.828C177.53 260.204 177.219 260.521 176.848 260.755L91.4735 310.055C90.752 310.464 90.1748 310.176 90.1748 309.394C90.2059 308.956 90.3397 308.533 90.5653 308.156C90.791 307.78 91.1021 307.463 91.4735 307.23Z" fill="#E0E0E0"/>
<path opacity="0.8" d="M91.4735 281.834L176.848 232.533C177.569 232.112 178.146 232.413 178.146 233.183C178.116 233.62 177.983 234.045 177.757 234.421C177.531 234.797 177.22 235.114 176.848 235.347L91.4735 284.648C90.752 285.068 90.1748 284.768 90.1748 283.986C90.2058 283.55 90.3397 283.128 90.5655 282.754C90.7912 282.38 91.1024 282.064 91.4735 281.834Z" fill="#E0E0E0"/>
<path opacity="0.8" d="M91.4735 290.287L176.848 240.987C177.569 240.578 178.146 240.866 178.146 241.648C178.115 242.085 177.981 242.509 177.756 242.885C177.53 243.261 177.219 243.579 176.848 243.812L91.4735 293.113C90.752 293.522 90.1748 293.233 90.1748 292.452C90.2059 292.014 90.3397 291.59 90.5653 291.214C90.791 290.838 91.1021 290.52 91.4735 290.287Z" fill="#E0E0E0"/>
<path opacity="0.8" d="M91.4735 298.752L176.848 249.452C177.569 249.031 178.146 249.331 178.146 250.101C178.116 250.539 177.983 250.963 177.757 251.339C177.531 251.715 177.22 252.033 176.848 252.265L91.4735 301.566C90.752 301.987 90.1748 301.686 90.1748 300.917C90.205 300.479 90.3383 300.055 90.5641 299.678C90.7898 299.302 91.1014 298.985 91.4735 298.752Z" fill="#E0E0E0"/>
<path opacity="0.8" d="M91.4735 307.23L176.848 257.929C177.569 257.52 178.146 257.809 178.146 258.59C178.115 259.028 177.981 259.452 177.756 259.828C177.53 260.204 177.219 260.521 176.848 260.755L91.4735 310.055C90.752 310.464 90.1748 310.176 90.1748 309.394C90.2059 308.956 90.3397 308.533 90.5653 308.156C90.791 307.78 91.1021 307.463 91.4735 307.23Z" fill="#E0E0E0"/>
<path d="M92.2562 199.815L97.8959 196.58C99.0985 195.919 99.9763 196.46 99.9763 197.783V204.276C99.9392 204.999 99.7313 205.703 99.3697 206.33C99.0081 206.957 98.503 207.489 97.8959 207.884L92.2922 211.118C91.0897 211.78 90.2119 211.251 90.2119 209.916V203.446C90.2422 202.723 90.4433 202.017 90.7985 201.386C91.1538 200.754 91.6533 200.216 92.2562 199.815Z" fill="#437BFA"/>
<path opacity="0.2" d="M92.2562 199.815L97.8959 196.58C99.0985 195.919 99.9763 196.46 99.9763 197.783V204.276C99.9392 204.999 99.7313 205.703 99.3697 206.33C99.0081 206.957 98.503 207.489 97.8959 207.884L92.2922 211.118C91.0897 211.78 90.2119 211.251 90.2119 209.916V203.446C90.2422 202.723 90.4433 202.017 90.7985 201.386C91.1538 200.754 91.6533 200.216 92.2562 199.815Z" fill="white"/>
<path d="M107.43 193.874L141.291 174.322C142.734 173.493 143.9 174.082 143.9 175.633C143.837 176.509 143.567 177.358 143.114 178.11C142.66 178.862 142.036 179.497 141.291 179.962L107.43 199.466C105.987 200.295 104.82 199.706 104.82 198.155C104.891 197.287 105.164 196.448 105.617 195.705C106.07 194.962 106.691 194.335 107.43 193.874Z" fill="#437BFA"/>
<path opacity="0.8" d="M107.43 193.874L141.291 174.322C142.734 173.493 143.9 174.082 143.9 175.633C143.837 176.509 143.567 177.358 143.114 178.11C142.66 178.862 142.036 179.497 141.291 179.962L107.43 199.466C105.987 200.295 104.82 199.706 104.82 198.155C104.891 197.287 105.164 196.448 105.617 195.705C106.07 194.962 106.691 194.335 107.43 193.874Z" fill="white"/>
<path d="M92.2562 261.861L97.8959 258.627C99.0985 257.953 99.9763 258.494 99.9763 259.829V266.299C99.9382 267.021 99.7299 267.725 99.3684 268.352C99.0069 268.979 98.5024 269.511 97.8959 269.906L92.2922 273.141C91.0897 273.802 90.2119 273.261 90.2119 271.938V265.469C90.245 264.749 90.4474 264.047 90.8026 263.421C91.1578 262.794 91.6558 262.26 92.2562 261.861Z" fill="#437BFA"/>
<path opacity="0.2" d="M92.2562 261.861L97.8959 258.627C99.0985 257.953 99.9763 258.494 99.9763 259.829V266.299C99.9382 267.021 99.7299 267.725 99.3684 268.352C99.0069 268.979 98.5024 269.511 97.8959 269.906L92.2922 273.141C91.0897 273.802 90.2119 273.261 90.2119 271.938V265.469C90.245 264.749 90.4474 264.047 90.8026 263.421C91.1578 262.794 91.6558 262.26 92.2562 261.861Z" fill="white"/>
<path d="M107.43 255.981L141.291 236.417C142.734 235.588 143.9 236.177 143.9 237.74C143.836 238.616 143.566 239.464 143.112 240.216C142.659 240.968 142.035 241.603 141.291 242.069L107.43 261.621C105.987 262.45 104.82 261.861 104.82 260.298C104.886 259.424 105.156 258.578 105.609 257.828C106.063 257.078 106.686 256.445 107.43 255.981Z" fill="#437BFA"/>
<path opacity="0.8" d="M107.43 255.981L141.291 236.417C142.734 235.588 143.9 236.177 143.9 237.74C143.836 238.616 143.566 239.464 143.112 240.216C142.659 240.968 142.035 241.603 141.291 242.069L107.43 261.621C105.987 262.45 104.82 261.861 104.82 260.298C104.886 259.424 105.156 258.578 105.609 257.828C106.063 257.078 106.686 256.445 107.43 255.981Z" fill="white"/>
<path d="M100.228 316.477L105.831 313.242C107.034 312.581 107.924 313.122 107.924 314.445V320.914C107.884 321.638 107.674 322.342 107.311 322.969C106.947 323.596 106.44 324.128 105.831 324.522L100.228 327.757C99.0854 328.43 98.1475 327.889 98.1475 326.554V320.085C98.1893 319.363 98.3992 318.661 98.7603 318.034C99.1215 317.408 99.624 316.875 100.228 316.477Z" fill="#437BFA"/>
<path d="M91.4735 338.457L114.597 325.11C115.318 324.701 115.895 324.989 115.895 325.771C115.864 326.208 115.73 326.632 115.505 327.008C115.279 327.384 114.968 327.702 114.597 327.935L91.4735 341.283C90.752 341.691 90.1748 341.403 90.1748 340.621C90.2059 340.184 90.3397 339.76 90.5653 339.384C90.791 339.008 91.1021 338.69 91.4735 338.457Z" fill="#E0E0E0"/>
<path d="M131.336 298.512L136.939 295.277C138.082 294.616 139.02 295.157 139.02 296.48V302.949C138.981 303.672 138.772 304.375 138.41 305.002C138.049 305.628 137.545 306.161 136.939 306.557L131.336 309.792C130.133 310.453 129.243 309.924 129.243 308.589V302.12C129.284 301.396 129.494 300.692 129.858 300.066C130.221 299.439 130.728 298.906 131.336 298.512Z" fill="#437BFA"/>
<path d="M122.569 320.492L145.692 307.145C146.414 306.724 146.991 307.025 146.991 307.807C146.96 308.242 146.826 308.665 146.6 309.039C146.375 309.413 146.063 309.728 145.692 309.959L122.569 323.318C121.848 323.739 121.271 323.438 121.271 322.669C121.299 322.229 121.431 321.802 121.657 321.424C121.883 321.045 122.196 320.726 122.569 320.492Z" fill="#E0E0E0"/>
<path d="M162.43 280.547L168.034 277.313C169.176 276.639 170.114 277.18 170.114 278.515V284.985C170.073 285.707 169.864 286.409 169.502 287.036C169.141 287.662 168.638 288.195 168.034 288.592L162.43 291.827C161.227 292.488 160.35 291.947 160.35 290.624V284.155C160.387 283.432 160.595 282.728 160.956 282.101C161.318 281.474 161.823 280.942 162.43 280.547Z" fill="#437BFA"/>
<path opacity="0.2" d="M100.228 316.477L105.831 313.242C107.034 312.581 107.924 313.122 107.924 314.445V320.914C107.884 321.638 107.674 322.342 107.311 322.969C106.947 323.596 106.44 324.128 105.831 324.522L100.228 327.757C99.0854 328.43 98.1475 327.889 98.1475 326.554V320.085C98.1893 319.363 98.3992 318.661 98.7603 318.034C99.1215 317.408 99.624 316.875 100.228 316.477Z" fill="white"/>
<path opacity="0.2" d="M131.336 298.512L136.939 295.277C138.082 294.616 139.02 295.157 139.02 296.48V302.949C138.981 303.672 138.772 304.375 138.41 305.002C138.049 305.628 137.545 306.161 136.939 306.557L131.336 309.792C130.133 310.453 129.243 309.924 129.243 308.589V302.12C129.284 301.396 129.494 300.692 129.858 300.066C130.221 299.439 130.728 298.906 131.336 298.512Z" fill="white"/>
<path opacity="0.2" d="M162.43 280.547L168.034 277.313C169.176 276.639 170.114 277.18 170.114 278.515V284.985C170.073 285.707 169.864 286.409 169.502 287.036C169.141 287.662 168.638 288.195 168.034 288.592L162.43 291.827C161.227 292.488 160.35 291.947 160.35 290.624V284.155C160.387 283.432 160.595 282.728 160.956 282.101C161.318 281.474 161.823 280.942 162.43 280.547Z" fill="white"/>
<path d="M153.664 302.528L176.787 289.181C177.509 288.76 178.086 289.061 178.086 289.83C178.056 290.268 177.922 290.693 177.696 291.069C177.471 291.445 177.159 291.762 176.787 291.995L153.664 305.342C152.954 305.763 152.365 305.462 152.365 304.681C152.399 304.246 152.534 303.824 152.76 303.451C152.985 303.077 153.295 302.761 153.664 302.528Z" fill="#E0E0E0"/>
<mask id="mask0_702_2943" style="mask-type:luminance" maskUnits="userSpaceOnUse" x="14" y="98" width="50" height="64">
<path d="M39.083 101.898C25.5914 109.498 14.6611 128.436 14.6611 144.188C14.6611 159.941 25.5914 166.41 39.083 158.618C52.5745 150.826 63.5048 131.899 63.5048 116.316C63.5048 100.732 52.5625 94.2866 39.083 101.898Z" fill="white"/>
</mask>
<g mask="url(#mask0_702_2943)">
<path d="M39.083 101.898C25.5914 109.498 14.6611 128.436 14.6611 144.188C14.6611 159.941 25.5914 166.41 39.083 158.618C52.5745 150.826 63.5048 131.899 63.5048 116.316C63.5048 100.732 52.5625 94.2866 39.083 101.898Z" fill="#FAFAFA"/>
<path d="M50.9155 150.441L31.3636 155.683C31.0269 155.793 30.6681 155.817 30.3198 155.754C29.9715 155.69 29.6446 155.54 29.3687 155.318C29.0929 155.096 28.8768 154.808 28.7401 154.482C28.6035 154.155 28.5504 153.799 28.5859 153.447V120.163C28.6549 117.408 29.5751 114.742 31.22 112.531C32.8648 110.32 35.1538 108.672 37.7726 107.814L44.4583 106.022C49.5447 104.663 53.6691 107.982 53.6691 113.429V146.725C53.6473 147.552 53.3713 148.353 52.8786 149.018C52.3859 149.682 51.7005 150.179 50.9155 150.441Z" fill="#37474F"/>
<path d="M51.853 159.051L49.7968 149.972C49.7968 149.972 49.7968 137.719 48.0533 136.589C46.3097 135.459 45.8047 135.242 45.8047 135.242C48.0413 134.473 52.7549 133.896 54.2219 138.2C55.6287 142.265 57.733 152.281 58.7311 157.211L51.853 159.051Z" fill="#F7A9A0"/>
<path d="M51.6862 159.099L44.7119 135.351C47.8022 134.148 51.7703 133.15 53.6942 136.337C55.4258 139.198 58.1914 154.193 58.7325 157.211L51.6862 159.099Z" fill="#437BFA"/>
<g opacity="0.4">
<path d="M51.6862 159.099L44.7119 135.351C47.8022 134.148 51.7703 133.15 53.6942 136.337C55.4258 139.198 58.1914 154.193 58.7325 157.211L51.6862 159.099Z" fill="black"/>
</g>
<path d="M52.6238 158.847L45.7695 160.687C46.0456 158.718 46.6945 156.82 47.6815 155.095C49.0533 153.118 51.0274 151.637 53.3093 150.874C52.8153 153.502 52.5857 156.173 52.6238 158.847Z" fill="#437BFA"/>
<path d="M52.6238 158.847L45.7695 160.687C46.0456 158.718 46.6945 156.82 47.6815 155.095C49.0533 153.118 51.0274 151.637 53.3093 150.874C52.8153 153.502 52.5857 156.173 52.6238 158.847Z" fill="#437BFA"/>
<g opacity="0.7">
<path d="M52.6238 158.847L45.7695 160.687C46.0456 158.718 46.6945 156.82 47.6815 155.095C49.0533 153.118 51.0274 151.637 53.3093 150.874C52.8153 153.502 52.5857 156.173 52.6238 158.847Z" fill="black"/>
</g>
<path d="M51.1548 159.243L31.9156 164.378L29.7993 157.824C29.7993 157.824 35.4147 144.682 28.4766 141.303C29.3544 140.641 36.7494 137.756 36.7494 137.756L44.6977 135.351C46.2127 134.942 52.3332 137.659 53.8844 143.684C54.4375 145.812 54.2451 147.724 51.1308 158.81C51.1669 158.955 51.1548 159.099 51.1548 159.243Z" fill="#437BFA"/>
<path d="M49.569 110.111C50.8917 110.592 52.527 113.718 52.3707 121.258C52.2384 127.655 50.3145 129.675 49.3526 130.444C47.9118 131.166 46.3224 131.54 44.7111 131.539V135.35C44.7111 135.35 47.2122 137.755 47.0559 139.583C46.8996 141.411 43.4485 142.709 41.1157 141.627C39.4118 140.667 37.9385 139.345 36.7989 137.755V128.977C36.6233 129.18 36.4091 129.345 36.1689 129.464C35.9287 129.583 35.6672 129.653 35.3998 129.669C35.1323 129.686 34.8642 129.65 34.611 129.562C34.3578 129.474 34.1247 129.337 33.9251 129.158C33.5496 128.901 33.2294 128.571 32.9836 128.188C32.7377 127.805 32.5712 127.377 32.4939 126.928C32.4165 126.48 32.4299 126.02 32.5332 125.577C32.6365 125.134 32.8277 124.716 33.0954 124.348C34.2978 122.773 36.4021 122.544 37.2198 124.119C38.2377 121.649 40.0595 119.594 42.3903 118.288C46.1901 115.979 48.2583 113.923 49.569 110.111Z" fill="#FFBDA7"/>
<path d="M45.7571 121.438C45.7623 121.666 45.697 121.89 45.57 122.079C45.443 122.269 45.2605 122.414 45.0476 122.496C44.9572 122.527 44.8606 122.536 44.766 122.522C44.6714 122.507 44.5818 122.47 44.5048 122.413C44.4279 122.356 44.3659 122.282 44.3243 122.195C44.2827 122.109 44.2627 122.014 44.266 121.919C44.2607 121.691 44.3261 121.467 44.4531 121.277C44.5801 121.088 44.7626 120.942 44.9755 120.861C45.0659 120.829 45.1625 120.82 45.2571 120.835C45.3517 120.849 45.4413 120.887 45.5182 120.943C45.5952 121 45.6572 121.075 45.6988 121.161C45.7404 121.247 45.7604 121.342 45.7571 121.438Z" fill="#37474F"/>
<path d="M45.9494 126.776L47.681 126.897C47.6303 127.161 47.4926 127.4 47.2899 127.577C47.0872 127.753 46.8311 127.857 46.5627 127.871C46.0817 127.835 45.8051 127.317 45.9494 126.776Z" fill="#F7A9A0"/>
<path d="M51.8654 117.349L50.3623 116.64C50.4518 116.407 50.6241 116.216 50.8461 116.103C51.068 115.99 51.324 115.963 51.5648 116.027C51.6724 116.093 51.7656 116.18 51.8391 116.283C51.9126 116.385 51.9649 116.502 51.9929 116.625C52.0208 116.748 52.024 116.876 52.0021 117C51.9802 117.124 51.9338 117.243 51.8654 117.349Z" fill="#37474F"/>
<path d="M43.5923 120.164L45.0955 118.636C45.0157 118.555 44.9197 118.492 44.8138 118.451C44.7078 118.409 44.5943 118.391 44.4807 118.397C44.3671 118.402 44.256 118.432 44.1547 118.484C44.0534 118.535 43.9642 118.608 43.893 118.696C43.6843 118.871 43.541 119.111 43.4864 119.377C43.4318 119.644 43.4691 119.921 43.5923 120.164Z" fill="#37474F"/>
<path d="M51.5164 119.322C51.5234 119.55 51.4588 119.775 51.3316 119.965C51.2043 120.154 51.0209 120.3 50.8069 120.38C50.7155 120.411 50.6178 120.42 50.5222 120.405C50.4266 120.39 50.3362 120.352 50.259 120.294C50.1817 120.235 50.12 120.159 50.0792 120.071C50.0385 119.984 50.02 119.887 50.0253 119.791C50.0218 119.563 50.0879 119.34 50.2146 119.151C50.3414 118.961 50.5229 118.816 50.7348 118.732C50.8262 118.701 50.924 118.692 51.0196 118.707C51.1151 118.722 51.2055 118.76 51.2828 118.818C51.3601 118.877 51.4218 118.953 51.4625 119.041C51.5033 119.129 51.5218 119.225 51.5164 119.322Z" fill="#37474F"/>
<path d="M48.0049 119.802L48.1131 124.576L50.4821 123.157L48.0049 119.802Z" fill="#F7A9A0"/>
<path d="M44.7118 131.538C42.8118 131.779 38.8916 131.622 38.2783 130.131C38.5006 130.864 38.9899 131.486 39.6492 131.875C40.8517 132.645 44.7118 132.813 44.7118 132.813V131.538Z" fill="#F7A9A0"/>
<path d="M32.0244 164.366L31.2188 161.504L33.3352 164.017L32.0244 164.366Z" fill="#437BFA"/>
<path d="M30.4487 164.786C29.5852 160.672 28.4156 156.629 26.9496 152.689C24.9295 147.146 27.1901 142.36 28.5488 141.302C29.9076 140.244 36.8217 137.755 36.8217 137.755C39.3228 144.873 40.0082 154.409 40.0684 162.213L30.4487 164.786Z" fill="#437BFA"/>
<path opacity="0.4" d="M30.4487 164.786C29.5852 160.672 28.4156 156.629 26.9496 152.689C24.9295 147.146 27.1901 142.36 28.5488 141.302C29.9076 140.244 36.8217 137.755 36.8217 137.755C39.3228 144.873 40.0082 154.409 40.0684 162.213L30.4487 164.786Z" fill="black"/>
<path d="M27.0351 165.7L20.169 167.54C19.9771 167.411 19.7961 167.266 19.6279 167.107C19.6279 167.107 22.8746 154.577 23.9087 150.417C24.9428 146.256 25.7364 143.395 28.5261 141.302C33.5403 144.561 31.2196 153.615 31.2196 153.615L27.0351 165.7Z" fill="#437BFA"/>
<path opacity="0.4" d="M27.0351 165.7L20.169 167.54C19.9771 167.411 19.7961 167.266 19.6279 167.107C19.6279 167.107 22.8746 154.577 23.9087 150.417C24.9428 146.256 25.7364 143.395 28.5261 141.302C33.5403 144.561 31.2196 153.615 31.2196 153.615L27.0351 165.7Z" fill="black"/>
</g>
<path d="M278.996 88.8763L269.7 83.5251L274.811 82.4429L279.897 85.9903L278.996 88.8763Z" fill="#B4CAFD"/>
<path d="M262.727 40.982C262.727 26.5526 253.889 19.8549 243.031 26.1197L226.99 35.3786C216.168 41.6434 207.306 58.5258 207.306 73.0034C207.306 73.5926 207.306 74.2058 207.306 74.7229C207.306 75.0475 207.306 75.3241 207.306 75.6367C207.306 75.9494 207.366 76.2019 207.39 76.4785C207.414 76.755 207.462 77.1158 207.51 77.4284C207.752 79.1371 208.179 80.8144 208.785 82.4306C209.037 83.0318 209.302 83.6331 209.59 84.1381C209.724 84.417 209.876 84.6862 210.047 84.9437L210.204 85.1963C210.471 85.627 210.781 86.0298 211.129 86.3987C211.322 86.6151 211.502 86.8436 211.707 87.048L212.332 87.6493C212.548 87.8176 212.753 88.022 212.981 88.1904C213.197 88.3643 213.426 88.5211 213.667 88.6593L214.376 89.0682C215.295 89.5642 216.291 89.9016 217.322 90.0662C217.401 90.0468 217.484 90.0468 217.563 90.0662C217.839 90.0662 218.092 90.1263 218.368 90.1263C218.66 90.1504 218.954 90.1504 219.246 90.1263C220.019 90.1347 220.79 90.0499 221.543 89.8738C221.993 89.7842 222.439 89.6719 222.877 89.5371C224.283 89.1066 225.631 88.5092 226.894 87.7575L242.934 78.4986C244.034 77.8602 245.086 77.145 246.085 76.3582C246.085 76.1658 246.085 75.9975 246.085 75.8171C246.085 75.6367 246.085 75.252 246.085 75.0355C246.085 74.5545 246.085 74.0615 246.085 73.5685C246.049 61.2674 253.456 46.7538 262.727 40.982Z" fill="#B4CAFD"/>
<path d="M265.433 30.5819L256.113 25.2188C256.173 25.2188 257.063 31.7003 257.063 31.7003L263.978 32.518L265.433 30.5819Z" fill="#B4CAFD"/>
<path d="M222.373 93.602L213.763 88.7198L218.946 86.4951L222.373 93.602Z" fill="#B4CAFD"/>
<path d="M226.99 87.9021C226.928 91.4657 225.783 94.9261 223.707 97.8228C223.322 98.3279 223.911 98.7728 224.344 98.5443C226.309 97.5244 228.051 96.1221 229.467 94.4197C232.187 91.2054 234.088 87.3809 235.01 83.2725L226.99 87.9021Z" fill="#B4CAFD"/>
<path d="M223.803 98.5202L233.122 103.883C233.122 103.883 238.353 99.4702 238.353 90.5355L228.24 89.8501C228.24 89.8501 227.999 95.6703 223.803 98.5202Z" fill="#B4CAFD"/>
<path d="M248.622 72.2344C248.622 72.6833 248.622 73.1162 248.622 73.5331C248.622 73.7736 248.622 73.978 248.622 74.2064C248.622 74.4349 248.622 74.6273 248.694 74.8437C248.766 75.0602 248.694 75.3247 248.778 75.5652C248.918 76.6304 249.168 77.6782 249.524 78.6916C249.575 78.8762 249.64 79.057 249.716 79.2327C249.804 79.4743 249.904 79.7111 250.017 79.9421C250.111 80.1656 250.219 80.3825 250.342 80.5915C250.437 80.801 250.549 81.0021 250.678 81.1927L250.799 81.3851C251.01 81.7163 251.243 82.0336 251.496 82.335C251.627 82.5103 251.772 82.6752 251.929 82.828L252.386 83.2729C252.542 83.4192 252.706 83.5557 252.879 83.6818C253.043 83.8091 253.216 83.9256 253.396 84.0305C253.576 84.1387 253.745 84.2469 253.937 84.3431L254.49 84.6077L255.067 84.8121C255.419 84.9186 255.776 85.0069 256.137 85.0766H256.318C256.518 85.095 256.719 85.095 256.919 85.0766C257.135 85.1011 257.353 85.1011 257.568 85.0766C258.085 85.0764 258.601 85.0241 259.107 84.9203C259.513 84.8515 259.915 84.7591 260.31 84.6437C261.365 84.3203 262.379 83.8722 263.328 83.309L275.353 76.3588C276.425 75.7398 277.436 75.019 278.371 74.2064C278.707 73.9179 279.044 73.6052 279.381 73.2926C279.987 72.7279 280.561 72.1298 281.1 71.5009L281.87 70.8035C282.074 70.563 282.267 70.3105 282.471 70.058C282.521 69.9706 282.582 69.8898 282.652 69.8175C283.452 68.7588 284.191 67.6547 284.864 66.5107C285.044 66.2101 285.213 65.8975 285.393 65.5849C285.573 65.2722 285.742 64.9596 285.91 64.6349C286.078 64.3103 286.235 63.9856 286.403 63.6729L286.86 62.6869C287.016 62.3623 287.161 62.0136 287.305 61.7009C287.558 61.1237 287.786 60.4985 287.99 59.9453C287.99 59.8371 288.075 59.7289 288.111 59.6207C288.243 59.284 288.351 58.9473 288.459 58.6106C288.676 57.9613 288.868 57.312 289.061 56.6386C289.484 55.0582 289.801 53.4514 290.011 51.8288C290.011 51.5522 290.071 51.2877 290.107 51.0111C290.143 50.7345 290.107 50.5421 290.167 50.3017C290.227 50.0612 290.167 49.8207 290.167 49.5802C290.167 49.1313 290.167 48.6864 290.167 48.2455C290.167 37.4234 283.541 32.361 275.389 37.0626L263.364 44.0249C255.248 48.7024 248.622 61.3642 248.622 72.2344Z" fill="#B4CAFD"/>
<path d="M294.508 41.6798L285.261 36.3647L281.773 38.8299L292.56 45.3595L294.508 41.6798Z" fill="#B4CAFD"/>
<path d="M262.763 89.3812L253.468 84.0301L260.755 81.8535L262.763 89.3812Z" fill="#B4CAFD"/>
<path d="M273.608 77.5249C273.608 79.4489 276.013 82.0704 278.767 82.5634C279.14 82.6356 279.043 83.4533 278.598 83.7659C276.957 84.6573 275.064 84.9708 273.223 84.6558C272.028 84.6201 270.863 84.2673 269.849 83.6334C268.835 82.9995 268.007 82.1073 267.451 81.0483L273.608 77.5249Z" fill="#437BFA"/>
<path d="M252.338 31.4709L236.285 40.7419C225.463 47.0066 216.613 63.8891 216.613 78.3546C216.613 78.9558 216.613 79.5571 216.613 80.0862C216.613 80.4108 216.613 80.6874 216.613 81C216.613 81.3127 216.673 81.5531 216.709 81.8297C216.746 82.1063 216.782 82.4911 216.83 82.7917C217.047 84.494 217.45 86.1675 218.032 87.7819C218.285 88.3951 218.549 88.9843 218.838 89.5014C218.97 89.7767 219.123 90.042 219.295 90.295C219.345 90.3828 219.401 90.4671 219.463 90.5475C219.724 91.0019 220.03 91.4289 220.377 91.8221C220.569 92.0385 220.762 92.279 220.966 92.4714L221.579 93.0727C221.796 93.241 222.012 93.4454 222.229 93.6138C222.447 93.785 222.676 93.9417 222.914 94.0827L223.636 94.4915C224.551 94.9856 225.543 95.323 226.57 95.4896C226.648 95.463 226.732 95.463 226.81 95.4896C227.087 95.4896 227.351 95.4896 227.616 95.4896C227.908 95.5074 228.201 95.5074 228.493 95.4896C229.266 95.4929 230.037 95.4082 230.79 95.2371C231.241 95.1475 231.686 95.0351 232.125 94.9004C233.527 94.4663 234.874 93.8732 236.141 93.1328C236.082 96.6947 234.932 100.153 232.846 103.041C232.462 103.558 233.051 104.003 233.496 103.774C235.464 102.754 237.206 101.347 238.618 99.638C241.331 96.4237 243.232 92.6051 244.162 88.5033L242.959 89.1647L252.134 83.8739C253.022 83.3622 253.877 82.796 254.695 82.1784C254.624 81.8732 254.572 81.564 254.539 81.2525C254.539 81.0481 254.467 80.7475 254.442 80.4349C254.399 80.1682 254.371 79.8992 254.358 79.6292V79.4849C254.346 79.2847 254.346 79.0839 254.358 78.8837C254.358 78.4268 254.358 77.9458 254.358 77.4648C254.358 65.296 261.573 51.576 270.856 46.201L271.878 45.5998C271.782 31.6874 263.04 25.2903 252.338 31.4709Z" fill="#F0F0F0"/>
<path d="M284.744 42.3889L272.72 49.3391C264.579 54.0527 257.941 66.7145 257.941 77.5847C257.941 78.0296 257.941 78.4625 257.941 78.8833C257.941 79.3042 257.941 79.3283 257.941 79.5567C257.941 79.7852 257.941 79.9776 258.002 80.194C258.021 80.432 258.053 80.6689 258.098 80.9035C258.23 81.9739 258.48 83.0264 258.843 84.0419C258.889 84.2282 258.954 84.4094 259.036 84.583C259.117 84.8213 259.214 85.0542 259.324 85.2804C259.42 85.5066 259.529 85.7273 259.649 85.9417C259.748 86.1516 259.865 86.3527 259.998 86.543C260.026 86.6112 260.062 86.6758 260.106 86.7354C260.334 87.0721 260.563 87.3847 260.803 87.6853C260.942 87.8579 261.091 88.0225 261.248 88.1783L261.705 88.6232C261.861 88.7694 262.026 88.906 262.198 89.0321C262.357 89.1619 262.526 89.2785 262.703 89.3808C262.883 89.489 263.052 89.5972 263.244 89.6934L263.797 89.9579L264.375 90.1624C264.726 90.2689 265.084 90.3572 265.445 90.4269H265.625C265.825 90.4452 266.026 90.4452 266.226 90.4269C266.446 90.4574 266.668 90.4574 266.888 90.4269C267.404 90.4299 267.92 90.3815 268.427 90.2826C268.832 90.2128 269.234 90.1205 269.629 90.006C270.686 89.6871 271.7 89.2388 272.647 88.6713L276.712 86.3386C277.275 87.3863 278.106 88.2663 279.12 88.8893C280.134 89.5123 281.294 89.8561 282.483 89.8858C284.326 90.1961 286.219 89.8785 287.858 88.984C288.291 88.7074 288.4 87.8897 288.015 87.7815C285.261 87.2885 282.868 84.6672 282.868 82.7432L284.696 81.6851C285.767 81.0631 286.777 80.3425 287.714 79.5327C288.051 79.2441 288.388 78.9314 288.712 78.6188C289.322 78.0543 289.9 77.4561 290.444 76.8272C290.66 76.5746 290.877 76.3341 291.093 76.0456C291.31 75.757 291.49 75.5646 291.694 75.3121L291.875 75.0716C292.675 74.0129 293.414 72.9088 294.087 71.7648L294.628 70.8389C294.809 70.5263 294.977 70.2137 295.145 69.889C295.314 69.5643 295.458 69.2397 295.626 68.927L296.095 67.941C296.252 67.6043 296.384 67.2676 296.528 66.955C296.781 66.3778 297.021 65.7525 297.226 65.1994L297.334 64.8748C297.466 64.5381 297.586 64.2014 297.682 63.8647C297.911 63.2034 298.091 62.566 298.296 61.8927C298.719 60.3123 299.036 58.7054 299.246 57.0829C299.246 56.8063 299.306 56.5418 299.33 56.2652C299.354 55.9886 299.33 55.7842 299.39 55.5557C299.45 55.3273 299.39 55.0748 299.39 54.8343C299.39 54.3894 299.39 53.9324 299.39 53.4875C299.522 42.7015 292.885 37.6873 284.744 42.3889Z" fill="#F0F0F0"/>
<path d="M188.14 201.45C183.594 200.031 178.929 203.711 175.875 211.142C172.82 218.573 166.411 237.476 165.461 242.514C164.511 247.552 186.011 258.519 185.41 258.23C184.809 257.942 188.14 201.45 188.14 201.45Z" fill="#263238"/>
<path d="M178.146 376.36C177.497 376.6 177.34 377.827 177.244 380.256C177.172 382.096 176.775 385.306 178.928 385.944C181.08 386.581 184.243 386.256 185.626 384.525C187.345 382.36 188.512 380.46 190.965 377.815C193.105 375.53 195.402 373.389 196.268 370.179C197.049 367.269 196.4 366.018 194.416 365.176C191.698 363.974 187.417 367.798 185.289 368.399C183.449 368.916 178.783 376.119 178.146 376.36Z" fill="#263238"/>
<path d="M178.146 374.111V377.093C179.266 377.809 180.56 378.207 181.888 378.243C183.216 378.279 184.53 377.952 185.686 377.298C185.819 377.009 186.468 373.029 186.468 373.029L178.146 374.111Z" fill="#FFBDA7"/>
<path d="M202.304 393.554C202.304 393.554 201.45 396.151 200.993 398.364C200.621 400.168 200.103 403.174 200.729 404.545C201.354 405.915 203.831 406.781 207.643 406.745C210.12 406.745 213.98 408.417 216.613 409.884C219.247 411.351 225.03 412.012 227.904 411.675C231.295 411.278 234.818 409.27 235.371 407.899C235.925 406.529 235.191 405.026 227.183 401.611C227.111 401.611 216.048 398.003 212.164 393.711L202.304 393.554Z" fill="#263238"/>
<path d="M202.303 390.332C202.303 390.332 202.303 392.544 202.303 393.807C202.303 395.069 203.794 396.957 207.666 396.825C210.384 396.729 212.272 395.995 212.163 393.759V390.524L202.303 390.332Z" fill="#FFBDA7"/>
<path d="M176.199 334.514C176.863 329.229 178.043 324.021 179.722 318.966C179.722 318.966 178.664 305.559 178.147 292.849C177.594 279.117 178.147 261.849 177.918 258.434C177.918 258.434 222.229 249.464 223.022 265.337C223.816 281.209 221.267 321.611 220.75 328.586C220.233 335.56 219.018 341.728 217.575 353.032C216.132 364.335 212.164 390.524 212.164 390.524C210.631 391.305 208.93 391.696 207.21 391.663C205.49 391.629 203.805 391.172 202.304 390.332C202.304 390.332 199.19 358.587 199.514 350.542C199.768 344.567 200.794 338.65 202.568 332.939L200.993 308.469C200.248 297.081 199.466 291.634 199.286 286.668L198.336 286.187C198.336 286.187 197.362 305.835 196.845 312.809C196.328 319.784 195.209 326.469 193.237 339.42C191.482 350.651 186.275 374.423 186.275 374.423C181.213 377.165 178.195 374.074 178.195 374.074C178.195 374.074 174.852 344.254 176.199 334.514Z" fill="#455A64"/>
<path d="M199.286 286.704C199.286 286.704 188.536 281.401 183.161 276.627C183.161 276.627 188.151 283.662 194.717 286.788C194.717 286.788 197.049 311.186 197.037 310.705L198.384 286.656L199.286 286.704Z" fill="#37474F"/>
<path d="M208.858 196.424L206.236 210.854L193.201 209.904L195.931 193.538L208.858 196.424Z" fill="#FFBDA7"/>
<path d="M179.434 208.845C180.72 204.925 185.698 200.656 190.676 201.63C198.08 202.883 205.377 204.704 212.501 207.077C217.058 208.701 221.207 212.645 221.592 227.651L223.9 272.335L218.381 273.537L216.457 263.412L215.567 273.537C209.795 274.98 199.779 273.79 193.202 272.335C179.494 269.34 177.846 263.653 177.846 263.653C177.846 263.653 177.666 238.51 178.075 227.651C178.46 218.368 178.544 211.49 179.434 208.845Z" fill="#37474F"/>
<path d="M218.502 179.325C218.502 179.325 221.665 184.003 221.256 184.496C220.525 184.989 219.71 185.343 218.851 185.542L218.502 179.325Z" fill="#FFBDA7"/>
<path d="M208.857 164.511C211.899 166.05 217.154 168.888 218.597 180.011C220.088 191.434 218.128 195.114 216.589 196.629C215.542 197.651 209.867 197.711 207.029 196.857C203.422 195.787 195.461 192.745 191.806 186.877C187.501 179.975 186.539 170.728 191.397 167.048C198.215 161.878 206.284 163.212 208.857 164.511Z" fill="#FFBDA7"/>
<path d="M219.234 168.334C218.236 171.076 216.553 177.786 209.555 180.587C209.555 180.587 208.557 176.307 204.961 176.764C201.366 177.221 200.753 181.802 202.965 184.652C205.178 187.501 207.318 186.467 207.318 186.467C207.318 186.467 207.799 192.6 203.711 195.378C203.711 195.378 198.769 198.504 193.538 196.099C191.133 195.017 187.85 189.377 185.902 184.748C181.766 174.96 181.177 167.108 187.418 164.631C188.187 160.182 190.195 158.51 194.223 157.681C202.893 155.889 209.446 161.589 216.733 160.591C220.545 160.061 220.377 165.208 219.234 168.334Z" fill="#37474F"/>
<path d="M187.273 166.122L183.185 163.597C183.343 163.313 183.557 163.065 183.814 162.867C184.071 162.668 184.366 162.524 184.68 162.443C184.994 162.361 185.321 162.344 185.642 162.393C185.963 162.441 186.271 162.554 186.547 162.725C186.824 162.895 187.062 163.12 187.249 163.385C187.436 163.65 187.568 163.951 187.636 164.268C187.703 164.586 187.706 164.914 187.644 165.232C187.582 165.551 187.455 165.853 187.273 166.122Z" fill="#37474F"/>
<path d="M207.897 201.678L209.388 205.995C209.388 205.995 208.293 207.919 203.64 208.015C198.986 208.112 194.02 206.633 192.48 204.648C192.13 204.26 191.87 203.798 191.721 203.297C191.571 202.796 191.535 202.267 191.615 201.75C191.615 201.75 193.466 197.662 195.222 197.842L194.934 199.622C194.934 199.622 195.33 201.077 199.551 202.195C206.117 203.939 207.897 201.678 207.897 201.678Z" fill="#455A64"/>
<path d="M245.291 230.369C247.167 228.217 247.888 223.443 250.389 220.172C252.891 216.901 253.816 214.509 254.802 215.939C256.113 217.827 253.155 221.615 253.816 221.952C254.478 222.288 256.919 227.315 257.171 230.08C257.424 232.846 250.089 239.82 250.089 239.82L245.291 230.369Z" fill="#FFBDA7"/>
<path d="M207.896 201.679C208.198 201.673 208.497 201.749 208.759 201.9C209.022 202.05 209.239 202.269 209.387 202.533C210.122 203.861 210.78 205.23 211.359 206.633L209.387 205.996L207.896 201.679Z" fill="#455A64"/>
<path d="M253.613 221.568C253.613 221.568 262.476 220.798 263.762 221.568C265.049 222.337 264.664 226.173 263.762 228.53C262.861 230.887 258.339 232.414 254.142 235.252C254.142 234.819 253.613 221.568 253.613 221.568Z" fill="#FFBDA7"/>
<path d="M211.359 206.681C215.171 208.015 218.501 209.543 222.061 216.228C226.63 224.814 235.288 238.546 235.288 238.546L245.256 229.756C245.256 229.756 246.759 228.301 249.561 232.93C250.382 234.176 250.901 235.597 251.079 237.078C251.256 238.56 251.086 240.063 250.583 241.468C250.583 241.468 239.075 254.971 236.875 257.027C234.674 259.084 231.031 257.484 228.662 254.25C226.293 251.015 211.323 232.317 211.323 232.317C211.323 232.317 203.194 221.519 211.359 206.681Z" fill="#37474F"/>
<path d="M314.18 184.231H285.791C284.719 184.231 283.691 183.805 282.934 183.048C282.176 182.29 281.75 181.262 281.75 180.191V135.087C281.75 131.537 283.16 128.133 285.67 125.623C288.18 123.113 291.584 121.703 295.134 121.703H304.873C308.417 121.713 311.812 123.127 314.314 125.636C316.816 128.145 318.221 131.543 318.221 135.087V180.191C318.221 181.262 317.795 182.29 317.037 183.048C316.28 183.805 315.252 184.231 314.18 184.231Z" fill="#37474F"/>
<path d="M281.006 168.84C278.252 176.956 273.635 200.308 273.635 200.308C273.635 200.308 264.015 212.068 260.877 214.918C259.157 216.505 255.285 219.355 255.285 219.355L262.319 224.525C268.671 219.64 274.636 214.273 280.164 208.473C281.393 207.164 282.256 205.555 282.665 203.807L287.475 183.173C287.475 183.173 287.475 166.579 290.012 164.403C292.549 162.226 293.283 161.769 293.283 161.769C290.024 161.529 283.17 162.455 281.006 168.84Z" fill="#F7A9A0"/>
<path d="M294.784 161.529C290.299 161.012 284.551 161.108 281.749 166.122C278.948 171.136 274.282 197.061 274.282 197.061C274.282 197.061 278.695 200.488 283.457 200.428L294.784 161.529Z" fill="#437BFA"/>
<path d="M282.315 185.686C283.122 189.551 283.433 193.503 283.241 197.446C282.892 202.641 279.309 211.707 279.309 211.707C279.309 211.707 282.11 214.785 290.01 213.547C296.444 212.549 294.171 193.105 290.479 189.378C288.326 187.153 285.407 185.833 282.315 185.686Z" fill="#437BFA"/>
<path opacity="0.3" d="M282.315 185.686C283.122 189.551 283.433 193.503 283.241 197.446C282.892 202.641 279.309 211.707 279.309 211.707C279.309 211.707 282.11 214.785 290.01 213.547C296.444 212.549 294.171 193.105 290.479 189.378C288.326 187.153 285.407 185.833 282.315 185.686Z" fill="black"/>
<path d="M297.177 323.006C297.229 323.893 297.006 324.774 296.54 325.531C295.351 327.496 293.952 329.327 292.368 330.99C290.143 333.395 286.812 336.221 284.419 338.301C283.097 339.504 283.049 341.211 284.949 341.824C288.49 342.687 292.227 342.166 295.398 340.369C297.803 339.095 301.146 333.155 303.118 332.313C305.39 331.291 306.653 330.786 307.422 329.74C308.004 329.145 308.367 328.371 308.453 327.543C308.538 326.715 308.34 325.883 307.891 325.182C306.821 323.186 305.21 320.12 304.549 320.469L304.753 321.094C304.236 322.717 299.811 324.605 297.538 324.16L297.177 323.006Z" fill="#37474F"/>
<path d="M320.349 255.164C321.371 244.342 324.305 226.93 321.299 214.04L281.377 216.156C280.271 228.866 278.973 268.547 280.367 273.093C281.979 278.456 296.372 315.575 297.202 323.042C297.259 323.919 297.036 324.791 296.564 325.532C295.376 327.501 293.977 329.336 292.392 331.003C291.31 332.205 289.987 333.408 288.592 334.61C288.475 334.782 288.405 334.98 288.388 335.187C288.388 336.39 291.418 336.762 293.198 336.245C295.417 335.462 297.329 333.992 298.657 332.049C299.679 330.69 301.975 328.081 303.467 326.121C303.964 325.516 304.388 324.854 304.729 324.149C305.127 323.268 305.196 322.274 304.922 321.347L304.825 321.046C304.045 318.612 303.561 316.093 303.382 313.543C302.829 305.354 301.422 286.44 300.124 281.402C299.222 277.73 297.852 274.19 296.047 270.868L300.605 235.408C300.605 235.408 301.086 266.671 302.505 274.644C303.623 281.029 304.056 289.013 305.366 299.967C306.569 310.453 307.964 328.922 307.964 328.922C308 328.929 308.036 328.929 308.072 328.922V337.748H315.539V332.626C315.539 330.313 315.732 328.005 316.116 325.724C317.319 318.75 319.82 302.793 320.337 297.394C321.155 288.833 318.064 278.071 318.064 278.071C318.064 278.071 319.351 265.722 320.349 255.164Z" fill="#FFBDA7"/>
<path d="M306.28 161.901C306.28 161.901 317.018 163.104 318.305 163.717C308.228 170.8 316.393 186.564 316.393 186.564L312.533 198.672C316.826 204.168 320.529 207.438 322.826 213.463C325.375 220.196 327.636 230.213 327.035 250.739C317.415 257.953 288.147 257.172 276.748 250.739C276.748 250.739 278.672 232.618 280.945 218.537C282.448 209.242 285.995 199.117 285.394 195.69C280.872 181.79 280.584 179.289 281.402 176.187C283.65 167.457 292.548 161.553 294.737 161.553L306.28 161.901Z" fill="#437BFA"/>
<path opacity="0.6" d="M306.28 161.901C306.28 161.901 317.018 163.104 318.305 163.717C308.228 170.8 316.393 186.564 316.393 186.564L312.533 198.672C316.826 204.168 320.529 207.438 322.826 213.463C325.375 220.196 327.636 230.213 327.035 250.739C317.415 257.953 288.147 257.172 276.748 250.739C276.748 250.739 278.672 232.618 280.945 218.537C282.448 209.242 285.995 199.117 285.394 195.69C280.872 181.79 280.584 179.289 281.402 176.187C283.65 167.457 292.548 161.553 294.737 161.553L306.28 161.901Z" fill="white"/>
<path d="M308 334.009V332.939C307.062 336.534 305.186 339.817 302.564 342.45C300.159 344.627 296.913 347.152 296.071 349.593C295.229 352.034 299.931 353.129 303.033 352.816C306.04 352.449 308.81 351 310.826 348.74C312.798 346.479 312.762 344.94 313.676 343.689C314.59 342.438 316.718 341.067 317.211 339.624C317.365 338.278 317.217 336.914 316.778 335.632C316.429 334.297 316.045 332.818 315.576 332.939V333.768C314.494 334.62 313.152 335.074 311.776 335.055C310.73 335.079 307.988 334.851 308 334.009Z" fill="#37474F"/>
<path d="M315.539 333.745C314.457 334.596 313.116 335.05 311.739 335.031C310.633 335.031 307.94 334.851 307.952 334.009V332.939C307.014 336.535 305.138 339.817 302.516 342.451L300.7 344.074C299.426 345.493 299.787 346.732 302.781 346.984C305.775 347.237 308.409 345.433 310.669 342.655C312.597 339.862 314.229 336.875 315.539 333.745Z" fill="#FFBDA7"/>
<path d="M287.738 129.074C285.814 130.217 283.433 135.086 283.662 145.211C283.866 153.821 286.656 155.949 288.063 156.562C289.47 157.176 292.163 156.803 294.784 156.37V161.528C294.784 161.528 291.177 165.749 291.382 168.118C291.586 170.487 296.624 171.04 300.027 168.731C302.484 166.826 304.599 164.516 306.28 161.901L306.22 150.033C306.22 150.033 307.771 151.524 310.392 149.239C312.557 147.352 313.278 144.153 311.595 142.445C311.158 142.035 310.629 141.734 310.052 141.569C309.475 141.404 308.867 141.379 308.279 141.497C307.69 141.615 307.139 141.871 306.67 142.245C306.201 142.62 305.828 143.1 305.583 143.648C305.583 143.648 304.128 139.596 298.079 137.636C292.62 135.82 289.65 133.764 287.738 129.074Z" fill="#FFBDA7"/>
<path d="M293.282 143.06C293.282 143.272 293.345 143.479 293.462 143.656C293.579 143.832 293.745 143.971 293.94 144.054C294.135 144.137 294.35 144.161 294.559 144.123C294.767 144.085 294.96 143.987 295.113 143.84C295.266 143.694 295.373 143.505 295.42 143.299C295.467 143.092 295.452 142.876 295.378 142.678C295.303 142.479 295.172 142.307 295 142.183C294.829 142.058 294.624 141.987 294.413 141.977C294.267 141.974 294.123 142 293.987 142.052C293.852 142.105 293.728 142.184 293.623 142.284C293.518 142.385 293.434 142.505 293.376 142.638C293.317 142.771 293.285 142.914 293.282 143.06Z" fill="#37474F"/>
<path d="M292.993 150.346L290.479 151.151C290.524 151.319 290.601 151.476 290.708 151.613C290.814 151.75 290.947 151.864 291.099 151.948C291.251 152.033 291.418 152.085 291.59 152.103C291.763 152.121 291.937 152.104 292.103 152.053C292.442 151.938 292.724 151.696 292.89 151.378C293.055 151.06 293.092 150.69 292.993 150.346Z" fill="#F7A9A0"/>
<path d="M284.407 139.728L286.596 138.213C286.504 138.065 286.382 137.937 286.239 137.838C286.095 137.739 285.933 137.669 285.762 137.634C285.591 137.599 285.415 137.6 285.244 137.635C285.073 137.671 284.911 137.74 284.768 137.84C284.475 138.047 284.274 138.359 284.206 138.711C284.139 139.064 284.211 139.428 284.407 139.728Z" fill="#37474F"/>
<path d="M296.432 140.546L294.231 139.031C294.324 138.883 294.446 138.756 294.589 138.656C294.732 138.556 294.893 138.487 295.064 138.451C295.234 138.415 295.41 138.414 295.581 138.447C295.752 138.481 295.915 138.548 296.059 138.646C296.35 138.857 296.551 139.17 296.62 139.523C296.689 139.875 296.622 140.241 296.432 140.546Z" fill="#37474F"/>
<path d="M284.912 142.266C284.91 142.478 284.97 142.687 285.086 142.865C285.201 143.043 285.367 143.184 285.562 143.269C285.756 143.354 285.972 143.379 286.181 143.343C286.39 143.306 286.584 143.209 286.738 143.063C286.893 142.917 287.001 142.728 287.049 142.521C287.097 142.314 287.083 142.098 287.008 141.899C286.934 141.7 286.803 141.527 286.631 141.402C286.46 141.277 286.255 141.205 286.043 141.196C285.751 141.189 285.469 141.298 285.257 141.498C285.046 141.699 284.922 141.974 284.912 142.266Z" fill="#37474F"/>
<path d="M290.011 141.652L289.842 148.17L286.415 147.112L290.011 141.652Z" fill="#F7A9A0"/>
<path d="M294.784 156.371C297.55 155.998 303.202 154.362 304.14 152.114C303.783 153.253 303.086 154.256 302.144 154.988C300.436 156.443 294.784 158.09 294.784 158.09V156.371Z" fill="#F7A9A0"/>
<path d="M314.396 192.071L306.809 202.341L312.533 198.673L314.396 192.071Z" fill="#437BFA"/>
<path d="M254.623 219.355C253 221.447 252.002 225.512 251.148 226.882C250.294 228.253 249.272 229.444 251.148 229.696C253.024 229.949 255.766 226.281 256.788 224.056C257.306 222.802 258.282 221.791 259.518 221.231C258.64 220.93 259.097 217.407 258.483 216.914C258.483 216.914 255.285 218.224 254.623 219.355Z" fill="#F7A9A0"/>
<path d="M254.143 235.228C255.838 233.965 255.898 232.414 256.223 229.949C256.548 227.483 263.342 224.814 263.558 226.654C263.775 228.494 264.388 230.033 262.356 232.269C260.323 234.506 257.245 236.887 254.143 235.228Z" fill="#F7A9A0"/>
<path d="M306.28 161.902C306.28 161.902 316.332 162.78 318.304 163.718C320.276 164.655 323.559 170.331 320.625 178.568C317.691 186.805 315.022 196.496 315.322 198.444C315.623 200.392 322.633 210.469 322.633 210.469C320.699 211.897 318.512 212.945 316.188 213.559L312.581 205.719L313.422 214.052C309.799 214.933 306.076 215.338 302.348 215.255C302.348 215.255 298.945 183.245 306.28 161.902Z" fill="#437BFA"/>
<path d="M331.051 201.162C331.857 196.424 331.051 194.873 329.392 190.231L320.974 195.679C321.665 197.431 322.071 199.282 322.177 201.162C322.105 202.533 320.241 216.12 318.497 220.858C318.183 221.7 317.566 222.395 316.766 222.806C315.032 223.865 313.461 225.169 312.1 226.678C310.814 227.88 309.78 228.097 309.912 228.506C310.111 228.949 310.466 229.303 310.91 229.501C311.353 229.698 311.854 229.725 312.317 229.576C313.364 229.236 314.369 228.776 315.311 228.205C314.476 229.973 313.364 231.597 312.016 233.015C308.926 236.309 308.649 238.45 314.421 238.895C318.028 239.171 321.047 237.151 324.305 229.395C325.315 226.552 326.146 223.649 326.794 220.702C328.55 213.98 330.257 205.935 331.051 201.162Z" fill="#FFBDA7"/>
<path d="M318.305 163.717C322.357 165.533 323.512 169.116 325.015 174.383C326.518 179.649 331.231 195.45 331.231 195.45C331.231 195.45 327.191 200.259 321.612 198.913L314.397 181.393C314.397 181.393 311.03 169.958 318.305 163.717Z" fill="#437BFA"/>
</svg>
