<svg width="984" height="486" viewBox="0 0 984 486" fill="none" xmlns="http://www.w3.org/2000/svg">
<path d="M217.998 243.178L472.195 243.178L433.962 274.5L227.462 462L217.998 243.178Z" fill="#407BFF"/>
<path d="M431.048 79.341L685.245 79.341L647.011 110.664L438.773 305.352L431.048 79.341Z" fill="#407BFF"/>
<path d="M655.1 78.9366L844.1 78.9366L896.759 268.937L837.259 342.437L707.259 481.382L655.1 78.9366Z" fill="#407BFF"/>
<path d="M437.048 264.341L691.245 264.341L653.011 295.664L445 485L437.048 264.341Z" fill="#407BFF"/>
<path d="M213.971 79.0982L473.716 79.0985L435.483 110.421L227.245 305.109L213.971 79.0982Z" fill="#407BFF"/>
<path d="M300.621 288.779C300.621 505.954 194.337 480.279 108.488 480.279C-151.512 480.279 137.488 349.187 137.488 238.454C137.488 127.721 1.4882 59.9543 159.489 79.2789C254.621 56.7789 300.621 178.046 300.621 288.779Z" fill="#5377F2"/>
</svg>
